  0
SECTION
  2
HEADER
  9
$ACADVER
  1
AC1027
  9
$ACADMAINTVER
 70
   125
  9
$DWGCODEPAGE
  3
ANSI_1252
  9
$REQUIREDVERSIONS
160
                 0
  9
$INSBASE
 10
0.0
 20
0.0
 30
0.0
  9
$EXTMIN
 10
1.000000000000000E+20
 20
1.000000000000000E+20
 30
1.000000000000000E+20
  9
$EXTMAX
 10
-1.000000000000000E+20
 20
-1.000000000000000E+20
 30
-1.000000000000000E+20
  9
$LIMMIN
 10
0.0
 20
0.0
  9
$LIMMAX
 10
12.0
 20
9.0
  9
$ORTHOMODE
 70
     0
  9
$REGENMODE
 70
     1
  9
$FILLMODE
 70
     1
  9
$QTEXTMODE
 70
     0
  9
$MIRRTEXT
 70
     0
  9
$LTSCALE
 40
1.0
  9
$ATTMODE
 70
     1
  9
$TEXTSIZE
 40
0.2
  9
$TRACEWID
 40
0.05
  9
$TEXTSTYLE
  7
Standard
  9
$CLAYER
  8
0
  9
$CELTYPE
  6
ByLayer
  9
$CECOLOR
 62
   256
  9
$CELTSCALE
 40
1.0
  9
$DISPSILH
 70
     0
  9
$DIMSCALE
 40
1.0
  9
$DIMASZ
 40
0.18
  9
$DIMEXO
 40
0.0625
  9
$DIMDLI
 40
0.38
  9
$DIMRND
 40
0.0
  9
$DIMDLE
 40
0.0
  9
$DIMEXE
 40
0.18
  9
$DIMTP
 40
0.0
  9
$DIMTM
 40
0.0
  9
$DIMTXT
 40
0.18
  9
$DIMCEN
 40
0.09
  9
$DIMTSZ
 40
0.0
  9
$DIMTOL
 70
     0
  9
$DIMLIM
 70
     0
  9
$DIMTIH
 70
     1
  9
$DIMTOH
 70
     1
  9
$DIMSE1
 70
     0
  9
$DIMSE2
 70
     0
  9
$DIMTAD
 70
     0
  9
$DIMZIN
 70
     0
  9
$DIMBLK
  1

  9
$DIMASO
 70
     1
  9
$DIMSHO
 70
     1
  9
$DIMPOST
  1

  9
$DIMAPOST
  1

  9
$DIMALT
 70
     0
  9
$DIMALTD
 70
     2
  9
$DIMALTF
 40
25.4
  9
$DIMLFAC
 40
1.0
  9
$DIMTOFL
 70
     0
  9
$DIMTVP
 40
0.0
  9
$DIMTIX
 70
     0
  9
$DIMSOXD
 70
     0
  9
$DIMSAH
 70
     0
  9
$DIMBLK1
  1

  9
$DIMBLK2
  1

  9
$DIMSTYLE
  2
Standard
  9
$DIMCLRD
 70
     0
  9
$DIMCLRE
 70
     0
  9
$DIMCLRT
 70
     0
  9
$DIMTFAC
 40
1.0
  9
$DIMGAP
 40
0.09
  9
$DIMJUST
 70
     0
  9
$DIMSD1
 70
     0
  9
$DIMSD2
 70
     0
  9
$DIMTOLJ
 70
     1
  9
$DIMTZIN
 70
     0
  9
$DIMALTZ
 70
     0
  9
$DIMALTTZ
 70
     0
  9
$DIMUPT
 70
     0
  9
$DIMDEC
 70
     4
  9
$DIMTDEC
 70
     4
  9
$DIMALTU
 70
     2
  9
$DIMALTTD
 70
     2
  9
$DIMTXSTY
  7
Standard
  9
$DIMAUNIT
 70
     0
  9
$DIMADEC
 70
     0
  9
$DIMALTRND
 40
0.0
  9
$DIMAZIN
 70
     0
  9
$DIMDSEP
 70
    46
  9
$DIMATFIT
 70
     3
  9
$DIMFRAC
 70
     0
  9
$DIMLDRBLK
  1

  9
$DIMLUNIT
 70
     2
  9
$DIMLWD
 70
    -2
  9
$DIMLWE
 70
    -2
  9
$DIMTMOVE
 70
     0
  9
$DIMFXL
 40
1.0
  9
$DIMFXLON
 70
     0
  9
$DIMJOGANG
 40
0.7853981633974483
  9
$DIMTFILL
 70
     0
  9
$DIMTFILLCLR
 70
     0
  9
$DIMARCSYM
 70
     0
  9
$DIMLTYPE
  6

  9
$DIMLTEX1
  6

  9
$DIMLTEX2
  6

  9
$DIMTXTDIRECTION
 70
     0
  9
$LUNITS
 70
     2
  9
$LUPREC
 70
     4
  9
$SKETCHINC
 40
0.1
  9
$FILLETRAD
 40
0.0
  9
$AUNITS
 70
     0
  9
$AUPREC
 70
     0
  9
$MENU
  1
.
  9
$ELEVATION
 40
0.0
  9
$PELEVATION
 40
0.0
  9
$THICKNESS
 40
0.0
  9
$LIMCHECK
 70
     0
  9
$CHAMFERA
 40
0.0
  9
$CHAMFERB
 40
0.0
  9
$CHAMFERC
 40
0.0
  9
$CHAMFERD
 40
0.0
  9
$SKPOLY
 70
     0
  9
$TDCREATE
 40
2459182.490694445
  9
$TDUCREATE
 40
2459182.490694445
  9
$TDUPDATE
 40
2459182.490694445
  9
$TDUUPDATE
 40
2459182.490694445
  9
$TDINDWG
 40
0.0000000000
  9
$TDUSRTIMER
 40
0.0000000000
  9
$USRTIMER
 70
     1
  9
$ANGBASE
 50
0.0
  9
$ANGDIR
 70
     0
  9
$PDMODE
 70
     0
  9
$PDSIZE
 40
0.0
  9
$PLINEWID
 40
0.0
  9
$SPLFRAME
 70
     0
  9
$SPLINETYPE
 70
     6
  9
$SPLINESEGS
 70
     8
  9
$HANDSEED
  5
1A1
  9
$SURFTAB1
 70
     6
  9
$SURFTAB2
 70
     6
  9
$SURFTYPE
 70
     6
  9
$SURFU
 70
     6
  9
$SURFV
 70
     6
  9
$UCSBASE
  2

  9
$UCSNAME
  2

  9
$UCSORG
 10
0.0
 20
0.0
 30
0.0
  9
$UCSXDIR
 10
1.0
 20
0.0
 30
0.0
  9
$UCSYDIR
 10
0.0
 20
1.0
 30
0.0
  9
$UCSORTHOREF
  2

  9
$UCSORTHOVIEW
 70
     0
  9
$UCSORGTOP
 10
0.0
 20
0.0
 30
0.0
  9
$UCSORGBOTTOM
 10
0.0
 20
0.0
 30
0.0
  9
$UCSORGLEFT
 10
0.0
 20
0.0
 30
0.0
  9
$UCSORGRIGHT
 10
0.0
 20
0.0
 30
0.0
  9
$UCSORGFRONT
 10
0.0
 20
0.0
 30
0.0
  9
$UCSORGBACK
 10
0.0
 20
0.0
 30
0.0
  9
$PUCSBASE
  2

  9
$PUCSNAME
  2

  9
$PUCSORG
 10
0.0
 20
0.0
 30
0.0
  9
$PUCSXDIR
 10
1.0
 20
0.0
 30
0.0
  9
$PUCSYDIR
 10
0.0
 20
1.0
 30
0.0
  9
$PUCSORTHOREF
  2

  9
$PUCSORTHOVIEW
 70
     0
  9
$PUCSORGTOP
 10
0.0
 20
0.0
 30
0.0
  9
$PUCSORGBOTTOM
 10
0.0
 20
0.0
 30
0.0
  9
$PUCSORGLEFT
 10
0.0
 20
0.0
 30
0.0
  9
$PUCSORGRIGHT
 10
0.0
 20
0.0
 30
0.0
  9
$PUCSORGFRONT
 10
0.0
 20
0.0
 30
0.0
  9
$PUCSORGBACK
 10
0.0
 20
0.0
 30
0.0
  9
$USERI1
 70
     0
  9
$USERI2
 70
     0
  9
$USERI3
 70
     0
  9
$USERI4
 70
     0
  9
$USERI5
 70
     0
  9
$USERR1
 40
0.0
  9
$USERR2
 40
0.0
  9
$USERR3
 40
0.0
  9
$USERR4
 40
0.0
  9
$USERR5
 40
0.0
  9
$WORLDVIEW
 70
     1
  9
$SHADEDGE
 70
     3
  9
$SHADEDIF
 70
    70
  9
$TILEMODE
 70
     1
  9
$MAXACTVP
 70
    64
  9
$PINSBASE
 10
0.0
 20
0.0
 30
0.0
  9
$PLIMCHECK
 70
     0
  9
$PEXTMIN
 10
1.000000000000000E+20
 20
1.000000000000000E+20
 30
1.000000000000000E+20
  9
$PEXTMAX
 10
-1.000000000000000E+20
 20
-1.000000000000000E+20
 30
-1.000000000000000E+20
  9
$PLIMMIN
 10
0.0
 20
0.0
  9
$PLIMMAX
 10
12.0
 20
9.0
  9
$UNITMODE
 70
     0
  9
$VISRETAIN
 70
     1
  9
$PLINEGEN
 70
     0
  9
$PSLTSCALE
 70
     1
  9
$TREEDEPTH
 70
  3020
  9
$CMLSTYLE
  2
Standard
  9
$CMLJUST
 70
     0
  9
$CMLSCALE
 40
1.0
  9
$PROXYGRAPHICS
 70
     1
  9
$MEASUREMENT
 70
     0
  9
$CELWEIGHT
370
    -1
  9
$ENDCAPS
280
     0
  9
$JOINSTYLE
280
     0
  9
$LWDISPLAY
290
     0
  9
$INSUNITS
 70
     5
  9
$HYPERLINKBASE
  1

  9
$STYLESHEET
  1

  9
$XEDIT
290
     1
  9
$CEPSNTYPE
380
     0
  9
$PSTYLEMODE
290
     1
  9
$FINGERPRINTGUID
  2
{48506CFB-D5AE-3E46-9485-3F019735065D}
  9
$VERSIONGUID
  2
{08542DF2-924B-1B43-B90E-8BC916C984C9}
  9
$EXTNAMES
290
     1
  9
$PSVPSCALE
 40
0.0
  9
$OLESTARTUP
290
     0
  9
$SORTENTS
280
   127
  9
$INDEXCTL
280
     0
  9
$HIDETEXT
280
     1
  9
$XCLIPFRAME
280
     2
  9
$HALOGAP
280
     0
  9
$OBSCOLOR
 70
   257
  9
$OBSLTYPE
280
     0
  9
$INTERSECTIONDISPLAY
280
     0
  9
$INTERSECTIONCOLOR
 70
   257
  9
$DIMASSOC
280
     2
  9
$PROJECTNAME
  1

  9
$CAMERADISPLAY
290
     0
  9
$LENSLENGTH
 40
50.0
  9
$CAMERAHEIGHT
 40
0.0
  9
$STEPSPERSEC
 40
2.0
  9
$STEPSIZE
 40
6.0
  9
$3DDWFPREC
 40
2.0
  9
$PSOLWIDTH
 40
0.25
  9
$PSOLHEIGHT
 40
4.0
  9
$LOFTANG1
 40
1.570796326794896
  9
$LOFTANG2
 40
1.570796326794896
  9
$LOFTMAG1
 40
0.0
  9
$LOFTMAG2
 40
0.0
  9
$LOFTPARAM
 70
     7
  9
$LOFTNORMALS
280
     1
  9
$LATITUDE
 40
37.795
  9
$LONGITUDE
 40
-122.394
  9
$NORTHDIRECTION
 40
0.0
  9
$TIMEZONE
 70
 -8000
  9
$LIGHTGLYPHDISPLAY
280
     1
  9
$TILEMODELIGHTSYNCH
280
     1
  9
$CMATERIAL
347
11
  9
$SOLIDHIST
280
     0
  9
$SHOWHIST
280
     1
  9
$DWFFRAME
280
     2
  9
$DGNFRAME
280
     0
  9
$REALWORLDSCALE
290
     1
  9
$INTERFERECOLOR
 62
     1
  9
$INTERFEREOBJVS
345
33
  9
$INTERFEREVPVS
346
30
  9
$CSHADOW
280
     0
  9
$SHADOWPLANELOCATION
 40
0.0
  0
ENDSEC
  0
SECTION
  2
CLASSES
  0
CLASS
  1
ACDBDICTIONARYWDFLT
  2
AcDbDictionaryWithDefault
  3
ObjectDBX Classes
 90
        0
 91
        1
280
     0
281
     0
  0
CLASS
  1
MATERIAL
  2
AcDbMaterial
  3
ObjectDBX Classes
 90
     1153
 91
        3
280
     0
281
     0
  0
CLASS
  1
VISUALSTYLE
  2
AcDbVisualStyle
  3
ObjectDBX Classes
 90
     4095
 91
       24
280
     0
281
     0
  0
CLASS
  1
SCALE
  2
AcDbScale
  3
ObjectDBX Classes
 90
     1153
 91
       17
280
     0
281
     0
  0
CLASS
  1
TABLESTYLE
  2
AcDbTableStyle
  3
ObjectDBX Classes
 90
     4095
 91
        1
280
     0
281
     0
  0
CLASS
  1
MLEADERSTYLE
  2
AcDbMLeaderStyle
  3
ACDB_MLEADERSTYLE_CLASS
 90
     4095
 91
        1
280
     0
281
     0
  0
CLASS
  1
ACDBSECTIONVIEWSTYLE
  2
AcDbSectionViewStyle
  3
ObjectDBX Classes
 90
     1025
 91
        1
280
     0
281
     0
  0
CLASS
  1
ACDBDETAILVIEWSTYLE
  2
AcDbDetailViewStyle
  3
ObjectDBX Classes
 90
     1025
 91
        1
280
     0
281
     0
  0
CLASS
  1
DICTIONARYVAR
  2
AcDbDictionaryVar
  3
ObjectDBX Classes
 90
        0
 91
        5
280
     0
281
     0
  0
CLASS
  1
CELLSTYLEMAP
  2
AcDbCellStyleMap
  3
ObjectDBX Classes
 90
     1152
 91
        1
280
     0
281
     0
  0
ENDSEC
  0
SECTION
  2
TABLES
  0
TABLE
  2
VPORT
  5
8
330
0
100
AcDbSymbolTable
 70
     1
1001
ACAD
1000
DbSaveVer
1071
      224
  0
VPORT
  5
57
330
8
100
AcDbSymbolTableRecord
100
AcDbViewportTableRecord
  2
*Active
 70
     0
 10
0.0
 20
0.0
 11
1.0
 21
1.0
 12
500.0
 22
500.0
 13
0.0
 23
0.0
 14
1.0
 24
1.0
 15
0.0
 25
0.0
 16
0.0
 26
0.0
 36
1.0
 17
0.0
 27
0.0
 37
0.0
 40
12.0
 41
1.0
 42
50.0
 43
0.0
 44
0.0
 50
0.0
 51
0.0
 71
     0
 72
   100
 73
     1
 74
     1
 75
     0
 76
     0
 77
     0
 78
     0
281
     0
 65
     1
110
0.0
120
0.0
130
0.0
111
1.0
121
0.0
131
0.0
112
0.0
122
1.0
132
0.0
 79
     0
146
0.0
 60
     3
 61
     5
292
     1
282
     1
141
0.0
142
0.0
 63
   250
421
  3355443
  0
ENDTAB
  0
TABLE
  2
LTYPE
  5
5
330
0
100
AcDbSymbolTable
 70
     1
  0
LTYPE
  5
5B
330
5
100
AcDbSymbolTableRecord
100
AcDbLinetypeTableRecord
  2
ByBlock
 70
     0
  3

 72
    65
 73
     0
 40
0.0
  0
LTYPE
  5
5C
330
5
100
AcDbSymbolTableRecord
100
AcDbLinetypeTableRecord
  2
ByLayer
 70
     0
  3

 72
    65
 73
     0
 40
0.0
  0
LTYPE
  5
5D
330
5
100
AcDbSymbolTableRecord
100
AcDbLinetypeTableRecord
  2
Continuous
 70
     0
  3
Solid line
 72
    65
 73
     0
 40
0.0
  0
ENDTAB
  0
TABLE
  2
LAYER
  5
2
330
0
100
AcDbSymbolTable
 70
     2
  0
LAYER
  5
54
330
2
100
AcDbSymbolTableRecord
100
AcDbLayerTableRecord
  2
0
 70
     0
 62
     7
  6
Continuous
370
    -3
390
F
347
21
348
0
  0
LAYER
  5
7A
330
2
100
AcDbSymbolTableRecord
100
AcDbLayerTableRecord
  2
Scheibe v1_0
 70
     0
 62
     7
  6
Continuous
370
    -3
390
F
347
21
348
0
1001
NFusion_SketchTransform
1000
1.000000;0.000000;0.000000;0.000000;0.000000;1.000000;0.000000;0.000000;0.000000;0.000000;1.000000;0.000000;0.000000;0.000000;0.000000;1.000000
  0
ENDTAB
  0
TABLE
  2
STYLE
  5
3
330
0
100
AcDbSymbolTable
 70
     2
  0
STYLE
  5
55
330
3
100
AcDbSymbolTableRecord
100
AcDbTextStyleTableRecord
  2
Standard
 70
     0
 40
0.0
 41
1.0
 50
0.0
 71
     0
 42
0.2
  3
txt
  4

  0
STYLE
  5
5A
330
3
100
AcDbSymbolTableRecord
100
AcDbTextStyleTableRecord
  2
Annotative
 70
     0
 40
0.0
 41
1.0
 50
0.0
 71
     0
 42
0.2
  3
txt
  4

1001
AcadAnnotative
1000
AnnotativeData
1002
{
1070
     1
1070
     1
1002
}
  0
ENDTAB
  0
TABLE
  2
VIEW
  5
6
330
0
100
AcDbSymbolTable
 70
     0
  0
ENDTAB
  0
TABLE
  2
UCS
  5
7
330
0
100
AcDbSymbolTable
 70
     0
  0
ENDTAB
  0
TABLE
  2
APPID
  5
9
330
0
100
AcDbSymbolTable
 70
     4
  0
APPID
  5
56
330
9
100
AcDbSymbolTableRecord
100
AcDbRegAppTableRecord
  2
ACAD
 70
     0
  0
APPID
  5
5E
330
9
100
AcDbSymbolTableRecord
100
AcDbRegAppTableRecord
  2
AcadAnnotative
 70
     0
  0
APPID
  5
78
330
9
100
AcDbSymbolTableRecord
100
AcDbRegAppTableRecord
  2
EDIT_IN_FUSION_ACAD_ADDIN
 70
     0
  0
APPID
  5
79
330
9
100
AcDbSymbolTableRecord
100
AcDbRegAppTableRecord
  2
NFusion_SketchTransform
 70
     0
  0
ENDTAB
  0
TABLE
  2
DIMSTYLE
  5
A
330
0
100
AcDbSymbolTable
 70
     2
100
AcDbDimStyleTable
 71
     0
  0
DIMSTYLE
105
58
330
A
100
AcDbSymbolTableRecord
100
AcDbDimStyleTableRecord
  2
Standard
 70
     0
340
55
  0
DIMSTYLE
105
59
330
A
100
AcDbSymbolTableRecord
100
AcDbDimStyleTableRecord
  2
Annotative
 70
     0
340
55
1001
AcadAnnotative
1000
AnnotativeData
1002
{
1070
     1
1070
     1
1002
}
  0
ENDTAB
  0
TABLE
  2
BLOCK_RECORD
  5
1
330
0
100
AcDbSymbolTable
 70
     1
  0
BLOCK_RECORD
  5
70
330
1
100
AcDbSymbolTableRecord
100
AcDbBlockTableRecord
  2
*Model_Space
340
73
 70
     0
280
     1
281
     0
  0
BLOCK_RECORD
  5
6C
330
1
100
AcDbSymbolTableRecord
100
AcDbBlockTableRecord
  2
*Paper_Space
340
6F
 70
     0
280
     1
281
     0
  0
BLOCK_RECORD
  5
74
330
1
100
AcDbSymbolTableRecord
100
AcDbBlockTableRecord
  2
*Paper_Space0
340
77
 70
     0
280
     1
281
     0
  0
ENDTAB
  0
ENDSEC
  0
SECTION
  2
BLOCKS
  0
BLOCK
  5
71
330
70
100
AcDbEntity
  8
0
100
AcDbBlockBegin
  2
*Model_Space
 70
     0
 10
0.0
 20
0.0
 30
0.0
  3
*Model_Space
  1

  0
ENDBLK
  5
72
330
70
100
AcDbEntity
  8
0
100
AcDbBlockEnd
  0
BLOCK
  5
6D
330
6C
100
AcDbEntity
 67
     1
  8
0
100
AcDbBlockBegin
  2
*Paper_Space
 70
     0
 10
0.0
 20
0.0
 30
0.0
  3
*Paper_Space
  1

  0
ENDBLK
  5
6E
330
6C
100
AcDbEntity
 67
     1
  8
0
100
AcDbBlockEnd
  0
BLOCK
  5
75
330
74
100
AcDbEntity
 67
     1
  8
0
100
AcDbBlockBegin
  2
*Paper_Space0
 70
     0
 10
0.0
 20
0.0
 30
0.0
  3
*Paper_Space0
  1

  0
ENDBLK
  5
76
330
74
100
AcDbEntity
 67
     1
  8
0
100
AcDbBlockEnd
  0
ENDSEC
  0
SECTION
  2
ENTITIES
  0
ARC
  5
7B
330
70
100
AcDbEntity
  8
Scheibe v1_0
100
AcDbCircle
 10
-5.241253569520001
 20
7.663442008050001
 30
0.0
 40
0.0249933500000004
100
AcDbArc
 50
215.9999999999999
 51
35.99999879258253
  0
ARC
  5
7C
330
70
100
AcDbEntity
  8
Scheibe v1_0
100
AcDbCircle
 10
1.20100952927
 20
7.305698411919999
 30
0.0
 40
0.262655834144836
100
AcDbArc
 50
87.69764912929543
 51
184.5612442093
  0
ARC
  5
7D
330
70
100
AcDbEntity
  8
Scheibe v1_0
100
AcDbCircle
 10
-4.99978825
 20
4.554822999999999
 30
0.0
 40
0.0261718499999999
100
AcDbArc
 50
180.0
 51
0.0
  0
LINE
  5
7E
330
70
100
AcDbEntity
  8
Scheibe v1_0
100
AcDbLine
 10
-5.249788249999999
 20
2.325
 30
0.0
 11
-5.274004864725061
 21
2.32499999997585
 31
0.0
  0
ARC
  5
7F
330
70
100
AcDbEntity
  8
Scheibe v1_0
100
AcDbCircle
 10
-4.62909364452
 20
7.835857515269999
 30
0.0
 40
0.0249933500000004
100
AcDbArc
 50
324.0000000000001
 51
143.9999987925827
  0
LINE
  5
80
330
70
100
AcDbEntity
  8
Scheibe v1_0
100
AcDbLine
 10
-4.74978825
 20
2.4
 30
0.0
 11
-4.74978825
 21
2.325
 31
0.0
  0
ARC
  5
81
330
70
100
AcDbEntity
  8
Scheibe v1_0
100
AcDbCircle
 10
-5.59558582502
 20
7.134908500529999
 30
0.0
 40
0.0249933500000008
100
AcDbArc
 50
107.9999999999992
 51
287.9999999999992
  0
LINE
  5
82
330
70
100
AcDbEntity
  8
Scheibe v1_0
100
AcDbLine
 10
-4.734594399449999
 20
7.648126956819999
 30
0.0
 11
-4.608873599623638
 21
7.821166792734615
 31
0.0
  0
LINE
  5
83
330
70
100
AcDbEntity
  8
Scheibe v1_0
100
AcDbLine
 10
-1.91678825
 20
2.4
 30
0.0
 11
-1.91678825
 21
2.325
 31
0.0
  0
LINE
  5
84
330
70
100
AcDbEntity
  8
Scheibe v1_0
100
AcDbLine
 10
-4.97293922859
 20
7.7421566701
 30
0.0
 11
-4.97293922859
 21
7.9560456701
 31
0.0
  0
LINE
  5
85
330
70
100
AcDbEntity
  8
Scheibe v1_0
100
AcDbLine
 10
2.51057926352
 20
3.0
 30
0.0
 11
4.154844236489999
 21
3.0
 31
0.0
  0
LINE
  5
86
330
70
100
AcDbEntity
  8
Scheibe v1_0
100
AcDbLine
 10
-4.77589380396
 20
6.978600939509999
 30
0.0
 11
-4.65017300413
 21
6.8055611036
 31
0.0
  0
ARC
  5
87
330
70
100
AcDbEntity
  8
Scheibe v1_0
100
AcDbCircle
 10
-5.595257595999999
 20
7.522835354609999
 30
0.0
 40
0.0249933500000008
100
AcDbArc
 50
71.99999999097283
 51
251.9999999909728
  0
LINE
  5
88
330
70
100
AcDbEntity
  8
Scheibe v1_0
100
AcDbLine
 10
1.416211749999999
 20
2.4
 30
0.0
 11
1.44683278223
 21
2.75
 31
0.0
  0
SPLINE
  5
89
330
70
100
AcDbEntity
  8
Scheibe v1_0
100
AcDbSpline
210
0.0
220
0.0
230
1.0
 70
     8
 71
     3
 72
     8
 73
     4
 74
     0
 42
0.000000001
 43
0.0000000001
 40
0.0
 40
0.0
 40
0.0
 40
0.0
 40
1.0
 40
1.0
 40
1.0
 40
1.0
 10
-7.399999999999997
 20
9.0
 30
0.0
 10
-7.470812865904598
 20
9.0
 30
0.0
 10
-7.499999999999992
 20
8.971247899304657
 30
0.0
 10
-7.499999999999992
 20
8.9
 30
0.0
  0
SPLINE
  5
8A
330
70
100
AcDbEntity
  8
Scheibe v1_0
100
AcDbSpline
210
0.0
220
0.0
230
1.0
 70
     8
 71
     2
 72
     6
 73
     3
 74
     0
 42
0.000000001
 43
0.0000000001
 40
0.4986265142008271
 40
0.4986265142008271
 40
0.4986265142008271
 40
0.4995539470429753
 40
0.4995539470429753
 40
0.4995539470429753
 10
-5.844155763522152
 20
2.999999999999625
 30
0.0
 10
-5.559080314123611
 20
2.490473664648682
 30
0.0
 10
-5.274004864725061
 20
2.32499999997585
 30
0.0
  0
SPLINE
  5
8B
330
70
100
AcDbEntity
  8
Scheibe v1_0
100
AcDbSpline
210
0.0
220
0.0
230
1.0
 70
     8
 71
     2
 72
     6
 73
     3
 74
     0
 42
0.000000001
 43
0.0000000001
 40
0.0
 40
0.0
 40
0.0
 40
1.0
 40
1.0
 40
1.0
 10
-1.447409282234069
 20
2.75
 30
0.0
 10
-1.666788249999997
 20
2.55
 30
0.0
 10
-1.886167217765923
 20
2.75
 30
0.0
  0
SPLINE
  5
8C
330
70
100
AcDbEntity
  8
Scheibe v1_0
100
AcDbSpline
210
0.0
220
0.0
230
1.0
 70
     8
 71
     2
 72
     6
 73
     3
 74
     0
 42
0.000000001
 43
0.0000000001
 40
0.0
 40
0.0
 40
0.0
 40
1.0
 40
1.0
 40
1.0
 10
5.21859071776593
 20
2.75
 30
0.0
 10
4.999211750000003
 20
2.55
 30
0.0
 10
4.779832782234075
 20
2.75
 30
0.0
  0
ARC
  5
8D
330
70
100
AcDbEntity
  8
Scheibe v1_0
100
AcDbCircle
 10
-4.40166973259
 20
7.133898315489999
 30
0.0
 40
0.0249933500000008
100
AcDbArc
 50
252.0000000000008
 51
72.00000000000078
  0
LINE
  5
8E
330
70
100
AcDbEntity
  8
Scheibe v1_0
100
AcDbLine
 10
-1.91678825
 20
2.325
 30
0.0
 11
-1.94100486473
 21
2.32499999998
 31
0.0
  0
LINE
  5
8F
330
70
100
AcDbEntity
  8
Scheibe v1_0
100
AcDbLine
 10
4.749211749999999
 20
2.325
 30
0.0
 11
4.72499513527
 21
2.32499999998
 31
0.0
  0
SPLINE
  5
90
330
70
100
AcDbEntity
  8
Scheibe v1_0
100
AcDbSpline
210
0.0
220
0.0
230
1.0
 70
     8
 71
     2
 72
     6
 73
     3
 74
     0
 42
0.000000001
 43
0.0000000001
 40
0.4986265142008309
 40
0.4986265142008309
 40
0.4986265142008309
 40
0.4995539470429753
 40
0.4995539470429753
 40
0.4995539470429753
 10
4.154844236480247
 20
2.99999999999534
 30
0.0
 10
4.439919685877579
 20
2.490473664648007
 30
0.0
 10
4.724995135274918
 20
2.324999999975859
 30
0.0
  0
LINE
  5
91
330
70
100
AcDbEntity
  8
Scheibe v1_0
100
AcDbLine
 10
4.749211749999999
 20
2.4
 30
0.0
 11
4.749211749999999
 21
2.325
 31
0.0
  0
LINE
  5
92
330
70
100
AcDbEntity
  8
Scheibe v1_0
100
AcDbLine
 10
1.916211749999999
 20
2.4
 30
0.0
 11
1.916211749999999
 21
2.325
 31
0.0
  0
LINE
  5
93
330
70
100
AcDbEntity
  8
Scheibe v1_0
100
AcDbLine
 10
1.916211749999999
 20
2.325
 30
0.0
 11
1.940428364725059
 21
2.32499999997585
 31
0.0
  0
LINE
  5
94
330
70
100
AcDbEntity
  8
Scheibe v1_0
100
AcDbLine
 10
-5.0239881
 20
6.914577
 30
0.0
 11
-5.0239881
 21
6.700688000000001
 31
0.0
  0
ARC
  5
95
330
70
100
AcDbEntity
  8
Scheibe v1_0
100
AcDbCircle
 10
-4.99793257859
 20
7.9560456701
 30
0.0
 40
0.024993349999999
100
AcDbArc
 50
0.0
 51
180.0
  0
LINE
  5
96
330
70
100
AcDbEntity
  8
Scheibe v1_0
100
AcDbLine
 10
-1.41678825
 20
2.4
 30
0.0
 11
-1.447409282234069
 21
2.75
 31
0.0
  0
SPLINE
  5
97
330
70
100
AcDbEntity
  8
Scheibe v1_0
100
AcDbSpline
210
0.0
220
0.0
230
1.0
 70
     8
 71
     2
 72
     6
 73
     3
 74
     0
 42
0.000000001
 43
0.0000000001
 40
0.4986265142008309
 40
0.4986265142008309
 40
0.4986265142008309
 40
0.4995539470429753
 40
0.4995539470429753
 40
0.4995539470429753
 10
-2.511155763519756
 20
2.99999999999534
 30
0.0
 10
-2.226080314122426
 20
2.490473664648007
 30
0.0
 10
-1.941004864725087
 20
2.324999999975859
 30
0.0
  0
LINE
  5
98
330
70
100
AcDbEntity
  8
Scheibe v1_0
100
AcDbLine
 10
4.749211749999999
 20
2.4
 30
0.0
 11
4.779832782234075
 21
2.75
 31
0.0
  0
SPLINE
  5
99
330
70
100
AcDbEntity
  8
Scheibe v1_0
100
AcDbSpline
210
0.0
220
0.0
230
1.0
 70
     8
 71
     2
 72
     6
 73
     3
 74
     0
 42
0.000000001
 43
0.0000000001
 40
0.4986265142008271
 40
0.4986265142008271
 40
0.4986265142008271
 40
0.4995539470429753
 40
0.4995539470429753
 40
0.4995539470429753
 10
5.843579263522135
 20
2.999999999999625
 30
0.0
 10
5.558503814123593
 20
2.490473664648682
 30
0.0
 10
5.273428364725045
 20
2.32499999997585
 30
0.0
  0
LINE
  5
9A
330
70
100
AcDbEntity
  8
Scheibe v1_0
100
AcDbLine
 10
1.916211749999999
 20
2.4
 30
0.0
 11
1.88559071776593
 21
2.75
 31
0.0
  0
SPLINE
  5
9B
330
70
100
AcDbEntity
  8
Scheibe v1_0
100
AcDbSpline
210
0.0
220
0.0
230
1.0
 70
     8
 71
     2
 72
     6
 73
     3
 74
     0
 42
0.000000001
 43
0.0000000001
 40
0.4986265142008271
 40
0.4986265142008271
 40
0.4986265142008271
 40
0.4995539470429753
 40
0.4995539470429753
 40
0.4995539470429753
 10
-4.155420736477855
 20
2.999999999999625
 30
0.0
 10
-4.440496185876397
 20
2.490473664648682
 30
0.0
 10
-4.725571635274947
 20
2.32499999997585
 30
0.0
  0
LINE
  5
9C
330
70
100
AcDbEntity
  8
Scheibe v1_0
100
AcDbLine
 10
-4.155420736477855
 20
2.999999999999625
 30
0.0
 11
-2.51115576351
 21
3.0
 31
0.0
  0
LINE
  5
9D
330
70
100
AcDbEntity
  8
Scheibe v1_0
100
AcDbLine
 10
-1.41678825
 20
2.325
 30
0.0
 11
-1.39257163527
 21
2.32499999998
 31
0.0
  0
LINE
  5
9E
330
70
100
AcDbEntity
  8
Scheibe v1_0
100
AcDbLine
 10
5.24921175
 20
2.4
 30
0.0
 11
5.21859071776593
 21
2.75
 31
0.0
  0
SPLINE
  5
9F
330
70
100
AcDbEntity
  8
Scheibe v1_0
100
AcDbSpline
210
0.0
220
0.0
230
1.0
 70
     8
 71
     2
 72
     6
 73
     3
 74
     0
 42
0.000000001
 43
0.0000000001
 40
0.0
 40
0.0
 40
0.0
 40
1.0
 40
1.0
 40
1.0
 10
1.88559071776593
 20
2.75
 30
0.0
 10
1.666211750000003
 20
2.55
 30
0.0
 10
1.446832782234076
 20
2.75
 30
0.0
  0
LINE
  5
A0
330
70
100
AcDbEntity
  8
Scheibe v1_0
100
AcDbLine
 10
-5.384113698890001
 20
7.480510107079999
 30
0.0
 11
-5.5875342261
 21
7.546605442989999
 31
0.0
  0
ARC
  5
A1
330
70
100
AcDbEntity
  8
Scheibe v1_0
100
AcDbCircle
 10
4.99921175
 20
5.683924000000001
 30
0.0
 40
0.0261718499999999
100
AcDbArc
 50
0.0
 51
180.0
  0
LINE
  5
A2
330
70
100
AcDbEntity
  8
Scheibe v1_0
100
AcDbLine
 10
5.24921175
 20
2.325
 30
0.0
 11
5.273428364729999
 21
2.32499999998
 31
0.0
  0
LINE
  5
A3
330
70
100
AcDbEntity
  8
Scheibe v1_0
100
AcDbLine
 10
-1.91678825
 20
2.4
 30
0.0
 11
-1.886167217765923
 21
2.75
 31
0.0
  0
LINE
  5
A4
330
70
100
AcDbEntity
  8
Scheibe v1_0
100
AcDbLine
 10
-4.77503448924
 20
7.67750840189
 30
0.0
 11
-4.649313689416361
 21
7.850548237805384
 31
0.0
  0
LINE
  5
A5
330
70
100
AcDbEntity
  8
Scheibe v1_0
100
AcDbLine
 10
-5.249788249999999
 20
2.4
 30
0.0
 11
-5.219167217765924
 21
2.75
 31
0.0
  0
LINE
  5
A6
330
70
100
AcDbEntity
  8
Scheibe v1_0
100
AcDbLine
 10
-0.8224207364778578
 20
2.999999999999625
 30
0.0
 11
0.8218442364802513
 21
2.99999999999534
 31
0.0
  0
SPLINE
  5
A7
330
70
100
AcDbEntity
  8
Scheibe v1_0
100
AcDbSpline
210
0.0
220
0.0
230
1.0
 70
     8
 71
     2
 72
     6
 73
     3
 74
     0
 42
0.000000001
 43
0.0000000001
 40
0.4986265142008309
 40
0.4986265142008309
 40
0.4986265142008309
 40
0.4995539470429753
 40
0.4995539470429753
 40
0.4995539470429753
 10
0.8218442364802513
 20
2.99999999999534
 30
0.0
 10
1.106919685877582
 20
2.490473664648007
 30
0.0
 10
1.39199513527492
 20
2.324999999975859
 30
0.0
  0
LINE
  5
A8
330
70
100
AcDbEntity
  8
Scheibe v1_0
100
AcDbLine
 10
5.24921175
 20
2.4
 30
0.0
 11
5.24921175
 21
2.325
 31
0.0
  0
LINE
  5
A9
330
70
100
AcDbEntity
  8
Scheibe v1_0
100
AcDbLine
 10
-5.38444192791
 20
7.17723374806
 30
0.0
 11
-5.587862455119999
 21
7.111138412149999
 31
0.0
  0
ARC
  5
AA
330
70
100
AcDbEntity
  8
Scheibe v1_0
100
AcDbCircle
 10
1.21557842589
 20
7.66806149129
 30
0.0
 40
0.0999999999999996
100
AcDbArc
 50
267.6976491312
 51
338.7572912663002
  0
ARC
  5
AB
330
70
100
AcDbEntity
  8
Scheibe v1_0
100
AcDbCircle
 10
-4.99793257859
 20
7.7421566701
 30
0.0
 40
0.0249933499999999
100
AcDbArc
 50
180.0
 51
0.0
  0
ARC
  5
AC
330
70
100
AcDbEntity
  8
Scheibe v1_0
100
AcDbCircle
 10
1.706999282069999
 20
7.477030362109999
 30
0.0
 40
0.4272450570715153
100
AcDbArc
 50
2.540745517400035
 51
158.7572912658713
  0
LINE
  5
AD
330
70
100
AcDbEntity
  8
Scheibe v1_0
100
AcDbLine
 10
1.416211749999999
 20
2.325
 30
0.0
 11
1.39199513527492
 21
2.324999999975859
 31
0.0
  0
LINE
  5
AE
330
70
100
AcDbEntity
  8
Scheibe v1_0
100
AcDbLine
 10
-5.3998886677
 20
7.224773924819999
 30
0.0
 11
-5.603309194916361
 21
7.158678588911546
 31
0.0
  0
LINE
  5
AF
330
70
100
AcDbEntity
  8
Scheibe v1_0
100
AcDbLine
 10
-1.41678825
 20
2.4
 30
0.0
 11
-1.41678825
 21
2.325
 31
0.0
  0
LINE
  5
B0
330
70
100
AcDbEntity
  8
Scheibe v1_0
100
AcDbLine
 10
-7.5
 20
3.0
 30
0.0
 11
-5.844155763522152
 21
2.999999999999625
 31
0.0
  0
LINE
  5
B1
330
70
100
AcDbEntity
  8
Scheibe v1_0
100
AcDbLine
 10
-4.74978825
 20
2.4
 30
0.0
 11
-4.780409282234069
 21
2.75
 31
0.0
  0
LINE
  5
B2
330
70
100
AcDbEntity
  8
Scheibe v1_0
100
AcDbLine
 10
-4.74978825
 20
2.325
 30
0.0
 11
-4.725571635274947
 21
2.32499999997585
 31
0.0
  0
SPLINE
  5
B3
330
70
100
AcDbEntity
  8
Scheibe v1_0
100
AcDbSpline
210
0.0
220
0.0
230
1.0
 70
     8
 71
     2
 72
     6
 73
     3
 74
     0
 42
0.000000001
 43
0.0000000001
 40
0.0
 40
0.0
 40
0.0
 40
1.0
 40
1.0
 40
1.0
 10
-4.780409282234069
 20
2.75
 30
0.0
 10
-4.999788249999998
 20
2.55
 30
0.0
 10
-5.219167217765924
 20
2.75
 30
0.0
  0
LINE
  5
B4
330
70
100
AcDbEntity
  8
Scheibe v1_0
100
AcDbLine
 10
-5.249788249999999
 20
2.4
 30
0.0
 11
-5.249788249999999
 21
2.325
 31
0.0
  0
LINE
  5
B5
330
70
100
AcDbEntity
  8
Scheibe v1_0
100
AcDbLine
 10
-7.5
 20
8.9
 30
0.0
 11
-7.5
 21
3.0
 31
0.0
  0
LINE
  5
B6
330
70
100
AcDbEntity
  8
Scheibe v1_0
100
AcDbLine
 10
1.416211749999999
 20
2.4
 30
0.0
 11
1.416211749999999
 21
2.325
 31
0.0
  0
SPLINE
  5
B7
330
70
100
AcDbEntity
  8
Scheibe v1_0
100
AcDbSpline
210
0.0
220
0.0
230
1.0
 70
     8
 71
     2
 72
     6
 73
     3
 74
     0
 42
0.000000001
 43
0.0000000001
 40
0.4986265142008271
 40
0.4986265142008271
 40
0.4986265142008271
 40
0.4995539470429753
 40
0.4995539470429753
 40
0.4995539470429753
 10
2.51057926352215
 20
2.999999999999625
 30
0.0
 10
2.225503814123607
 20
2.490473664648682
 30
0.0
 10
1.940428364725059
 20
2.32499999997585
 30
0.0
  0
LINE
  5
B8
330
70
100
AcDbEntity
  8
Scheibe v1_0
100
AcDbLine
 10
5.843579263522135
 20
2.999999999999625
 30
0.0
 11
7.5
 21
3.0
 31
0.0
  0
ARC
  5
B9
330
70
100
AcDbEntity
  8
Scheibe v1_0
100
AcDbCircle
 10
-5.39183706879
 20
7.4567400187
 30
0.0
 40
0.0249933500000008
100
AcDbArc
 50
252.0000000000008
 51
72.00000000000078
  0
SPLINE
  5
BA
330
70
100
AcDbEntity
  8
Scheibe v1_0
100
AcDbSpline
210
0.0
220
0.0
230
1.0
 70
     8
 71
     2
 72
     6
 73
     3
 74
     0
 42
0.000000001
 43
0.0000000001
 40
0.4986265142008271
 40
0.4986265142008271
 40
0.4986265142008271
 40
0.4995539470429753
 40
0.4995539470429753
 40
0.4995539470429753
 10
-0.8224207364778578
 20
2.999999999999625
 30
0.0
 10
-1.1074961858764
 20
2.490473664648682
 30
0.0
 10
-1.392571635274949
 20
2.32499999997585
 30
0.0
  0
LINE
  5
BB
330
70
100
AcDbEntity
  8
Scheibe v1_0
100
AcDbLine
 10
-5.0259601
 20
5.683924000000001
 30
0.0
 11
-5.0259601
 21
4.554822999999999
 31
0.0
  0
LINE
  5
BC
330
70
100
AcDbEntity
  8
Scheibe v1_0
100
AcDbLine
 10
-5.399560438686361
 20
7.432969930318454
 30
0.0
 11
-5.60298096589636
 21
7.499065266228453
 31
0.0
  0
ARC
  5
BD
330
70
100
AcDbEntity
  8
Scheibe v1_0
100
AcDbCircle
 10
-4.605090259799999
 20
7.199993651399999
 30
0.0
 40
0.0249933500000008
100
AcDbArc
 50
72.00000000000078
 51
252.0000000000008
  0
SPLINE
  5
BE
330
70
100
AcDbEntity
  8
Scheibe v1_0
100
AcDbSpline
210
0.0
220
0.0
230
1.0
 70
     8
 71
     3
 72
     8
 73
     4
 74
     0
 42
0.000000001
 43
0.0000000001
 40
0.0
 40
0.0
 40
0.0
 40
0.0
 40
1.0
 40
1.0
 40
1.0
 40
1.0
 10
1.253037000000003
 20
7.048247000000002
 30
0.0
 10
1.565522611545107
 20
7.111396142921787
 30
0.0
 10
1.887504501699617
 20
7.0633904317358
 30
0.0
 10
2.209338000000003
 20
7.050287
 30
0.0
  0
ARC
  5
BF
330
70
100
AcDbEntity
  8
Scheibe v1_0
100
AcDbCircle
 10
-5.3921652978
 20
7.201003836439999
 30
0.0
 40
0.02499335
100
AcDbArc
 50
287.9999999872296
 51
107.9999999872296
  0
ARC
  5
C0
330
70
100
AcDbEntity
  8
Scheibe v1_0
100
AcDbCircle
 10
-1.66678825
 20
5.683924000000001
 30
0.0
 40
0.0261718500000001
100
AcDbArc
 50
0.0
 51
180.0
  0
LINE
  5
C1
330
70
100
AcDbEntity
  8
Scheibe v1_0
100
AcDbLine
 10
-4.597038660893638
 20
7.431959745278454
 30
0.0
 11
-4.39361813368
 21
7.49805508119
 31
0.0
  0
LINE
  5
C2
330
70
100
AcDbEntity
  8
Scheibe v1_0
100
AcDbLine
 10
-4.61281362969636
 20
7.176223563018453
 30
0.0
 11
-4.409393102486361
 21
7.110128227108453
 31
0.0
  0
LINE
  5
C3
330
70
100
AcDbEntity
  8
Scheibe v1_0
100
AcDbLine
 10
-1.6406164
 20
5.683924000000001
 30
0.0
 11
-1.6406164
 21
4.554822999999999
 31
0.0
  0
SPLINE
  5
C4
330
70
100
AcDbEntity
  8
Scheibe v1_0
100
AcDbSpline
210
0.0
220
0.0
230
1.0
 70
     8
 71
     3
 72
     8
 73
     4
 74
     0
 42
0.000000001
 43
0.0000000001
 40
0.0
 40
0.0
 40
0.0
 40
0.0
 40
1.0
 40
1.0
 40
1.0
 40
1.0
 10
0.939185552876972
 20
7.284810793728941
 30
0.0
 10
0.9551427193198632
 20
7.084789482938126
 30
0.0
 10
1.124625996532866
 20
7.022296861782179
 30
0.0
 10
1.253037000000003
 20
7.048247000000002
 30
0.0
  0
ARC
  5
C5
330
70
100
AcDbEntity
  8
Scheibe v1_0
100
AcDbCircle
 10
-4.75481444434
 20
7.662817679359999
 30
0.0
 40
0.0249933500000004
100
AcDbArc
 50
144.0000000148873
 51
324.0000000148873
  0
LINE
  5
C6
330
70
100
AcDbEntity
  8
Scheibe v1_0
100
AcDbLine
 10
-5.221033524623639
 20
7.678132730585385
 30
0.0
 11
-5.34675432446
 21
7.851172566489999
 31
0.0
  0
LINE
  5
C7
330
70
100
AcDbEntity
  8
Scheibe v1_0
100
AcDbLine
 10
1.640039899999999
 20
5.683924000000001
 30
0.0
 11
1.6400399
 21
4.554822999999999
 31
0.0
  0
ARC
  5
C8
330
70
100
AcDbEntity
  8
Scheibe v1_0
100
AcDbCircle
 10
-4.604762030789999
 20
7.45572983366
 30
0.0
 40
0.0249933500000008
100
AcDbArc
 50
107.9999999999992
 51
287.9999999999992
  0
ARC
  5
C9
330
70
100
AcDbEntity
  8
Scheibe v1_0
100
AcDbCircle
 10
-5.36697436935
 20
7.83648184396
 30
0.0
 40
0.0249933499999992
100
AcDbArc
 50
35.99999999858544
 51
215.9999999985855
  0
ARC
  5
CA
330
70
100
AcDbEntity
  8
Scheibe v1_0
100
AcDbCircle
 10
-4.99899475
 20
6.700688000000001
 30
0.0
 40
0.0249933499999999
100
AcDbArc
 50
180.0
 51
0.0
  0
ARC
  5
CB
330
70
100
AcDbEntity
  8
Scheibe v1_0
100
AcDbCircle
 10
1.666211749999999
 20
5.683924000000001
 30
0.0
 40
0.0261718500000001
100
AcDbArc
 50
0.0
 51
180.0
  0
ARC
  5
CC
330
70
100
AcDbEntity
  8
Scheibe v1_0
100
AcDbCircle
 10
2.21647353301
 20
7.22554288693
 30
0.0
 40
0.1754010881758281
100
AcDbArc
 50
267.6684934947
 51
86.40835486201424
  0
LINE
  5
CD
330
70
100
AcDbEntity
  8
Scheibe v1_0
100
AcDbLine
 10
-5.261473614416362
 20
7.648751285514617
 30
0.0
 11
-5.38719441424636
 21
7.821791121424617
 31
0.0
  0
LINE
  5
CE
330
70
100
AcDbEntity
  8
Scheibe v1_0
100
AcDbLine
 10
-4.9740014
 20
6.914577
 30
0.0
 11
-4.9740014
 21
6.700688000000001
 31
0.0
  0
LINE
  5
CF
330
70
100
AcDbEntity
  8
Scheibe v1_0
100
AcDbLine
 10
1.692383599999999
 20
5.683924000000001
 30
0.0
 11
1.692383599999999
 21
4.554822999999999
 31
0.0
  0
ARC
  5
D0
330
70
100
AcDbEntity
  8
Scheibe v1_0
100
AcDbCircle
 10
-4.99978825
 20
5.683924000000001
 30
0.0
 40
0.0261718499999999
100
AcDbArc
 50
0.0
 51
180.0
  0
LINE
  5
D1
330
70
100
AcDbEntity
  8
Scheibe v1_0
100
AcDbLine
 10
-5.22189283935
 20
6.9792252682
 30
0.0
 11
-5.347613639173638
 21
6.806185432294616
 31
0.0
  0
ARC
  5
D2
330
70
100
AcDbEntity
  8
Scheibe v1_0
100
AcDbCircle
 10
-4.99899475
 20
6.914577
 30
0.0
 40
0.0249933500000008
100
AcDbArc
 50
0.0
 51
180.0
  0
LINE
  5
D3
330
70
100
AcDbEntity
  8
Scheibe v1_0
100
AcDbLine
 10
-4.73545371417
 20
7.00798238458
 30
0.0
 11
-4.60973291434
 21
6.83494254868
 31
0.0
  0
ARC
  5
D4
330
70
100
AcDbEntity
  8
Scheibe v1_0
100
AcDbCircle
 10
4.99921175
 20
4.554822999999999
 30
0.0
 40
0.0261718499999999
100
AcDbArc
 50
180.0
 51
0.0
  0
LINE
  5
D5
330
70
100
AcDbEntity
  8
Scheibe v1_0
100
AcDbLine
 10
-1.6929601
 20
5.683924000000001
 30
0.0
 11
-1.6929601
 21
4.554822999999999
 31
0.0
  0
ARC
  5
D6
330
70
100
AcDbEntity
  8
Scheibe v1_0
100
AcDbCircle
 10
-5.367833684069999
 20
6.82087615483
 30
0.0
 40
0.0249933500000004
100
AcDbArc
 50
143.9999999963428
 51
324.0000012037602
  0
ARC
  5
D7
330
70
100
AcDbEntity
  8
Scheibe v1_0
100
AcDbCircle
 10
1.666211749999999
 20
4.554822999999999
 30
0.0
 40
0.0261718500000001
100
AcDbArc
 50
180.0
 51
0.0
  0
ARC
  5
D8
330
70
100
AcDbEntity
  8
Scheibe v1_0
100
AcDbCircle
 10
-4.755673759069999
 20
6.993291662049999
 30
0.0
 40
0.0249933500000016
100
AcDbArc
 50
35.99999998511153
 51
215.9999999851115
  0
LINE
  5
D9
330
70
100
AcDbEntity
  8
Scheibe v1_0
100
AcDbLine
 10
-4.61248540068636
 20
7.479499922041546
 30
0.0
 11
-4.409064873466361
 21
7.545595257951545
 31
0.0
  0
LINE
  5
DA
330
70
100
AcDbEntity
  8
Scheibe v1_0
100
AcDbLine
 10
-4.9736164
 20
5.683924000000001
 30
0.0
 11
-4.9736164
 21
4.554822999999999
 31
0.0
  0
ARC
  5
DB
330
70
100
AcDbEntity
  8
Scheibe v1_0
100
AcDbCircle
 10
-4.40134150357
 20
7.521825169569999
 30
0.0
 40
0.0249933500000008
100
AcDbArc
 50
287.9999999872264
 51
108.0000011946454
  0
ARC
  5
DC
330
70
100
AcDbEntity
  8
Scheibe v1_0
100
AcDbCircle
 10
-4.629952959239999
 20
6.82025182614
 30
0.0
 40
0.0249933500000004
100
AcDbArc
 50
216.000000017132
 51
36.00000001713198
  0
ARC
  5
DD
330
70
100
AcDbEntity
  8
Scheibe v1_0
100
AcDbCircle
 10
-1.66678825
 20
4.554822999999999
 30
0.0
 40
0.0261718500000001
100
AcDbArc
 50
180.0
 51
0.0
  0
LINE
  5
DE
330
70
100
AcDbEntity
  8
Scheibe v1_0
100
AcDbLine
 10
-5.02292592859
 20
7.7421566701
 30
0.0
 11
-5.022925928589999
 21
7.9560456701
 31
0.0
  0
LINE
  5
DF
330
70
100
AcDbEntity
  8
Scheibe v1_0
100
AcDbLine
 10
4.9730399
 20
5.683924000000001
 30
0.0
 11
4.9730399
 21
4.554822999999999
 31
0.0
  0
ARC
  5
E0
330
70
100
AcDbEntity
  8
Scheibe v1_0
100
AcDbCircle
 10
2.23372603053
 20
7.50040305264
 30
0.0
 40
0.1000000000000016
100
AcDbArc
 50
182.5407455185152
 51
266.4083548622
  0
ARC
  5
E1
330
70
100
AcDbEntity
  8
Scheibe v1_0
100
AcDbCircle
 10
-5.24211288425
 20
6.993915990739999
 30
0.0
 40
0.0249933500000016
100
AcDbArc
 50
323.9999999963452
 51
143.9999999963452
  0
LINE
  5
E2
330
70
100
AcDbEntity
  8
Scheibe v1_0
100
AcDbLine
 10
-5.262332929140001
 20
7.008606713270001
 30
0.0
 11
-5.38805372897
 21
6.83556687737
 31
0.0
  0
LINE
  5
E3
330
70
100
AcDbEntity
  8
Scheibe v1_0
100
AcDbLine
 10
5.0253836
 20
5.683924000000001
 30
0.0
 11
5.0253836
 21
4.554822999999999
 31
0.0
  0
LINE
  5
E4
330
70
100
AcDbEntity
  8
Scheibe v1_0
100
AcDbLine
 10
-4.597366889903638
 20
7.223763739781546
 30
0.0
 11
-4.393946362693639
 21
7.157668403871546
 31
0.0
  0
CIRCLE
  5
E5
330
70
100
AcDbEntity
  8
Scheibe v1_0
100
AcDbCircle
 10
-4.9984636643
 20
7.328366835050001
 30
0.0
 40
0.3550069552665697
  0
LINE
  5
E6
330
70
100
AcDbEntity
  8
Scheibe v1_0
100
AcDbLine
 10
-1.082699127199751
 20
7.365696999052676
 30
0.0
 11
-0.8750133771997516
 21
7.365751999052677
 31
0.0
  0
ARC
  5
E7
330
70
100
AcDbEntity
  8
Scheibe v1_0
100
AcDbCircle
 10
-2.229425325809999
 20
7.488288157460001
 30
0.0
 40
0.0999999999999999
100
AcDbArc
 50
268.0789014909001
 51
338.3257971614004
  0
LINE
  5
E8
330
70
100
AcDbEntity
  8
Scheibe v1_0
100
AcDbLine
 10
4.974459
 20
6.797499000000001
 30
0.0
 11
4.974659000000002
 21
6.702672999999997
 31
0.0
  0
SPLINE
  5
E9
330
70
100
AcDbEntity
  8
Scheibe v1_0
100
AcDbSpline
210
0.0
220
0.0
230
1.0
 70
     8
 71
     3
 72
     8
 73
     4
 74
     0
 42
0.000000001
 43
0.0000000001
 40
0.0
 40
0.0
 40
0.0
 40
0.0
 40
1.0
 40
1.0
 40
1.0
 40
1.0
 10
-1.394562699999998
 20
6.897280000000001
 30
0.0
 10
-1.357388613634172
 20
6.897647015360324
 30
0.0
 10
-1.320219710465073
 20
6.898408285041575
 30
0.0
 10
-1.283050453975991
 20
6.899100514522081
 30
0.0
  0
SPLINE
  5
EA
330
70
100
AcDbEntity
  8
Scheibe v1_0
100
AcDbSpline
210
0.0
220
0.0
230
1.0
 70
     8
 71
     3
 72
     8
 73
     4
 74
     0
 42
0.000000001
 43
0.0000000001
 40
0.0
 40
0.0
 40
0.0
 40
0.0
 40
1.0
 40
1.0
 40
1.0
 40
1.0
 10
4.538384000000002
 20
6.867992
 30
0.0
 10
4.548195200000003
 20
6.858324099999999
 30
0.0
 10
4.563978000000003
 20
6.858413600000002
 30
0.0
 10
4.573679000000003
 20
6.868191999999999
 30
0.0
  0
ARC
  5
EB
330
70
100
AcDbEntity
  8
Scheibe v1_0
100
AcDbCircle
 10
-0.95721873723
 20
7.644131393069999
 30
0.0
 40
0.025024999930195
100
AcDbArc
 50
300.0151732499998
 51
120.0151732499998
  0
LINE
  5
EC
330
70
100
AcDbEntity
  8
Scheibe v1_0
100
AcDbLine
 10
-1.661825424190575
 20
7.69675845466968
 30
0.0
 11
-1.765715930590576
 21
7.876592090179679
 31
0.0
  0
LINE
  5
ED
330
70
100
AcDbEntity
  8
Scheibe v1_0
100
AcDbLine
 10
-1.45890050978
 20
7.738606715759999
 30
0.0
 11
-1.458955509779999
 21
7.94629246576
 31
0.0
  0
LINE
  5
EE
330
70
100
AcDbEntity
  8
Scheibe v1_0
100
AcDbLine
 10
-1.125867861794162
 20
7.106268406659249
 30
0.0
 11
-0.9680180372929974
 21
7.015189495860825
 31
0.0
  0
ARC
  5
EF
330
70
100
AcDbEntity
  8
Scheibe v1_0
100
AcDbCircle
 10
-0.87500675
 20
7.340727
 30
0.0
 40
0.0250249999301952
100
AcDbArc
 50
270.01517325
 51
90.01517325000003
  0
ARC
  5
F0
330
70
100
AcDbEntity
  8
Scheibe v1_0
100
AcDbCircle
 10
5.14951007387
 20
6.70622109002
 30
0.0
 40
0.0249998946120997
100
AcDbArc
 50
224.9303413904003
 51
315.0694194893004
  0
LINE
  5
F1
330
70
100
AcDbEntity
  8
Scheibe v1_0
100
AcDbLine
 10
-1.305589445319999
 20
7.698399436159999
 30
0.0
 11
-1.201794201709174
 21
7.878288071662998
 31
0.0
  0
LINE
  5
F2
330
70
100
AcDbEntity
  8
Scheibe v1_0
100
AcDbLine
 10
-1.262238248300823
 20
7.673385915757001
 30
0.0
 11
-1.158443004690825
 21
7.853274551257003
 31
0.0
  0
SPLINE
  5
F3
330
70
100
AcDbEntity
  8
Scheibe v1_0
100
AcDbSpline
210
0.0
220
0.0
230
1.0
 70
     8
 71
     3
 72
     8
 73
     4
 74
     0
 42
0.000000001
 43
0.0000000001
 40
0.0
 40
0.0
 40
0.0
 40
0.0
 40
1.0
 40
1.0
 40
1.0
 40
1.0
 10
4.974659000000002
 20
6.702672999999997
 30
0.0
 10
4.974738300000005
 20
6.688897499999999
 30
0.0
 10
4.985946400000003
 20
6.677782099999999
 30
0.0
 10
4.999722000000001
 20
6.677816999999999
 30
0.0
  0
LINE
  5
F4
330
70
100
AcDbEntity
  8
Scheibe v1_0
100
AcDbLine
 10
4.974356
 20
6.867985999999999
 30
0.0
 11
4.830386
 21
6.724015
 31
0.0
  0
LINE
  5
F5
330
70
100
AcDbEntity
  8
Scheibe v1_0
100
AcDbLine
 10
4.689484
 20
6.984258
 30
0.0
 11
4.973755999999999
 21
7.269253
 31
0.0
  0
LINE
  5
F6
330
70
100
AcDbEntity
  8
Scheibe v1_0
100
AcDbLine
 10
5.167209
 20
6.724015
 30
0.0
 11
5.024427
 21
6.866693999999999
 31
0.0
  0
LINE
  5
F7
330
70
100
AcDbEntity
  8
Scheibe v1_0
100
AcDbLine
 10
-1.082685872799999
 20
7.31564700095
 30
0.0
 11
-0.8750001228002485
 21
7.315702000947323
 31
0.0
  0
ARC
  5
F8
330
70
100
AcDbEntity
  8
Scheibe v1_0
100
AcDbCircle
 10
5.149623082539999
 20
6.70633398913
 30
0.0
 40
0.0250000293523477
100
AcDbArc
 50
314.7033186845998
 51
5.711548941478175
  0
LINE
  5
F9
330
70
100
AcDbEntity
  8
Scheibe v1_0
100
AcDbLine
 10
-1.12453413389032
 20
7.518571915360575
 30
0.0
 11
-0.9447004983803209
 21
7.622462421760575
 31
0.0
  0
ARC
  5
FA
330
70
100
AcDbEntity
  8
Scheibe v1_0
100
AcDbCircle
 10
-1.7873849019
 20
7.864073851329999
 30
0.0
 40
0.0250249999301952
100
AcDbArc
 50
30.01517325000069
 51
210.015172042583
  0
LINE
  5
FB
330
70
100
AcDbEntity
  8
Scheibe v1_0
100
AcDbLine
 10
5.02453
 20
6.795999999999999
 30
0.0
 11
5.131811000004142
 21
6.68856499999681
 31
0.0
  0
LINE
  5
FC
330
70
100
AcDbEntity
  8
Scheibe v1_0
100
AcDbLine
 10
4.865681000000003
 20
6.688564999999998
 30
0.0
 11
4.974459
 21
6.797499000000001
 31
0.0
  0
SPLINE
  5
FD
330
70
100
AcDbEntity
  8
Scheibe v1_0
100
AcDbSpline
210
0.0
220
0.0
230
1.0
 70
     8
 71
     3
 72
     8
 73
     4
 74
     0
 42
0.000000001
 43
0.0000000001
 40
0.0
 40
0.0
 40
0.0
 40
0.0
 40
1.0
 40
1.0
 40
1.0
 40
1.0
 10
4.639462000000004
 20
6.782254000000001
 30
0.0
 10
4.639484600000002
 20
6.768478899999999
 30
0.0
 10
4.650645900000003
 20
6.757317599999999
 30
0.0
 10
4.664421000000003
 20
6.757294999999999
 30
0.0
  0
ARC
  5
FE
330
70
100
AcDbEntity
  8
Scheibe v1_0
100
AcDbCircle
 10
-1.4822730487
 20
7.33901953986
 30
0.0
 40
0.3447179558892378
100
AcDbArc
 50
333.6357526257767
 51
108.8943923588781
  0
ARC
  5
FF
330
70
100
AcDbEntity
  8
Scheibe v1_0
100
AcDbCircle
 10
-1.13705237274
 20
7.54024088667
 30
0.0
 40
0.025024999930196
100
AcDbArc
 50
120.0151732499997
 51
300.0151732499997
  0
ARC
  5
100
330
70
100
AcDbEntity
  8
Scheibe v1_0
100
AcDbCircle
 10
-1.283913846809999
 20
7.685892675959999
 30
0.0
 40
0.0250249999301965
100
AcDbArc
 50
150.0151732568883
 51
330.0151732568883
  0
ARC
  5
101
330
70
100
AcDbEntity
  8
Scheibe v1_0
100
AcDbCircle
 10
4.848016407260001
 20
6.70629009811
 30
0.0
 40
0.0250002072571529
100
AcDbArc
 50
134.8468651201998
 51
225.1534520023029
  0
LINE
  5
102
330
70
100
AcDbEntity
  8
Scheibe v1_0
100
AcDbLine
 10
5.024630000000002
 20
6.702828000000001
 30
0.0
 11
5.02453
 21
6.795999999999999
 31
0.0
  0
ARC
  5
103
330
70
100
AcDbEntity
  8
Scheibe v1_0
100
AcDbCircle
 10
-1.1353999126
 20
7.14066033797
 30
0.0
 40
0.0250249999301952
100
AcDbArc
 50
60.01517325688794
 51
128.4161165298993
  0
LINE
  5
104
330
70
100
AcDbEntity
  8
Scheibe v1_0
100
AcDbLine
 10
4.973755999999999
 20
7.269253
 30
0.0
 11
4.974356
 21
6.867985999999999
 31
0.0
  0
SPLINE
  5
105
330
70
100
AcDbEntity
  8
Scheibe v1_0
100
AcDbSpline
210
0.0
220
0.0
230
1.0
 70
     8
 71
     3
 72
     8
 73
     4
 74
     0
 42
0.000000001
 43
0.0000000001
 40
0.0
 40
0.0
 40
0.0
 40
0.0
 40
1.0
 40
1.0
 40
1.0
 40
1.0
 10
4.830386
 20
6.688564999999998
 30
0.0
 10
4.840142200000004
 20
6.678842100000001
 30
0.0
 10
4.855924800000003
 20
6.678842100000001
 30
0.0
 10
4.865681000000003
 20
6.688564999999998
 30
0.0
  0
ARC
  5
106
330
70
100
AcDbEntity
  8
Scheibe v1_0
100
AcDbCircle
 10
-2.240918990969999
 20
7.14562394686
 30
0.0
 40
0.2428569170492826
100
AcDbArc
 50
88.0789014911113
 51
253.7889959426476
  0
ARC
  5
107
330
70
100
AcDbEntity
  8
Scheibe v1_0
100
AcDbCircle
 10
4.66448454368
 20
6.782294826739999
 30
0.0
 40
0.0249999074963729
100
AcDbArc
 50
269.8543679245998
 51
0.1447852875991051
  0
LINE
  5
108
330
70
100
AcDbEntity
  8
Scheibe v1_0
100
AcDbLine
 10
4.435445999999999
 20
7.014856999999999
 30
0.0
 11
4.435446000000784
 21
7.014803999996784
 31
0.0
  0
ARC
  5
109
330
70
100
AcDbEntity
  8
Scheibe v1_0
100
AcDbCircle
 10
4.55601440726
 20
6.885717098109999
 30
0.0
 40
0.0250002072571516
100
AcDbArc
 50
134.8468651201998
 51
225.1534520023029
  0
ARC
  5
10A
330
70
100
AcDbEntity
  8
Scheibe v1_0
100
AcDbCircle
 10
-1.286133648059999
 20
7.06465259643
 30
0.0
 40
0.1655807896721241
100
AcDbArc
 50
35.2716723800706
 51
47.09536579509985
  0
ARC
  5
10B
330
70
100
AcDbEntity
  8
Scheibe v1_0
100
AcDbCircle
 10
-1.76487566112
 20
7.303663634510001
 30
0.0
 40
0.3998925939043228
100
AcDbArc
 50
64.68777474900001
 51
74.64466566959995
  0
LINE
  5
10C
330
70
100
AcDbEntity
  8
Scheibe v1_0
100
AcDbLine
 10
-1.508950507882677
 20
7.738593461360248
 30
0.0
 11
-1.509005507882676
 21
7.946279211360248
 31
0.0
  0
ARC
  5
10D
330
70
100
AcDbEntity
  8
Scheibe v1_0
100
AcDbCircle
 10
-1.1801186032
 20
7.865781311460001
 30
0.0
 40
0.0250249999301943
100
AcDbArc
 50
330.0151732499994
 51
150.0151732499994
  0
LINE
  5
10E
330
70
100
AcDbEntity
  8
Scheibe v1_0
100
AcDbLine
 10
-1.1228931524
 20
7.162335936479999
 30
0.0
 11
-0.9430045168899999
 21
7.05854069288
 31
0.0
  0
ARC
  5
10F
330
70
100
AcDbEntity
  8
Scheibe v1_0
100
AcDbCircle
 10
-0.95551127709
 20
7.03686509437
 30
0.0
 40
0.0250249999301942
100
AcDbArc
 50
240.0151732499999
 51
60.01517324999986
  0
LINE
  5
110
330
70
100
AcDbEntity
  8
Scheibe v1_0
100
AcDbLine
 10
-1.72223715483
 20
7.70127656745
 30
0.0
 11
-1.809053873209424
 21
7.85155561248032
 31
0.0
  0
LINE
  5
111
330
70
100
AcDbEntity
  8
Scheibe v1_0
100
AcDbLine
 10
-1.149570611589679
 20
7.561909857979425
 30
0.0
 11
-0.9697369760796792
 21
7.665800364379423
 31
0.0
  0
ARC
  5
112
330
70
100
AcDbEntity
  8
Scheibe v1_0
100
AcDbCircle
 10
-1.0826925
 20
7.340671999999999
 30
0.0
 40
0.0250249999301952
100
AcDbArc
 50
90.01517324999976
 51
270.0151732499997
  0
SPLINE
  5
113
330
70
100
AcDbEntity
  8
Scheibe v1_0
100
AcDbSpline
210
0.0
220
0.0
230
1.0
 70
     8
 71
     3
 72
     8
 73
     4
 74
     0
 42
0.000000001
 43
0.0000000001
 40
0.0
 40
0.0
 40
0.0
 40
0.0
 40
1.0
 40
1.0
 40
1.0
 40
1.0
 10
4.999722000000001
 20
6.677816999999999
 30
0.0
 10
5.013497500000004
 20
6.677867699999999
 30
0.0
 10
5.024636100000003
 20
6.689052400000001
 30
0.0
 10
5.024630000000002
 20
6.702828000000001
 30
0.0
  0
SPLINE
  5
114
330
70
100
AcDbEntity
  8
Scheibe v1_0
100
AcDbSpline
210
0.0
220
0.0
230
1.0
 70
     8
 71
     3
 72
     9
 73
     5
 74
     0
 42
0.000000001
 43
0.0000000001
 40
0.0
 40
0.0
 40
0.0
 40
0.0
 40
0.5306993283704223
 40
1.0
 40
1.0
 40
1.0
 40
1.0
 10
-2.189139499999996
 20
6.89816
 30
0.0
 10
-2.048580231040407
 20
6.896460907868
 30
0.0
 10
-1.783722349211903
 20
6.894802718469678
 30
0.0
 10
-1.518862226805253
 20
6.896052805465356
 30
0.0
 10
-1.394562699999998
 20
6.897280000000001
 30
0.0
  0
ARC
  5
115
330
70
100
AcDbEntity
  8
Scheibe v1_0
100
AcDbCircle
 10
-1.76487566112
 20
7.303663634510001
 30
0.0
 40
0.3998925939043213
100
AcDbArc
 50
83.87920813588555
 51
158.3257971613495
  0
ARC
  5
116
330
70
100
AcDbEntity
  8
Scheibe v1_0
100
AcDbCircle
 10
-1.48398050883
 20
7.94628583856
 30
0.0
 40
0.0250249999301948
100
AcDbArc
 50
0.0151732505696502
 51
180.0151732505696
  0
LINE
  5
117
330
70
100
AcDbEntity
  8
Scheibe v1_0
100
AcDbLine
 10
4.689484
 20
6.782358000000001
 30
0.0
 11
4.689484
 21
6.984258
 31
0.0
  0
ARC
  5
118
330
70
100
AcDbEntity
  8
Scheibe v1_0
100
AcDbCircle
 10
-1.48392550883
 20
7.73860008856
 30
0.0
 40
0.0250249999301959
100
AcDbArc
 50
180.0151732500002
 51
0.0151732500002636
  0
SPLINE
  5
119
330
70
100
AcDbEntity
  8
Scheibe v1_0
100
AcDbSpline
210
0.0
220
0.0
230
1.0
 70
     8
 71
     2
 72
     6
 73
     3
 74
     0
 42
0.000000001
 43
0.0000000001
 40
0.0
 40
0.0
 40
0.0
 40
1.0
 40
1.0
 40
1.0
 10
-2.189139499999996
 20
6.89816
 30
0.0
 10
-2.262719589119157
 20
6.899049442236144
 30
0.0
 10
-2.308718699999996
 20
6.912423000000001
 30
0.0
  0
LINE
  5
11A
330
70
100
AcDbEntity
  8
Scheibe v1_0
100
AcDbLine
 10
4.573679
 20
6.868191999999999
 30
0.0
 11
4.639515
 21
6.934235
 31
0.0
  0
ARC
  5
11B
330
70
100
AcDbEntity
  8
Scheibe v1_0
100
AcDbCircle
 10
-1.6834943955
 20
7.68424021582
 30
0.0
 40
0.0250249999301957
100
AcDbArc
 50
11.62038976515853
 51
30.01517325000019
  0
LINE
  5
11C
330
70
100
AcDbEntity
  8
Scheibe v1_0
100
AcDbLine
 10
4.639515
 20
6.934235
 30
0.0
 11
4.639462000000004
 21
6.782254000000001
 31
0.0
  0
ARC
  5
11D
330
70
100
AcDbEntity
  8
Scheibe v1_0
100
AcDbCircle
 10
4.451246093279999
 20
6.99542974546
 30
0.0
 40
0.0250000937295846
100
AcDbArc
 50
129.197934204299
 51
180.0108757597999
  0
ARC
  5
11E
330
70
100
AcDbEntity
  8
Scheibe v1_0
100
AcDbCircle
 10
5.149632924270001
 20
6.70623607112
 30
0.0
 40
0.0250001750028851
100
AcDbArc
 50
5.93709014810054
 51
45.32873710376351
  0
ARC
  5
11F
330
70
100
AcDbEntity
  8
Scheibe v1_0
100
AcDbCircle
 10
-1.286133648059999
 20
7.06465259643
 30
0.0
 40
0.165580789672123
100
AcDbArc
 50
271.06693668201
 51
14.55636824749989
  0
SPLINE
  5
120
330
70
100
AcDbEntity
  8
Scheibe v1_0
100
AcDbSpline
210
0.0
220
0.0
230
1.0
 70
     8
 71
     3
 72
     8
 73
     4
 74
     0
 42
0.000000001
 43
0.0000000001
 40
0.0
 40
0.0
 40
0.0
 40
0.0
 40
1.0
 40
1.0
 40
1.0
 40
1.0
 10
4.357673000000001
 20
7.196517
 30
0.0
 10
4.347950100000004
 20
7.186760799999999
 30
0.0
 10
4.347950100000004
 20
7.170978199999999
 30
0.0
 10
4.357673000000001
 20
7.161222000000002
 30
0.0
  0
LINE
  5
121
330
70
100
AcDbEntity
  8
Scheibe v1_0
100
AcDbLine
 10
4.973002000000001
 20
7.792690999999999
 30
0.0
 11
4.973602
 21
7.390286999999999
 31
0.0
  0
ARC
  5
122
330
70
100
AcDbEntity
  8
Scheibe v1_0
100
AcDbCircle
 10
4.99769920041
 20
7.956722969319999
 30
0.0
 40
0.0250002772131212
100
AcDbArc
 50
89.85607442069982
 51
180.1420217813003
  0
LINE
  5
123
330
70
100
AcDbEntity
  8
Scheibe v1_0
100
AcDbLine
 10
4.972699000000067
 20
7.956661000003985
 30
0.0
 11
4.972899
 21
7.863436
 31
0.0
  0
ARC
  5
124
330
70
100
AcDbEntity
  8
Scheibe v1_0
100
AcDbCircle
 10
4.664530652949999
 20
7.8771947114
 30
0.0
 40
0.0250002888680739
100
AcDbArc
 50
39.19814711646157
 51
90.00837184849951
  0
LINE
  5
125
330
70
100
AcDbEntity
  8
Scheibe v1_0
100
AcDbLine
 10
4.464902
 20
7.303848999999999
 30
0.0
 11
4.357673
 21
7.196517
 31
0.0
  0
LINE
  5
126
330
70
100
AcDbEntity
  8
Scheibe v1_0
100
AcDbLine
 10
4.972899
 20
7.863436
 30
0.0
 11
4.865618000000003
 21
7.97082
 31
0.0
  0
ARC
  5
127
330
70
100
AcDbEntity
  8
Scheibe v1_0
100
AcDbCircle
 10
4.66446407012
 20
7.877194982909999
 30
0.0
 40
0.0250003299558153
100
AcDbArc
 50
89.85577573239996
 51
180.2612270504997
  0
LINE
  5
128
330
70
100
AcDbEntity
  8
Scheibe v1_0
100
AcDbLine
 10
4.605254999999999
 20
7.68887
 30
0.0
 11
4.451311000000003
 21
7.688970000000001
 31
0.0
  0
ARC
  5
129
330
70
100
AcDbEntity
  8
Scheibe v1_0
100
AcDbCircle
 10
5.14944492613
 20
7.953066909979999
 30
0.0
 40
0.024999894612096
100
AcDbArc
 50
44.93034139040035
 51
135.0694194893004
  0
LINE
  5
12A
330
70
100
AcDbEntity
  8
Scheibe v1_0
100
AcDbLine
 10
4.689485
 20
7.675076
 30
0.0
 11
4.68958499999742
 21
7.877079000001477
 31
0.0
  0
LINE
  5
12B
330
70
100
AcDbEntity
  8
Scheibe v1_0
100
AcDbLine
 10
4.655019999999999
 20
7.020386999999999
 30
0.0
 11
4.451362999999999
 21
7.020487
 31
0.0
  0
LINE
  5
12C
330
70
100
AcDbEntity
  8
Scheibe v1_0
100
AcDbLine
 10
5.357964
 20
7.725159000000001
 30
0.0
 11
5.358016999999962
 21
7.877036000003237
 31
0.0
  0
LINE
  5
12D
330
70
100
AcDbEntity
  8
Scheibe v1_0
100
AcDbLine
 10
4.371833
 20
7.303749
 30
0.0
 11
4.464902
 21
7.303848999999999
 31
0.0
  0
LINE
  5
12E
330
70
100
AcDbEntity
  8
Scheibe v1_0
100
AcDbLine
 10
5.023019
 20
7.861841
 30
0.0
 11
5.022819000000001
 21
7.956564
 31
0.0
  0
ARC
  5
12F
330
70
100
AcDbEntity
  8
Scheibe v1_0
100
AcDbCircle
 10
5.14956216367
 20
7.95304595175
 30
0.0
 40
0.0249999756537043
100
AcDbArc
 50
314.6902823944153
 51
354.196436791399
  0
LINE
  5
130
330
70
100
AcDbEntity
  8
Scheibe v1_0
100
AcDbLine
 10
4.639517
 20
7.725152
 30
0.0
 11
4.573681000002737
 21
7.79119400000293
 31
0.0
  0
ARC
  5
131
330
70
100
AcDbEntity
  8
Scheibe v1_0
100
AcDbCircle
 10
5.441530625529999
 20
7.773508946459999
 30
0.0
 40
0.0250002133969387
100
AcDbArc
 50
45.19880865449978
 51
87.64249429280068
  0
ARC
  5
132
330
70
100
AcDbEntity
  8
Scheibe v1_0
100
AcDbCircle
 10
5.44151659274
 20
7.77352290189
 30
0.0
 40
0.0250002072571385
100
AcDbArc
 50
314.8468651201004
 51
45.15345201180122
  0
ARC
  5
133
330
70
100
AcDbEntity
  8
Scheibe v1_0
100
AcDbCircle
 10
5.332893843459999
 20
7.87709350191
 30
0.0
 40
0.0250000921096063
100
AcDbArc
 50
140.7860772070006
 51
180.2555434513998
  0
ARC
  5
134
330
70
100
AcDbEntity
  8
Scheibe v1_0
100
AcDbCircle
 10
4.37544177267
 20
7.4805109353
 30
0.0
 40
0.0249999790781774
100
AcDbArc
 50
87.49370622069953
 51
135.2960925076994
  0
SPLINE
  5
135
330
70
100
AcDbEntity
  8
Scheibe v1_0
100
AcDbSpline
210
0.0
220
0.0
230
1.0
 70
     8
 71
     3
 72
     8
 73
     4
 74
     0
 42
0.000000001
 43
0.0000000001
 40
0.0
 40
0.0
 40
0.0
 40
0.0
 40
1.0
 40
1.0
 40
1.0
 40
1.0
 10
4.357673000000001
 20
7.498097000000001
 30
0.0
 10
4.347950100000004
 20
7.488340800000002
 30
0.0
 10
4.347950100000004
 20
7.472558200000001
 30
0.0
 10
4.357673000000001
 20
7.462801999999998
 30
0.0
  0
ARC
  5
136
330
70
100
AcDbEntity
  8
Scheibe v1_0
100
AcDbCircle
 10
4.45124527337
 20
6.99536153259
 30
0.0
 40
0.0249997654632267
100
AcDbArc
 50
179.8545394959009
 51
270.263820267999
  0
LINE
  5
137
330
70
100
AcDbEntity
  8
Scheibe v1_0
100
AcDbLine
 10
4.451414
 20
7.638946999999999
 30
0.0
 11
4.655019999999999
 21
7.638946999999999
 31
0.0
  0
LINE
  5
138
330
70
100
AcDbEntity
  8
Scheibe v1_0
100
AcDbLine
 10
5.131745999999999
 20
7.970723000000001
 30
0.0
 11
5.023019
 21
7.861841
 31
0.0
  0
ARC
  5
139
330
70
100
AcDbEntity
  8
Scheibe v1_0
100
AcDbCircle
 10
5.33289817284
 20
7.87709924692
 30
0.0
 40
0.0249998154120559
100
AcDbArc
 50
89.8720525273004
 51
140.802551679653
  0
LINE
  5
13A
330
70
100
AcDbEntity
  8
Scheibe v1_0
100
AcDbLine
 10
5.392278000000001
 20
7.688773000000001
 30
0.0
 11
5.459146999999999
 21
7.755798
 31
0.0
  0
ARC
  5
13B
330
70
100
AcDbEntity
  8
Scheibe v1_0
100
AcDbCircle
 10
5.14955343407
 20
7.952958669979999
 30
0.0
 40
0.0249999886206328
100
AcDbArc
 50
354.3974701298662
 51
45.28159803550417
  0
LINE
  5
13C
330
70
100
AcDbEntity
  8
Scheibe v1_0
100
AcDbLine
 10
4.537094
 20
7.354075
 30
0.0
 11
4.392968000002724
 21
7.498097000002919
 31
0.0
  0
LINE
  5
13D
330
70
100
AcDbEntity
  8
Scheibe v1_0
100
AcDbLine
 10
5.307894000004217
 20
7.876982000003635
 30
0.0
 11
5.307994
 21
7.675083
 31
0.0
  0
LINE
  5
13E
330
70
100
AcDbEntity
  8
Scheibe v1_0
100
AcDbLine
 10
4.973602
 20
7.390286999999999
 30
0.0
 11
4.689485
 21
7.675076
 31
0.0
  0
LINE
  5
13F
330
70
100
AcDbEntity
  8
Scheibe v1_0
100
AcDbLine
 10
5.307994
 20
7.675083
 30
0.0
 11
5.02367
 21
7.389983
 31
0.0
  0
LINE
  5
140
330
70
100
AcDbEntity
  8
Scheibe v1_0
100
AcDbLine
 10
5.423696999999999
 20
7.791098000000001
 30
0.0
 11
5.357964
 21
7.725159000000001
 31
0.0
  0
LINE
  5
141
330
70
100
AcDbEntity
  8
Scheibe v1_0
100
AcDbLine
 10
5.02367
 20
7.389983
 30
0.0
 11
5.02307
 21
7.791303
 31
0.0
  0
LINE
  5
142
330
70
100
AcDbEntity
  8
Scheibe v1_0
100
AcDbLine
 10
4.830322999999999
 20
7.93537
 30
0.0
 11
4.973002000000001
 21
7.792690999999999
 31
0.0
  0
LINE
  5
143
330
70
100
AcDbEntity
  8
Scheibe v1_0
100
AcDbLine
 10
4.605201
 20
6.970415
 30
0.0
 11
4.538383999999999
 21
6.903442
 31
0.0
  0
LINE
  5
144
330
70
100
AcDbEntity
  8
Scheibe v1_0
100
AcDbLine
 10
4.392967999999999
 20
7.161221999999999
 30
0.0
 11
4.535854
 21
7.303951999999999
 31
0.0
  0
LINE
  5
145
330
70
100
AcDbEntity
  8
Scheibe v1_0
100
AcDbLine
 10
4.451361
 20
6.970362
 30
0.0
 11
4.605201
 21
6.970415
 31
0.0
  0
ARC
  5
146
330
70
100
AcDbEntity
  8
Scheibe v1_0
100
AcDbCircle
 10
4.55601640726
 20
7.77361909811
 30
0.0
 40
0.0250002072571285
100
AcDbArc
 50
134.8468651201004
 51
225.1534520023016
  0
SPLINE
  5
147
330
70
100
AcDbEntity
  8
Scheibe v1_0
100
AcDbSpline
210
0.0
220
0.0
230
1.0
 70
     8
 71
     3
 72
     8
 73
     4
 74
     0
 42
0.000000001
 43
0.0000000001
 40
0.0
 40
0.0
 40
0.0
 40
0.0
 40
1.0
 40
1.0
 40
1.0
 40
1.0
 10
4.357673000000001
 20
7.161222000000002
 30
0.0
 10
4.367429200000003
 20
7.151499100000001
 30
0.0
 10
4.383211800000004
 20
7.151499100000001
 30
0.0
 10
4.392968000000001
 20
7.161222000000002
 30
0.0
  0
ARC
  5
148
330
70
100
AcDbEntity
  8
Scheibe v1_0
100
AcDbCircle
 10
4.371821039479999
 20
7.328749276339999
 30
0.0
 40
0.0250002792049518
100
AcDbArc
 50
179.8562484979001
 51
270.0274111875899
  0
LINE
  5
149
330
70
100
AcDbEntity
  8
Scheibe v1_0
100
AcDbLine
 10
4.535854
 20
7.303951999999999
 30
0.0
 11
4.93831
 21
7.304451999999999
 31
0.0
  0
ARC
  5
14A
330
70
100
AcDbEntity
  8
Scheibe v1_0
100
AcDbCircle
 10
4.556011782689999
 20
7.773614553729998
 30
0.0
 40
0.0250000296073763
100
AcDbArc
 50
87.16564608779961
 51
134.8320059251
  0
ARC
  5
14B
330
70
100
AcDbEntity
  8
Scheibe v1_0
100
AcDbCircle
 10
4.45125149809
 20
6.99548715654
 30
0.0
 40
0.0250000921096261
100
AcDbArc
 50
89.74445654031354
 51
129.2139227804492
  0
ARC
  5
14C
330
70
100
AcDbEntity
  8
Scheibe v1_0
100
AcDbCircle
 10
4.3751870015
 20
7.48052360976
 30
0.0
 40
0.0249997590465145
100
AcDbArc
 50
44.66355123710044
 51
86.90908623635799
  0
ARC
  5
14D
330
70
100
AcDbEntity
  8
Scheibe v1_0
100
AcDbCircle
 10
4.5559000015
 20
7.77362060976
 30
0.0
 40
0.0249997590465314
100
AcDbArc
 50
44.66355123709922
 51
86.90908622134832
  0
LINE
  5
14E
330
70
100
AcDbEntity
  8
Scheibe v1_0
100
AcDbLine
 10
4.655019999999999
 20
7.638946999999999
 30
0.0
 11
4.938515999999999
 21
7.354675
 31
0.0
  0
LINE
  5
14F
330
70
100
AcDbEntity
  8
Scheibe v1_0
100
AcDbLine
 10
4.466349
 20
7.354023000000001
 30
0.0
 11
4.371729000000001
 21
7.353823
 31
0.0
  0
LINE
  5
150
330
70
100
AcDbEntity
  8
Scheibe v1_0
100
AcDbLine
 10
4.538386
 20
7.755894000000001
 30
0.0
 11
4.605254999999999
 21
7.68887
 31
0.0
  0
LINE
  5
151
330
70
100
AcDbEntity
  8
Scheibe v1_0
100
AcDbLine
 10
5.02307
 20
7.791303
 30
0.0
 11
5.167144
 21
7.935273000000001
 31
0.0
  0
LINE
  5
152
330
70
100
AcDbEntity
  8
Scheibe v1_0
100
AcDbLine
 10
4.639464000004193
 20
7.877080999997373
 30
0.0
 11
4.639517
 21
7.725152
 31
0.0
  0
ARC
  5
153
330
70
100
AcDbEntity
  8
Scheibe v1_0
100
AcDbCircle
 10
5.33301717326
 20
7.87709954368
 30
0.0
 40
0.0249999074963693
100
AcDbArc
 50
359.8543679245998
 51
90.14478528759914
  0
ARC
  5
154
330
70
100
AcDbEntity
  8
Scheibe v1_0
100
AcDbCircle
 10
5.441465772669999
 20
7.7735119353
 30
0.0
 40
0.0249999790781614
100
AcDbArc
 50
87.49370622562464
 51
135.296092505385
  0
SPLINE
  5
155
330
70
100
AcDbEntity
  8
Scheibe v1_0
100
AcDbSpline
210
0.0
220
0.0
230
1.0
 70
     8
 71
     3
 72
     8
 73
     4
 74
     0
 42
0.000000001
 43
0.0000000001
 40
0.0
 40
0.0
 40
0.0
 40
0.0
 40
1.0
 40
1.0
 40
1.0
 40
1.0
 10
4.451311000000003
 20
7.688970000000001
 30
0.0
 10
4.437535100000001
 20
7.688948
 30
0.0
 10
4.426373000000004
 20
7.677785899999999
 30
0.0
 10
4.426351000000002
 20
7.664009999999997
 30
0.0
  0
SPLINE
  5
156
330
70
100
AcDbEntity
  8
Scheibe v1_0
100
AcDbSpline
210
0.0
220
0.0
230
1.0
 70
     8
 71
     3
 72
     8
 73
     4
 74
     0
 42
0.000000001
 43
0.0000000001
 40
0.0
 40
0.0
 40
0.0
 40
0.0
 40
1.0
 40
1.0
 40
1.0
 40
1.0
 10
4.865618000000003
 20
7.97082
 30
0.0
 10
4.855861800000004
 20
7.980542900000002
 30
0.0
 10
4.840079200000004
 20
7.980542900000002
 30
0.0
 10
4.830323000000003
 20
7.97082
 30
0.0
  0
SPLINE
  5
157
330
70
100
AcDbEntity
  8
Scheibe v1_0
100
AcDbSpline
210
0.0
220
0.0
230
1.0
 70
     8
 71
     3
 72
     8
 73
     4
 74
     0
 42
0.000000001
 43
0.0000000001
 40
0.0
 40
0.0
 40
0.0
 40
0.0
 40
1.0
 40
1.0
 40
1.0
 40
1.0
 10
4.371729000000002
 20
7.353823000000001
 30
0.0
 10
4.3579535
 20
7.3537723
 30
0.0
 10
4.346814900000004
 20
7.3425876
 30
0.0
 10
4.346821000000002
 20
7.328811999999998
 30
0.0
  0
ARC
  5
158
330
70
100
AcDbEntity
  8
Scheibe v1_0
100
AcDbCircle
 10
4.664584732399999
 20
7.87712858583
 30
0.0
 40
0.0250003167719341
100
AcDbArc
 50
359.8863590174995
 51
39.39392111859971
  0
ARC
  5
159
330
70
100
AcDbEntity
  8
Scheibe v1_0
100
AcDbCircle
 10
4.84795340726
 20
7.953095098109999
 30
0.0
 40
0.0250002072571461
100
AcDbArc
 50
134.8468651201005
 51
225.1534520023015
  0
LINE
  5
15A
330
70
100
AcDbEntity
  8
Scheibe v1_0
100
AcDbLine
 10
4.93831
 20
7.304451999999999
 30
0.0
 11
4.655019999999999
 21
7.020386999999999
 31
0.0
  0
LINE
  5
15B
330
70
100
AcDbEntity
  8
Scheibe v1_0
100
AcDbLine
 10
4.938515999999999
 20
7.354675
 30
0.0
 11
4.537094
 21
7.354075
 31
0.0
  0
ARC
  5
15C
330
70
100
AcDbEntity
  8
Scheibe v1_0
100
AcDbCircle
 10
4.99781903176
 20
7.95662689197
 30
0.0
 40
0.0250001104651858
100
AcDbArc
 50
359.8558623458992
 51
90.02528281389921
  0
ARC
  5
15D
330
70
100
AcDbEntity
  8
Scheibe v1_0
100
AcDbCircle
 10
4.451350826739999
 20
7.663946456319999
 30
0.0
 40
0.0249999074963755
100
AcDbArc
 50
179.8543679171862
 51
270.1447852875991
  0
LINE
  5
15E
330
70
100
AcDbEntity
  8
Scheibe v1_0
100
AcDbLine
 10
5.54617
 20
7.688873
 30
0.0
 11
5.392278000000001
 21
7.688773000000001
 31
0.0
  0
LINE
  5
15F
330
70
100
AcDbEntity
  8
Scheibe v1_0
100
AcDbLine
 10
4.357673000000001
 20
7.462801999999998
 30
0.0
 11
4.466349
 21
7.354023000000001
 31
0.0
  0
LINE
  5
160
330
70
100
AcDbEntity
  8
Scheibe v1_0
100
AcDbLine
 10
5.342513
 20
7.020386999999999
 30
0.0
 11
5.058965
 21
7.304659
 31
0.0
  0
LINE
  5
161
330
70
100
AcDbEntity
  8
Scheibe v1_0
100
AcDbLine
 10
1.530378592918894
 20
6.954582654488896
 30
0.0
 11
1.419474185839999
 21
6.76257830898
 31
0.0
  0
LINE
  5
162
330
70
100
AcDbEntity
  8
Scheibe v1_0
100
AcDbLine
 10
5.60441
 20
7.498064000000001
 30
0.0
 11
5.461679
 21
7.355333
 31
0.0
  0
LINE
  5
163
330
70
100
AcDbEntity
  8
Scheibe v1_0
100
AcDbLine
 10
5.39233
 20
6.970415
 30
0.0
 11
5.546119
 21
6.970362
 31
0.0
  0
ARC
  5
164
330
70
100
AcDbEntity
  8
Scheibe v1_0
100
AcDbCircle
 10
5.44151759274
 20
6.885716901890001
 30
0.0
 40
0.0250002072571367
100
AcDbArc
 50
314.846865120099
 51
45.15345200230009
  0
LINE
  5
165
330
70
100
AcDbEntity
  8
Scheibe v1_0
100
AcDbLine
 10
5.357967000000003
 20
6.782254000000001
 30
0.0
 11
5.357914
 21
6.934183
 31
0.0
  0
LINE
  5
166
330
70
100
AcDbEntity
  8
Scheibe v1_0
100
AcDbLine
 10
5.307944
 20
6.984258
 30
0.0
 11
5.307944
 21
6.782358000000001
 31
0.0
  0
LINE
  5
167
330
70
100
AcDbEntity
  8
Scheibe v1_0
100
AcDbLine
 10
1.687118407081106
 20
6.979570345511105
 30
0.0
 11
1.576214000001104
 21
6.787566000001106
 31
0.0
  0
LINE
  5
168
330
70
100
AcDbEntity
  8
Scheibe v1_0
100
AcDbLine
 10
5.460439
 20
7.305159
 30
0.0
 11
5.60441
 21
7.161188
 31
0.0
  0
ARC
  5
169
330
70
100
AcDbEntity
  8
Scheibe v1_0
100
AcDbCircle
 10
1.79784409292
 20
6.77507215449
 30
0.0
 40
0.0249791331982403
100
AcDbArc
 50
149.9886662752654
 51
329.9886650678469
  0
LINE
  5
16A
330
70
100
AcDbEntity
  8
Scheibe v1_0
100
AcDbLine
 10
-7.4
 20
9.0
 30
0.0
 11
7.400000000000003
 21
9.000000000000005
 31
0.0
  0
ARC
  5
16B
330
70
100
AcDbEntity
  8
Scheibe v1_0
100
AcDbCircle
 10
5.33294382674
 20
6.782294456319999
 30
0.0
 40
0.0249999074963738
100
AcDbArc
 50
179.8543679171781
 51
270.1447852875991
  0
SPLINE
  5
16C
330
70
100
AcDbEntity
  8
Scheibe v1_0
100
AcDbSpline
210
0.0
220
0.0
230
1.0
 70
     8
 71
     3
 72
     8
 73
     4
 74
     0
 42
0.000000001
 43
0.0000000001
 40
0.0
 40
0.0
 40
0.0
 40
0.0
 40
1.0
 40
1.0
 40
1.0
 40
1.0
 10
5.571130000000003
 20
7.663913
 30
0.0
 10
5.571108000000004
 20
7.677688900000003
 30
0.0
 10
5.559945900000003
 20
7.688850999999999
 30
0.0
 10
5.546170000000003
 20
7.688873000000002
 30
0.0
  0
LINE
  5
16D
330
70
100
AcDbEntity
  8
Scheibe v1_0
100
AcDbLine
 10
5.459148
 20
6.903442
 30
0.0
 11
5.39233
 21
6.970415
 31
0.0
  0
LINE
  5
16E
330
70
100
AcDbEntity
  8
Scheibe v1_0
100
AcDbLine
 10
5.059067999999999
 20
7.354733
 30
0.0
 11
5.342461
 21
7.638850999999999
 31
0.0
  0
ARC
  5
16F
330
70
100
AcDbEntity
  8
Scheibe v1_0
100
AcDbCircle
 10
1.7087485
 20
6.967076500000001
 30
0.0
 40
0.0249791331982387
100
AcDbArc
 50
329.9886662718002
 51
149.9886662718002
  0
ARC
  5
170
330
70
100
AcDbEntity
  8
Scheibe v1_0
100
AcDbCircle
 10
5.54618316608
 20
6.99536188294
 30
0.0
 40
0.0249999652841923
100
AcDbArc
 50
269.8529418114634
 51
0.1446543037996384
  0
LINE
  5
171
330
70
100
AcDbEntity
  8
Scheibe v1_0
100
AcDbLine
 10
5.357914
 20
6.934183
 30
0.0
 11
5.42369799999702
 21
6.868192000001607
 31
0.0
  0
ARC
  5
172
330
70
100
AcDbEntity
  8
Scheibe v1_0
100
AcDbCircle
 10
5.625712166079999
 20
7.330409882939999
 30
0.0
 40
0.0249999652841869
100
AcDbArc
 50
269.8529418170998
 51
0.1446543037996744
  0
LINE
  5
173
330
70
100
AcDbEntity
  8
Scheibe v1_0
100
AcDbLine
 10
1.930378592918894
 20
6.954582654488896
 30
0.0
 11
1.81947418584
 21
6.76257830898
 31
0.0
  0
LINE
  5
174
330
70
100
AcDbEntity
  8
Scheibe v1_0
100
AcDbLine
 10
7.5
 20
8.9
 30
0.0
 11
7.5
 21
3.0
 31
0.0
  0
SPLINE
  5
175
330
70
100
AcDbEntity
  8
Scheibe v1_0
100
AcDbSpline
210
0.0
220
0.0
230
1.0
 70
     8
 71
     3
 72
     8
 73
     4
 74
     0
 42
0.000000001
 43
0.0000000001
 40
0.0
 40
0.0
 40
0.0
 40
0.0
 40
1.0
 40
1.0
 40
1.0
 40
1.0
 10
7.500000000000004
 20
8.900000000000003
 30
0.0
 10
7.500000000000004
 20
8.970812865896254
 30
0.0
 10
7.471247899289719
 20
9.000000000000005
 30
0.0
 10
7.400000000000003
 20
9.000000000000005
 30
0.0
  0
LINE
  5
176
330
70
100
AcDbEntity
  8
Scheibe v1_0
100
AcDbLine
 10
4.997808000002946
 20
7.981627000001203
 30
0.0
 11
4.997762
 21
7.981723000000001
 31
0.0
  0
ARC
  5
177
330
70
100
AcDbEntity
  8
Scheibe v1_0
100
AcDbCircle
 10
5.62213441532
 20
7.178818868569999
 30
0.0
 40
0.0250001685670641
100
AcDbArc
 50
224.8484011090999
 51
315.1518726105007
  0
ARC
  5
178
330
70
100
AcDbEntity
  8
Scheibe v1_0
100
AcDbCircle
 10
1.5087485
 20
6.967076500000001
 30
0.0
 40
0.0249791331982387
100
AcDbArc
 50
329.9886662718002
 51
149.9886674792187
  0
LINE
  5
179
330
70
100
AcDbEntity
  8
Scheibe v1_0
100
AcDbLine
 10
5.639859000000001
 20
7.196483
 30
0.0
 11
5.531131999999999
 21
7.305209999999999
 31
0.0
  0
LINE
  5
17A
330
70
100
AcDbEntity
  8
Scheibe v1_0
100
AcDbLine
 10
5.56198299999918
 20
7.01480399999681
 30
0.0
 11
5.561982999996032
 21
7.014857000002566
 31
0.0
  0
ARC
  5
17B
330
70
100
AcDbEntity
  8
Scheibe v1_0
100
AcDbCircle
 10
1.39784409292
 20
6.77507215449
 30
0.0
 40
0.0249791331982405
100
AcDbArc
 50
149.9886662752656
 51
329.9886647964858
  0
LINE
  5
17C
330
70
100
AcDbEntity
  8
Scheibe v1_0
100
AcDbLine
 10
1.887118407081105
 20
6.979570345511105
 30
0.0
 11
1.776213999999999
 21
6.787565999999999
 31
0.0
  0
ARC
  5
17D
330
70
100
AcDbEntity
  8
Scheibe v1_0
100
AcDbCircle
 10
5.62217880293
 20
7.4804777102
 30
0.0
 40
0.02500015893443
100
AcDbArc
 50
87.49608767649506
 51
135.2957746213186
  0
SPLINE
  5
17E
330
70
100
AcDbEntity
  8
Scheibe v1_0
100
AcDbSpline
210
0.0
220
0.0
230
1.0
 70
     8
 71
     3
 72
     8
 73
     4
 74
     0
 42
0.000000001
 43
0.0000000001
 40
0.0
 40
0.0
 40
0.0
 40
0.0
 40
1.0
 40
1.0
 40
1.0
 40
1.0
 10
5.639859000000004
 20
7.161188000000001
 30
0.0
 10
5.649581900000004
 20
7.170944200000002
 30
0.0
 10
5.649581900000004
 20
7.186726800000002
 30
0.0
 10
5.639859000000004
 20
7.196483
 30
0.0
  0
ARC
  5
17F
330
70
100
AcDbEntity
  8
Scheibe v1_0
100
AcDbCircle
 10
1.9087485
 20
6.967076500000001
 30
0.0
 40
0.0249791331982387
100
AcDbArc
 50
329.9886662718002
 51
149.9886662718002
  0
ARC
  5
180
330
70
100
AcDbEntity
  8
Scheibe v1_0
100
AcDbCircle
 10
5.54612979959
 20
7.66385103068
 30
0.0
 40
0.0250002772131361
100
AcDbArc
 50
269.8560744207997
 51
0.1420217813002891
  0
LINE
  5
181
330
70
100
AcDbEntity
  8
Scheibe v1_0
100
AcDbLine
 10
5.625648
 20
7.355536999999999
 30
0.0
 11
5.532528000000001
 21
7.355436999999999
 31
0.0
  0
ARC
  5
182
330
70
100
AcDbEntity
  8
Scheibe v1_0
100
AcDbCircle
 10
5.546177748489999
 20
6.9954870617
 30
0.0
 40
0.0250000097002808
100
AcDbArc
 50
50.78665249679924
 51
90.13693352960826
  0
SPLINE
  5
183
330
70
100
AcDbEntity
  8
Scheibe v1_0
100
AcDbSpline
210
0.0
220
0.0
230
1.0
 70
     8
 71
     3
 72
     8
 73
     4
 74
     0
 42
0.000000001
 43
0.0000000001
 40
0.0
 40
0.0
 40
0.0
 40
0.0
 40
1.0
 40
1.0
 40
1.0
 40
1.0
 10
5.639859000000004
 20
7.462768
 30
0.0
 10
5.649582600000004
 20
7.472524299999998
 30
0.0
 10
5.649582600000004
 20
7.488307699999999
 30
0.0
 10
5.639859000000004
 20
7.498064000000001
 30
0.0
  0
LINE
  5
184
330
70
100
AcDbEntity
  8
Scheibe v1_0
100
AcDbLine
 10
5.461679
 20
7.355333
 30
0.0
 11
5.059067999999999
 21
7.354733
 31
0.0
  0
ARC
  5
185
330
70
100
AcDbEntity
  8
Scheibe v1_0
100
AcDbCircle
 10
5.44152269086
 20
6.885721275029999
 30
0.0
 40
0.0249999017474437
100
AcDbArc
 50
224.5212506948997
 51
314.8315129492003
  0
LINE
  5
186
330
70
100
AcDbEntity
  8
Scheibe v1_0
100
AcDbLine
 10
5.058965
 20
7.304659
 30
0.0
 11
5.460439
 21
7.305159
 31
0.0
  0
ARC
  5
187
330
70
100
AcDbEntity
  8
Scheibe v1_0
100
AcDbCircle
 10
5.625712077020001
 20
7.33053731919
 30
0.0
 40
0.0250000057189675
100
AcDbArc
 50
359.8525911533995
 51
90.14685526649966
  0
LINE
  5
188
330
70
100
AcDbEntity
  8
Scheibe v1_0
100
AcDbLine
 10
1.48711840708
 20
6.979570345509999
 30
0.0
 11
1.376214
 21
6.787565999999999
 31
0.0
  0
SPLINE
  5
189
330
70
100
AcDbEntity
  8
Scheibe v1_0
100
AcDbSpline
210
0.0
220
0.0
230
1.0
 70
     8
 71
     3
 72
     8
 73
     4
 74
     0
 42
0.000000001
 43
0.0000000001
 40
0.0
 40
0.0
 40
0.0
 40
0.0
 40
1.0
 40
1.0
 40
1.0
 40
1.0
 10
5.333007000000005
 20
6.757294999999999
 30
0.0
 10
5.346782500000004
 20
6.757317000000002
 30
0.0
 10
5.357944400000001
 20
6.768478499999999
 30
0.0
 10
5.357967000000003
 20
6.782254000000001
 30
0.0
  0
ARC
  5
18A
330
70
100
AcDbEntity
  8
Scheibe v1_0
100
AcDbCircle
 10
1.59784409292
 20
6.77507215449
 30
0.0
 40
0.0249791331982405
100
AcDbArc
 50
149.9886662718002
 51
329.9886662718002
  0
LINE
  5
18B
330
70
100
AcDbEntity
  8
Scheibe v1_0
100
AcDbLine
 10
1.730378592918894
 20
6.954582654488896
 30
0.0
 11
1.619474185838895
 21
6.762578308978895
 31
0.0
  0
ARC
  5
18C
330
70
100
AcDbEntity
  8
Scheibe v1_0
100
AcDbCircle
 10
5.62208626097
 20
7.48048250161
 30
0.0
 40
0.0249995867624246
100
AcDbArc
 50
44.69007463310104
 51
87.28371588769958
  0
LINE
  5
18D
330
70
100
AcDbEntity
  8
Scheibe v1_0
100
AcDbLine
 10
5.532528000000001
 20
7.355436999999999
 30
0.0
 11
5.639859000000001
 21
7.462768
 31
0.0
  0
LINE
  5
18E
330
70
100
AcDbEntity
  8
Scheibe v1_0
100
AcDbLine
 10
5.342461
 20
7.638850999999999
 30
0.0
 11
5.546066999999999
 21
7.638850999999999
 31
0.0
  0
LINE
  5
18F
330
70
100
AcDbEntity
  8
Scheibe v1_0
100
AcDbLine
 10
5.546118
 20
7.020487
 30
0.0
 11
5.342513
 21
7.020386999999999
 31
0.0
  0
LINE
  5
190
330
70
100
AcDbEntity
  8
Scheibe v1_0
100
AcDbLine
 10
5.531131999999999
 20
7.305209999999999
 30
0.0
 11
5.625648000002463
 21
7.305410000001772
 31
0.0
  0
LINE
  5
191
330
70
100
AcDbEntity
  8
Scheibe v1_0
100
AcDbLine
 10
5.024427
 20
6.866693999999999
 30
0.0
 11
5.023827
 21
7.26915
 31
0.0
  0
LINE
  5
192
330
70
100
AcDbEntity
  8
Scheibe v1_0
100
AcDbLine
 10
5.023827
 20
7.26915
 30
0.0
 11
5.307944
 21
6.984258
 31
0.0
  0
ARC
  5
193
330
70
100
AcDbEntity
  8
Scheibe v1_0
100
AcDbCircle
 10
5.54618290672
 20
6.99542974546
 30
0.0
 40
0.025000093729583
100
AcDbArc
 50
359.9891242402001
 51
50.80206579580107
  0
ENDSEC
  0
SECTION
  2
OBJECTS
  0
DICTIONARY
  5
C
330
0
100
AcDbDictionary
281
     1
  3
ACAD_COLOR
350
63
  3
ACAD_DETAILVIEWSTYLE
350
6A
  3
ACAD_GROUP
350
D
  3
ACAD_LAYOUT
350
62
  3
ACAD_MATERIAL
350
10
  3
ACAD_MLEADERSTYLE
350
66
  3
ACAD_MLINESTYLE
350
5F
  3
ACAD_PLOTSETTINGS
350
61
  3
ACAD_PLOTSTYLENAME
350
E
  3
ACAD_SCALELIST
350
42
  3
ACAD_SECTIONVIEWSTYLE
350
68
  3
ACAD_TABLESTYLE
350
64
  3
ACAD_VISUALSTYLE
350
29
  3
ACDB_RECOMPOSE_DATA
350
19C
  3
AcDbVariableDictionary
350
194
  0
DICTIONARY
  5
63
102
{ACAD_REACTORS
330
C
102
}
330
C
100
AcDbDictionary
281
     1
  0
DICTIONARY
  5
6A
102
{ACAD_REACTORS
330
C
102
}
330
C
100
AcDbDictionary
281
     1
  3
Imperial24
350
6B
  0
DICTIONARY
  5
D
102
{ACAD_REACTORS
330
C
102
}
330
C
100
AcDbDictionary
281
     1
  0
DICTIONARY
  5
62
102
{ACAD_REACTORS
330
C
102
}
330
C
100
AcDbDictionary
281
     1
  3
Layout1
350
6F
  3
Layout2
350
77
  3
Model
350
73
  0
DICTIONARY
  5
10
102
{ACAD_REACTORS
330
C
102
}
330
C
100
AcDbDictionary
281
     1
  3
ByBlock
350
19
  3
ByLayer
350
11
  3
Global
350
21
  0
DICTIONARY
  5
66
102
{ACAD_REACTORS
330
C
102
}
330
C
100
AcDbDictionary
281
     1
  3
Standard
350
67
  0
DICTIONARY
  5
5F
102
{ACAD_REACTORS
330
C
102
}
330
C
100
AcDbDictionary
281
     1
  3
Standard
350
60
  0
DICTIONARY
  5
61
102
{ACAD_REACTORS
330
C
102
}
330
C
100
AcDbDictionary
281
     1
  0
ACDBDICTIONARYWDFLT
  5
E
102
{ACAD_REACTORS
330
C
102
}
330
C
100
AcDbDictionary
281
     1
  3
Normal
350
F
100
AcDbDictionaryWithDefault
340
F
  0
DICTIONARY
  5
42
102
{ACAD_REACTORS
330
C
102
}
330
C
100
AcDbDictionary
281
     1
  3
A0
350
43
  3
A1
350
44
  3
A2
350
45
  3
A3
350
46
  3
A4
350
47
  3
A5
350
48
  3
A6
350
49
  3
A7
350
4A
  3
A8
350
4B
  3
A9
350
4C
  3
B0
350
4D
  3
B1
350
4E
  3
B2
350
4F
  3
B3
350
50
  3
B4
350
51
  3
B5
350
52
  3
B6
350
53
  0
DICTIONARY
  5
68
102
{ACAD_REACTORS
330
C
102
}
330
C
100
AcDbDictionary
281
     1
  3
Imperial24
350
69
  0
DICTIONARY
  5
64
102
{ACAD_REACTORS
330
C
102
}
330
C
100
AcDbDictionary
281
     1
  3
Standard
350
65
  0
DICTIONARY
  5
29
102
{ACAD_REACTORS
330
C
102
}
330
C
100
AcDbDictionary
281
     1
  3
2dWireframe
350
2F
  3
Basic
350
2E
  3
Brighten
350
35
  3
ColorChange
350
39
  3
Conceptual
350
32
  3
Dim
350
34
  3
EdgeColorOff
350
41
  3
Facepattern
350
38
  3
Flat
350
2A
  3
FlatWithEdges
350
2B
  3
Gouraud
350
2C
  3
GouraudWithEdges
350
2D
  3
Hidden
350
31
  3
JitterOff
350
3F
  3
Linepattern
350
37
  3
OverhangOff
350
40
  3
Realistic
350
33
  3
Shaded
350
3E
  3
Shaded with edges
350
3D
  3
Shades of Gray
350
3A
  3
Sketchy
350
3B
  3
Thicken
350
36
  3
Wireframe
350
30
  3
X-Ray
350
3C
  0
XRECORD
  5
19C
102
{ACAD_REACTORS
330
C
102
}
330
C
100
AcDbXrecord
280
     1
 90
        1
330
65
  0
DICTIONARY
  5
194
102
{ACAD_REACTORS
330
C
102
}
330
C
100
AcDbDictionary
281
     1
  3
CANNOSCALE
350
199
  3
CMLEADERSTYLE
350
196
  3
CTABLESTYLE
350
195
  3
CVIEWDETAILSTYLE
350
197
  3
CVIEWSECTIONSTYLE
350
198
  0
ACDBDETAILVIEWSTYLE
  5
6B
102
{ACAD_XDICTIONARY
360
19F
102
}
102
{ACAD_REACTORS
330
6A
102
}
330
6A
100
AcDbModelDocViewStyle
 70
     0
  3
Imperial24
290
     0
100
AcDbDetailViewStyle
 70
     0
 71
     0
 90
        3
 71
     1
340
55
 62
   256
 40
0.24
340
0
 62
   256
 40
0.24
300

 40
0.36
280
     3
 71
     2
340
5D
 90
       25
 62
   256
 71
     3
340
55
 62
   256
 40
0.24
 90
        1
 40
0.75
 90
        1
300
%<\AcVar ViewType \f "%tc1">% %<\AcVar ViewDetailId>%\PSCALE %<\AcVar ViewScale \f "%sn">%
 71
     4
340
5D
 90
       25
 62
   256
340
5D
 90
       25
 62
   256
280
     0
  0
LAYOUT
  5
6F
102
{ACAD_REACTORS
330
62
102
}
330
62
100
AcDbPlotSettings
  1

  2

  4

  6

 40
0.0
 41
0.0
 42
0.0
 43
0.0
 44
0.0
 45
0.0
 46
0.0
 47
0.0
 48
0.0
 49
0.0
140
0.0
141
0.0
142
1.0
143
1.0
 70
   688
 72
     0
 73
     0
 74
     5
  7

 75
    16
147
1.0
 76
     0
 77
     2
 78
   300
148
0.0
149
0.0
100
AcDbLayout
  1
Layout1
 70
     1
 71
     1
 10
0.0
 20
0.0
 11
12.0
 21
9.0
 12
0.0
 22
0.0
 32
0.0
 14
0.0
 24
0.0
 34
0.0
 15
0.0
 25
0.0
 35
0.0
146
0.0
 13
0.0
 23
0.0
 33
0.0
 16
1.0
 26
0.0
 36
0.0
 17
0.0
 27
1.0
 37
0.0
 76
     0
330
6C
  0
LAYOUT
  5
77
102
{ACAD_REACTORS
330
62
102
}
330
62
100
AcDbPlotSettings
  1

  2

  4

  6

 40
0.0
 41
0.0
 42
0.0
 43
0.0
 44
0.0
 45
0.0
 46
0.0
 47
0.0
 48
0.0
 49
0.0
140
0.0
141
0.0
142
1.0
143
1.0
 70
   688
 72
     0
 73
     0
 74
     5
  7

 75
    16
147
1.0
 76
     0
 77
     2
 78
   300
148
0.0
149
0.0
100
AcDbLayout
  1
Layout2
 70
     1
 71
     2
 10
0.0
 20
0.0
 11
12.0
 21
9.0
 12
0.0
 22
0.0
 32
0.0
 14
0.0
 24
0.0
 34
0.0
 15
0.0
 25
0.0
 35
0.0
146
0.0
 13
0.0
 23
0.0
 33
0.0
 16
1.0
 26
0.0
 36
0.0
 17
0.0
 27
1.0
 37
0.0
 76
     0
330
74
  0
LAYOUT
  5
73
102
{ACAD_REACTORS
330
62
102
}
330
62
100
AcDbPlotSettings
  1

  2

  4

  6

 40
0.0
 41
0.0
 42
0.0
 43
0.0
 44
0.0
 45
0.0
 46
0.0
 47
0.0
 48
0.0
 49
0.0
140
0.0
141
0.0
142
1.0
143
1.0
 70
  1712
 72
     0
 73
     0
 74
     0
  7

 75
     0
147
1.0
 76
     0
 77
     2
 78
   300
148
0.0
149
0.0
100
AcDbLayout
  1
Model
 70
     1
 71
     0
 10
0.0
 20
0.0
 11
12.0
 21
9.0
 12
0.0
 22
0.0
 32
0.0
 14
0.0
 24
0.0
 34
0.0
 15
0.0
 25
0.0
 35
0.0
146
0.0
 13
0.0
 23
0.0
 33
0.0
 16
1.0
 26
0.0
 36
0.0
 17
0.0
 27
1.0
 37
0.0
 76
     0
330
70
  0
MATERIAL
  5
19
102
{ACAD_XDICTIONARY
360
1A
102
}
102
{ACAD_REACTORS
330
10
102
}
330
10
100
AcDbMaterial
  1
ByBlock
 72
     0
 43
0.0208333333333333
 43
0.0
 43
0.0
 43
0.0
 43
0.0
 43
0.0208333333333333
 43
0.0
 43
0.0
 43
0.0
 43
0.0
 43
1.0
 43
0.0
 43
0.0
 43
0.0
 43
0.0
 43
1.0
 77
     0
 47
0.0208333333333333
 47
0.0
 47
0.0
 47
0.0
 47
0.0
 47
0.0208333333333333
 47
0.0
 47
0.0
 47
0.0
 47
0.0
 47
1.0
 47
0.0
 47
0.0
 47
0.0
 47
0.0
 47
1.0
171
     0
 49
0.0208333333333333
 49
0.0
 49
0.0
 49
0.0
 49
0.0
 49
0.0208333333333333
 49
0.0
 49
0.0
 49
0.0
 49
0.0
 49
1.0
 49
0.0
 49
0.0
 49
0.0
 49
0.0
 49
1.0
175
     0
142
0.0208333333333333
142
0.0
142
0.0
142
0.0
142
0.0
142
0.0208333333333333
142
0.0
142
0.0
142
0.0
142
0.0
142
1.0
142
0.0
142
0.0
142
0.0
142
0.0
142
1.0
179
     0
144
0.0208333333333333
144
0.0
144
0.0
144
0.0
144
0.0
144
0.0208333333333333
144
0.0
144
0.0
144
0.0
144
0.0
144
1.0
144
0.0
144
0.0
144
0.0
144
0.0
144
1.0
147
0.0208333333333333
147
0.0
147
0.0
147
0.0
147
0.0
147
0.0208333333333333
147
0.0
147
0.0
147
0.0
147
0.0
147
1.0
147
0.0
147
0.0
147
0.0
147
0.0
147
1.0
  0
MATERIAL
  5
11
102
{ACAD_XDICTIONARY
360
12
102
}
102
{ACAD_REACTORS
330
10
102
}
330
10
100
AcDbMaterial
  1
ByLayer
 72
     0
 43
0.0208333333333333
 43
0.0
 43
0.0
 43
0.0
 43
0.0
 43
0.0208333333333333
 43
0.0
 43
0.0
 43
0.0
 43
0.0
 43
1.0
 43
0.0
 43
0.0
 43
0.0
 43
0.0
 43
1.0
 77
     0
 47
0.0208333333333333
 47
0.0
 47
0.0
 47
0.0
 47
0.0
 47
0.0208333333333333
 47
0.0
 47
0.0
 47
0.0
 47
0.0
 47
1.0
 47
0.0
 47
0.0
 47
0.0
 47
0.0
 47
1.0
171
     0
 49
0.0208333333333333
 49
0.0
 49
0.0
 49
0.0
 49
0.0
 49
0.0208333333333333
 49
0.0
 49
0.0
 49
0.0
 49
0.0
 49
1.0
 49
0.0
 49
0.0
 49
0.0
 49
0.0
 49
1.0
175
     0
142
0.0208333333333333
142
0.0
142
0.0
142
0.0
142
0.0
142
0.0208333333333333
142
0.0
142
0.0
142
0.0
142
0.0
142
1.0
142
0.0
142
0.0
142
0.0
142
0.0
142
1.0
179
     0
144
0.0208333333333333
144
0.0
144
0.0
144
0.0
144
0.0
144
0.0208333333333333
144
0.0
144
0.0
144
0.0
144
0.0
144
1.0
144
0.0
144
0.0
144
0.0
144
0.0
144
1.0
147
0.0208333333333333
147
0.0
147
0.0
147
0.0
147
0.0
147
0.0208333333333333
147
0.0
147
0.0
147
0.0
147
0.0
147
1.0
147
0.0
147
0.0
147
0.0
147
0.0
147
1.0
  0
MATERIAL
  5
21
102
{ACAD_XDICTIONARY
360
22
102
}
102
{ACAD_REACTORS
330
10
102
}
330
10
100
AcDbMaterial
  1
Global
 72
     0
 43
0.0208333333333333
 43
0.0
 43
0.0
 43
0.0
 43
0.0
 43
0.0208333333333333
 43
0.0
 43
0.0
 43
0.0
 43
0.0
 43
1.0
 43
0.0
 43
0.0
 43
0.0
 43
0.0
 43
1.0
 77
     0
 47
0.0208333333333333
 47
0.0
 47
0.0
 47
0.0
 47
0.0
 47
0.0208333333333333
 47
0.0
 47
0.0
 47
0.0
 47
0.0
 47
1.0
 47
0.0
 47
0.0
 47
0.0
 47
0.0
 47
1.0
171
     0
 49
0.0208333333333333
 49
0.0
 49
0.0
 49
0.0
 49
0.0
 49
0.0208333333333333
 49
0.0
 49
0.0
 49
0.0
 49
0.0
 49
1.0
 49
0.0
 49
0.0
 49
0.0
 49
0.0
 49
1.0
175
     0
142
0.0208333333333333
142
0.0
142
0.0
142
0.0
142
0.0
142
0.0208333333333333
142
0.0
142
0.0
142
0.0
142
0.0
142
1.0
142
0.0
142
0.0
142
0.0
142
0.0
142
1.0
179
     0
144
0.0208333333333333
144
0.0
144
0.0
144
0.0
144
0.0
144
0.0208333333333333
144
0.0
144
0.0
144
0.0
144
0.0
144
1.0
144
0.0
144
0.0
144
0.0
144
0.0
144
1.0
147
0.0208333333333333
147
0.0
147
0.0
147
0.0
147
0.0
147
0.0208333333333333
147
0.0
147
0.0
147
0.0
147
0.0
147
1.0
147
0.0
147
0.0
147
0.0
147
0.0
147
1.0
  0
MLEADERSTYLE
  5
67
102
{ACAD_REACTORS
330
66
102
}
330
66
100
AcDbMLeaderStyle
179
     2
170
     2
171
     1
172
     0
 90
        2
 40
0.0
 41
0.0
173
     1
 91
-1056964608
340
5B
 92
       -2
290
     1
 42
0.09
291
     1
 43
0.36
  3
Standard
 44
0.18
300

342
55
174
     1
178
     6
175
     1
176
     0
 93
-1056964608
 45
0.18
292
     0
297
     0
 46
0.18
 94
-1056964608
 47
1.0
 49
1.0
140
1.0
293
     1
141
0.0
294
     1
177
     0
142
1.0
295
     0
296
     0
143
0.125
271
     0
272
     9
273
     9
298
     1
  0
MLINESTYLE
  5
60
102
{ACAD_REACTORS
330
5F
102
}
330
5F
100
AcDbMlineStyle
  2
STANDARD
 70
     0
  3

 62
   256
 51
90.0
 52
90.0
 71
     2
 49
0.5
 62
   256
  6
BYLAYER
 49
-0.5
 62
   256
  6
BYLAYER
  0
ACDBPLACEHOLDER
  5
F
102
{ACAD_REACTORS
330
E
102
}
330
E
  0
SCALE
  5
43
102
{ACAD_REACTORS
330
42
102
}
330
42
100
AcDbScale
 70
     0
300
1:1
140
1.0
141
1.0
290
     1
  0
SCALE
  5
44
102
{ACAD_REACTORS
330
42
102
}
330
42
100
AcDbScale
 70
     0
300
1/128" = 1'-0"
140
0.0078125
141
12.0
290
     0
  0
SCALE
  5
45
102
{ACAD_REACTORS
330
42
102
}
330
42
100
AcDbScale
 70
     0
300
1/64" = 1'-0"
140
0.015625
141
12.0
290
     0
  0
SCALE
  5
46
102
{ACAD_REACTORS
330
42
102
}
330
42
100
AcDbScale
 70
     0
300
1/32" = 1'-0"
140
0.03125
141
12.0
290
     0
  0
SCALE
  5
47
102
{ACAD_REACTORS
330
42
102
}
330
42
100
AcDbScale
 70
     0
300
1/16" = 1'-0"
140
0.0625
141
12.0
290
     0
  0
SCALE
  5
48
102
{ACAD_REACTORS
330
42
102
}
330
42
100
AcDbScale
 70
     0
300
3/32" = 1'-0"
140
0.09375
141
12.0
290
     0
  0
SCALE
  5
49
102
{ACAD_REACTORS
330
42
102
}
330
42
100
AcDbScale
 70
     0
300
1/8" = 1'-0"
140
0.125
141
12.0
290
     0
  0
SCALE
  5
4A
102
{ACAD_REACTORS
330
42
102
}
330
42
100
AcDbScale
 70
     0
300
3/16" = 1'-0"
140
0.1875
141
12.0
290
     0
  0
SCALE
  5
4B
102
{ACAD_REACTORS
330
42
102
}
330
42
100
AcDbScale
 70
     0
300
1/4" = 1'-0"
140
0.25
141
12.0
290
     0
  0
SCALE
  5
4C
102
{ACAD_REACTORS
330
42
102
}
330
42
100
AcDbScale
 70
     0
300
3/8" = 1'-0"
140
0.375
141
12.0
290
     0
  0
SCALE
  5
4D
102
{ACAD_REACTORS
330
42
102
}
330
42
100
AcDbScale
 70
     0
300
1/2" = 1'-0"
140
0.5
141
12.0
290
     0
  0
SCALE
  5
4E
102
{ACAD_REACTORS
330
42
102
}
330
42
100
AcDbScale
 70
     0
300
3/4" = 1'-0"
140
0.75
141
12.0
290
     0
  0
SCALE
  5
4F
102
{ACAD_REACTORS
330
42
102
}
330
42
100
AcDbScale
 70
     0
300
1" = 1'-0"
140
1.0
141
12.0
290
     0
  0
SCALE
  5
50
102
{ACAD_REACTORS
330
42
102
}
330
42
100
AcDbScale
 70
     0
300
1-1/2" = 1'-0"
140
1.5
141
12.0
290
     0
  0
SCALE
  5
51
102
{ACAD_REACTORS
330
42
102
}
330
42
100
AcDbScale
 70
     0
300
3" = 1'-0"
140
3.0
141
12.0
290
     0
  0
SCALE
  5
52
102
{ACAD_REACTORS
330
42
102
}
330
42
100
AcDbScale
 70
     0
300
6" = 1'-0"
140
6.0
141
12.0
290
     0
  0
SCALE
  5
53
102
{ACAD_REACTORS
330
42
102
}
330
42
100
AcDbScale
 70
     0
300
1'-0" = 1'-0"
140
12.0
141
12.0
290
     0
  0
ACDBSECTIONVIEWSTYLE
  5
69
102
{ACAD_XDICTIONARY
360
19D
102
}
102
{ACAD_REACTORS
330
68
102
}
330
68
100
AcDbModelDocViewStyle
 70
     0
  3
Imperial24
290
     0
100
AcDbSectionViewStyle
 70
     0
 71
     0
 90
       78
 71
     1
340
55
 62
   256
 40
0.24
340
0
340
0
 62
   256
 40
0.24
300
I, O, Q, S, X, Z
 40
0.48
 90
        3
 40
0.18
 90
        1
 71
     2
340
5D
 90
       25
 62
   256
340
5D
 90
       50
 62
   256
 40
0.24
 40
0.0
 40
0.24
 71
     3
340
55
 62
   256
 40
0.24
 90
        1
 40
0.75
 90
        1
300
%<\AcVar ViewType \f "%tc1">% %<\AcVar ViewSectionStartId>%-%<\AcVar ViewSectionEndId>%\PSCALE %<\AcVar ViewScale \f "%sn">%
 71
     4
 62
   256
 62
   257
300
ANSI31
 40
1.0
 90
        0
290
     0
290
     0
 90
        6
 40
0.0
 40
1.570796326794896
 40
0.2617993877991494
 40
1.308996938995747
 40
-0.2617993877991494
 40
1.832595714594046
  0
TABLESTYLE
  5
65
102
{ACAD_XDICTIONARY
360
19A
102
}
102
{ACAD_REACTORS
330
64
102
}
330
64
100
AcDbTableStyle
280
     0
  3
Standard
 70
     0
 71
     0
 40
0.06
 41
0.06
280
     0
281
     0
  7
Standard
140
0.18
170
     2
 62
     0
 63
     7
283
     0
 90
      512
 91
        0
  1

274
    -2
284
     1
 64
     0
275
    -2
285
     1
 65
     0
276
    -2
286
     1
 66
     0
277
    -2
287
     1
 67
     0
278
    -2
288
     1
 68
     0
279
    -2
289
     1
 69
     0
  7
Standard
140
0.25
170
     5
 62
     0
 63
     7
283
     0
 90
      512
 91
        0
  1

274
    -2
284
     1
 64
     0
275
    -2
285
     1
 65
     0
276
    -2
286
     1
 66
     0
277
    -2
287
     1
 67
     0
278
    -2
288
     1
 68
     0
279
    -2
289
     1
 69
     0
  7
Standard
140
0.18
170
     5
 62
     0
 63
     7
283
     0
 90
      512
 91
        0
  1

274
    -2
284
     1
 64
     0
275
    -2
285
     1
 65
     0
276
    -2
286
     1
 66
     0
277
    -2
287
     1
 67
     0
278
    -2
288
     1
 68
     0
279
    -2
289
     1
 69
     0
  0
VISUALSTYLE
  5
2F
102
{ACAD_REACTORS
330
29
102
}
330
29
100
AcDbVisualStyle
  2
2dWireframe
 70
     4
177
     3
291
     0
 70
    58
 90
        0
176
     1
 90
        2
176
     1
 90
        0
176
     1
 90
        0
176
     1
 40
0.6
176
     1
 40
30.0
176
     1
 62
     7
420
 16777215
176
     1
 90
        1
176
     1
 90
        4
176
     1
 62
     7
176
     1
 62
   257
176
     1
 90
        1
176
     1
 90
        1
176
     1
 40
1.0
176
     1
 90
        0
176
     1
 62
   257
176
     1
 40
1.0
176
     1
 90
        1
176
     1
 90
        6
176
     1
 90
        2
176
     1
 62
     7
176
     1
 90
        5
176
     1
 90
        0
176
     1
 90
        0
176
     1
290
     0
176
     1
 90
        1
176
     1
 40
0.0
176
     1
 90
        0
176
     1
290
     1
176
     1
290
     1
176
     1
290
     0
176
     1
290
     0
176
     1
290
     0
176
     1
290
     0
176
     1
290
     0
176
     1
290
     0
176
     1
290
     0
176
     1
 90
       50
176
     1
 40
0.0
176
     1
 40
1.0
176
     1
 90
        0
176
     1
 62
    18
420
        0
176
     1
 90
       50
176
     1
 90
        3
176
     1
 62
     5
420
      255
176
     1
290
     0
176
     1
 90
       50
176
     1
 90
       50
176
     1
 90
       50
176
     1
290
     0
176
     1
 90
       50
176
     1
 62
   256
176
     0
 40
1.0
176
     0
 90
        2
176
     1
  1
strokes_ogs.tif
176
     1
290
     0
176
     1
 40
1.0
176
     1
 40
1.0
176
     1
1001
ACAD
1000
AcDbSavedByObjectVersion
1070
     0
  0
VISUALSTYLE
  5
2E
102
{ACAD_REACTORS
330
29
102
}
330
29
100
AcDbVisualStyle
  2
Basic
 70
     7
177
     3
291
     1
 70
    58
 90
        1
176
     1
 90
        0
176
     1
 90
        1
176
     1
 90
        0
176
     1
 40
0.6
176
     1
 40
30.0
176
     1
 62
     7
420
 16777215
176
     1
 90
        0
176
     1
 90
        4
176
     1
 62
     7
176
     1
 62
   257
176
     1
 90
        1
176
     1
 90
        1
176
     1
 40
1.0
176
     1
 90
        8
176
     1
 62
     7
176
     1
 40
1.0
176
     1
 90
        1
176
     1
 90
        6
176
     1
 90
        2
176
     1
 62
     7
176
     1
 90
        5
176
     1
 90
        0
176
     1
 90
        0
176
     1
290
     0
176
     1
 90
        1
176
     1
 40
0.0
176
     1
 90
        0
176
     1
290
     0
176
     1
290
     1
176
     1
290
     1
176
     1
290
     0
176
     1
290
     0
176
     1
290
     0
176
     1
290
     0
176
     1
290
     0
176
     1
290
     0
176
     1
 90
       50
176
     1
 40
0.0
176
     1
 40
1.0
176
     1
 90
        0
176
     1
 62
    18
420
        0
176
     1
 90
       50
176
     1
 90
        3
176
     1
 62
     5
420
      255
176
     1
290
     0
176
     1
 90
       50
176
     1
 90
       50
176
     1
 90
       50
176
     1
290
     0
176
     1
 90
       50
176
     1
 62
   256
176
     0
 40
1.0
176
     0
 90
        2
176
     1
  1
strokes_ogs.tif
176
     1
290
     0
176
     1
 40
1.0
176
     1
 40
1.0
176
     1
1001
ACAD
1000
AcDbSavedByObjectVersion
1070
     0
  0
VISUALSTYLE
  5
35
102
{ACAD_REACTORS
330
29
102
}
330
29
100
AcDbVisualStyle
  2
Brighten
 70
    12
177
     3
291
     1
 70
    58
 90
        2
176
     1
 90
        2
176
     1
 90
        0
176
     1
 90
        0
176
     1
 40
0.6
176
     1
 40
30.0
176
     1
 62
     7
420
 16777215
176
     1
 90
        1
176
     1
 90
        4
176
     1
 62
     7
176
     1
 62
   257
176
     1
 90
        1
176
     1
 90
        1
176
     1
 40
1.0
176
     1
 90
        8
176
     1
 62
     7
176
     1
 40
1.0
176
     1
 90
        1
176
     1
 90
        6
176
     1
 90
        2
176
     1
 62
     7
176
     1
 90
        5
176
     1
 90
        0
176
     1
 90
        0
176
     1
290
     0
176
     1
 90
        1
176
     1
 40
50.0
176
     1
 90
        0
176
     1
290
     0
176
     1
290
     1
176
     1
290
     1
176
     1
290
     0
176
     1
290
     0
176
     1
290
     0
176
     1
290
     0
176
     1
290
     0
176
     1
290
     0
176
     1
 90
       50
176
     1
 40
0.0
176
     1
 40
1.0
176
     1
 90
        0
176
     1
 62
    18
420
        0
176
     1
 90
       50
176
     1
 90
        3
176
     1
 62
     5
420
      255
176
     1
290
     0
176
     1
 90
       50
176
     1
 90
       50
176
     1
 90
       50
176
     1
290
     0
176
     1
 90
       50
176
     1
 62
   256
176
     0
 40
1.0
176
     0
 90
        2
176
     1
  1
strokes_ogs.tif
176
     1
290
     0
176
     1
 40
1.0
176
     1
 40
1.0
176
     1
1001
ACAD
1000
AcDbSavedByObjectVersion
1070
     0
  0
VISUALSTYLE
  5
39
102
{ACAD_REACTORS
330
29
102
}
330
29
100
AcDbVisualStyle
  2
ColorChange
 70
    16
177
     3
291
     1
 70
    58
 90
        2
176
     1
 90
        2
176
     1
 90
        3
176
     1
 90
        0
176
     1
 40
0.6
176
     1
 40
30.0
176
     1
 62
     8
420
  8421504
176
     1
 90
        1
176
     1
 90
        4
176
     1
 62
     7
176
     1
 62
   257
176
     1
 90
        1
176
     1
 90
        1
176
     1
 40
1.0
176
     1
 90
        8
176
     1
 62
     8
420
  8421504
176
     1
 40
1.0
176
     1
 90
        1
176
     1
 90
        6
176
     1
 90
        2
176
     1
 62
     7
176
     1
 90
        5
176
     1
 90
        0
176
     1
 90
        0
176
     1
290
     0
176
     1
 90
        1
176
     1
 40
0.0
176
     1
 90
        0
176
     1
290
     0
176
     1
290
     1
176
     1
290
     1
176
     1
290
     0
176
     1
290
     0
176
     1
290
     0
176
     1
290
     0
176
     1
290
     0
176
     1
290
     0
176
     1
 90
       50
176
     1
 40
0.0
176
     1
 40
1.0
176
     1
 90
        0
176
     1
 62
    18
420
        0
176
     1
 90
       50
176
     1
 90
        3
176
     1
 62
     5
420
      255
176
     1
290
     0
176
     1
 90
       50
176
     1
 90
       50
176
     1
 90
       50
176
     1
290
     0
176
     1
 90
       50
176
     1
 62
   256
176
     0
 40
1.0
176
     0
 90
        2
176
     1
  1
strokes_ogs.tif
176
     1
290
     0
176
     1
 40
1.0
176
     1
 40
1.0
176
     1
1001
ACAD
1000
AcDbSavedByObjectVersion
1070
     0
  0
VISUALSTYLE
  5
32
102
{ACAD_REACTORS
330
29
102
}
330
29
100
AcDbVisualStyle
  2
Conceptual
 70
     9
177
     3
291
     0
 70
    58
 90
        3
176
     1
 90
        2
176
     1
 90
        0
176
     1
 90
        0
176
     1
 40
0.6
176
     1
 40
30.0
176
     1
 62
     7
420
 16777215
176
     1
 90
        2
176
     1
 90
        2
176
     1
 62
     7
176
     1
 62
   257
176
     1
 90
        1
176
     1
 90
        1
176
     1
 40
179.0
176
     1
 90
        8
176
     1
 62
     7
176
     1
 40
1.0
176
     1
 90
        1
176
     1
 90
        6
176
     1
 90
        2
176
     1
 62
     7
176
     1
 90
        3
176
     1
 90
        0
176
     1
 90
        0
176
     1
290
     0
176
     1
 90
        1
176
     1
 40
0.0
176
     1
 90
        0
176
     1
290
     0
176
     1
290
     1
176
     1
290
     1
176
     1
290
     0
176
     1
290
     0
176
     1
290
     0
176
     1
290
     0
176
     1
290
     0
176
     1
290
     0
176
     1
 90
       50
176
     1
 40
0.0
176
     1
 40
1.0
176
     1
 90
        0
176
     1
 62
    18
420
        0
176
     1
 90
       50
176
     1
 90
        3
176
     1
 62
     5
420
      255
176
     1
290
     0
176
     1
 90
       50
176
     1
 90
       50
176
     1
 90
       50
176
     1
290
     0
176
     1
 90
       50
176
     1
 62
   256
176
     0
 40
1.0
176
     0
 90
        2
176
     1
  1
strokes_ogs.tif
176
     1
290
     0
176
     1
 40
1.0
176
     1
 40
1.0
176
     1
1001
ACAD
1000
AcDbSavedByObjectVersion
1070
     0
  0
VISUALSTYLE
  5
34
102
{ACAD_REACTORS
330
29
102
}
330
29
100
AcDbVisualStyle
  2
Dim
 70
    11
177
     3
291
     1
 70
    58
 90
        2
176
     1
 90
        2
176
     1
 90
        0
176
     1
 90
        0
176
     1
 40
0.6
176
     1
 40
30.0
176
     1
 62
     7
420
 16777215
176
     1
 90
        1
176
     1
 90
        4
176
     1
 62
     7
176
     1
 62
   257
176
     1
 90
        1
176
     1
 90
        1
176
     1
 40
1.0
176
     1
 90
        8
176
     1
 62
     7
176
     1
 40
1.0
176
     1
 90
        1
176
     1
 90
        6
176
     1
 90
        2
176
     1
 62
     7
176
     1
 90
        5
176
     1
 90
        0
176
     1
 90
        0
176
     1
290
     0
176
     1
 90
        1
176
     1
 40
-50.0
176
     1
 90
        0
176
     1
290
     0
176
     1
290
     1
176
     1
290
     1
176
     1
290
     0
176
     1
290
     0
176
     1
290
     0
176
     1
290
     0
176
     1
290
     0
176
     1
290
     0
176
     1
 90
       50
176
     1
 40
0.0
176
     1
 40
1.0
176
     1
 90
        0
176
     1
 62
    18
420
        0
176
     1
 90
       50
176
     1
 90
        3
176
     1
 62
     5
420
      255
176
     1
290
     0
176
     1
 90
       50
176
     1
 90
       50
176
     1
 90
       50
176
     1
290
     0
176
     1
 90
       50
176
     1
 62
   256
176
     0
 40
1.0
176
     0
 90
        2
176
     1
  1
strokes_ogs.tif
176
     1
290
     0
176
     1
 40
1.0
176
     1
 40
1.0
176
     1
1001
ACAD
1000
AcDbSavedByObjectVersion
1070
     0
  0
VISUALSTYLE
  5
41
102
{ACAD_REACTORS
330
29
102
}
330
29
100
AcDbVisualStyle
  2
EdgeColorOff
 70
    22
177
     3
291
     1
 70
    58
 90
        2
176
     0
 90
        2
176
     0
 90
        0
176
     0
 90
        0
176
     0
 40
0.6
176
     0
 40
30.0
176
     0
 62
     7
420
 16777215
176
     0
 90
        1
176
     0
 90
        4
176
     0
 62
     7
176
     0
 62
   257
176
     0
 90
        1
176
     0
 90
        1
176
     0
 40
1.0
176
     0
 90
        8
176
     2
 62
     7
176
     0
 40
1.0
176
     0
 90
        1
176
     0
 90
        6
176
     0
 90
        2
176
     0
 62
     7
176
     0
 90
        5
176
     0
 90
        0
176
     0
 90
        0
176
     0
290
     0
176
     0
 90
        1
176
     0
 40
0.0
176
     0
 90
        0
176
     0
290
     0
176
     0
290
     1
176
     0
290
     1
176
     0
290
     0
176
     0
290
     0
176
     0
290
     0
176
     0
290
     0
176
     0
290
     0
176
     0
290
     0
176
     0
 90
       50
176
     0
 40
0.0
176
     0
 40
1.0
176
     0
 90
        0
176
     0
 62
    18
420
        0
176
     0
 90
       50
176
     0
 90
        3
176
     0
 62
     5
420
      255
176
     0
290
     0
176
     0
 90
       50
176
     0
 90
       50
176
     0
 90
       50
176
     0
290
     0
176
     0
 90
       50
176
     0
 62
   256
176
     0
 40
1.0
176
     0
 90
        2
176
     0
  1
strokes_ogs.tif
176
     0
290
     0
176
     0
 40
1.0
176
     0
 40
1.0
176
     0
1001
ACAD
1000
AcDbSavedByObjectVersion
1070
     0
  0
VISUALSTYLE
  5
38
102
{ACAD_REACTORS
330
29
102
}
330
29
100
AcDbVisualStyle
  2
Facepattern
 70
    15
177
     3
291
     1
 70
    58
 90
        2
176
     1
 90
        2
176
     1
 90
        0
176
     1
 90
        0
176
     1
 40
0.6
176
     1
 40
30.0
176
     1
 62
     7
420
 16777215
176
     1
 90
        1
176
     1
 90
        4
176
     1
 62
     7
176
     1
 62
   257
176
     1
 90
        1
176
     1
 90
        1
176
     1
 40
1.0
176
     1
 90
        8
176
     1
 62
     7
176
     1
 40
1.0
176
     1
 90
        1
176
     1
 90
        6
176
     1
 90
        2
176
     1
 62
     7
176
     1
 90
        5
176
     1
 90
        0
176
     1
 90
        0
176
     1
290
     0
176
     1
 90
        1
176
     1
 40
0.0
176
     1
 90
        0
176
     1
290
     0
176
     1
290
     1
176
     1
290
     1
176
     1
290
     0
176
     1
290
     0
176
     1
290
     0
176
     1
290
     0
176
     1
290
     0
176
     1
290
     0
176
     1
 90
       50
176
     1
 40
0.0
176
     1
 40
1.0
176
     1
 90
        0
176
     1
 62
    18
420
        0
176
     1
 90
       50
176
     1
 90
        3
176
     1
 62
     5
420
      255
176
     1
290
     0
176
     1
 90
       50
176
     1
 90
       50
176
     1
 90
       50
176
     1
290
     0
176
     1
 90
       50
176
     1
 62
   256
176
     0
 40
1.0
176
     0
 90
        2
176
     1
  1
strokes_ogs.tif
176
     1
290
     0
176
     1
 40
1.0
176
     1
 40
1.0
176
     1
1001
ACAD
1000
AcDbSavedByObjectVersion
1070
     0
  0
VISUALSTYLE
  5
2A
102
{ACAD_REACTORS
330
29
102
}
330
29
100
AcDbVisualStyle
  2
Flat
 70
     0
177
     3
291
     1
 70
    58
 90
        2
176
     1
 90
        1
176
     1
 90
        1
176
     1
 90
        2
176
     1
 40
0.6
176
     1
 40
30.0
176
     1
 62
     7
420
 16777215
176
     1
 90
        0
176
     1
 90
        0
176
     1
 62
     7
176
     1
 62
   257
176
     1
 90
        1
176
     1
 90
        1
176
     1
 40
1.0
176
     1
 90
        8
176
     1
 62
     7
176
     1
 40
1.0
176
     1
 90
        1
176
     1
 90
        6
176
     1
 90
        2
176
     1
 62
     7
176
     1
 90
        5
176
     1
 90
        0
176
     1
 90
        0
176
     1
290
     0
176
     1
 90
       13
176
     1
 40
0.0
176
     1
 90
        0
176
     1
290
     0
176
     1
290
     1
176
     1
290
     1
176
     1
290
     0
176
     1
290
     0
176
     1
290
     0
176
     1
290
     0
176
     1
290
     0
176
     1
290
     0
176
     1
 90
       50
176
     1
 40
0.0
176
     1
 40
1.0
176
     1
 90
        0
176
     1
 62
    18
420
        0
176
     1
 90
       50
176
     1
 90
        3
176
     1
 62
     5
420
      255
176
     1
290
     0
176
     1
 90
       50
176
     1
 90
       50
176
     1
 90
       50
176
     1
290
     0
176
     1
 90
       50
176
     1
 62
   256
176
     0
 40
1.0
176
     0
 90
        2
176
     1
  1
strokes_ogs.tif
176
     1
290
     0
176
     1
 40
1.0
176
     1
 40
1.0
176
     1
1001
ACAD
1000
AcDbSavedByObjectVersion
1070
     0
  0
VISUALSTYLE
  5
2B
102
{ACAD_REACTORS
330
29
102
}
330
29
100
AcDbVisualStyle
  2
FlatWithEdges
 70
     1
177
     3
291
     1
 70
    58
 90
        2
176
     1
 90
        1
176
     1
 90
        1
176
     1
 90
        2
176
     1
 40
0.6
176
     1
 40
30.0
176
     1
 62
     7
420
 16777215
176
     1
 90
        1
176
     1
 90
        0
176
     1
 62
     7
176
     1
 62
   257
176
     1
 90
        1
176
     1
 90
        1
176
     1
 40
1.0
176
     1
 90
        0
176
     1
 62
   257
176
     1
 40
1.0
176
     1
 90
        1
176
     1
 90
        6
176
     1
 90
        2
176
     1
 62
     7
176
     1
 90
        5
176
     1
 90
        0
176
     1
 90
        0
176
     1
290
     0
176
     1
 90
       13
176
     1
 40
0.0
176
     1
 90
        0
176
     1
290
     0
176
     1
290
     1
176
     1
290
     1
176
     1
290
     0
176
     1
290
     0
176
     1
290
     0
176
     1
290
     0
176
     1
290
     0
176
     1
290
     0
176
     1
 90
       50
176
     1
 40
0.0
176
     1
 40
1.0
176
     1
 90
        0
176
     1
 62
    18
420
        0
176
     1
 90
       50
176
     1
 90
        3
176
     1
 62
     5
420
      255
176
     1
290
     0
176
     1
 90
       50
176
     1
 90
       50
176
     1
 90
       50
176
     1
290
     0
176
     1
 90
       50
176
     1
 62
   256
176
     0
 40
1.0
176
     0
 90
        2
176
     1
  1
strokes_ogs.tif
176
     1
290
     0
176
     1
 40
1.0
176
     1
 40
1.0
176
     1
1001
ACAD
1000
AcDbSavedByObjectVersion
1070
     0
  0
VISUALSTYLE
  5
2C
102
{ACAD_REACTORS
330
29
102
}
330
29
100
AcDbVisualStyle
  2
Gouraud
 70
     2
177
     3
291
     1
 70
    58
 90
        2
176
     1
 90
        2
176
     1
 90
        1
176
     1
 90
        2
176
     1
 40
0.6
176
     1
 40
30.0
176
     1
 62
     7
420
 16777215
176
     1
 90
        0
176
     1
 90
        0
176
     1
 62
     7
176
     1
 62
   257
176
     1
 90
        1
176
     1
 90
        1
176
     1
 40
1.0
176
     1
 90
        0
176
     1
 62
     7
176
     1
 40
1.0
176
     1
 90
        1
176
     1
 90
        6
176
     1
 90
        2
176
     1
 62
     7
176
     1
 90
        5
176
     1
 90
        0
176
     1
 90
        0
176
     1
290
     0
176
     1
 90
       13
176
     1
 40
0.0
176
     1
 90
        0
176
     1
290
     0
176
     1
290
     1
176
     1
290
     1
176
     1
290
     0
176
     1
290
     0
176
     1
290
     0
176
     1
290
     0
176
     1
290
     0
176
     1
290
     0
176
     1
 90
       50
176
     1
 40
0.0
176
     1
 40
1.0
176
     1
 90
        0
176
     1
 62
    18
420
        0
176
     1
 90
       50
176
     1
 90
        3
176
     1
 62
     5
420
      255
176
     1
290
     0
176
     1
 90
       50
176
     1
 90
       50
176
     1
 90
       50
176
     1
290
     0
176
     1
 90
       50
176
     1
 62
   256
176
     0
 40
1.0
176
     0
 90
        2
176
     1
  1
strokes_ogs.tif
176
     1
290
     0
176
     1
 40
1.0
176
     1
 40
1.0
176
     1
1001
ACAD
1000
AcDbSavedByObjectVersion
1070
     0
  0
VISUALSTYLE
  5
2D
102
{ACAD_REACTORS
330
29
102
}
330
29
100
AcDbVisualStyle
  2
GouraudWithEdges
 70
     3
177
     3
291
     1
 70
    58
 90
        2
176
     1
 90
        2
176
     1
 90
        1
176
     1
 90
        2
176
     1
 40
0.6
176
     1
 40
30.0
176
     1
 62
     7
420
 16777215
176
     1
 90
        1
176
     1
 90
        0
176
     1
 62
     7
176
     1
 62
   257
176
     1
 90
        1
176
     1
 90
        1
176
     1
 40
1.0
176
     1
 90
        0
176
     1
 62
   257
176
     1
 40
1.0
176
     1
 90
        1
176
     1
 90
        6
176
     1
 90
        2
176
     1
 62
     7
176
     1
 90
        5
176
     1
 90
        0
176
     1
 90
        0
176
     1
290
     0
176
     1
 90
       13
176
     1
 40
0.0
176
     1
 90
        0
176
     1
290
     0
176
     1
290
     1
176
     1
290
     1
176
     1
290
     0
176
     1
290
     0
176
     1
290
     0
176
     1
290
     0
176
     1
290
     0
176
     1
290
     0
176
     1
 90
       50
176
     1
 40
0.0
176
     1
 40
1.0
176
     1
 90
        0
176
     1
 62
    18
420
        0
176
     1
 90
       50
176
     1
 90
        3
176
     1
 62
     5
420
      255
176
     1
290
     0
176
     1
 90
       50
176
     1
 90
       50
176
     1
 90
       50
176
     1
290
     0
176
     1
 90
       50
176
     1
 62
   256
176
     0
 40
1.0
176
     0
 90
        2
176
     1
  1
strokes_ogs.tif
176
     1
290
     0
176
     1
 40
1.0
176
     1
 40
1.0
176
     1
1001
ACAD
1000
AcDbSavedByObjectVersion
1070
     0
  0
VISUALSTYLE
  5
31
102
{ACAD_REACTORS
330
29
102
}
330
29
100
AcDbVisualStyle
  2
Hidden
 70
     6
177
     3
291
     0
 70
    58
 90
        1
176
     1
 90
        2
176
     1
 90
        2
176
     1
 90
        0
176
     1
 40
0.6
176
     1
 40
30.0
176
     1
 62
     7
420
 16777215
176
     1
 90
        2
176
     1
 90
        2
176
     1
 62
     7
176
     1
 62
   257
176
     1
 90
        2
176
     1
 90
        1
176
     1
 40
40.0
176
     1
 90
        0
176
     1
 62
   257
176
     1
 40
1.0
176
     1
 90
        1
176
     1
 90
        6
176
     1
 90
        2
176
     1
 62
     7
176
     1
 90
        3
176
     1
 90
        0
176
     1
 90
        0
176
     1
290
     0
176
     1
 90
        1
176
     1
 40
0.0
176
     1
 90
        0
176
     1
290
     0
176
     1
290
     1
176
     1
290
     1
176
     1
290
     0
176
     1
290
     0
176
     1
290
     0
176
     1
290
     0
176
     1
290
     0
176
     1
290
     0
176
     1
 90
       50
176
     1
 40
0.0
176
     1
 40
1.0
176
     1
 90
        0
176
     1
 62
    18
420
        0
176
     1
 90
       50
176
     1
 90
        3
176
     1
 62
     5
420
      255
176
     1
290
     0
176
     1
 90
       50
176
     1
 90
       50
176
     1
 90
       50
176
     1
290
     0
176
     1
 90
       50
176
     1
 62
   256
176
     0
 40
1.0
176
     0
 90
        2
176
     1
  1
strokes_ogs.tif
176
     1
290
     0
176
     1
 40
1.0
176
     1
 40
1.0
176
     1
1001
ACAD
1000
AcDbSavedByObjectVersion
1070
     0
  0
VISUALSTYLE
  5
3F
102
{ACAD_REACTORS
330
29
102
}
330
29
100
AcDbVisualStyle
  2
JitterOff
 70
    20
177
     3
291
     1
 70
    58
 90
        2
176
     0
 90
        2
176
     0
 90
        0
176
     0
 90
        0
176
     0
 40
0.6
176
     0
 40
30.0
176
     0
 62
     7
420
 16777215
176
     0
 90
        1
176
     0
 90
        4
176
     0
 62
     7
176
     0
 62
   257
176
     0
 90
        1
176
     0
 90
        1
176
     0
 40
1.0
176
     0
 90
       10
176
     2
 62
     7
176
     0
 40
1.0
176
     0
 90
        1
176
     0
 90
        6
176
     0
 90
        2
176
     0
 62
     7
176
     0
 90
        5
176
     0
 90
        0
176
     0
 90
        0
176
     0
290
     0
176
     0
 90
        1
176
     0
 40
0.0
176
     0
 90
        0
176
     0
290
     0
176
     0
290
     1
176
     0
290
     1
176
     0
290
     0
176
     0
290
     0
176
     0
290
     0
176
     0
290
     0
176
     0
290
     0
176
     0
290
     0
176
     0
 90
       50
176
     0
 40
0.0
176
     0
 40
1.0
176
     0
 90
        0
176
     0
 62
    18
420
        0
176
     0
 90
       50
176
     0
 90
        3
176
     0
 62
     5
420
      255
176
     0
290
     0
176
     0
 90
       50
176
     0
 90
       50
176
     0
 90
       50
176
     0
290
     0
176
     0
 90
       50
176
     0
 62
   256
176
     0
 40
1.0
176
     0
 90
        2
176
     0
  1
strokes_ogs.tif
176
     0
290
     0
176
     0
 40
1.0
176
     0
 40
1.0
176
     0
1001
ACAD
1000
AcDbSavedByObjectVersion
1070
     0
  0
VISUALSTYLE
  5
37
102
{ACAD_REACTORS
330
29
102
}
330
29
100
AcDbVisualStyle
  2
Linepattern
 70
    14
177
     3
291
     1
 70
    58
 90
        2
176
     1
 90
        2
176
     1
 90
        0
176
     1
 90
        0
176
     1
 40
0.6
176
     1
 40
30.0
176
     1
 62
     7
420
 16777215
176
     1
 90
        1
176
     1
 90
        4
176
     1
 62
     7
176
     1
 62
   257
176
     1
 90
        7
176
     1
 90
        7
176
     1
 40
1.0
176
     1
 90
        8
176
     1
 62
     7
176
     1
 40
1.0
176
     1
 90
        1
176
     1
 90
        6
176
     1
 90
        2
176
     1
 62
     7
176
     1
 90
        5
176
     1
 90
        0
176
     1
 90
        0
176
     1
290
     0
176
     1
 90
        1
176
     1
 40
0.0
176
     1
 90
        0
176
     1
290
     0
176
     1
290
     1
176
     1
290
     1
176
     1
290
     0
176
     1
290
     0
176
     1
290
     0
176
     1
290
     0
176
     1
290
     0
176
     1
290
     0
176
     1
 90
       50
176
     1
 40
0.0
176
     1
 40
1.0
176
     1
 90
        0
176
     1
 62
    18
420
        0
176
     1
 90
       50
176
     1
 90
        3
176
     1
 62
     5
420
      255
176
     1
290
     0
176
     1
 90
       50
176
     1
 90
       50
176
     1
 90
       50
176
     1
290
     0
176
     1
 90
       50
176
     1
 62
   256
176
     0
 40
1.0
176
     0
 90
        2
176
     1
  1
strokes_ogs.tif
176
     1
290
     0
176
     1
 40
1.0
176
     1
 40
1.0
176
     1
1001
ACAD
1000
AcDbSavedByObjectVersion
1070
     0
  0
VISUALSTYLE
  5
40
102
{ACAD_REACTORS
330
29
102
}
330
29
100
AcDbVisualStyle
  2
OverhangOff
 70
    21
177
     3
291
     1
 70
    58
 90
        2
176
     0
 90
        2
176
     0
 90
        0
176
     0
 90
        0
176
     0
 40
0.6
176
     0
 40
30.0
176
     0
 62
     7
420
 16777215
176
     0
 90
        1
176
     0
 90
        4
176
     0
 62
     7
176
     0
 62
   257
176
     0
 90
        1
176
     0
 90
        1
176
     0
 40
1.0
176
     0
 90
        9
176
     2
 62
     7
176
     0
 40
1.0
176
     0
 90
        1
176
     0
 90
        6
176
     0
 90
        2
176
     0
 62
     7
176
     0
 90
        5
176
     0
 90
        0
176
     0
 90
        0
176
     0
290
     0
176
     0
 90
        1
176
     0
 40
0.0
176
     0
 90
        0
176
     0
290
     0
176
     0
290
     1
176
     0
290
     1
176
     0
290
     0
176
     0
290
     0
176
     0
290
     0
176
     0
290
     0
176
     0
290
     0
176
     0
290
     0
176
     0
 90
       50
176
     0
 40
0.0
176
     0
 40
1.0
176
     0
 90
        0
176
     0
 62
    18
420
        0
176
     0
 90
       50
176
     0
 90
        3
176
     0
 62
     5
420
      255
176
     0
290
     0
176
     0
 90
       50
176
     0
 90
       50
176
     0
 90
       50
176
     0
290
     0
176
     0
 90
       50
176
     0
 62
   256
176
     0
 40
1.0
176
     0
 90
        2
176
     0
  1
strokes_ogs.tif
176
     0
290
     0
176
     0
 40
1.0
176
     0
 40
1.0
176
     0
1001
ACAD
1000
AcDbSavedByObjectVersion
1070
     0
  0
VISUALSTYLE
  5
33
102
{ACAD_REACTORS
330
29
102
}
330
29
100
AcDbVisualStyle
  2
Realistic
 70
     8
177
     3
291
     0
 70
    58
 90
        2
176
     1
 90
        3
176
     1
 90
        0
176
     1
 90
        2
176
     1
 40
0.6
176
     1
 40
30.0
176
     1
 62
     7
420
 16777215
176
     1
 90
        0
176
     1
 90
        0
176
     1
 62
     7
176
     1
 62
   257
176
     1
 90
        1
176
     1
 90
        1
176
     1
 40
1.0
176
     1
 90
        8
176
     1
 62
   257
176
     1
 40
1.0
176
     1
 90
        1
176
     1
 90
        6
176
     1
 90
        2
176
     1
 62
     7
176
     1
 90
        3
176
     1
 90
        0
176
     1
 90
        0
176
     1
290
     0
176
     1
 90
       13
176
     1
 40
0.0
176
     1
 90
        0
176
     1
290
     0
176
     1
290
     1
176
     1
290
     1
176
     1
290
     0
176
     1
290
     0
176
     1
290
     0
176
     1
290
     0
176
     1
290
     0
176
     1
290
     0
176
     1
 90
       50
176
     1
 40
0.0
176
     1
 40
1.0
176
     1
 90
        0
176
     1
 62
    18
420
        0
176
     1
 90
       50
176
     1
 90
        3
176
     1
 62
     5
420
      255
176
     1
290
     0
176
     1
 90
       50
176
     1
 90
       50
176
     1
 90
       50
176
     1
290
     0
176
     1
 90
       50
176
     1
 62
   256
176
     0
 40
1.0
176
     0
 90
        2
176
     1
  1
strokes_ogs.tif
176
     1
290
     0
176
     1
 40
1.0
176
     1
 40
1.0
176
     1
1001
ACAD
1000
AcDbSavedByObjectVersion
1070
     0
  0
VISUALSTYLE
  5
3E
102
{ACAD_REACTORS
330
29
102
}
330
29
100
AcDbVisualStyle
  2
Shaded
 70
    27
177
     3
291
     0
 70
    58
 90
        2
176
     1
 90
        2
176
     1
 90
        1
176
     1
 90
        2
176
     1
 40
0.6
176
     1
 40
30.0
176
     1
 62
     7
420
 16777215
176
     1
 90
        0
176
     1
 90
        4
176
     1
 62
     7
176
     1
 62
   257
176
     1
 90
        1
176
     1
 90
        1
176
     1
 40
1.0
176
     1
 90
        8
176
     1
 62
   257
176
     1
 40
1.0
176
     1
 90
        1
176
     1
 90
        6
176
     1
 90
        2
176
     1
 62
     8
420
  7895160
176
     1
 90
        3
176
     1
 90
        0
176
     1
 90
        0
176
     1
290
     0
176
     1
 90
        5
176
     1
 40
0.0
176
     1
 90
        0
176
     1
290
     0
176
     1
290
     1
176
     1
290
     1
176
     1
290
     0
176
     1
290
     0
176
     1
290
     0
176
     1
290
     0
176
     1
290
     0
176
     1
290
     0
176
     1
 90
       50
176
     1
 40
0.0
176
     1
 40
1.0
176
     1
 90
        0
176
     1
 62
    18
420
        0
176
     1
 90
       50
176
     1
 90
        3
176
     1
 62
     5
420
      255
176
     1
290
     0
176
     1
 90
       50
176
     1
 90
       50
176
     1
 90
       50
176
     1
290
     0
176
     1
 90
       50
176
     1
 62
   256
176
     0
 40
1.0
176
     0
 90
        2
176
     1
  1
strokes_ogs.tif
176
     1
290
     0
176
     1
 40
1.0
176
     1
 40
1.0
176
     1
1001
ACAD
1000
AcDbSavedByObjectVersion
1070
     0
  0
VISUALSTYLE
  5
3D
102
{ACAD_REACTORS
330
29
102
}
330
29
100
AcDbVisualStyle
  2
Shaded with edges
 70
    26
177
     3
291
     0
 70
    58
 90
        2
176
     1
 90
        2
176
     1
 90
        1
176
     1
 90
        2
176
     1
 40
0.6
176
     1
 40
30.0
176
     1
 62
     7
420
 16777215
176
     1
 90
        1
176
     1
 90
        2
176
     1
 62
     7
176
     1
 62
   257
176
     1
 90
        2
176
     1
 90
        1
176
     1
 40
1.0
176
     1
 90
        8
176
     1
 62
   257
176
     1
 40
1.0
176
     1
 90
        1
176
     1
 90
        6
176
     1
 90
        2
176
     1
 62
     7
176
     1
 90
        3
176
     1
 90
        0
176
     1
 90
        0
176
     1
290
     0
176
     1
 90
        5
176
     1
 40
0.0
176
     1
 90
        0
176
     1
290
     0
176
     1
290
     1
176
     1
290
     1
176
     1
290
     0
176
     1
290
     0
176
     1
290
     0
176
     1
290
     0
176
     1
290
     0
176
     1
290
     0
176
     1
 90
       50
176
     1
 40
0.0
176
     1
 40
1.0
176
     1
 90
        0
176
     1
 62
    18
420
        0
176
     1
 90
       50
176
     1
 90
        3
176
     1
 62
     5
420
      255
176
     1
290
     0
176
     1
 90
       50
176
     1
 90
       50
176
     1
 90
       50
176
     1
290
     0
176
     1
 90
       50
176
     1
 62
   256
176
     0
 40
1.0
176
     0
 90
        2
176
     1
  1
strokes_ogs.tif
176
     1
290
     0
176
     1
 40
1.0
176
     1
 40
1.0
176
     1
1001
ACAD
1000
AcDbSavedByObjectVersion
1070
     0
  0
VISUALSTYLE
  5
3A
102
{ACAD_REACTORS
330
29
102
}
330
29
100
AcDbVisualStyle
  2
Shades of Gray
 70
    23
177
     3
291
     0
 70
    58
 90
        2
176
     1
 90
        2
176
     1
 90
        3
176
     1
 90
        0
176
     1
 40
0.6
176
     1
 40
30.0
176
     1
 62
     7
420
 16777215
176
     1
 90
        2
176
     1
 90
        2
176
     1
 62
     7
176
     1
 62
     7
176
     1
 90
        1
176
     1
 90
        1
176
     1
 40
40.0
176
     1
 90
        8
176
     1
 62
     7
176
     1
 40
1.0
176
     1
 90
        1
176
     1
 90
        6
176
     1
 90
        2
176
     1
 62
     7
176
     1
 90
        3
176
     1
 90
        0
176
     1
 90
        0
176
     1
290
     0
176
     1
 90
        1
176
     1
 40
0.0
176
     1
 90
        0
176
     1
290
     0
176
     1
290
     1
176
     1
290
     1
176
     1
290
     0
176
     1
290
     0
176
     1
290
     0
176
     1
290
     0
176
     1
290
     0
176
     1
290
     0
176
     1
 90
       50
176
     1
 40
0.0
176
     1
 40
1.0
176
     1
 90
        0
176
     1
 62
    18
420
        0
176
     1
 90
       50
176
     1
 90
        3
176
     1
 62
     5
420
      255
176
     1
290
     0
176
     1
 90
       50
176
     1
 90
       50
176
     1
 90
       50
176
     1
290
     0
176
     1
 90
       50
176
     1
 62
   256
176
     0
 40
1.0
176
     0
 90
        2
176
     1
  1
strokes_ogs.tif
176
     1
290
     0
176
     1
 40
1.0
176
     1
 40
1.0
176
     1
1001
ACAD
1000
AcDbSavedByObjectVersion
1070
     0
  0
VISUALSTYLE
  5
3B
102
{ACAD_REACTORS
330
29
102
}
330
29
100
AcDbVisualStyle
  2
Sketchy
 70
    24
177
     3
291
     0
 70
    58
 90
        1
176
     1
 90
        2
176
     1
 90
        2
176
     1
 90
        0
176
     1
 40
0.6
176
     1
 40
30.0
176
     1
 62
     7
420
 16777215
176
     1
 90
        2
176
     1
 90
        2
176
     1
 62
     7
176
     1
 62
     7
176
     1
 90
        1
176
     1
 90
        1
176
     1
 40
40.0
176
     1
 90
       11
176
     1
 62
     7
176
     1
 40
1.0
176
     1
 90
        1
176
     1
 90
        6
176
     1
 90
        2
176
     1
 62
     7
176
     1
 90
        6
176
     1
 90
        0
176
     1
 90
        0
176
     1
290
     0
176
     1
 90
        1
176
     1
 40
0.0
176
     1
 90
        0
176
     1
290
     0
176
     1
290
     1
176
     1
290
     1
176
     1
290
     0
176
     1
290
     0
176
     1
290
     0
176
     1
290
     0
176
     1
290
     0
176
     1
290
     0
176
     1
 90
       50
176
     1
 40
0.0
176
     1
 40
1.0
176
     1
 90
        0
176
     1
 62
    18
420
        0
176
     1
 90
       50
176
     1
 90
        3
176
     1
 62
     5
420
      255
176
     1
290
     0
176
     1
 90
       50
176
     1
 90
       50
176
     1
 90
       50
176
     1
290
     0
176
     1
 90
       50
176
     1
 62
   256
176
     0
 40
1.0
176
     0
 90
        2
176
     1
  1
strokes_ogs.tif
176
     1
290
     0
176
     1
 40
1.0
176
     1
 40
1.0
176
     1
1001
ACAD
1000
AcDbSavedByObjectVersion
1070
     0
  0
VISUALSTYLE
  5
36
102
{ACAD_REACTORS
330
29
102
}
330
29
100
AcDbVisualStyle
  2
Thicken
 70
    13
177
     3
291
     1
 70
    58
 90
        2
176
     1
 90
        2
176
     1
 90
        0
176
     1
 90
        0
176
     1
 40
0.6
176
     1
 40
30.0
176
     1
 62
     7
420
 16777215
176
     1
 90
        1
176
     1
 90
        4
176
     1
 62
     7
176
     1
 62
   257
176
     1
 90
        1
176
     1
 90
        1
176
     1
 40
1.0
176
     1
 90
       12
176
     1
 62
     7
176
     1
 40
1.0
176
     1
 90
        1
176
     1
 90
        6
176
     1
 90
        2
176
     1
 62
     7
176
     1
 90
        5
176
     1
 90
        0
176
     1
 90
        0
176
     1
290
     0
176
     1
 90
        1
176
     1
 40
0.0
176
     1
 90
        0
176
     1
290
     0
176
     1
290
     1
176
     1
290
     1
176
     1
290
     0
176
     1
290
     0
176
     1
290
     0
176
     1
290
     0
176
     1
290
     0
176
     1
290
     0
176
     1
 90
       50
176
     1
 40
0.0
176
     1
 40
1.0
176
     1
 90
        0
176
     1
 62
    18
420
        0
176
     1
 90
       50
176
     1
 90
        3
176
     1
 62
     5
420
      255
176
     1
290
     0
176
     1
 90
       50
176
     1
 90
       50
176
     1
 90
       50
176
     1
290
     0
176
     1
 90
       50
176
     1
 62
   256
176
     0
 40
1.0
176
     0
 90
        2
176
     1
  1
strokes_ogs.tif
176
     1
290
     0
176
     1
 40
1.0
176
     1
 40
1.0
176
     1
1001
ACAD
1000
AcDbSavedByObjectVersion
1070
     0
  0
VISUALSTYLE
  5
30
102
{ACAD_REACTORS
330
29
102
}
330
29
100
AcDbVisualStyle
  2
Wireframe
 70
     5
177
     3
291
     0
 70
    58
 90
        0
176
     1
 90
        2
176
     1
 90
        0
176
     1
 90
        0
176
     1
 40
0.6
176
     1
 40
30.0
176
     1
 62
     7
420
 16777215
176
     1
 90
        1
176
     1
 90
        4
176
     1
 62
     7
176
     1
 62
   257
176
     1
 90
        1
176
     1
 90
        1
176
     1
 40
1.0
176
     1
 90
        0
176
     1
 62
   257
176
     1
 40
1.0
176
     1
 90
        1
176
     1
 90
        6
176
     1
 90
        2
176
     1
 62
     7
176
     1
 90
        3
176
     1
 90
        0
176
     1
 90
        0
176
     1
290
     0
176
     1
 90
        1
176
     1
 40
0.0
176
     1
 90
        0
176
     1
290
     0
176
     1
290
     1
176
     1
290
     1
176
     1
290
     0
176
     1
290
     0
176
     1
290
     0
176
     1
290
     0
176
     1
290
     0
176
     1
290
     0
176
     1
 90
       50
176
     1
 40
0.0
176
     1
 40
1.0
176
     1
 90
        0
176
     1
 62
    18
420
        0
176
     1
 90
       50
176
     1
 90
        3
176
     1
 62
     5
420
      255
176
     1
290
     0
176
     1
 90
       50
176
     1
 90
       50
176
     1
 90
       50
176
     1
290
     0
176
     1
 90
       50
176
     1
 62
   256
176
     0
 40
1.0
176
     0
 90
        2
176
     1
  1
strokes_ogs.tif
176
     1
290
     0
176
     1
 40
1.0
176
     1
 40
1.0
176
     1
1001
ACAD
1000
AcDbSavedByObjectVersion
1070
     0
  0
VISUALSTYLE
  5
3C
102
{ACAD_REACTORS
330
29
102
}
330
29
100
AcDbVisualStyle
  2
X-Ray
 70
    25
177
     3
291
     0
 70
    58
 90
        2
176
     1
 90
        2
176
     1
 90
        1
176
     1
 90
        1
176
     1
 40
0.5
176
     1
 40
30.0
176
     1
 62
     7
420
 16777215
176
     1
 90
        1
176
     1
 90
        0
176
     1
 62
     7
176
     1
 62
   257
176
     1
 90
        1
176
     1
 90
        1
176
     1
 40
1.0
176
     1
 90
        8
176
     1
 62
     7
176
     1
 40
1.0
176
     1
 90
        1
176
     1
 90
        6
176
     1
 90
        2
176
     1
 62
     7
176
     1
 90
        3
176
     1
 90
        0
176
     1
 90
        0
176
     1
290
     0
176
     1
 90
       13
176
     1
 40
0.0
176
     1
 90
        0
176
     1
290
     0
176
     1
290
     1
176
     1
290
     1
176
     1
290
     0
176
     1
290
     0
176
     1
290
     0
176
     1
290
     0
176
     1
290
     0
176
     1
290
     0
176
     1
 90
       50
176
     1
 40
0.0
176
     1
 40
1.0
176
     1
 90
        0
176
     1
 62
    18
420
        0
176
     1
 90
       50
176
     1
 90
        3
176
     1
 62
     5
420
      255
176
     1
290
     0
176
     1
 90
       50
176
     1
 90
       50
176
     1
 90
       50
176
     1
290
     0
176
     1
 90
       50
176
     1
 62
   256
176
     0
 40
1.0
176
     0
 90
        2
176
     1
  1
strokes_ogs.tif
176
     1
290
     0
176
     1
 40
1.0
176
     1
 40
1.0
176
     1
1001
ACAD
1000
AcDbSavedByObjectVersion
1070
     0
  0
DICTIONARYVAR
  5
199
102
{ACAD_REACTORS
330
194
102
}
330
194
100
DictionaryVariables
280
     0
  1
1:1
  0
DICTIONARYVAR
  5
196
102
{ACAD_REACTORS
330
194
102
}
330
194
100
DictionaryVariables
280
     0
  1
STANDARD
  0
DICTIONARYVAR
  5
195
102
{ACAD_REACTORS
330
194
102
}
330
194
100
DictionaryVariables
280
     0
  1
STANDARD
  0
DICTIONARYVAR
  5
197
102
{ACAD_REACTORS
330
194
102
}
330
194
100
DictionaryVariables
280
     0
  1
Imperial24
  0
DICTIONARYVAR
  5
198
102
{ACAD_REACTORS
330
194
102
}
330
194
100
DictionaryVariables
280
     0
  1
Imperial24
  0
DICTIONARY
  5
19F
330
6B
100
AcDbDictionary
280
     1
281
     1
  3
ACAD_XREC_ROUNDTRIP
360
1A0
  0
DICTIONARY
  5
1A
330
19
100
AcDbDictionary
280
     1
281
     1
  3
BUMPTILE
360
1C
  3
DIFFUSETILE
360
1B
  3
OPACITYTILE
360
1F
  3
REFLECTIONTILE
360
1E
  3
REFRACTIONTILE
360
20
  3
SPECULARTILE
360
1D
  0
DICTIONARY
  5
12
330
11
100
AcDbDictionary
280
     1
281
     1
  3
BUMPTILE
360
14
  3
DIFFUSETILE
360
13
  3
OPACITYTILE
360
17
  3
REFLECTIONTILE
360
16
  3
REFRACTIONTILE
360
18
  3
SPECULARTILE
360
15
  0
DICTIONARY
  5
22
330
21
100
AcDbDictionary
280
     1
281
     1
  3
BUMPTILE
360
24
  3
DIFFUSETILE
360
23
  3
OPACITYTILE
360
27
  3
REFLECTIONTILE
360
26
  3
REFRACTIONTILE
360
28
  3
SPECULARTILE
360
25
  0
DICTIONARY
  5
19D
330
69
100
AcDbDictionary
280
     1
281
     1
  3
ACAD_XREC_ROUNDTRIP
360
19E
  0
DICTIONARY
  5
19A
330
65
100
AcDbDictionary
280
     1
281
     1
  3
ACAD_ROUNDTRIP_2008_TABLESTYLE_CELLSTYLEMAP
360
19B
  0
XRECORD
  5
1A0
102
{ACAD_REACTORS
330
19F
102
}
330
19F
100
AcDbXrecord
280
     1
102
DISPLAYNAME
  1
Imperial24
102
FLAGS
 90
        0
  0
XRECORD
  5
1C
102
{ACAD_REACTORS
330
1A
102
}
330
1A
100
AcDbXrecord
280
     1
270
     1
271
     1
  0
XRECORD
  5
1B
102
{ACAD_REACTORS
330
1A
102
}
330
1A
100
AcDbXrecord
280
     1
270
     1
271
     1
  0
XRECORD
  5
1F
102
{ACAD_REACTORS
330
1A
102
}
330
1A
100
AcDbXrecord
280
     1
270
     1
271
     1
  0
XRECORD
  5
1E
102
{ACAD_REACTORS
330
1A
102
}
330
1A
100
AcDbXrecord
280
     1
270
     1
271
     1
  0
XRECORD
  5
20
102
{ACAD_REACTORS
330
1A
102
}
330
1A
100
AcDbXrecord
280
     1
270
     1
271
     1
  0
XRECORD
  5
1D
102
{ACAD_REACTORS
330
1A
102
}
330
1A
100
AcDbXrecord
280
     1
270
     1
271
     1
  0
XRECORD
  5
14
102
{ACAD_REACTORS
330
12
102
}
330
12
100
AcDbXrecord
280
     1
270
     1
271
     1
  0
XRECORD
  5
13
102
{ACAD_REACTORS
330
12
102
}
330
12
100
AcDbXrecord
280
     1
270
     1
271
     1
  0
XRECORD
  5
17
102
{ACAD_REACTORS
330
12
102
}
330
12
100
AcDbXrecord
280
     1
270
     1
271
     1
  0
XRECORD
  5
16
102
{ACAD_REACTORS
330
12
102
}
330
12
100
AcDbXrecord
280
     1
270
     1
271
     1
  0
XRECORD
  5
18
102
{ACAD_REACTORS
330
12
102
}
330
12
100
AcDbXrecord
280
     1
270
     1
271
     1
  0
XRECORD
  5
15
102
{ACAD_REACTORS
330
12
102
}
330
12
100
AcDbXrecord
280
     1
270
     1
271
     1
  0
XRECORD
  5
24
102
{ACAD_REACTORS
330
22
102
}
330
22
100
AcDbXrecord
280
     1
270
     1
271
     1
  0
XRECORD
  5
23
102
{ACAD_REACTORS
330
22
102
}
330
22
100
AcDbXrecord
280
     1
270
     1
271
     1
  0
XRECORD
  5
27
102
{ACAD_REACTORS
330
22
102
}
330
22
100
AcDbXrecord
280
     1
270
     1
271
     1
  0
XRECORD
  5
26
102
{ACAD_REACTORS
330
22
102
}
330
22
100
AcDbXrecord
280
     1
270
     1
271
     1
  0
XRECORD
  5
28
102
{ACAD_REACTORS
330
22
102
}
330
22
100
AcDbXrecord
280
     1
270
     1
271
     1
  0
XRECORD
  5
25
102
{ACAD_REACTORS
330
22
102
}
330
22
100
AcDbXrecord
280
     1
270
     1
271
     1
  0
XRECORD
  5
19E
102
{ACAD_REACTORS
330
19D
102
}
330
19D
100
AcDbXrecord
280
     1
102
DISPLAYNAME
  1
Imperial24
102
FLAGS
 90
        0
  0
CELLSTYLEMAP
  5
19B
102
{ACAD_REACTORS
330
19A
102
}
330
19A
100
AcDbCellStyleMap
 90
        3
300
CELLSTYLE
  1
TABLEFORMAT_BEGIN
 90
        5
170
     1
 91
        0
 92
    32768
 62
   257
 93
        1
300
CONTENTFORMAT
  1
CONTENTFORMAT_BEGIN
 90
        0
 91
        0
 92
      512
 93
        0
300

 40
0.0
140
1.0
 94
        5
 62
     0
340
55
144
0.25
309
CONTENTFORMAT_END
171
     0
 94
        0
309
TABLEFORMAT_END
  1
CELLSTYLE_BEGIN
 90
        1
 91
        1
300
_TITLE
309
CELLSTYLE_END
300
CELLSTYLE
  1
TABLEFORMAT_BEGIN
 90
        5
170
     1
 91
        0
 92
        0
 62
   257
 93
        1
300
CONTENTFORMAT
  1
CONTENTFORMAT_BEGIN
 90
        0
 91
        0
 92
      512
 93
        0
300

 40
0.0
140
1.0
 94
        5
 62
     0
340
55
144
0.18
309
CONTENTFORMAT_END
171
     0
 94
        0
309
TABLEFORMAT_END
  1
CELLSTYLE_BEGIN
 90
        2
 91
        1
300
_HEADER
309
CELLSTYLE_END
300
CELLSTYLE
  1
TABLEFORMAT_BEGIN
 90
        5
170
     1
 91
        0
 92
        0
 62
   257
 93
        1
300
CONTENTFORMAT
  1
CONTENTFORMAT_BEGIN
 90
        0
 91
        0
 92
      512
 93
        0
300

 40
0.0
140
1.0
 94
        2
 62
     0
340
55
144
0.18
309
CONTENTFORMAT_END
171
     0
 94
        0
309
TABLEFORMAT_END
  1
CELLSTYLE_BEGIN
 90
        3
 91
        2
300
_DATA
309
CELLSTYLE_END
  0
ENDSEC
  0
EOF
