<?xml version="1.0" encoding="UTF-8" standalone="no"?>
<svg
   xmlns:dc="http://purl.org/dc/elements/1.1/"
   xmlns:cc="http://creativecommons.org/ns#"
   xmlns:rdf="http://www.w3.org/1999/02/22-rdf-syntax-ns#"
   xmlns:svg="http://www.w3.org/2000/svg"
   xmlns="http://www.w3.org/2000/svg"
   xmlns:sodipodi="http://sodipodi.sourceforge.net/DTD/sodipodi-0.dtd"
   xmlns:inkscape="http://www.inkscape.org/namespaces/inkscape"
   viewBox="0 0 566.92914 253.22835"
   width="150mm"
   height="67mm"
   version="1.1"
   id="svg373759"
   sodipodi:docname="Scheibe_Laser.svg"
   inkscape:version="1.0.1 (3bc2e813f5, 2020-09-07)">
  <metadata
     id="metadata373763">
    <rdf:RDF>
      <cc:Work
         rdf:about="">
        <dc:format>image/svg+xml</dc:format>
        <dc:type
           rdf:resource="http://purl.org/dc/dcmitype/StillImage" />
        <dc:title></dc:title>
      </cc:Work>
    </rdf:RDF>
  </metadata>
  <sodipodi:namedview
     pagecolor="#ffffff"
     bordercolor="#666666"
     borderopacity="1"
     objecttolerance="10"
     gridtolerance="10"
     guidetolerance="10"
     inkscape:pageopacity="0"
     inkscape:pageshadow="2"
     inkscape:window-width="3440"
     inkscape:window-height="1377"
     id="namedview373761"
     showgrid="false"
     inkscape:zoom="2.0721241"
     inkscape:cx="568.58507"
     inkscape:cy="72.566047"
     inkscape:window-x="-8"
     inkscape:window-y="-8"
     inkscape:window-maximized="1"
     inkscape:current-layer="g373755"
     units="mm" />
  <defs
     id="defs372821">
    <marker
       id="DistanceX"
       orient="auto"
       refX="0"
       refY="0"
       style="overflow:visible">
      <path
         d="M 3,-3 -3,3 M 0,-5 V 5"
         style="stroke:#000000;stroke-width:0.5"
         id="path372809" />
    </marker>
    <pattern
       id="Hatch"
       patternUnits="userSpaceOnUse"
       width="8"
       height="8"
       x="0"
       y="0">
      <path
         d="M8 4 l-4,4"
         stroke="#000000"
         stroke-width="0.25"
         linecap="square"
         id="path372812" />
      <path
         d="M6 2 l-4,4"
         stroke="#000000"
         stroke-width="0.25"
         linecap="square"
         id="path372814" />
      <path
         d="M4 0 l-4,4"
         stroke="#000000"
         stroke-width="0.25"
         linecap="square"
         id="path372816" />
    </pattern>
    <symbol
       id="*MODEL_SPACE" />
    <symbol
       id="*PAPER_SPACE" />
  </defs>
  <g
     inkscape:groupmode="layer"
     inkscape:label="0"
     id="g373755">
    <path
       id="rect375266"
       style="fill:none;stroke:#ff0000;stroke-width:0.377953;stroke-linecap:round;stroke-linejoin:round;stroke-miterlimit:4;stroke-dasharray:none;stroke-opacity:0.905882"
       d="m 2.18898,0.18898 c -1.108,0 -2,0.892 -2,2 v 222.0332 c 0,1.108 0.892,2 2,2 H 63.2671 c 7.11604,12.66704 14.23162,21.07063 21.34766,25.20117 h 0.91211 v -2.82617 l 1.15429,-13.18359 c 5.50929,5.02263 11.01806,5.02263 16.52735,0 l 1.15429,13.18359 v 2.82617 h 0.91211 c 7.11603,-4.13054 14.23163,-12.53413 21.34766,-25.20117 h 62.19727 c 7.11603,12.66704 14.23162,21.07063 21.34765,25.20117 h 0.91406 v -2.82617 l 1.15235,-13.18359 c 5.50929,5.02263 11.01805,5.02263 16.52734,0 l 1.1543,13.18359 v 2.82617 h 0.91211 c 7.11602,-4.13054 14.23162,-12.53413 21.34765,-25.20117 h 62.19727 c 7.11605,12.66709 14.23356,21.07062 21.34961,25.20117 h 0.91211 v -2.82617 l 1.15234,-13.18359 c 5.50929,5.02263 11.02001,5.02263 16.5293,0 l 1.15234,13.18359 v 2.82617 h 0.91211 c 7.11604,-4.13055 14.23356,-12.53408 21.34961,-25.20117 h 62.19531 c 7.11605,12.66709 14.23356,21.07062 21.34961,25.20117 h 0.91211 v -2.82617 l 1.15235,-13.18359 c 5.50929,5.02263 11.02,5.02263 16.52929,0 l 1.15235,13.18359 v 2.82617 h 0.91211 c 7.11602,-4.13054 14.23357,-12.53413 21.34961,-25.20117 h 61.09765 c 1.108,0 2,-0.892 2,-2 V 2.18898 c 0,-1.108 -0.892,-2 -2,-2 z" />
    <path
       d="m 93.95906,124.89372 a 0.98589,0.98589 0 0 1 1.97178,0 v 42.53289 a 0.98589,0.98589 0 0 1 -1.97178,0 z"
       style="fill:#000000;stroke:#000000;stroke-width:0.377953;stroke-miterlimit:4;stroke-dasharray:none"
       id="path372931" />
    <path
       d="m 470.61839,124.89372 a 0.98588666,0.98588666 0 0 1 1.97177,0 v 42.53289 a 0.98588666,0.98588666 0 0 1 -1.97177,0 z"
       style="fill:#000000;stroke:#000000;stroke-width:0.377953;stroke-miterlimit:4;stroke-dasharray:none"
       id="path372933" />
    <path
       d="m 345.06528,124.89372 a 0.98588666,0.98588666 0 0 1 1.97177,0 v 42.53289 a 0.98588666,0.98588666 0 0 1 -1.97177,0 z"
       style="fill:#000000;stroke:#000000;stroke-width:0.377953;stroke-miterlimit:4;stroke-dasharray:none"
       id="path372935" />
    <path
       d="m 219.51217,124.89372 a 0.98589,0.98589 0 0 1 1.97178,0 v 42.53289 a 0.98589,0.98589 0 0 1 -1.97178,0 z"
       style="fill:#000000;stroke:#000000;stroke-width:0.377953;stroke-miterlimit:4;stroke-dasharray:none"
       id="path372937" />
    <path
       style="fill:#000000;stroke:#000000;stroke-width:0.377953;stroke-miterlimit:4;stroke-dasharray:none"
       d="m 94.03335,78.53539 v 8.05713 a 0.941495,0.941495 0 0 0 1.88299,0 v -8.05713 a 0.941495,0.941495 0 0 0 -1.88299,0 z"
       id="path376221" />
    <path
       style="fill:#000000;stroke:#000000;stroke-width:0.377953;stroke-miterlimit:4;stroke-dasharray:none"
       d="m 103.37899,76.12363 4.73586,6.51836 a 0.94149353,0.94149353 0 0 0 1.52337,-1.10679 l -4.73587,-6.51836 a 0.94149234,0.94149234 0 0 0 -1.52336,1.10679 z"
       id="path376219" />
    <path
       style="fill:#000000;stroke:#000000;stroke-width:0.377953;stroke-miterlimit:4;stroke-dasharray:none"
       d="m 109.52217,68.67924 7.66279,2.48979 a 0.94149272,0.94149272 0 0 0 0.58187,-1.79082 l -7.66279,-2.48979 a 0.94149272,0.94149272 0 0 0 -0.58187,1.79082 z"
       id="path376217" />
    <path
       style="fill:#000000;stroke:#000000;stroke-width:0.377953;stroke-miterlimit:4;stroke-dasharray:none"
       d="m 110.11641,59.04574 7.66279,-2.48979 a 0.94149567,0.94149567 0 0 0 -0.58188,-1.79083 l -7.66279,2.4898 a 0.94149272,0.94149272 0 0 0 0.58188,1.79082 z"
       id="path376215" />
    <path
       style="fill:#000000;stroke:#000000;stroke-width:0.377953;stroke-miterlimit:4;stroke-dasharray:none"
       d="m 104.93472,50.90278 4.73587,-6.51835 a 0.94149353,0.94149353 0 0 0 -1.52337,-1.10679 l -4.73586,6.51835 a 0.94149234,0.94149234 0 0 0 1.52336,1.10679 z"
       id="path376213" />
    <path
       style="fill:#000000;stroke:#000000;stroke-width:0.377953;stroke-miterlimit:4;stroke-dasharray:none"
       d="m 95.95634,47.36071 v -8.05713 a 0.94149198,0.94149198 0 0 0 -1.88298,0 v 8.05713 a 0.94149198,0.94149198 0 0 0 1.88298,0 z"
       id="path376211" />
    <path
       style="fill:#000000;stroke:#000000;stroke-width:0.377953;stroke-miterlimit:4;stroke-dasharray:none"
       d="m 86.61071,49.77248 -4.73587,-6.51836 a 0.94149198,0.94149198 0 0 0 -1.52336,1.10679 l 4.73586,6.51836 a 0.94149353,0.94149353 0 0 0 1.52337,-1.10679 z"
       id="path376209" />
    <path
       style="fill:#000000;stroke:#000000;stroke-width:0.377953;stroke-miterlimit:4;stroke-dasharray:none"
       d="m 80.46752,57.21686 -7.66279,-2.48979 a 0.94149413,0.94149413 0 0 0 -0.58187,1.79083 l 7.66279,2.48979 a 0.94149413,0.94149413 0 0 0 0.58187,-1.79083 z"
       id="path376207" />
    <path
       style="fill:#000000;stroke:#000000;stroke-width:0.377953;stroke-miterlimit:4;stroke-dasharray:none"
       d="m 79.87329,66.85036 -7.66279,2.4898 a 0.94149198,0.94149198 0 0 0 0.58187,1.79082 l 7.66279,-2.48979 a 0.94149413,0.94149413 0 0 0 -0.58187,-1.79083 z"
       id="path376205" />
    <path
       style="fill:#000000;stroke:#000000;stroke-width:0.377953;stroke-miterlimit:4;stroke-dasharray:none"
       d="m 85.05497,74.99332 -4.73586,6.51836 a 0.94149234,0.94149234 0 0 0 1.52336,1.10679 l 4.73587,-6.51836 a 0.94149353,0.94149353 0 0 0 -1.52337,-1.10679 z"
       id="path376203" />
    <path
       id="path376199"
       style="fill:#000000;stroke:#000000;stroke-width:0.377953;stroke-miterlimit:4;stroke-dasharray:none"
       d="m 95.0957,49.570312 a 13.373006,13.373006 0 0 0 -13.47461,13.376954 13.37305,13.37305 0 1 0 26.7461,0 A 13.373006,13.373006 0 0 0 95.0957,49.570312 Z m -0.004,1.88086 a 11.490012,11.490012 0 0 1 11.39258,11.496094 11.490237,11.490237 0 1 1 -22.98047,0 11.490012,11.490012 0 0 1 11.58789,-11.496094 z" />
    <path
       id="path373739"
       style="fill:#000000;stroke:#000000;stroke-width:0.377953;stroke-miterlimit:4;stroke-dasharray:none"
       d="m 235.31832,66.66329 c 0.74585,0.0577 1.47524,0.249108 2.15332,0.56507 3.7773,-8.086909 -3.08471,-17.087387 -11.88319,-15.58647 3.71938,2.670315 6.02237,6.887315 6.25848,11.45991 0.0976,1.890869 1.58364,3.415442 3.47139,3.56149 z m -0.14528,1.87788 c -2.83162,-0.21907 -5.06063,-2.505933 -5.20709,-5.34224 -0.31952,-6.187792 -4.90584,-11.317605 -11.0194,-12.325217 -6.11355,-1.007612 -12.10353,2.379056 -14.3919,8.137027 -0.88062,2.215788 -3.05735,3.640331 -5.44038,3.5604 -8.54325,-0.286565 -10.47991,11.85038 -2.27172,14.23679 0.91921,0.278593 2.25303,0.432773 4.00146,0.46254 9.96295,0.120433 19.92692,0.131467 29.89011,0.0331 1.38896,-0.0137 2.78362,-0.0423 4.18415,-0.06832 5.53251,-0.103062 5.77176,-8.267244 0.25477,-8.69408 z m 4.33347,0.255615 c 0.17505,0.132903 -0.10847,-0.191153 0,0 z m 10.81797,-5.371655 c 1.25691,-3.33e-4 1.25641,-1.885703 -5e-4,-1.88532 l -7.82346,0.002 c -1.25691,3.4e-4 -1.2564,1.88571 5e-4,1.88532 z m -10.34299,-9.27455 c -1.0883,0.628762 -0.14518,2.261292 0.94312,1.63253 l 6.77428,-3.91353 c 1.08841,-0.628731 0.14529,-2.261261 -0.94312,-1.63253 z m -16.7378,-3.88954 c 10.97218,-3.755417 20.98978,7.661422 15.83979,18.05226 0.31456,0.292352 0.59808,0.616408 0.84606,0.96701 0.30297,-0.240271 0.72195,-0.271153 1.05688,-0.0779 l 6.77635,3.90993 c 1.08873,0.628323 0.14648,2.261353 -0.94225,1.63303 l -5.94615,-3.43092 c 1.01371,3.903857 -1.88839,7.728858 -5.92102,7.803945 -1.40016,0.02608 -2.8003,0.05478 -4.20064,0.06856 -9.97698,0.0985 -19.95474,0.08746 -29.93147,-0.03312 -1.84783,-0.02233 -3.34933,-0.201427 -4.50451,-0.53728 -4.42911,-1.287708 -7.20685,-5.671256 -6.48005,-10.226139 0.72681,-4.554882 4.73082,-7.85629 9.34073,-7.701671 1.58869,0.05329 3.03985,-0.896414 3.62692,-2.37361 2.49811,-6.285714 8.87961,-10.135661 15.60498,-9.41446 l -3.27035,-5.66096 c -0.63254,-1.089359 1.00479,-2.035257 1.63252,-0.94312 l 3.96708,6.91511 c 0.89553,0.372044 1.71581,0.676025 2.50513,1.04934 z m -2.55868,-1.19019 c 0.0506,0.08754 0.0867,0.182651 0.1071,0.28168 -0.0204,-0.09903 -0.0565,-0.194137 -0.1071,-0.28168 z m 7.64412,-1.57641 c 3.4e-4,1.256913 -1.88503,1.257423 -1.88537,5.1e-4 l -0.002,-7.82346 c -3.4e-4,-1.256913 1.88503,-1.257423 1.88537,-5.1e-4 z m 7.40821,2.45685 c -0.62821,1.088529 -2.26124,0.146279 -1.63303,-0.94225 l 3.90994,-6.77635 c 0.62938,-1.084155 2.25666,-0.145213 1.63302,0.94225 z" />
    <path
       id="path376316"
       style="fill:#000000;stroke:#000000;stroke-width:0.377953;stroke-miterlimit:4;stroke-dasharray:none"
       d="m 347.40234,41.253906 c -6.47497,0.07102 -12.40172,4.057016 -14.81445,10.263672 -0.58304,1.499861 -2.05616,2.463083 -3.66406,2.398438 -5.92843,-0.23835 -10.73161,4.757449 -10.25977,10.671875 0.6011,7.53474 6.98506,9.889649 11.82227,8.912109 11.77124,-2.37881 23.90007,-0.569802 36.02344,-0.07617 3.61787,0.147416 6.68206,-2.645688 6.86914,-6.261719 0.18707,-3.616031 -2.57178,-6.70885 -6.18555,-6.935547 -1.9209,-0.120569 -3.44202,-1.669009 -3.52734,-3.591796 -0.33736,-7.602937 -5.95361,-13.931413 -13.4629,-15.167969 -0.93866,-0.15457 -1.87578,-0.223037 -2.80078,-0.212891 z m 0.0215,1.882813 c 0.81674,-0.009 1.64384,0.05297 2.47265,0.189453 6.63048,1.09184 11.5908,6.679403 11.88868,13.392578 0.12798,2.884178 2.40966,5.207811 5.29101,5.388672 6.21702,0.390502 5.73584,9.686738 -0.48828,9.433594 -3.01571,-0.122785 -6.01623,-0.325794 -9.03906,-0.527344 -3.02284,-0.20154 -6.06951,-0.401609 -9.11524,-0.511719 -3.04573,-0.11011 -6.09163,-0.129857 -9.15625,0.0332 -3.06462,0.16306 -6.14775,0.509596 -9.16406,1.119141 -1.02616,0.20739 -2.08741,0.231923 -3.13867,0.06445 -1.05127,-0.16747 -2.09155,-0.527434 -2.99609,-1.083984 -0.45228,-0.27828 -0.87042,-0.604892 -1.25196,-0.988282 -0.38154,-0.38338 -0.72591,-0.823959 -1.02539,-1.318359 -0.29948,-0.4944 -0.55387,-1.042501 -0.7539,-1.707031 -0.20003,-0.66452 -0.34745,-1.444501 -0.40625,-2.181641 -0.38202,-4.788538 3.50872,-8.835557 8.30859,-8.642578 2.41184,0.09697 4.61762,-1.347872 5.49219,-3.597656 2.13036,-5.480301 7.36481,-8.999789 13.08203,-9.0625 z" />
    <path
       style="fill:#000000;stroke:#000000;stroke-width:0.377953;stroke-miterlimit:4;stroke-dasharray:none"
       d="m 346.83876,76.08711 c 0.62755,-1.086273 2.25715,-0.144993 1.6296,0.94128 l -4.17774,7.23274 c -0.62911,1.080414 -2.25113,0.143517 -1.62959,-0.94127 z"
       id="path376314" />
    <path
       style="fill:#000000;stroke:#000000;stroke-width:0.377953;stroke-miterlimit:4;stroke-dasharray:none"
       d="m 354.3727,76.08711 c 0.62755,-1.086273 2.25715,-0.144993 1.6296,0.94128 l -4.17774,7.23274 c -0.62911,1.080414 -2.25113,0.143517 -1.62959,-0.94127 z"
       id="path376312" />
    <path
       style="fill:#000000;stroke:#000000;stroke-width:0.377953;stroke-miterlimit:4;stroke-dasharray:none"
       d="m 339.30482,76.08711 c 0.62755,-1.086273 2.25715,-0.144993 1.6296,0.94128 l -4.17774,7.23274 c -0.62911,1.080414 -2.25113,0.143517 -1.62959,-0.94127 z"
       id="path376310" />
    <path
       d="m 454.14361,61.985818 -5.37467,-5.37467 c -0.36818,-0.37016 -0.96722,-0.37017 -1.3354,0 -0.36625,0.36751 -0.36625,0.96203 0,1.32955 l 4.04513,4.04124 -3.51176,-0.008 c -0.52195,-0.0011 -0.94527,0.4224 -0.94227,0.94521 0.002,0.52207 0.42473,0.94403 0.94593,0.94303 l 3.56818,0.008 -4.10155,4.09549 c -0.36885,0.36795 -0.36885,0.96548 0,1.33343 0.19944,0.20141 0.47901,0.30231 0.76111,0.27461 0.2175,-0.0221 0.42053,-0.11919 0.57428,-0.27461 l 5.42331,-5.42722 15.12638,0.03113 -10.72584,10.711189 h -7.60093 c -0.52208,-0.0014 -0.94527,0.422176 -0.94427,0.94427 8.9e-4,0.518847 0.42128,0.939236 0.94014,0.940134 l 5.71792,-0.0028 -2.48884,2.477533 c -0.36991,0.368325 -0.36988,0.967159 0.002,1.33465 0.37027,0.367993 0.96786,0.367151 1.33569,-0.0021 l 2.52874,-2.517427 -0.004,5.796182 c -6.4e-4,0.520996 0.42188,0.943513 0.94288,0.942878 0.28344,0.0014 0.55247,-0.124945 0.73236,-0.344008 0.1382,-0.169421 0.2129,-0.381639 0.2119,-0.600256 l -0.003,-7.672483 10.71747,-10.672851 -0.0109,15.159366 -5.37467,5.37467 c -0.37016,0.368178 -0.37017,0.967217 0,1.3354 0.36751,0.36625 0.96203,0.36625 1.32955,0 l 4.04124,-4.04513 -0.008,3.51176 c -10e-4,0.521951 0.4224,0.94537 0.94521,0.94227 0.52207,-0.0016 0.94403,-0.42473 0.94303,-0.94593 l 0.008,-3.56818 4.09549,4.10155 c 0.36795,0.368849 0.96548,0.368849 1.33343,0 0.20141,-0.199447 0.30231,-0.479008 0.27461,-0.76111 -0.0221,-0.217498 -0.11919,-0.42053 -0.27461,-0.57428 l -5.42722,-5.42331 0.009,-15.112803 10.69191,10.678575 -0.003,7.672483 c -10e-4,0.218617 0.0737,0.430835 0.2119,0.600256 0.17989,0.219063 0.44892,0.345396 0.73236,0.344008 0.521,6.35e-4 0.94352,-0.421882 0.94288,-0.942878 l -0.004,-5.796182 2.52874,2.517427 c 0.36784,0.369251 0.96542,0.370093 1.33569,0.0021 0.37188,-0.367491 0.37191,-0.966325 0.002,-1.33465 l -2.48884,-2.477533 5.71792,0.0028 c 0.51886,-8.98e-4 0.93925,-0.421287 0.94014,-0.940134 0.001,-0.522094 -0.42219,-0.945672 -0.94427,-0.94427 h -7.6009 l -10.72586,-10.739582 15.12637,-0.05943 5.42331,5.42722 c 0.15375,0.15542 0.35678,0.25251 0.57428,0.27461 0.2821,0.0277 0.56166,-0.0732 0.76111,-0.27461 0.36885,-0.36795 0.36885,-0.96548 0,-1.33343 l -4.10155,-4.09549 3.56818,-0.008 c 0.5212,0.001 0.94435,-0.42096 0.94593,-0.94303 0.003,-0.52281 -0.42032,-0.94627 -0.94227,-0.94521 l -3.51176,0.008 4.04513,-4.04124 c 0.36625,-0.36752 0.36625,-0.96204 0,-1.32955 -0.36819,-0.37017 -0.96722,-0.37016 -1.3354,0 l -5.37467,5.37467 -15.17828,0.0187 10.65392,-10.709637 7.67249,0.0028 c 0.21861,0.0012 0.43083,-0.07373 0.60025,-0.211899 0.21907,-0.179889 0.3454,-0.448916 0.34401,-0.732364 6.4e-4,-0.520996 -0.42188,-0.943514 -0.94288,-0.942878 l -5.79618,0.0043 2.51743,-2.528741 c 0.36925,-0.367837 0.37009,-0.96542 0.002,-1.335696 -0.36749,-0.371875 -0.96633,-0.371904 -1.33465,-0.0021 l -2.47753,2.488846 0.003,-5.717927 c -9e-4,-0.518854 -0.42129,-0.939243 -0.94014,-0.940134 -0.52209,-0.0014 -0.94567,0.422187 -0.94427,0.94427 v 7.600932 l -10.72001,10.747002 -0.0399,-15.105214 5.42722,-5.42331 c 0.15542,-0.15375 0.25251,-0.356782 0.27461,-0.57428 0.0277,-0.282102 -0.0732,-0.561663 -0.27461,-0.76111 -0.36795,-0.368849 -0.96548,-0.368849 -1.33343,0 l -4.09549,4.10155 -0.008,-3.56818 c 10e-4,-0.5212 -0.42096,-0.94435 -0.94303,-0.94593 -0.52281,-0.0031 -0.94627,0.420319 -0.94521,0.94227 l 0.008,3.51176 -4.04124,-4.04513 c -0.36752,-0.36625 -0.96204,-0.36625 -1.32955,0 -0.37017,0.368183 -0.37016,0.967222 0,1.3354 l 5.37467,5.37467 0.0364,15.151778 -10.68888,-10.741279 V 42.26666 c 10e-4,-0.522084 -0.42218,-0.945671 -0.94427,-0.944271 -0.51885,8.91e-4 -0.93924,0.42128 -0.94014,0.940134 l 0.003,5.717927 -2.47753,-2.488846 c -0.36832,-0.369804 -0.96716,-0.369775 -1.33465,0.0021 -0.36809,0.370276 -0.36725,0.967859 0.002,1.335696 l 2.51743,2.528741 -5.79618,-0.0043 c -0.521,-6.35e-4 -0.94352,0.421882 -0.94288,0.942878 -10e-4,0.283448 0.12494,0.552475 0.34401,0.732364 0.16942,0.138169 0.38164,0.213099 0.60025,0.211899 l 7.67249,-0.0028 10.65392,10.737983 z"
       style="fill:#000000;stroke:#000000;stroke-width:0.377953;stroke-miterlimit:4;stroke-dasharray:none"
       id="path376472"
       sodipodi:nodetypes="ccccccccccccccccccccccccccccccccccccccccccccccccccccccccccccccccccccccccccccccccccccccccccccccccccccccccccccccccccccccccc" />
  </g>
  <desc
     id="desc373757">Scheibe1.DXF - scale = 25.400000, origin = (0.000000, 0.000000), method = file</desc>
</svg>
