  0
SECTION
  2
HEADER
  9
$ACADVER
  1
AC1014
  9
$HANDSEED
  5
FFFF
  9
$MEASUREMENT
 70
     1
  0
ENDSEC
  0
SECTION
  2
TABLES
  0
TABLE
  2
VPORT
  5
8
330
0
100
AcDbSymbolTable
 70
     4
  0
VPORT
  5
2E
330
8
100
AcDbSymbolTableRecord
100
AcDbViewportTableRecord
  2
*ACTIVE
 70
     0
 10
0.0
 20
0.0
 11
1.0
 21
1.0
 12
210.0
 22
148.5
 13
0.0
 23
0.0
 14
10.0
 24
10.0
 15
10.0
 25
10.0
 16
0.0
 26
0.0
 36
1.0
 17
0.0
 27
0.0
 37
0.0
 40
341.0
 41
1.24
 42
50.0
 43
0.0
 44
0.0
 50
0.0
 51
0.0
 71
     0
 72
   100
 73
     1
 74
     3
 75
     0
 76
     0
 77
     0
 78
     0
  0
ENDTAB
  0
TABLE
  2
LTYPE
  5
5
330
0
100
AcDbSymbolTable
 70
     1
  0
LTYPE
  5
14
330
5
100
AcDbSymbolTableRecord
100
AcDbLinetypeTableRecord
  2
BYBLOCK
 70
     0
  3

 72
    65
 73
     0
 40
0.0
  0
LTYPE
  5
15
330
5
100
AcDbSymbolTableRecord
100
AcDbLinetypeTableRecord
  2
BYLAYER
 70
     0
  3

 72
    65
 73
     0
 40
0.0
  0
LTYPE
  5
16
330
5
100
AcDbSymbolTableRecord
100
AcDbLinetypeTableRecord
  2
CONTINUOUS
 70
     0
  3
Solid line
 72
    65
 73
     0
 40
0.0
  0
ENDTAB
  0
TABLE
  2
LAYER
  5
2
100
AcDbSymbolTable
 70
2
  0
LAYER
  5
50
100
AcDbSymbolTableRecord
100
AcDbLayerTableRecord
  2
0
 70
0
  6
CONTINUOUS
  0
LAYER
  5
51
100
AcDbSymbolTableRecord
100
AcDbLayerTableRecord
  2
Ebene_1
 70
0
  6
CONTINUOUS
  0
ENDTAB
  0
TABLE
  2
STYLE
  5
3
330
0
100
AcDbSymbolTable
 70
     1
  0
STYLE
  5
11
330
3
100
AcDbSymbolTableRecord
100
AcDbTextStyleTableRecord
  2
STANDARD
 70
     0
 40
0.0
 41
1.0
 50
0.0
 71
     0
 42
2.5
  3
txt
  4

  0
ENDTAB
  0
TABLE
  2
VIEW
  5
6
330
0
100
AcDbSymbolTable
 70
     0
  0
ENDTAB
  0
TABLE
  2
UCS
  5
7
330
0
100
AcDbSymbolTable
 70
     0
  0
ENDTAB
  0
TABLE
  2
APPID
  5
9
330
0
100
AcDbSymbolTable
 70
     2
  0
APPID
  5
12
330
9
100
AcDbSymbolTableRecord
100
AcDbRegAppTableRecord
  2
ACAD
 70
     0
  0
ENDTAB
  0
TABLE
  2
DIMSTYLE
  5
A
330
0
100
AcDbSymbolTable
 70
     1
  0
DIMSTYLE
105
27
330
A
100
AcDbSymbolTableRecord
100
AcDbDimStyleTableRecord
  2
ISO-25
 70
     0
  3

  4

  5

  6

  7

 40
1.0
 41
2.5
 42
0.625
 43
3.75
 44
1.25
 45
0.0
 46
0.0
 47
0.0
 48
0.0
140
2.5
141
2.5
142
0.0
143
0.03937007874016
144
1.0
145
0.0
146
1.0
147
0.625
 71
     0
 72
     0
 73
     0
 74
     0
 75
     0
 76
     0
 77
     1
 78
     8
170
     0
171
     3
172
     1
173
     0
174
     0
175
     0
176
     0
177
     0
178
     0
270
     2
271
     2
272
     2
273
     2
274
     3
340
11
275
     0
280
     0
281
     0
282
     0
283
     0
284
     8
285
     0
286
     0
287
     3
288
     0
  0
ENDTAB
  0
TABLE
  2
BLOCK_RECORD
  5
1
330
0
100
AcDbSymbolTable
 70
     1
  0
BLOCK_RECORD
  5
1F
330
1
100
AcDbSymbolTableRecord
100
AcDbBlockTableRecord
  2
*MODEL_SPACE
  0
BLOCK_RECORD
  5
1B
330
1
100
AcDbSymbolTableRecord
100
AcDbBlockTableRecord
  2
*PAPER_SPACE
  0
ENDTAB
  0
ENDSEC
  0
SECTION
  2
BLOCKS
  0
BLOCK
  5
20
330
1F
100
AcDbEntity
  8
0
100
AcDbBlockBegin
  2
*MODEL_SPACE
 70
     0
 10
0.0
 20
0.0
 30
0.0
  3
*MODEL_SPACE
  1

  0
ENDBLK
  5
21
330
1F
100
AcDbEntity
  8
0
100
AcDbBlockEnd
  0
BLOCK
  5
1C
330
1B
100
AcDbEntity
 67
     1
  8
0
100
AcDbBlockBegin
  2
*PAPER_SPACE
  1

  0
ENDBLK
  5
1D
330
1B
100
AcDbEntity
 67
     1
  8
0
100
AcDbBlockEnd
  0
ENDSEC
  0
SECTION
  2
ENTITIES
  0
LINE
  5
100
100
AcDbEntity
  8
Ebene_1
 62
1
100
AcDbLine
 10
31.196548
 20
178.413690
 30
0.0
 11
178.803450
 21
178.413690
 31
0.0
  0
SPLINE
  5
101
100
AcDbEntity
  8
Ebene_1
 62
1
100
AcDbSpline
 70
8
 71
3
 72
8
 73
4
 74
0
 40
0
 40
0
 40
0
 40
0
 40
1
 40
1
 40
1
 40
1
 10
178.803450
 20
178.413690
 30
0.0
 10
179.466340
 20
178.413690
 30
0.0
 10
180.000000
 20
177.880030
 30
0.0
 10
180.000000
 20
177.217140
 30
0.0
  0
LINE
  5
102
100
AcDbEntity
  8
Ebene_1
 62
1
100
AcDbLine
 10
180.000000
 20
177.217140
 30
0.0
 11
180.000000
 21
119.782860
 31
0.0
  0
SPLINE
  5
103
100
AcDbEntity
  8
Ebene_1
 62
1
100
AcDbSpline
 70
8
 71
3
 72
8
 73
4
 74
0
 40
0
 40
0
 40
0
 40
0
 40
1
 40
1
 40
1
 40
1
 10
180.000000
 20
119.782860
 30
0.0
 10
180.000000
 20
119.119970
 30
0.0
 10
179.466340
 20
118.586310
 30
0.0
 10
178.803450
 20
118.586310
 30
0.0
  0
LINE
  5
104
100
AcDbEntity
  8
Ebene_1
 62
1
100
AcDbLine
 10
178.803450
 20
118.586310
 30
0.0
 11
31.196548
 21
118.586310
 31
0.0
  0
SPLINE
  5
105
100
AcDbEntity
  8
Ebene_1
 62
1
100
AcDbSpline
 70
8
 71
3
 72
8
 73
4
 74
0
 40
0
 40
0
 40
0
 40
0
 40
1
 40
1
 40
1
 40
1
 10
31.196548
 20
118.586310
 30
0.0
 10
30.533660
 20
118.586310
 30
0.0
 10
30.000000
 20
119.119970
 30
0.0
 10
30.000000
 20
119.782860
 30
0.0
  0
LINE
  5
106
100
AcDbEntity
  8
Ebene_1
 62
1
100
AcDbLine
 10
30.000000
 20
119.782860
 30
0.0
 11
30.000000
 21
177.217140
 31
0.0
  0
SPLINE
  5
107
100
AcDbEntity
  8
Ebene_1
 62
1
100
AcDbSpline
 70
8
 71
3
 72
8
 73
4
 74
0
 40
0
 40
0
 40
0
 40
0
 40
1
 40
1
 40
1
 40
1
 10
30.000000
 20
177.217140
 30
0.0
 10
30.000000
 20
177.880030
 30
0.0
 10
30.533660
 20
178.413690
 30
0.0
 10
31.196548
 20
178.413690
 30
0.0
  0
LINE
  5
108
100
AcDbEntity
  8
Ebene_1
 62
1
100
AcDbLine
 10
31.196548
 20
178.413690
 30
0.0
 11
31.196548
 21
178.413690
 31
0.0
  0
SPLINE
  5
109
100
AcDbEntity
  8
Ebene_1
 62
7
100
AcDbSpline
 70
8
 71
3
 72
8
 73
4
 74
0
 40
0
 40
0
 40
0
 40
0
 40
1
 40
1
 40
1
 40
1
 10
55.002118
 20
145.318100
 30
0.0
 10
54.857651
 20
145.317915
 30
0.0
 10
54.740583
 20
145.200847
 30
0.0
 10
54.740399
 20
145.056380
 30
0.0
  0
LINE
  5
10a
100
AcDbEntity
  8
Ebene_1
 62
7
100
AcDbLine
 10
54.740399
 20
145.056380
 30
0.0
 11
54.740399
 21
133.765370
 31
0.0
  0
SPLINE
  5
10b
100
AcDbEntity
  8
Ebene_1
 62
7
100
AcDbSpline
 70
8
 71
3
 72
8
 73
4
 74
0
 40
0
 40
0
 40
0
 40
0
 40
1
 40
1
 40
1
 40
1
 10
54.740399
 20
133.765370
 30
0.0
 10
54.740583
 20
133.620903
 30
0.0
 10
54.857651
 20
133.503835
 30
0.0
 10
55.002118
 20
133.503650
 30
0.0
  0
SPLINE
  5
10c
100
AcDbEntity
  8
Ebene_1
 62
7
100
AcDbSpline
 70
8
 71
3
 72
8
 73
4
 74
0
 40
0
 40
0
 40
0
 40
0
 40
1
 40
1
 40
1
 40
1
 10
55.002118
 20
133.503650
 30
0.0
 10
55.146585
 20
133.503835
 30
0.0
 10
55.263652
 20
133.620903
 30
0.0
 10
55.263836
 20
133.765370
 30
0.0
  0
LINE
  5
10d
100
AcDbEntity
  8
Ebene_1
 62
7
100
AcDbLine
 10
55.263836
 20
133.765370
 30
0.0
 11
55.263836
 21
145.056380
 31
0.0
  0
SPLINE
  5
10e
100
AcDbEntity
  8
Ebene_1
 62
7
100
AcDbSpline
 70
8
 71
3
 72
8
 73
4
 74
0
 40
0
 40
0
 40
0
 40
0
 40
1
 40
1
 40
1
 40
1
 10
55.263836
 20
145.056380
 30
0.0
 10
55.263652
 20
145.200847
 30
0.0
 10
55.146585
 20
145.317915
 30
0.0
 10
55.002118
 20
145.318100
 30
0.0
  0
LINE
  5
10f
100
AcDbEntity
  8
Ebene_1
 62
7
100
AcDbLine
 10
55.002118
 20
145.318100
 30
0.0
 11
55.002118
 21
145.318100
 31
0.0
  0
SPLINE
  5
110
100
AcDbEntity
  8
Ebene_1
 62
7
100
AcDbSpline
 70
8
 71
3
 72
8
 73
4
 74
0
 40
0
 40
0
 40
0
 40
0
 40
1
 40
1
 40
1
 40
1
 10
52.913675
 20
158.167110
 30
0.0
 10
52.833973
 20
158.158654
 30
0.0
 10
52.763158
 20
158.112496
 30
0.0
 10
52.723249
 20
158.042990
 30
0.0
  0
LINE
  5
111
100
AcDbEntity
  8
Ebene_1
 62
7
100
AcDbLine
 10
52.723249
 20
158.042990
 30
0.0
 11
51.653807
 21
156.191450
 31
0.0
  0
SPLINE
  5
112
100
AcDbEntity
  8
Ebene_1
 62
7
100
AcDbSpline
 70
8
 71
3
 72
8
 73
4
 74
0
 40
0
 40
0
 40
0
 40
0
 40
1
 40
1
 40
1
 40
1
 10
51.653807
 20
156.191450
 30
0.0
 10
51.584370
 20
156.072188
 30
0.0
 10
51.624704
 20
155.919220
 30
0.0
 10
51.743917
 20
155.849700
 30
0.0
  0
SPLINE
  5
113
100
AcDbEntity
  8
Ebene_1
 62
7
100
AcDbSpline
 70
8
 71
3
 72
8
 73
4
 74
0
 40
0
 40
0
 40
0
 40
0
 40
1
 40
1
 40
1
 40
1
 10
51.743917
 20
155.849700
 30
0.0
 10
51.801395
 20
155.816496
 30
0.0
 10
51.869719
 20
155.807515
 30
0.0
 10
51.933825
 20
155.824735
 30
0.0
  0
SPLINE
  5
114
100
AcDbEntity
  8
Ebene_1
 62
7
100
AcDbSpline
 70
8
 71
3
 72
8
 73
4
 74
0
 40
0
 40
0
 40
0
 40
0
 40
1
 40
1
 40
1
 40
1
 10
51.933825
 20
155.824735
 30
0.0
 10
51.997932
 20
155.841956
 30
0.0
 10
52.052558
 20
155.883964
 30
0.0
 10
52.085662
 20
155.941500
 30
0.0
  0
LINE
  5
115
100
AcDbEntity
  8
Ebene_1
 62
7
100
AcDbLine
 10
52.085662
 20
155.941500
 30
0.0
 11
53.155103
 21
157.793050
 31
0.0
  0
SPLINE
  5
116
100
AcDbEntity
  8
Ebene_1
 62
7
100
AcDbSpline
 70
8
 71
3
 72
8
 73
4
 74
0
 40
0
 40
0
 40
0
 40
0
 40
1
 40
1
 40
1
 40
1
 10
53.155103
 20
157.793050
 30
0.0
 10
53.224533
 20
157.912310
 30
0.0
 10
53.184200
 20
158.065270
 30
0.0
 10
53.064993
 20
158.134790
 30
0.0
  0
SPLINE
  5
117
100
AcDbEntity
  8
Ebene_1
 62
7
100
AcDbSpline
 70
8
 71
3
 72
8
 73
4
 74
0
 40
0
 40
0
 40
0
 40
0
 40
1
 40
1
 40
1
 40
1
 10
53.064993
 20
158.134790
 30
0.0
 10
53.019238
 20
158.161288
 30
0.0
 10
52.966260
 20
158.172596
 30
0.0
 10
52.913673
 20
158.167090
 30
0.0
  0
LINE
  5
118
100
AcDbEntity
  8
Ebene_1
 62
7
100
AcDbLine
 10
52.913673
 20
158.167090
 30
0.0
 11
52.913675
 21
158.167110
 31
0.0
  0
SPLINE
  5
119
100
AcDbEntity
  8
Ebene_1
 62
7
100
AcDbSpline
 70
8
 71
3
 72
8
 73
4
 74
0
 40
0
 40
0
 40
0
 40
0
 40
1
 40
1
 40
1
 40
1
 10
51.410675
 20
159.683710
 30
0.0
 10
51.371245
 20
159.681952
 30
0.0
 10
51.332791
 20
159.670884
 30
0.0
 10
51.298460
 20
159.651410
 30
0.0
  0
LINE
  5
11a
100
AcDbEntity
  8
Ebene_1
 62
7
100
AcDbLine
 10
51.298460
 20
159.651410
 30
0.0
 11
49.445214
 21
158.581980
 31
0.0
  0
SPLINE
  5
11b
100
AcDbEntity
  8
Ebene_1
 62
7
100
AcDbSpline
 70
8
 71
3
 72
8
 73
4
 74
0
 40
0
 40
0
 40
0
 40
0
 40
1
 40
1
 40
1
 40
1
 10
49.445214
 20
158.581980
 30
0.0
 10
49.387675
 20
158.548878
 30
0.0
 10
49.345664
 20
158.494251
 30
0.0
 10
49.328441
 20
158.430143
 30
0.0
  0
SPLINE
  5
11c
100
AcDbEntity
  8
Ebene_1
 62
7
100
AcDbSpline
 70
8
 71
3
 72
8
 73
4
 74
0
 40
0
 40
0
 40
0
 40
0
 40
1
 40
1
 40
1
 40
1
 10
49.328441
 20
158.430143
 30
0.0
 10
49.311219
 20
158.366035
 30
0.0
 10
49.320200
 20
158.297710
 30
0.0
 10
49.353404
 20
158.240230
 30
0.0
  0
SPLINE
  5
11d
100
AcDbEntity
  8
Ebene_1
 62
7
100
AcDbSpline
 70
8
 71
3
 72
8
 73
4
 74
0
 40
0
 40
0
 40
0
 40
0
 40
1
 40
1
 40
1
 40
1
 10
49.353404
 20
158.240230
 30
0.0
 10
49.386508
 20
158.182694
 30
0.0
 10
49.441134
 20
158.140686
 30
0.0
 10
49.505241
 20
158.123465
 30
0.0
  0
SPLINE
  5
11e
100
AcDbEntity
  8
Ebene_1
 62
7
100
AcDbSpline
 70
8
 71
3
 72
8
 73
4
 74
0
 40
0
 40
0
 40
0
 40
0
 40
1
 40
1
 40
1
 40
1
 10
49.505241
 20
158.123465
 30
0.0
 10
49.569347
 20
158.106245
 30
0.0
 10
49.637671
 20
158.115226
 30
0.0
 10
49.695149
 20
158.148430
 30
0.0
  0
LINE
  5
11f
100
AcDbEntity
  8
Ebene_1
 62
7
100
AcDbLine
 10
49.695149
 20
158.148430
 30
0.0
 11
51.548395
 21
159.217860
 31
0.0
  0
SPLINE
  5
120
100
AcDbEntity
  8
Ebene_1
 62
7
100
AcDbSpline
 70
8
 71
3
 72
8
 73
4
 74
0
 40
0
 40
0
 40
0
 40
0
 40
1
 40
1
 40
1
 40
1
 10
51.548395
 20
159.217860
 30
0.0
 10
51.605934
 20
159.250962
 30
0.0
 10
51.647945
 20
159.305589
 30
0.0
 10
51.665168
 20
159.369697
 30
0.0
  0
SPLINE
  5
121
100
AcDbEntity
  8
Ebene_1
 62
7
100
AcDbSpline
 70
8
 71
3
 72
8
 73
4
 74
0
 40
0
 40
0
 40
0
 40
0
 40
1
 40
1
 40
1
 40
1
 10
51.665168
 20
159.369697
 30
0.0
 10
51.682390
 20
159.433805
 30
0.0
 10
51.673409
 20
159.502130
 30
0.0
 10
51.640205
 20
159.559610
 30
0.0
  0
SPLINE
  5
122
100
AcDbEntity
  8
Ebene_1
 62
7
100
AcDbSpline
 70
8
 71
3
 72
8
 73
4
 74
0
 40
0
 40
0
 40
0
 40
0
 40
1
 40
1
 40
1
 40
1
 10
51.640205
 20
159.559610
 30
0.0
 10
51.593068
 20
159.640798
 30
0.0
 10
51.504421
 20
159.688735
 30
0.0
 10
51.410675
 20
159.683730
 30
0.0
  0
LINE
  5
123
100
AcDbEntity
  8
Ebene_1
 62
7
100
AcDbLine
 10
51.410675
 20
159.683730
 30
0.0
 11
51.410675
 21
159.683710
 31
0.0
  0
SPLINE
  5
124
100
AcDbEntity
  8
Ebene_1
 62
7
100
AcDbSpline
 70
8
 71
3
 72
8
 73
4
 74
0
 40
0
 40
0
 40
0
 40
0
 40
1
 40
1
 40
1
 40
1
 10
48.729419
 20
161.756290
 30
0.0
 10
48.591397
 20
161.756253
 30
0.0
 10
48.479519
 20
161.644372
 30
0.0
 10
48.479486
 20
161.506350
 30
0.0
  0
SPLINE
  5
125
100
AcDbEntity
  8
Ebene_1
 62
7
100
AcDbSpline
 70
8
 71
3
 72
8
 73
4
 74
0
 40
0
 40
0
 40
0
 40
0
 40
1
 40
1
 40
1
 40
1
 10
48.479486
 20
161.506350
 30
0.0
 10
48.479525
 20
161.368332
 30
0.0
 10
48.591401
 20
161.256457
 30
0.0
 10
48.729419
 20
161.256420
 30
0.0
  0
LINE
  5
126
100
AcDbEntity
  8
Ebene_1
 62
7
100
AcDbLine
 10
48.729419
 20
161.256420
 30
0.0
 11
50.868303
 21
161.256420
 31
0.0
  0
SPLINE
  5
127
100
AcDbEntity
  8
Ebene_1
 62
7
100
AcDbSpline
 70
8
 71
3
 72
8
 73
4
 74
0
 40
0
 40
0
 40
0
 40
0
 40
1
 40
1
 40
1
 40
1
 10
50.868303
 20
161.256420
 30
0.0
 10
51.006321
 20
161.256456
 30
0.0
 10
51.118198
 20
161.368332
 30
0.0
 10
51.118237
 20
161.506350
 30
0.0
  0
SPLINE
  5
128
100
AcDbEntity
  8
Ebene_1
 62
7
100
AcDbSpline
 70
8
 71
3
 72
8
 73
4
 74
0
 40
0
 40
0
 40
0
 40
0
 40
1
 40
1
 40
1
 40
1
 10
51.118237
 20
161.506350
 30
0.0
 10
51.118204
 20
161.644372
 30
0.0
 10
51.006325
 20
161.756254
 30
0.0
 10
50.868303
 20
161.756290
 30
0.0
  0
LINE
  5
129
100
AcDbEntity
  8
Ebene_1
 62
7
100
AcDbLine
 10
50.868303
 20
161.756290
 30
0.0
 11
48.729419
 21
161.756290
 31
0.0
  0
SPLINE
  5
12a
100
AcDbEntity
  8
Ebene_1
 62
7
100
AcDbSpline
 70
8
 71
3
 72
8
 73
4
 74
0
 40
0
 40
0
 40
0
 40
0
 40
1
 40
1
 40
1
 40
1
 10
49.582933
 20
164.896600
 30
0.0
 10
49.488828
 20
164.901267
 30
0.0
 10
49.400091
 20
164.852629
 30
0.0
 10
49.353402
 20
164.770790
 30
0.0
  0
SPLINE
  5
12b
100
AcDbEntity
  8
Ebene_1
 62
7
100
AcDbSpline
 70
8
 71
3
 72
8
 73
4
 74
0
 40
0
 40
0
 40
0
 40
0
 40
1
 40
1
 40
1
 40
1
 10
49.353402
 20
164.770790
 30
0.0
 10
49.285405
 20
164.651464
 30
0.0
 10
49.326399
 20
164.499629
 30
0.0
 10
49.445212
 20
164.430740
 30
0.0
  0
LINE
  5
12c
100
AcDbEntity
  8
Ebene_1
 62
7
100
AcDbLine
 10
49.445212
 20
164.430740
 30
0.0
 11
51.298458
 21
163.361300
 31
0.0
  0
SPLINE
  5
12d
100
AcDbEntity
  8
Ebene_1
 62
7
100
AcDbSpline
 70
8
 71
3
 72
8
 73
4
 74
0
 40
0
 40
0
 40
0
 40
0
 40
1
 40
1
 40
1
 40
1
 10
51.298458
 20
163.361300
 30
0.0
 10
51.417716
 20
163.291865
 30
0.0
 10
51.570680
 20
163.332193
 30
0.0
 10
51.640203
 20
163.451400
 30
0.0
  0
SPLINE
  5
12e
100
AcDbEntity
  8
Ebene_1
 62
7
100
AcDbSpline
 70
8
 71
3
 72
8
 73
4
 74
0
 40
0
 40
0
 40
0
 40
0
 40
1
 40
1
 40
1
 40
1
 10
51.640203
 20
163.451400
 30
0.0
 10
51.673404
 20
163.508879
 30
0.0
 10
51.682383
 20
163.577202
 30
0.0
 10
51.665161
 20
163.641308
 30
0.0
  0
SPLINE
  5
12f
100
AcDbEntity
  8
Ebene_1
 62
7
100
AcDbSpline
 70
8
 71
3
 72
8
 73
4
 74
0
 40
0
 40
0
 40
0
 40
0
 40
1
 40
1
 40
1
 40
1
 10
51.665161
 20
163.641308
 30
0.0
 10
51.647939
 20
163.705413
 30
0.0
 10
51.605929
 20
163.760038
 30
0.0
 10
51.548393
 20
163.793140
 30
0.0
  0
LINE
  5
130
100
AcDbEntity
  8
Ebene_1
 62
7
100
AcDbLine
 10
51.548393
 20
163.793140
 30
0.0
 11
49.695147
 21
164.862590
 31
0.0
  0
SPLINE
  5
131
100
AcDbEntity
  8
Ebene_1
 62
7
100
AcDbSpline
 70
8
 71
3
 72
8
 73
4
 74
0
 40
0
 40
0
 40
0
 40
0
 40
1
 40
1
 40
1
 40
1
 10
49.695147
 20
164.862590
 30
0.0
 10
49.660967
 20
164.882659
 30
0.0
 10
49.622504
 20
164.894312
 30
0.0
 10
49.582933
 20
164.896590
 30
0.0
  0
LINE
  5
132
100
AcDbEntity
  8
Ebene_1
 62
7
100
AcDbLine
 10
49.582933
 20
164.896590
 30
0.0
 11
49.582933
 21
164.896600
 31
0.0
  0
SPLINE
  5
133
100
AcDbEntity
  8
Ebene_1
 62
7
100
AcDbSpline
 70
8
 71
3
 72
8
 73
4
 74
0
 40
0
 40
0
 40
0
 40
0
 40
1
 40
1
 40
1
 40
1
 10
51.856134
 20
167.195310
 30
0.0
 10
51.816704
 20
167.193552
 30
0.0
 10
51.778251
 20
167.182484
 30
0.0
 10
51.743920
 20
167.163010
 30
0.0
  0
SPLINE
  5
134
100
AcDbEntity
  8
Ebene_1
 62
7
100
AcDbSpline
 70
8
 71
3
 72
8
 73
4
 74
0
 40
0
 40
0
 40
0
 40
0
 40
1
 40
1
 40
1
 40
1
 10
51.743920
 20
167.163010
 30
0.0
 10
51.624713
 20
167.093490
 30
0.0
 10
51.584380
 20
166.940530
 30
0.0
 10
51.653810
 20
166.821270
 30
0.0
  0
LINE
  5
135
100
AcDbEntity
  8
Ebene_1
 62
7
100
AcDbLine
 10
51.653810
 20
166.821270
 30
0.0
 11
52.723252
 21
164.968020
 31
0.0
  0
SPLINE
  5
136
100
AcDbEntity
  8
Ebene_1
 62
7
100
AcDbSpline
 70
8
 71
3
 72
8
 73
4
 74
0
 40
0
 40
0
 40
0
 40
0
 40
1
 40
1
 40
1
 40
1
 10
52.723252
 20
164.968020
 30
0.0
 10
52.756356
 20
164.910484
 30
0.0
 10
52.810982
 20
164.868475
 30
0.0
 10
52.875089
 20
164.851255
 30
0.0
  0
SPLINE
  5
137
100
AcDbEntity
  8
Ebene_1
 62
7
100
AcDbSpline
 70
8
 71
3
 72
8
 73
4
 74
0
 40
0
 40
0
 40
0
 40
0
 40
1
 40
1
 40
1
 40
1
 10
52.875089
 20
164.851255
 30
0.0
 10
52.939196
 20
164.834034
 30
0.0
 10
53.007520
 20
164.843016
 30
0.0
 10
53.064998
 20
164.876220
 30
0.0
  0
SPLINE
  5
138
100
AcDbEntity
  8
Ebene_1
 62
7
100
AcDbSpline
 70
8
 71
3
 72
8
 73
4
 74
0
 40
0
 40
0
 40
0
 40
0
 40
1
 40
1
 40
1
 40
1
 10
53.064998
 20
164.876220
 30
0.0
 10
53.184211
 20
164.945740
 30
0.0
 10
53.224545
 20
165.098708
 30
0.0
 10
53.155108
 20
165.217970
 30
0.0
  0
LINE
  5
139
100
AcDbEntity
  8
Ebene_1
 62
7
100
AcDbLine
 10
53.155108
 20
165.217970
 30
0.0
 11
52.085667
 21
167.071220
 31
0.0
  0
SPLINE
  5
13a
100
AcDbEntity
  8
Ebene_1
 62
7
100
AcDbSpline
 70
8
 71
3
 72
8
 73
4
 74
0
 40
0
 40
0
 40
0
 40
0
 40
1
 40
1
 40
1
 40
1
 10
52.085667
 20
167.071220
 30
0.0
 10
52.038530
 20
167.152408
 30
0.0
 10
51.949882
 20
167.200345
 30
0.0
 10
51.856136
 20
167.195340
 30
0.0
  0
LINE
  5
13b
100
AcDbEntity
  8
Ebene_1
 62
7
100
AcDbLine
 10
51.856136
 20
167.195340
 30
0.0
 11
51.856134
 21
167.195310
 31
0.0
  0
SPLINE
  5
13c
100
AcDbEntity
  8
Ebene_1
 62
7
100
AcDbSpline
 70
8
 71
3
 72
8
 73
4
 74
0
 40
0
 40
0
 40
0
 40
0
 40
1
 40
1
 40
1
 40
1
 10
55.010053
 20
157.612830
 30
0.0
 10
54.872039
 20
157.612794
 30
0.0
 10
54.760163
 20
157.500924
 30
0.0
 10
54.760119
 20
157.362910
 30
0.0
  0
LINE
  5
13d
100
AcDbEntity
  8
Ebene_1
 62
7
100
AcDbLine
 10
54.760119
 20
157.362910
 30
0.0
 11
54.760119
 21
155.224020
 31
0.0
  0
SPLINE
  5
13e
100
AcDbEntity
  8
Ebene_1
 62
7
100
AcDbSpline
 70
8
 71
3
 72
8
 73
4
 74
0
 40
0
 40
0
 40
0
 40
0
 40
1
 40
1
 40
1
 40
1
 10
54.760119
 20
155.224020
 30
0.0
 10
54.760152
 20
155.085998
 30
0.0
 10
54.872031
 20
154.974116
 30
0.0
 10
55.010053
 20
154.974080
 30
0.0
  0
SPLINE
  5
13f
100
AcDbEntity
  8
Ebene_1
 62
7
100
AcDbSpline
 70
8
 71
3
 72
8
 73
4
 74
0
 40
0
 40
0
 40
0
 40
0
 40
1
 40
1
 40
1
 40
1
 10
55.010053
 20
154.974080
 30
0.0
 10
55.148075
 20
154.974117
 30
0.0
 10
55.259953
 20
155.085998
 30
0.0
 10
55.259986
 20
155.224020
 30
0.0
  0
LINE
  5
140
100
AcDbEntity
  8
Ebene_1
 62
7
100
AcDbLine
 10
55.259986
 20
155.224020
 30
0.0
 11
55.259986
 21
157.362910
 31
0.0
  0
SPLINE
  5
141
100
AcDbEntity
  8
Ebene_1
 62
7
100
AcDbSpline
 70
8
 71
3
 72
8
 73
4
 74
0
 40
0
 40
0
 40
0
 40
0
 40
1
 40
1
 40
1
 40
1
 10
55.259986
 20
157.362910
 30
0.0
 10
55.259942
 20
157.500924
 30
0.0
 10
55.148067
 20
157.612793
 30
0.0
 10
55.010053
 20
157.612830
 30
0.0
  0
LINE
  5
142
100
AcDbEntity
  8
Ebene_1
 62
7
100
AcDbLine
 10
55.010053
 20
157.612830
 30
0.0
 11
55.010053
 21
157.612830
 31
0.0
  0
SPLINE
  5
143
100
AcDbEntity
  8
Ebene_1
 62
7
100
AcDbSpline
 70
8
 71
3
 72
8
 73
4
 74
0
 40
0
 40
0
 40
0
 40
0
 40
1
 40
1
 40
1
 40
1
 10
58.107864
 20
167.212310
 30
0.0
 10
58.028163
 20
167.203853
 30
0.0
 10
57.957348
 20
167.157696
 30
0.0
 10
57.917439
 20
167.088190
 30
0.0
  0
LINE
  5
144
100
AcDbEntity
  8
Ebene_1
 62
7
100
AcDbLine
 10
57.917439
 20
167.088190
 30
0.0
 11
56.847997
 21
165.234940
 31
0.0
  0
SPLINE
  5
145
100
AcDbEntity
  8
Ebene_1
 62
7
100
AcDbSpline
 70
8
 71
3
 72
8
 73
4
 74
0
 40
0
 40
0
 40
0
 40
0
 40
1
 40
1
 40
1
 40
1
 10
56.847997
 20
165.234940
 30
0.0
 10
56.780007
 20
165.115616
 30
0.0
 10
56.821000
 20
164.963789
 30
0.0
 10
56.939807
 20
164.894900
 30
0.0
  0
SPLINE
  5
146
100
AcDbEntity
  8
Ebene_1
 62
7
100
AcDbSpline
 70
8
 71
3
 72
8
 73
4
 74
0
 40
0
 40
0
 40
0
 40
0
 40
1
 40
1
 40
1
 40
1
 10
56.939807
 20
164.894900
 30
0.0
 10
57.059065
 20
164.825465
 30
0.0
 10
57.212029
 20
164.865793
 30
0.0
 10
57.281552
 20
164.985000
 30
0.0
  0
LINE
  5
147
100
AcDbEntity
  8
Ebene_1
 62
7
100
AcDbLine
 10
57.281552
 20
164.985000
 30
0.0
 11
58.350994
 21
166.838250
 31
0.0
  0
SPLINE
  5
148
100
AcDbEntity
  8
Ebene_1
 62
7
100
AcDbSpline
 70
8
 71
3
 72
8
 73
4
 74
0
 40
0
 40
0
 40
0
 40
0
 40
1
 40
1
 40
1
 40
1
 10
58.350994
 20
166.838250
 30
0.0
 10
58.384198
 20
166.895730
 30
0.0
 10
58.393179
 20
166.964055
 30
0.0
 10
58.375957
 20
167.028163
 30
0.0
  0
SPLINE
  5
149
100
AcDbEntity
  8
Ebene_1
 62
7
100
AcDbSpline
 70
8
 71
3
 72
8
 73
4
 74
0
 40
0
 40
0
 40
0
 40
0
 40
1
 40
1
 40
1
 40
1
 10
58.375957
 20
167.028163
 30
0.0
 10
58.358734
 20
167.092271
 30
0.0
 10
58.316723
 20
167.146898
 30
0.0
 10
58.259184
 20
167.180000
 30
0.0
  0
SPLINE
  5
14a
100
AcDbEntity
  8
Ebene_1
 62
7
100
AcDbSpline
 70
8
 71
3
 72
8
 73
4
 74
0
 40
0
 40
0
 40
0
 40
0
 40
1
 40
1
 40
1
 40
1
 10
58.259184
 20
167.180000
 30
0.0
 10
58.213429
 20
167.206498
 30
0.0
 10
58.160451
 20
167.217806
 30
0.0
 10
58.107864
 20
167.212300
 30
0.0
  0
LINE
  5
14b
100
AcDbEntity
  8
Ebene_1
 62
7
100
AcDbLine
 10
58.107864
 20
167.212300
 30
0.0
 11
58.107864
 21
167.212310
 31
0.0
  0
SPLINE
  5
14c
100
AcDbEntity
  8
Ebene_1
 62
7
100
AcDbSpline
 70
8
 71
3
 72
8
 73
4
 74
0
 40
0
 40
0
 40
0
 40
0
 40
1
 40
1
 40
1
 40
1
 10
60.420171
 20
164.913600
 30
0.0
 10
60.380599
 20
164.911323
 30
0.0
 10
60.342136
 20
164.899669
 30
0.0
 10
60.307955
 20
164.879600
 30
0.0
  0
LINE
  5
14d
100
AcDbEntity
  8
Ebene_1
 62
7
100
AcDbLine
 10
60.307955
 20
164.879600
 30
0.0
 11
58.456410
 21
163.810150
 31
0.0
  0
SPLINE
  5
14e
100
AcDbEntity
  8
Ebene_1
 62
7
100
AcDbSpline
 70
8
 71
3
 72
8
 73
4
 74
0
 40
0
 40
0
 40
0
 40
0
 40
1
 40
1
 40
1
 40
1
 10
58.456410
 20
163.810150
 30
0.0
 10
58.337603
 20
163.741261
 30
0.0
 10
58.296610
 20
163.589434
 30
0.0
 10
58.364600
 20
163.470110
 30
0.0
  0
SPLINE
  5
14f
100
AcDbEntity
  8
Ebene_1
 62
7
100
AcDbSpline
 70
8
 71
3
 72
8
 73
4
 74
0
 40
0
 40
0
 40
0
 40
0
 40
1
 40
1
 40
1
 40
1
 10
58.364600
 20
163.470110
 30
0.0
 10
58.397704
 20
163.412574
 30
0.0
 10
58.452330
 20
163.370565
 30
0.0
 10
58.516437
 20
163.353345
 30
0.0
  0
SPLINE
  5
150
100
AcDbEntity
  8
Ebene_1
 62
7
100
AcDbSpline
 70
8
 71
3
 72
8
 73
4
 74
0
 40
0
 40
0
 40
0
 40
0
 40
1
 40
1
 40
1
 40
1
 10
58.516437
 20
163.353345
 30
0.0
 10
58.580544
 20
163.336124
 30
0.0
 10
58.648868
 20
163.345106
 30
0.0
 10
58.706346
 20
163.378310
 30
0.0
  0
LINE
  5
151
100
AcDbEntity
  8
Ebene_1
 62
7
100
AcDbLine
 10
58.706346
 20
163.378310
 30
0.0
 11
60.557891
 21
164.447750
 31
0.0
  0
SPLINE
  5
152
100
AcDbEntity
  8
Ebene_1
 62
7
100
AcDbSpline
 70
8
 71
3
 72
8
 73
4
 74
0
 40
0
 40
0
 40
0
 40
0
 40
1
 40
1
 40
1
 40
1
 10
60.557891
 20
164.447750
 30
0.0
 10
60.615427
 20
164.480852
 30
0.0
 10
60.657437
 20
164.535477
 30
0.0
 10
60.674659
 20
164.599582
 30
0.0
  0
SPLINE
  5
153
100
AcDbEntity
  8
Ebene_1
 62
7
100
AcDbSpline
 70
8
 71
3
 72
8
 73
4
 74
0
 40
0
 40
0
 40
0
 40
0
 40
1
 40
1
 40
1
 40
1
 10
60.674659
 20
164.599582
 30
0.0
 10
60.691881
 20
164.663688
 30
0.0
 10
60.682902
 20
164.732011
 30
0.0
 10
60.649701
 20
164.789490
 30
0.0
  0
SPLINE
  5
154
100
AcDbEntity
  8
Ebene_1
 62
7
100
AcDbSpline
 70
8
 71
3
 72
8
 73
4
 74
0
 40
0
 40
0
 40
0
 40
0
 40
1
 40
1
 40
1
 40
1
 10
60.649701
 20
164.789490
 30
0.0
 10
60.602564
 20
164.870678
 30
0.0
 10
60.513916
 20
164.918615
 30
0.0
 10
60.420170
 20
164.913610
 30
0.0
  0
LINE
  5
155
100
AcDbEntity
  8
Ebene_1
 62
7
100
AcDbLine
 10
60.420170
 20
164.913610
 30
0.0
 11
60.420171
 21
164.913600
 31
0.0
  0
SPLINE
  5
156
100
AcDbEntity
  8
Ebene_1
 62
7
100
AcDbSpline
 70
8
 71
3
 72
8
 73
4
 74
0
 40
0
 40
0
 40
0
 40
0
 40
1
 40
1
 40
1
 40
1
 10
59.136500
 20
161.773290
 30
0.0
 10
58.998478
 20
161.773253
 30
0.0
 10
58.886600
 20
161.661372
 30
0.0
 10
58.886567
 20
161.523350
 30
0.0
  0
SPLINE
  5
157
100
AcDbEntity
  8
Ebene_1
 62
7
100
AcDbSpline
 70
8
 71
3
 72
8
 73
4
 74
0
 40
0
 40
0
 40
0
 40
0
 40
1
 40
1
 40
1
 40
1
 10
58.886567
 20
161.523350
 30
0.0
 10
58.886606
 20
161.385332
 30
0.0
 10
58.998482
 20
161.273457
 30
0.0
 10
59.136500
 20
161.273420
 30
0.0
  0
LINE
  5
158
100
AcDbEntity
  8
Ebene_1
 62
7
100
AcDbLine
 10
59.136500
 20
161.273420
 30
0.0
 11
61.275385
 21
161.273420
 31
0.0
  0
SPLINE
  5
159
100
AcDbEntity
  8
Ebene_1
 62
7
100
AcDbSpline
 70
8
 71
3
 72
8
 73
4
 74
0
 40
0
 40
0
 40
0
 40
0
 40
1
 40
1
 40
1
 40
1
 10
61.275385
 20
161.273420
 30
0.0
 10
61.413402
 20
161.273457
 30
0.0
 10
61.525278
 20
161.385333
 30
0.0
 10
61.525317
 20
161.523350
 30
0.0
  0
SPLINE
  5
15a
100
AcDbEntity
  8
Ebene_1
 62
7
100
AcDbSpline
 70
8
 71
3
 72
8
 73
4
 74
0
 40
0
 40
0
 40
0
 40
0
 40
1
 40
1
 40
1
 40
1
 10
61.525317
 20
161.523350
 30
0.0
 10
61.525284
 20
161.661371
 30
0.0
 10
61.413406
 20
161.773253
 30
0.0
 10
61.275385
 20
161.773290
 30
0.0
  0
LINE
  5
15b
100
AcDbEntity
  8
Ebene_1
 62
7
100
AcDbLine
 10
61.275385
 20
161.773290
 30
0.0
 11
59.136500
 21
161.773290
 31
0.0
  0
SPLINE
  5
15c
100
AcDbEntity
  8
Ebene_1
 62
7
100
AcDbSpline
 70
8
 71
3
 72
8
 73
4
 74
0
 40
0
 40
0
 40
0
 40
0
 40
1
 40
1
 40
1
 40
1
 10
58.555024
 20
159.700710
 30
0.0
 10
58.475322
 20
159.692254
 30
0.0
 10
58.404507
 20
159.646096
 30
0.0
 10
58.364598
 20
159.576590
 30
0.0
  0
SPLINE
  5
15d
100
AcDbEntity
  8
Ebene_1
 62
7
100
AcDbSpline
 70
8
 71
3
 72
8
 73
4
 74
0
 40
0
 40
0
 40
0
 40
0
 40
1
 40
1
 40
1
 40
1
 10
58.364598
 20
159.576590
 30
0.0
 10
58.331400
 20
159.519112
 30
0.0
 10
58.322423
 20
159.450791
 30
0.0
 10
58.339645
 20
159.386688
 30
0.0
  0
SPLINE
  5
15e
100
AcDbEntity
  8
Ebene_1
 62
7
100
AcDbSpline
 70
8
 71
3
 72
8
 73
4
 74
0
 40
0
 40
0
 40
0
 40
0
 40
1
 40
1
 40
1
 40
1
 10
58.339645
 20
159.386688
 30
0.0
 10
58.356867
 20
159.322585
 30
0.0
 10
58.398875
 20
159.267962
 30
0.0
 10
58.456408
 20
159.234860
 30
0.0
  0
LINE
  5
15f
100
AcDbEntity
  8
Ebene_1
 62
7
100
AcDbLine
 10
58.456408
 20
159.234860
 30
0.0
 11
60.307953
 21
158.165410
 31
0.0
  0
SPLINE
  5
160
100
AcDbEntity
  8
Ebene_1
 62
7
100
AcDbSpline
 70
8
 71
3
 72
8
 73
4
 74
0
 40
0
 40
0
 40
0
 40
0
 40
1
 40
1
 40
1
 40
1
 10
60.307953
 20
158.165410
 30
0.0
 10
60.365431
 20
158.132206
 30
0.0
 10
60.433755
 20
158.123224
 30
0.0
 10
60.497862
 20
158.140444
 30
0.0
  0
SPLINE
  5
161
100
AcDbEntity
  8
Ebene_1
 62
7
100
AcDbSpline
 70
8
 71
3
 72
8
 73
4
 74
0
 40
0
 40
0
 40
0
 40
0
 40
1
 40
1
 40
1
 40
1
 10
60.497862
 20
158.140444
 30
0.0
 10
60.561970
 20
158.157665
 30
0.0
 10
60.616596
 20
158.199674
 30
0.0
 10
60.649700
 20
158.257210
 30
0.0
  0
SPLINE
  5
162
100
AcDbEntity
  8
Ebene_1
 62
7
100
AcDbSpline
 70
8
 71
3
 72
8
 73
4
 74
0
 40
0
 40
0
 40
0
 40
0
 40
1
 40
1
 40
1
 40
1
 10
60.649700
 20
158.257210
 30
0.0
 10
60.682904
 20
158.314690
 30
0.0
 10
60.691885
 20
158.383015
 30
0.0
 10
60.674663
 20
158.447123
 30
0.0
  0
SPLINE
  5
163
100
AcDbEntity
  8
Ebene_1
 62
7
100
AcDbSpline
 70
8
 71
3
 72
8
 73
4
 74
0
 40
0
 40
0
 40
0
 40
0
 40
1
 40
1
 40
1
 40
1
 10
60.674663
 20
158.447123
 30
0.0
 10
60.657440
 20
158.511231
 30
0.0
 10
60.615429
 20
158.565858
 30
0.0
 10
60.557890
 20
158.598960
 30
0.0
  0
LINE
  5
164
100
AcDbEntity
  8
Ebene_1
 62
7
100
AcDbLine
 10
60.557890
 20
158.598960
 30
0.0
 11
58.706345
 21
159.668400
 31
0.0
  0
SPLINE
  5
165
100
AcDbEntity
  8
Ebene_1
 62
7
100
AcDbSpline
 70
8
 71
3
 72
8
 73
4
 74
0
 40
0
 40
0
 40
0
 40
0
 40
1
 40
1
 40
1
 40
1
 10
58.706345
 20
159.668400
 30
0.0
 10
58.660590
 20
159.694898
 30
0.0
 10
58.607612
 20
159.706206
 30
0.0
 10
58.555025
 20
159.700700
 30
0.0
  0
LINE
  5
166
100
AcDbEntity
  8
Ebene_1
 62
7
100
AcDbLine
 10
58.555025
 20
159.700700
 30
0.0
 11
58.555024
 21
159.700710
 31
0.0
  0
SPLINE
  5
167
100
AcDbEntity
  8
Ebene_1
 62
7
100
AcDbSpline
 70
8
 71
3
 72
8
 73
4
 74
0
 40
0
 40
0
 40
0
 40
0
 40
1
 40
1
 40
1
 40
1
 10
57.052024
 20
158.185810
 30
0.0
 10
57.012453
 20
158.183533
 30
0.0
 10
56.973990
 20
158.171879
 30
0.0
 10
56.939809
 20
158.151810
 30
0.0
  0
SPLINE
  5
168
100
AcDbEntity
  8
Ebene_1
 62
7
100
AcDbSpline
 70
8
 71
3
 72
8
 73
4
 74
0
 40
0
 40
0
 40
0
 40
0
 40
1
 40
1
 40
1
 40
1
 10
56.939809
 20
158.151810
 30
0.0
 10
56.882273
 20
158.118708
 30
0.0
 10
56.840263
 20
158.064083
 30
0.0
 10
56.823041
 20
157.999978
 30
0.0
  0
SPLINE
  5
169
100
AcDbEntity
  8
Ebene_1
 62
7
100
AcDbSpline
 70
8
 71
3
 72
8
 73
4
 74
0
 40
0
 40
0
 40
0
 40
0
 40
1
 40
1
 40
1
 40
1
 10
56.823041
 20
157.999978
 30
0.0
 10
56.805819
 20
157.935872
 30
0.0
 10
56.814798
 20
157.867549
 30
0.0
 10
56.847999
 20
157.810070
 30
0.0
  0
LINE
  5
16a
100
AcDbEntity
  8
Ebene_1
 62
7
100
AcDbLine
 10
56.847999
 20
157.810070
 30
0.0
 11
57.917441
 21
155.958520
 31
0.0
  0
SPLINE
  5
16b
100
AcDbEntity
  8
Ebene_1
 62
7
100
AcDbSpline
 70
8
 71
3
 72
8
 73
4
 74
0
 40
0
 40
0
 40
0
 40
0
 40
1
 40
1
 40
1
 40
1
 10
57.917441
 20
155.958520
 30
0.0
 10
57.950545
 20
155.900984
 30
0.0
 10
58.005171
 20
155.858976
 30
0.0
 10
58.069278
 20
155.841755
 30
0.0
  0
SPLINE
  5
16c
100
AcDbEntity
  8
Ebene_1
 62
7
100
AcDbSpline
 70
8
 71
3
 72
8
 73
4
 74
0
 40
0
 40
0
 40
0
 40
0
 40
1
 40
1
 40
1
 40
1
 10
58.069278
 20
155.841755
 30
0.0
 10
58.133384
 20
155.824535
 30
0.0
 10
58.201708
 20
155.833516
 30
0.0
 10
58.259186
 20
155.866720
 30
0.0
  0
SPLINE
  5
16d
100
AcDbEntity
  8
Ebene_1
 62
7
100
AcDbSpline
 70
8
 71
3
 72
8
 73
4
 74
0
 40
0
 40
0
 40
0
 40
0
 40
1
 40
1
 40
1
 40
1
 10
58.259186
 20
155.866720
 30
0.0
 10
58.316725
 20
155.899822
 30
0.0
 10
58.358736
 20
155.954449
 30
0.0
 10
58.375959
 20
156.018557
 30
0.0
  0
SPLINE
  5
16e
100
AcDbEntity
  8
Ebene_1
 62
7
100
AcDbSpline
 70
8
 71
3
 72
8
 73
4
 74
0
 40
0
 40
0
 40
0
 40
0
 40
1
 40
1
 40
1
 40
1
 10
58.375959
 20
156.018557
 30
0.0
 10
58.393181
 20
156.082665
 30
0.0
 10
58.384200
 20
156.150990
 30
0.0
 10
58.350996
 20
156.208470
 30
0.0
  0
LINE
  5
16f
100
AcDbEntity
  8
Ebene_1
 62
7
100
AcDbLine
 10
58.350996
 20
156.208470
 30
0.0
 11
57.281554
 21
158.060020
 31
0.0
  0
SPLINE
  5
170
100
AcDbEntity
  8
Ebene_1
 62
7
100
AcDbSpline
 70
8
 71
3
 72
8
 73
4
 74
0
 40
0
 40
0
 40
0
 40
0
 40
1
 40
1
 40
1
 40
1
 10
57.281554
 20
158.060020
 30
0.0
 10
57.234867
 20
158.141863
 30
0.0
 10
57.146131
 20
158.190505
 30
0.0
 10
57.052024
 20
158.185840
 30
0.0
  0
LINE
  5
171
100
AcDbEntity
  8
Ebene_1
 62
7
100
AcDbLine
 10
57.052024
 20
158.185840
 30
0.0
 11
57.052024
 21
158.185810
 31
0.0
  0
SPLINE
  5
172
100
AcDbEntity
  8
Ebene_1
 62
7
100
AcDbSpline
 70
8
 71
3
 72
8
 73
4
 74
0
 40
0
 40
0
 40
0
 40
0
 40
1
 40
1
 40
1
 40
1
 10
54.993051
 20
168.053920
 30
0.0
 10
54.855033
 20
168.053884
 30
0.0
 10
54.743156
 20
167.942008
 30
0.0
 10
54.743117
 20
167.803990
 30
0.0
  0
LINE
  5
173
100
AcDbEntity
  8
Ebene_1
 62
7
100
AcDbLine
 10
54.743117
 20
167.803990
 30
0.0
 11
54.743117
 21
165.665100
 31
0.0
  0
SPLINE
  5
174
100
AcDbEntity
  8
Ebene_1
 62
7
100
AcDbSpline
 70
8
 71
3
 72
8
 73
4
 74
0
 40
0
 40
0
 40
0
 40
0
 40
1
 40
1
 40
1
 40
1
 10
54.743117
 20
165.665100
 30
0.0
 10
54.743161
 20
165.527086
 30
0.0
 10
54.855037
 20
165.415216
 30
0.0
 10
54.993051
 20
165.415180
 30
0.0
  0
SPLINE
  5
175
100
AcDbEntity
  8
Ebene_1
 62
7
100
AcDbSpline
 70
8
 71
3
 72
8
 73
4
 74
0
 40
0
 40
0
 40
0
 40
0
 40
1
 40
1
 40
1
 40
1
 10
54.993051
 20
165.415180
 30
0.0
 10
55.131065
 20
165.415217
 30
0.0
 10
55.242940
 20
165.527086
 30
0.0
 10
55.242984
 20
165.665100
 30
0.0
  0
LINE
  5
176
100
AcDbEntity
  8
Ebene_1
 62
7
100
AcDbLine
 10
55.242984
 20
165.665100
 30
0.0
 11
55.242984
 21
167.803990
 31
0.0
  0
SPLINE
  5
177
100
AcDbEntity
  8
Ebene_1
 62
7
100
AcDbSpline
 70
8
 71
3
 72
8
 73
4
 74
0
 40
0
 40
0
 40
0
 40
0
 40
1
 40
1
 40
1
 40
1
 10
55.242984
 20
167.803990
 30
0.0
 10
55.242945
 20
167.942008
 30
0.0
 10
55.131069
 20
168.053883
 30
0.0
 10
54.993051
 20
168.053920
 30
0.0
  0
LINE
  5
178
100
AcDbEntity
  8
Ebene_1
 62
7
100
AcDbLine
 10
54.993051
 20
168.053920
 30
0.0
 11
54.993051
 21
168.053920
 31
0.0
  0
SPLINE
  5
179
100
AcDbEntity
  8
Ebene_1
 62
7
100
AcDbSpline
 70
8
 71
3
 72
8
 73
4
 74
0
 40
0
 40
0
 40
0
 40
0
 40
1
 40
1
 40
1
 40
1
 10
56.790396
 20
164.575260
 30
0.0
 10
55.095074
 20
165.554060
 30
0.0
 10
52.919702
 20
164.971170
 30
0.0
 10
51.940907
 20
163.275850
 30
0.0
  0
SPLINE
  5
17a
100
AcDbEntity
  8
Ebene_1
 62
7
100
AcDbSpline
 70
8
 71
3
 72
8
 73
4
 74
0
 40
0
 40
0
 40
0
 40
0
 40
1
 40
1
 40
1
 40
1
 10
51.940907
 20
163.275850
 30
0.0
 10
50.962112
 20
161.580530
 30
0.0
 10
51.545003
 20
159.405150
 30
0.0
 10
53.240325
 20
158.426360
 30
0.0
  0
SPLINE
  5
17b
100
AcDbEntity
  8
Ebene_1
 62
7
100
AcDbSpline
 70
8
 71
3
 72
8
 73
4
 74
0
 40
0
 40
0
 40
0
 40
0
 40
1
 40
1
 40
1
 40
1
 10
53.240325
 20
158.426360
 30
0.0
 10
54.935647
 20
157.447560
 30
0.0
 10
57.111016
 20
158.030460
 30
0.0
 10
58.089811
 20
159.725780
 30
0.0
  0
SPLINE
  5
17c
100
AcDbEntity
  8
Ebene_1
 62
7
100
AcDbSpline
 70
8
 71
3
 72
8
 73
4
 74
0
 40
0
 40
0
 40
0
 40
0
 40
1
 40
1
 40
1
 40
1
 10
58.089811
 20
159.725780
 30
0.0
 10
59.068605
 20
161.421100
 30
0.0
 10
58.485718
 20
163.596470
 30
0.0
 10
56.790396
 20
164.575260
 30
0.0
  0
LINE
  5
17d
100
AcDbEntity
  8
Ebene_1
 62
7
100
AcDbLine
 10
56.790396
 20
164.575260
 30
0.0
 11
56.790396
 21
164.575260
 31
0.0
  0
SPLINE
  5
17e
100
AcDbEntity
  8
Ebene_1
 62
7
100
AcDbSpline
 70
8
 71
3
 72
8
 73
4
 74
0
 40
0
 40
0
 40
0
 40
0
 40
1
 40
1
 40
1
 40
1
 10
56.540462
 20
164.142360
 30
0.0
 10
58.001762
 20
163.298680
 30
0.0
 10
58.500595
 20
161.437010
 30
0.0
 10
57.656913
 20
159.975720
 30
0.0
  0
SPLINE
  5
17f
100
AcDbEntity
  8
Ebene_1
 62
7
100
AcDbSpline
 70
8
 71
3
 72
8
 73
4
 74
0
 40
0
 40
0
 40
0
 40
0
 40
1
 40
1
 40
1
 40
1
 10
57.656913
 20
159.975720
 30
0.0
 10
56.813226
 20
158.514410
 30
0.0
 10
54.951558
 20
158.015580
 30
0.0
 10
53.490259
 20
158.859260
 30
0.0
  0
SPLINE
  5
180
100
AcDbEntity
  8
Ebene_1
 62
7
100
AcDbSpline
 70
8
 71
3
 72
8
 73
4
 74
0
 40
0
 40
0
 40
0
 40
0
 40
1
 40
1
 40
1
 40
1
 10
53.490259
 20
158.859260
 30
0.0
 10
52.028951
 20
159.702940
 30
0.0
 10
51.530119
 20
161.564610
 30
0.0
 10
52.373805
 20
163.025920
 30
0.0
  0
SPLINE
  5
181
100
AcDbEntity
  8
Ebene_1
 62
7
100
AcDbSpline
 70
8
 71
3
 72
8
 73
4
 74
0
 40
0
 40
0
 40
0
 40
0
 40
1
 40
1
 40
1
 40
1
 10
52.373805
 20
163.025920
 30
0.0
 10
53.217487
 20
164.487220
 30
0.0
 10
55.079155
 20
164.986050
 30
0.0
 10
56.540462
 20
164.142360
 30
0.0
  0
LINE
  5
182
100
AcDbEntity
  8
Ebene_1
 62
7
100
AcDbLine
 10
56.540462
 20
164.142360
 30
0.0
 11
56.540462
 21
164.142360
 31
0.0
  0
SPLINE
  5
183
100
AcDbEntity
  8
Ebene_1
 62
7
100
AcDbSpline
 70
8
 71
3
 72
8
 73
4
 74
0
 40
0
 40
0
 40
0
 40
0
 40
1
 40
1
 40
1
 40
1
 10
121.658370
 20
145.318100
 30
0.0
 10
121.513902
 20
145.317916
 30
0.0
 10
121.396834
 20
145.200848
 30
0.0
 10
121.396650
 20
145.056380
 30
0.0
  0
LINE
  5
184
100
AcDbEntity
  8
Ebene_1
 62
7
100
AcDbLine
 10
121.396650
 20
145.056380
 30
0.0
 11
121.396650
 21
133.765370
 31
0.0
  0
SPLINE
  5
185
100
AcDbEntity
  8
Ebene_1
 62
7
100
AcDbSpline
 70
8
 71
3
 72
8
 73
4
 74
0
 40
0
 40
0
 40
0
 40
0
 40
1
 40
1
 40
1
 40
1
 10
121.396650
 20
133.765370
 30
0.0
 10
121.396834
 20
133.620902
 30
0.0
 10
121.513902
 20
133.503834
 30
0.0
 10
121.658370
 20
133.503650
 30
0.0
  0
SPLINE
  5
186
100
AcDbEntity
  8
Ebene_1
 62
7
100
AcDbSpline
 70
8
 71
3
 72
8
 73
4
 74
0
 40
0
 40
0
 40
0
 40
0
 40
1
 40
1
 40
1
 40
1
 10
121.658370
 20
133.503650
 30
0.0
 10
121.802838
 20
133.503834
 30
0.0
 10
121.919906
 20
133.620902
 30
0.0
 10
121.920090
 20
133.765370
 30
0.0
  0
LINE
  5
187
100
AcDbEntity
  8
Ebene_1
 62
7
100
AcDbLine
 10
121.920090
 20
133.765370
 30
0.0
 11
121.920090
 21
145.056380
 31
0.0
  0
SPLINE
  5
188
100
AcDbEntity
  8
Ebene_1
 62
7
100
AcDbSpline
 70
8
 71
3
 72
8
 73
4
 74
0
 40
0
 40
0
 40
0
 40
0
 40
1
 40
1
 40
1
 40
1
 10
121.920090
 20
145.056380
 30
0.0
 10
121.919906
 20
145.200848
 30
0.0
 10
121.802838
 20
145.317916
 30
0.0
 10
121.658370
 20
145.318100
 30
0.0
  0
LINE
  5
189
100
AcDbEntity
  8
Ebene_1
 62
7
100
AcDbLine
 10
121.658370
 20
145.318100
 30
0.0
 11
121.658370
 21
145.318100
 31
0.0
  0
SPLINE
  5
18a
100
AcDbEntity
  8
Ebene_1
 62
7
100
AcDbSpline
 70
8
 71
3
 72
8
 73
4
 74
0
 40
0
 40
0
 40
0
 40
0
 40
1
 40
1
 40
1
 40
1
 10
154.986490
 20
145.318100
 30
0.0
 10
154.842022
 20
145.317916
 30
0.0
 10
154.724954
 20
145.200848
 30
0.0
 10
154.724770
 20
145.056380
 30
0.0
  0
LINE
  5
18b
100
AcDbEntity
  8
Ebene_1
 62
7
100
AcDbLine
 10
154.724770
 20
145.056380
 30
0.0
 11
154.724770
 21
133.765370
 31
0.0
  0
SPLINE
  5
18c
100
AcDbEntity
  8
Ebene_1
 62
7
100
AcDbSpline
 70
8
 71
3
 72
8
 73
4
 74
0
 40
0
 40
0
 40
0
 40
0
 40
1
 40
1
 40
1
 40
1
 10
154.724770
 20
133.765370
 30
0.0
 10
154.724954
 20
133.620902
 30
0.0
 10
154.842022
 20
133.503834
 30
0.0
 10
154.986490
 20
133.503650
 30
0.0
  0
SPLINE
  5
18d
100
AcDbEntity
  8
Ebene_1
 62
7
100
AcDbSpline
 70
8
 71
3
 72
8
 73
4
 74
0
 40
0
 40
0
 40
0
 40
0
 40
1
 40
1
 40
1
 40
1
 10
154.986490
 20
133.503650
 30
0.0
 10
155.130958
 20
133.503834
 30
0.0
 10
155.248026
 20
133.620902
 30
0.0
 10
155.248210
 20
133.765370
 30
0.0
  0
LINE
  5
18e
100
AcDbEntity
  8
Ebene_1
 62
7
100
AcDbLine
 10
155.248210
 20
133.765370
 30
0.0
 11
155.248210
 21
145.056380
 31
0.0
  0
SPLINE
  5
18f
100
AcDbEntity
  8
Ebene_1
 62
7
100
AcDbSpline
 70
8
 71
3
 72
8
 73
4
 74
0
 40
0
 40
0
 40
0
 40
0
 40
1
 40
1
 40
1
 40
1
 10
155.248210
 20
145.056380
 30
0.0
 10
155.248026
 20
145.200848
 30
0.0
 10
155.130958
 20
145.317916
 30
0.0
 10
154.986490
 20
145.318100
 30
0.0
  0
LINE
  5
190
100
AcDbEntity
  8
Ebene_1
 62
7
100
AcDbLine
 10
154.986490
 20
145.318100
 30
0.0
 11
154.986490
 21
145.318100
 31
0.0
  0
SPLINE
  5
191
100
AcDbEntity
  8
Ebene_1
 62
7
100
AcDbSpline
 70
8
 71
3
 72
8
 73
4
 74
0
 40
0
 40
0
 40
0
 40
0
 40
1
 40
1
 40
1
 40
1
 10
88.330243
 20
145.318100
 30
0.0
 10
88.185776
 20
145.317915
 30
0.0
 10
88.068709
 20
145.200847
 30
0.0
 10
88.068525
 20
145.056380
 30
0.0
  0
LINE
  5
192
100
AcDbEntity
  8
Ebene_1
 62
7
100
AcDbLine
 10
88.068525
 20
145.056380
 30
0.0
 11
88.068525
 21
133.765370
 31
0.0
  0
SPLINE
  5
193
100
AcDbEntity
  8
Ebene_1
 62
7
100
AcDbSpline
 70
8
 71
3
 72
8
 73
4
 74
0
 40
0
 40
0
 40
0
 40
0
 40
1
 40
1
 40
1
 40
1
 10
88.068525
 20
133.765370
 30
0.0
 10
88.068709
 20
133.620903
 30
0.0
 10
88.185776
 20
133.503835
 30
0.0
 10
88.330243
 20
133.503650
 30
0.0
  0
SPLINE
  5
194
100
AcDbEntity
  8
Ebene_1
 62
7
100
AcDbSpline
 70
8
 71
3
 72
8
 73
4
 74
0
 40
0
 40
0
 40
0
 40
0
 40
1
 40
1
 40
1
 40
1
 10
88.330243
 20
133.503650
 30
0.0
 10
88.474710
 20
133.503835
 30
0.0
 10
88.591777
 20
133.620903
 30
0.0
 10
88.591961
 20
133.765370
 30
0.0
  0
LINE
  5
195
100
AcDbEntity
  8
Ebene_1
 62
7
100
AcDbLine
 10
88.591961
 20
133.765370
 30
0.0
 11
88.591961
 21
145.056380
 31
0.0
  0
SPLINE
  5
196
100
AcDbEntity
  8
Ebene_1
 62
7
100
AcDbSpline
 70
8
 71
3
 72
8
 73
4
 74
0
 40
0
 40
0
 40
0
 40
0
 40
1
 40
1
 40
1
 40
1
 10
88.591961
 20
145.056380
 30
0.0
 10
88.591777
 20
145.200847
 30
0.0
 10
88.474710
 20
145.317915
 30
0.0
 10
88.330243
 20
145.318100
 30
0.0
  0
LINE
  5
197
100
AcDbEntity
  8
Ebene_1
 62
7
100
AcDbLine
 10
88.330243
 20
145.318100
 30
0.0
 11
88.330243
 21
145.318100
 31
0.0
  0
SPLINE
  5
198
100
AcDbEntity
  8
Ebene_1
 62
7
100
AcDbSpline
 70
8
 71
3
 72
8
 73
4
 74
0
 40
0
 40
0
 40
0
 40
0
 40
1
 40
1
 40
1
 40
1
 10
90.146951
 20
167.967710
 30
0.0
 10
90.140741
 20
167.967608
 30
0.0
 10
90.134536
 20
167.967274
 30
0.0
 10
90.128351
 20
167.966710
 30
0.0
  0
SPLINE
  5
199
100
AcDbEntity
  8
Ebene_1
 62
7
100
AcDbSpline
 70
8
 71
3
 72
8
 73
4
 74
0
 40
0
 40
0
 40
0
 40
0
 40
1
 40
1
 40
1
 40
1
 10
90.128351
 20
167.966710
 30
0.0
 10
90.103292
 20
167.964378
 30
0.0
 10
90.078728
 20
167.958276
 30
0.0
 10
90.055491
 20
167.948610
 30
0.0
  0
SPLINE
  5
19a
100
AcDbEntity
  8
Ebene_1
 62
7
100
AcDbSpline
 70
8
 71
3
 72
8
 73
4
 74
0
 40
0
 40
0
 40
0
 40
0
 40
1
 40
1
 40
1
 40
1
 10
90.055491
 20
167.948610
 30
0.0
 10
90.038150
 20
167.941351
 30
0.0
 10
90.021682
 20
167.932160
 30
0.0
 10
90.006401
 20
167.921210
 30
0.0
  0
SPLINE
  5
19b
100
AcDbEntity
  8
Ebene_1
 62
7
100
AcDbSpline
 70
8
 71
3
 72
8
 73
4
 74
0
 40
0
 40
0
 40
0
 40
0
 40
1
 40
1
 40
1
 40
1
 10
90.006401
 20
167.921210
 30
0.0
 10
90.001439
 20
167.917589
 30
0.0
 10
89.996613
 20
167.913786
 30
0.0
 10
89.991931
 20
167.909810
 30
0.0
  0
SPLINE
  5
19c
100
AcDbEntity
  8
Ebene_1
 62
7
100
AcDbSpline
 70
8
 71
3
 72
8
 73
4
 74
0
 40
0
 40
0
 40
0
 40
0
 40
1
 40
1
 40
1
 40
1
 10
89.991931
 20
167.909810
 30
0.0
 10
89.982162
 20
167.901878
 30
0.0
 10
89.973006
 20
167.893220
 30
0.0
 10
89.964541
 20
167.883910
 30
0.0
  0
SPLINE
  5
19d
100
AcDbEntity
  8
Ebene_1
 62
7
100
AcDbSpline
 70
8
 71
3
 72
8
 73
4
 74
0
 40
0
 40
0
 40
0
 40
0
 40
1
 40
1
 40
1
 40
1
 10
89.964541
 20
167.883910
 30
0.0
 10
89.960571
 20
167.879218
 30
0.0
 10
89.956775
 20
167.874382
 30
0.0
 10
89.953161
 20
167.869410
 30
0.0
  0
SPLINE
  5
19e
100
AcDbEntity
  8
Ebene_1
 62
7
100
AcDbSpline
 70
8
 71
3
 72
8
 73
4
 74
0
 40
0
 40
0
 40
0
 40
0
 40
1
 40
1
 40
1
 40
1
 10
89.953161
 20
167.869410
 30
0.0
 10
89.949350
 20
167.864382
 30
0.0
 10
89.945731
 20
167.859212
 30
0.0
 10
89.942311
 20
167.853910
 30
0.0
  0
SPLINE
  5
19f
100
AcDbEntity
  8
Ebene_1
 62
7
100
AcDbSpline
 70
8
 71
3
 72
8
 73
4
 74
0
 40
0
 40
0
 40
0
 40
0
 40
1
 40
1
 40
1
 40
1
 10
89.942311
 20
167.853910
 30
0.0
 10
89.938845
 20
167.848701
 30
0.0
 10
89.935576
 20
167.843364
 30
0.0
 10
89.932511
 20
167.837910
 30
0.0
  0
SPLINE
  5
1a0
100
AcDbEntity
  8
Ebene_1
 62
7
100
AcDbSpline
 70
8
 71
3
 72
8
 73
4
 74
0
 40
0
 40
0
 40
0
 40
0
 40
1
 40
1
 40
1
 40
1
 10
89.932511
 20
167.837910
 30
0.0
 10
89.929359
 20
167.832325
 30
0.0
 10
89.926424
 20
167.826621
 30
0.0
 10
89.923711
 20
167.820810
 30
0.0
  0
SPLINE
  5
1a1
100
AcDbEntity
  8
Ebene_1
 62
7
100
AcDbSpline
 70
8
 71
3
 72
8
 73
4
 74
0
 40
0
 40
0
 40
0
 40
0
 40
1
 40
1
 40
1
 40
1
 10
89.923711
 20
167.820810
 30
0.0
 10
89.921257
 20
167.815030
 30
0.0
 10
89.919023
 20
167.809159
 30
0.0
 10
89.917011
 20
167.803210
 30
0.0
  0
SPLINE
  5
1a2
100
AcDbEntity
  8
Ebene_1
 62
7
100
AcDbSpline
 70
8
 71
3
 72
8
 73
4
 74
0
 40
0
 40
0
 40
0
 40
0
 40
1
 40
1
 40
1
 40
1
 10
89.917011
 20
167.803210
 30
0.0
 10
89.912680
 20
167.791583
 30
0.0
 10
89.909220
 20
167.779650
 30
0.0
 10
89.906661
 20
167.767510
 30
0.0
  0
SPLINE
  5
1a3
100
AcDbEntity
  8
Ebene_1
 62
7
100
AcDbSpline
 70
8
 71
3
 72
8
 73
4
 74
0
 40
0
 40
0
 40
0
 40
0
 40
1
 40
1
 40
1
 40
1
 10
89.906661
 20
167.767510
 30
0.0
 10
89.905394
 20
167.761351
 30
0.0
 10
89.904360
 20
167.755147
 30
0.0
 10
89.903561
 20
167.748910
 30
0.0
  0
SPLINE
  5
1a4
100
AcDbEntity
  8
Ebene_1
 62
7
100
AcDbSpline
 70
8
 71
3
 72
8
 73
4
 74
0
 40
0
 40
0
 40
0
 40
0
 40
1
 40
1
 40
1
 40
1
 10
89.903561
 20
167.748910
 30
0.0
 10
89.902796
 20
167.742732
 30
0.0
 10
89.902263
 20
167.736528
 30
0.0
 10
89.901961
 20
167.730310
 30
0.0
  0
SPLINE
  5
1a5
100
AcDbEntity
  8
Ebene_1
 62
7
100
AcDbSpline
 70
8
 71
3
 72
8
 73
4
 74
0
 40
0
 40
0
 40
0
 40
0
 40
1
 40
1
 40
1
 40
1
 10
89.901961
 20
167.730310
 30
0.0
 10
89.901731
 20
167.727313
 30
0.0
 10
89.901554
 20
167.724313
 30
0.0
 10
89.901432
 20
167.721310
 30
0.0
  0
LINE
  5
1a6
100
AcDbEntity
  8
Ebene_1
 62
7
100
AcDbLine
 10
89.901432
 20
167.721310
 30
0.0
 11
89.901432
 21
165.644950
 31
0.0
  0
SPLINE
  5
1a7
100
AcDbEntity
  8
Ebene_1
 62
7
100
AcDbSpline
 70
8
 71
3
 72
8
 73
4
 74
0
 40
0
 40
0
 40
0
 40
0
 40
1
 40
1
 40
1
 40
1
 10
89.901432
 20
165.644950
 30
0.0
 10
89.901567
 20
165.638738
 30
0.0
 10
89.901934
 20
165.632534
 30
0.0
 10
89.902532
 20
165.626350
 30
0.0
  0
SPLINE
  5
1a8
100
AcDbEntity
  8
Ebene_1
 62
7
100
AcDbSpline
 70
8
 71
3
 72
8
 73
4
 74
0
 40
0
 40
0
 40
0
 40
0
 40
1
 40
1
 40
1
 40
1
 10
89.902532
 20
165.626350
 30
0.0
 10
89.904225
 20
165.607546
 30
0.0
 10
89.908043
 20
165.588995
 30
0.0
 10
89.913912
 20
165.571050
 30
0.0
  0
SPLINE
  5
1a9
100
AcDbEntity
  8
Ebene_1
 62
7
100
AcDbSpline
 70
8
 71
3
 72
8
 73
4
 74
0
 40
0
 40
0
 40
0
 40
0
 40
1
 40
1
 40
1
 40
1
 10
89.913912
 20
165.571050
 30
0.0
 10
89.919715
 20
165.553163
 30
0.0
 10
89.927518
 20
165.535988
 30
0.0
 10
89.937172
 20
165.519850
 30
0.0
  0
SPLINE
  5
1aa
100
AcDbEntity
  8
Ebene_1
 62
7
100
AcDbSpline
 70
8
 71
3
 72
8
 73
4
 74
0
 40
0
 40
0
 40
0
 40
0
 40
1
 40
1
 40
1
 40
1
 10
89.937172
 20
165.519850
 30
0.0
 10
89.943633
 20
165.509155
 30
0.0
 10
89.950887
 20
165.498960
 30
0.0
 10
89.958872
 20
165.489350
 30
0.0
  0
SPLINE
  5
1ab
100
AcDbEntity
  8
Ebene_1
 62
7
100
AcDbSpline
 70
8
 71
3
 72
8
 73
4
 74
0
 40
0
 40
0
 40
0
 40
0
 40
1
 40
1
 40
1
 40
1
 10
89.958872
 20
165.489350
 30
0.0
 10
89.974695
 20
165.469978
 30
0.0
 10
89.993336
 20
165.453090
 30
0.0
 10
90.014172
 20
165.439250
 30
0.0
  0
SPLINE
  5
1ac
100
AcDbEntity
  8
Ebene_1
 62
7
100
AcDbSpline
 70
8
 71
3
 72
8
 73
4
 74
0
 40
0
 40
0
 40
0
 40
0
 40
1
 40
1
 40
1
 40
1
 10
90.014172
 20
165.439250
 30
0.0
 10
90.035192
 20
165.425374
 30
0.0
 10
90.058188
 20
165.414754
 30
0.0
 10
90.082382
 20
165.407750
 30
0.0
  0
SPLINE
  5
1ad
100
AcDbEntity
  8
Ebene_1
 62
7
100
AcDbSpline
 70
8
 71
3
 72
8
 73
4
 74
0
 40
0
 40
0
 40
0
 40
0
 40
1
 40
1
 40
1
 40
1
 10
90.082382
 20
165.407750
 30
0.0
 10
90.088364
 20
165.406193
 30
0.0
 10
90.094401
 20
165.404859
 30
0.0
 10
90.100482
 20
165.403750
 30
0.0
  0
SPLINE
  5
1ae
100
AcDbEntity
  8
Ebene_1
 62
7
100
AcDbSpline
 70
8
 71
3
 72
8
 73
4
 74
0
 40
0
 40
0
 40
0
 40
0
 40
1
 40
1
 40
1
 40
1
 10
90.100482
 20
165.403750
 30
0.0
 10
90.118839
 20
165.399997
 30
0.0
 10
90.137560
 20
165.398320
 30
0.0
 10
90.156292
 20
165.398750
 30
0.0
  0
SPLINE
  5
1af
100
AcDbEntity
  8
Ebene_1
 62
7
100
AcDbSpline
 70
8
 71
3
 72
8
 73
4
 74
0
 40
0
 40
0
 40
0
 40
0
 40
1
 40
1
 40
1
 40
1
 10
90.156292
 20
165.398750
 30
0.0
 10
90.162502
 20
165.398852
 30
0.0
 10
90.168707
 20
165.399186
 30
0.0
 10
90.174892
 20
165.399750
 30
0.0
  0
SPLINE
  5
1b0
100
AcDbEntity
  8
Ebene_1
 62
7
100
AcDbSpline
 70
8
 71
3
 72
8
 73
4
 74
0
 40
0
 40
0
 40
0
 40
0
 40
1
 40
1
 40
1
 40
1
 10
90.174892
 20
165.399750
 30
0.0
 10
90.199951
 20
165.402082
 30
0.0
 10
90.224515
 20
165.408184
 30
0.0
 10
90.247752
 20
165.417850
 30
0.0
  0
SPLINE
  5
1b1
100
AcDbEntity
  8
Ebene_1
 62
7
100
AcDbSpline
 70
8
 71
3
 72
8
 73
4
 74
0
 40
0
 40
0
 40
0
 40
0
 40
1
 40
1
 40
1
 40
1
 10
90.247752
 20
165.417850
 30
0.0
 10
90.276560
 20
165.429925
 30
0.0
 10
90.302850
 20
165.447291
 30
0.0
 10
90.325262
 20
165.469050
 30
0.0
  0
SPLINE
  5
1b2
100
AcDbEntity
  8
Ebene_1
 62
7
100
AcDbSpline
 70
8
 71
3
 72
8
 73
4
 74
0
 40
0
 40
0
 40
0
 40
0
 40
1
 40
1
 40
1
 40
1
 10
90.325262
 20
165.469050
 30
0.0
 10
90.338712
 20
165.481975
 30
0.0
 10
90.350673
 20
165.496365
 30
0.0
 10
90.360922
 20
165.511950
 30
0.0
  0
SPLINE
  5
1b3
100
AcDbEntity
  8
Ebene_1
 62
7
100
AcDbSpline
 70
8
 71
3
 72
8
 73
4
 74
0
 40
0
 40
0
 40
0
 40
0
 40
1
 40
1
 40
1
 40
1
 10
90.360922
 20
165.511950
 30
0.0
 10
90.367952
 20
165.522496
 30
0.0
 10
90.374170
 20
165.533561
 30
0.0
 10
90.379522
 20
165.545050
 30
0.0
  0
SPLINE
  5
1b4
100
AcDbEntity
  8
Ebene_1
 62
7
100
AcDbSpline
 70
8
 71
3
 72
8
 73
4
 74
0
 40
0
 40
0
 40
0
 40
0
 40
1
 40
1
 40
1
 40
1
 10
90.379522
 20
165.545050
 30
0.0
 10
90.381976
 20
165.550830
 30
0.0
 10
90.384210
 20
165.556701
 30
0.0
 10
90.386222
 20
165.562650
 30
0.0
  0
SPLINE
  5
1b5
100
AcDbEntity
  8
Ebene_1
 62
7
100
AcDbSpline
 70
8
 71
3
 72
8
 73
4
 74
0
 40
0
 40
0
 40
0
 40
0
 40
1
 40
1
 40
1
 40
1
 10
90.386222
 20
165.562650
 30
0.0
 10
90.388350
 20
165.568609
 30
0.0
 10
90.390252
 20
165.574647
 30
0.0
 10
90.391922
 20
165.580750
 30
0.0
  0
SPLINE
  5
1b6
100
AcDbEntity
  8
Ebene_1
 62
7
100
AcDbSpline
 70
8
 71
3
 72
8
 73
4
 74
0
 40
0
 40
0
 40
0
 40
0
 40
1
 40
1
 40
1
 40
1
 10
90.391922
 20
165.580750
 30
0.0
 10
90.393702
 20
165.586558
 30
0.0
 10
90.395270
 20
165.592428
 30
0.0
 10
90.396622
 20
165.598350
 30
0.0
  0
SPLINE
  5
1b7
100
AcDbEntity
  8
Ebene_1
 62
7
100
AcDbSpline
 70
8
 71
3
 72
8
 73
4
 74
0
 40
0
 40
0
 40
0
 40
0
 40
1
 40
1
 40
1
 40
1
 10
90.396622
 20
165.598350
 30
0.0
 10
90.399143
 20
165.610779
 30
0.0
 10
90.400714
 20
165.623382
 30
0.0
 10
90.401322
 20
165.636050
 30
0.0
  0
SPLINE
  5
1b8
100
AcDbEntity
  8
Ebene_1
 62
7
100
AcDbSpline
 70
8
 71
3
 72
8
 73
4
 74
0
 40
0
 40
0
 40
0
 40
0
 40
1
 40
1
 40
1
 40
1
 10
90.401322
 20
165.636050
 30
0.0
 10
90.401552
 20
165.639047
 30
0.0
 10
90.401729
 20
165.642047
 30
0.0
 10
90.401851
 20
165.645050
 30
0.0
  0
LINE
  5
1b9
100
AcDbEntity
  8
Ebene_1
 62
7
100
AcDbLine
 10
90.401851
 20
165.645050
 30
0.0
 11
90.401851
 21
167.721410
 31
0.0
  0
SPLINE
  5
1ba
100
AcDbEntity
  8
Ebene_1
 62
7
100
AcDbSpline
 70
8
 71
3
 72
8
 73
4
 74
0
 40
0
 40
0
 40
0
 40
0
 40
1
 40
1
 40
1
 40
1
 10
90.401851
 20
167.721410
 30
0.0
 10
90.401716
 20
167.727622
 30
0.0
 10
90.401349
 20
167.733826
 30
0.0
 10
90.400751
 20
167.740010
 30
0.0
  0
SPLINE
  5
1bb
100
AcDbEntity
  8
Ebene_1
 62
7
100
AcDbSpline
 70
8
 71
3
 72
8
 73
4
 74
0
 40
0
 40
0
 40
0
 40
0
 40
1
 40
1
 40
1
 40
1
 10
90.400751
 20
167.740010
 30
0.0
 10
90.399058
 20
167.758814
 30
0.0
 10
90.395240
 20
167.777365
 30
0.0
 10
90.389371
 20
167.795310
 30
0.0
  0
SPLINE
  5
1bc
100
AcDbEntity
  8
Ebene_1
 62
7
100
AcDbSpline
 70
8
 71
3
 72
8
 73
4
 74
0
 40
0
 40
0
 40
0
 40
0
 40
1
 40
1
 40
1
 40
1
 10
90.389371
 20
167.795310
 30
0.0
 10
90.383568
 20
167.813197
 30
0.0
 10
90.375765
 20
167.830372
 30
0.0
 10
90.366111
 20
167.846510
 30
0.0
  0
SPLINE
  5
1bd
100
AcDbEntity
  8
Ebene_1
 62
7
100
AcDbSpline
 70
8
 71
3
 72
8
 73
4
 74
0
 40
0
 40
0
 40
0
 40
0
 40
1
 40
1
 40
1
 40
1
 10
90.366111
 20
167.846510
 30
0.0
 10
90.356439
 20
167.862540
 30
0.0
 10
90.344997
 20
167.877434
 30
0.0
 10
90.332001
 20
167.890910
 30
0.0
  0
SPLINE
  5
1be
100
AcDbEntity
  8
Ebene_1
 62
7
100
AcDbSpline
 70
8
 71
3
 72
8
 73
4
 74
0
 40
0
 40
0
 40
0
 40
0
 40
1
 40
1
 40
1
 40
1
 10
90.332001
 20
167.890910
 30
0.0
 10
90.319081
 20
167.904373
 30
0.0
 10
90.304695
 20
167.916348
 30
0.0
 10
90.289111
 20
167.926610
 30
0.0
  0
SPLINE
  5
1bf
100
AcDbEntity
  8
Ebene_1
 62
7
100
AcDbSpline
 70
8
 71
3
 72
8
 73
4
 74
0
 40
0
 40
0
 40
0
 40
0
 40
1
 40
1
 40
1
 40
1
 10
90.289111
 20
167.926610
 30
0.0
 10
90.283902
 20
167.930144
 30
0.0
 10
90.278562
 20
167.933479
 30
0.0
 10
90.273101
 20
167.936610
 30
0.0
  0
SPLINE
  5
1c0
100
AcDbEntity
  8
Ebene_1
 62
7
100
AcDbSpline
 70
8
 71
3
 72
8
 73
4
 74
0
 40
0
 40
0
 40
0
 40
0
 40
1
 40
1
 40
1
 40
1
 10
90.273101
 20
167.936610
 30
0.0
 10
90.261985
 20
167.942817
 30
0.0
 10
90.250412
 20
167.948166
 30
0.0
 10
90.238481
 20
167.952610
 30
0.0
  0
SPLINE
  5
1c1
100
AcDbEntity
  8
Ebene_1
 62
7
100
AcDbSpline
 70
8
 71
3
 72
8
 73
4
 74
0
 40
0
 40
0
 40
0
 40
0
 40
1
 40
1
 40
1
 40
1
 10
90.238481
 20
167.952610
 30
0.0
 10
90.232701
 20
167.954827
 30
0.0
 10
90.226840
 20
167.956828
 30
0.0
 10
90.220911
 20
167.958610
 30
0.0
  0
SPLINE
  5
1c2
100
AcDbEntity
  8
Ebene_1
 62
7
100
AcDbSpline
 70
8
 71
3
 72
8
 73
4
 74
0
 40
0
 40
0
 40
0
 40
0
 40
1
 40
1
 40
1
 40
1
 10
90.220911
 20
167.958610
 30
0.0
 10
90.214929
 20
167.960167
 30
0.0
 10
90.208892
 20
167.961501
 30
0.0
 10
90.202811
 20
167.962610
 30
0.0
  0
SPLINE
  5
1c3
100
AcDbEntity
  8
Ebene_1
 62
7
100
AcDbSpline
 70
8
 71
3
 72
8
 73
4
 74
0
 40
0
 40
0
 40
0
 40
0
 40
1
 40
1
 40
1
 40
1
 10
90.202811
 20
167.962610
 30
0.0
 10
90.196664
 20
167.964179
 30
0.0
 10
90.190460
 20
167.965513
 30
0.0
 10
90.184211
 20
167.966610
 30
0.0
  0
SPLINE
  5
1c4
100
AcDbEntity
  8
Ebene_1
 62
7
100
AcDbSpline
 70
8
 71
3
 72
8
 73
4
 74
0
 40
0
 40
0
 40
0
 40
0
 40
1
 40
1
 40
1
 40
1
 10
90.184211
 20
167.966610
 30
0.0
 10
90.178038
 20
167.967508
 30
0.0
 10
90.171834
 20
167.968176
 30
0.0
 10
90.165611
 20
167.968610
 30
0.0
  0
SPLINE
  5
1c5
100
AcDbEntity
  8
Ebene_1
 62
7
100
AcDbSpline
 70
8
 71
3
 72
8
 73
4
 74
0
 40
0
 40
0
 40
0
 40
0
 40
1
 40
1
 40
1
 40
1
 10
90.165611
 20
167.968610
 30
0.0
 10
90.159420
 20
167.969017
 30
0.0
 10
90.153215
 20
167.969194
 30
0.0
 10
90.147011
 20
167.969140
 30
0.0
  0
LINE
  5
1c6
100
AcDbEntity
  8
Ebene_1
 62
7
100
AcDbLine
 10
90.147011
 20
167.969140
 30
0.0
 11
90.146951
 21
167.967710
 31
0.0
  0
SPLINE
  5
1c7
100
AcDbEntity
  8
Ebene_1
 62
7
100
AcDbSpline
 70
8
 71
3
 72
8
 73
4
 74
0
 40
0
 40
0
 40
0
 40
0
 40
1
 40
1
 40
1
 40
1
 10
93.193795
 20
167.151220
 30
0.0
 10
93.181334
 20
167.151149
 30
0.0
 10
93.168896
 20
167.150146
 30
0.0
 10
93.156585
 20
167.148220
 30
0.0
  0
SPLINE
  5
1c8
100
AcDbEntity
  8
Ebene_1
 62
7
100
AcDbSpline
 70
8
 71
3
 72
8
 73
4
 74
0
 40
0
 40
0
 40
0
 40
0
 40
1
 40
1
 40
1
 40
1
 10
93.156585
 20
167.148220
 30
0.0
 10
93.150504
 20
167.147111
 30
0.0
 10
93.144467
 20
167.145777
 30
0.0
 10
93.138485
 20
167.144220
 30
0.0
  0
SPLINE
  5
1c9
100
AcDbEntity
  8
Ebene_1
 62
7
100
AcDbSpline
 70
8
 71
3
 72
8
 73
4
 74
0
 40
0
 40
0
 40
0
 40
0
 40
1
 40
1
 40
1
 40
1
 10
93.138485
 20
167.144220
 30
0.0
 10
93.132391
 20
167.142781
 30
0.0
 10
93.126354
 20
167.141113
 30
0.0
 10
93.120385
 20
167.139220
 30
0.0
  0
SPLINE
  5
1ca
100
AcDbEntity
  8
Ebene_1
 62
7
100
AcDbSpline
 70
8
 71
3
 72
8
 73
4
 74
0
 40
0
 40
0
 40
0
 40
0
 40
1
 40
1
 40
1
 40
1
 10
93.120385
 20
167.139220
 30
0.0
 10
93.114442
 20
167.137109
 30
0.0
 10
93.108581
 20
167.134774
 30
0.0
 10
93.102815
 20
167.132220
 30
0.0
  0
SPLINE
  5
1cb
100
AcDbEntity
  8
Ebene_1
 62
7
100
AcDbSpline
 70
8
 71
3
 72
8
 73
4
 74
0
 40
0
 40
0
 40
0
 40
0
 40
1
 40
1
 40
1
 40
1
 10
93.102815
 20
167.132220
 30
0.0
 10
93.097026
 20
167.129769
 30
0.0
 10
93.091332
 20
167.127100
 30
0.0
 10
93.085745
 20
167.124220
 30
0.0
  0
SPLINE
  5
1cc
100
AcDbEntity
  8
Ebene_1
 62
7
100
AcDbSpline
 70
8
 71
3
 72
8
 73
4
 74
0
 40
0
 40
0
 40
0
 40
0
 40
1
 40
1
 40
1
 40
1
 10
93.085745
 20
167.124220
 30
0.0
 10
93.057811
 20
167.110235
 30
0.0
 10
93.032745
 20
167.091139
 30
0.0
 10
93.011845
 20
167.067920
 30
0.0
  0
SPLINE
  5
1cd
100
AcDbEntity
  8
Ebene_1
 62
7
100
AcDbSpline
 70
8
 71
3
 72
8
 73
4
 74
0
 40
0
 40
0
 40
0
 40
0
 40
1
 40
1
 40
1
 40
1
 10
93.011845
 20
167.067920
 30
0.0
 10
93.007695
 20
167.063073
 30
0.0
 10
93.003732
 20
167.058070
 30
0.0
 10
92.999965
 20
167.052920
 30
0.0
  0
SPLINE
  5
1ce
100
AcDbEntity
  8
Ebene_1
 62
7
100
AcDbSpline
 70
8
 71
3
 72
8
 73
4
 74
0
 40
0
 40
0
 40
0
 40
0
 40
1
 40
1
 40
1
 40
1
 10
92.999965
 20
167.052920
 30
0.0
 10
92.994386
 20
167.045643
 30
0.0
 10
92.989212
 20
167.038065
 30
0.0
 10
92.984465
 20
167.030220
 30
0.0
  0
LINE
  5
1cf
100
AcDbEntity
  8
Ebene_1
 62
7
100
AcDbLine
 10
92.984465
 20
167.030220
 30
0.0
 11
91.945769
 21
165.231880
 31
0.0
  0
SPLINE
  5
1d0
100
AcDbEntity
  8
Ebene_1
 62
7
100
AcDbSpline
 70
8
 71
3
 72
8
 73
4
 74
0
 40
0
 40
0
 40
0
 40
0
 40
1
 40
1
 40
1
 40
1
 10
91.945769
 20
165.231880
 30
0.0
 10
91.942789
 20
165.226320
 30
0.0
 10
91.940020
 20
165.220649
 30
0.0
 10
91.937469
 20
165.214880
 30
0.0
  0
SPLINE
  5
1d1
100
AcDbEntity
  8
Ebene_1
 62
7
100
AcDbSpline
 70
8
 71
3
 72
8
 73
4
 74
0
 40
0
 40
0
 40
0
 40
0
 40
1
 40
1
 40
1
 40
1
 10
91.937469
 20
165.214880
 30
0.0
 10
91.934861
 20
165.209304
 30
0.0
 10
91.932459
 20
165.203633
 30
0.0
 10
91.930269
 20
165.197880
 30
0.0
  0
SPLINE
  5
1d2
100
AcDbEntity
  8
Ebene_1
 62
7
100
AcDbSpline
 70
8
 71
3
 72
8
 73
4
 74
0
 40
0
 40
0
 40
0
 40
0
 40
1
 40
1
 40
1
 40
1
 10
91.930269
 20
165.197880
 30
0.0
 10
91.927972
 20
165.191928
 30
0.0
 10
91.925904
 20
165.185890
 30
0.0
 10
91.924069
 20
165.179780
 30
0.0
  0
SPLINE
  5
1d3
100
AcDbEntity
  8
Ebene_1
 62
7
100
AcDbSpline
 70
8
 71
3
 72
8
 73
4
 74
0
 40
0
 40
0
 40
0
 40
0
 40
1
 40
1
 40
1
 40
1
 10
91.924069
 20
165.179780
 30
0.0
 10
91.922277
 20
165.173807
 30
0.0
 10
91.920709
 20
165.167770
 30
0.0
 10
91.919369
 20
165.161680
 30
0.0
  0
SPLINE
  5
1d4
100
AcDbEntity
  8
Ebene_1
 62
7
100
AcDbSpline
 70
8
 71
3
 72
8
 73
4
 74
0
 40
0
 40
0
 40
0
 40
0
 40
1
 40
1
 40
1
 40
1
 10
91.919369
 20
165.161680
 30
0.0
 10
91.915550
 20
165.143334
 30
0.0
 10
91.913806
 20
165.124616
 30
0.0
 10
91.914169
 20
165.105880
 30
0.0
  0
SPLINE
  5
1d5
100
AcDbEntity
  8
Ebene_1
 62
7
100
AcDbSpline
 70
8
 71
3
 72
8
 73
4
 74
0
 40
0
 40
0
 40
0
 40
0
 40
1
 40
1
 40
1
 40
1
 10
91.914169
 20
165.105880
 30
0.0
 10
91.914462
 20
165.087068
 30
0.0
 10
91.916877
 20
165.068350
 30
0.0
 10
91.921369
 20
165.050080
 30
0.0
  0
SPLINE
  5
1d6
100
AcDbEntity
  8
Ebene_1
 62
7
100
AcDbSpline
 70
8
 71
3
 72
8
 73
4
 74
0
 40
0
 40
0
 40
0
 40
0
 40
1
 40
1
 40
1
 40
1
 10
91.921369
 20
165.050080
 30
0.0
 10
91.924427
 20
165.037899
 30
0.0
 10
91.928398
 20
165.025965
 30
0.0
 10
91.933249
 20
165.014380
 30
0.0
  0
SPLINE
  5
1d7
100
AcDbEntity
  8
Ebene_1
 62
7
100
AcDbSpline
 70
8
 71
3
 72
8
 73
4
 74
0
 40
0
 40
0
 40
0
 40
0
 40
1
 40
1
 40
1
 40
1
 10
91.933249
 20
165.014380
 30
0.0
 10
91.935634
 20
165.008584
 30
0.0
 10
91.938236
 20
165.002880
 30
0.0
 10
91.941049
 20
164.997280
 30
0.0
  0
SPLINE
  5
1d8
100
AcDbEntity
  8
Ebene_1
 62
7
100
AcDbSpline
 70
8
 71
3
 72
8
 73
4
 74
0
 40
0
 40
0
 40
0
 40
0
 40
1
 40
1
 40
1
 40
1
 10
91.941049
 20
164.997280
 30
0.0
 10
91.949419
 20
164.980521
 30
0.0
 10
91.959647
 20
164.964755
 30
0.0
 10
91.971539
 20
164.950280
 30
0.0
  0
SPLINE
  5
1d9
100
AcDbEntity
  8
Ebene_1
 62
7
100
AcDbSpline
 70
8
 71
3
 72
8
 73
4
 74
0
 40
0
 40
0
 40
0
 40
0
 40
1
 40
1
 40
1
 40
1
 10
91.971539
 20
164.950280
 30
0.0
 10
91.975502
 20
164.945494
 30
0.0
 10
91.979641
 20
164.940858
 30
0.0
 10
91.983949
 20
164.936380
 30
0.0
  0
SPLINE
  5
1da
100
AcDbEntity
  8
Ebene_1
 62
7
100
AcDbSpline
 70
8
 71
3
 72
8
 73
4
 74
0
 40
0
 40
0
 40
0
 40
0
 40
1
 40
1
 40
1
 40
1
 10
91.983949
 20
164.936380
 30
0.0
 10
91.988431
 20
164.931905
 30
0.0
 10
91.993081
 20
164.927602
 30
0.0
 10
91.997889
 20
164.923480
 30
0.0
  0
SPLINE
  5
1db
100
AcDbEntity
  8
Ebene_1
 62
7
100
AcDbSpline
 70
8
 71
3
 72
8
 73
4
 74
0
 40
0
 40
0
 40
0
 40
0
 40
1
 40
1
 40
1
 40
1
 10
91.997889
 20
164.923480
 30
0.0
 10
92.002389
 20
164.919344
 30
0.0
 10
92.007038
 20
164.915375
 30
0.0
 10
92.011829
 20
164.911580
 30
0.0
  0
SPLINE
  5
1dc
100
AcDbEntity
  8
Ebene_1
 62
7
100
AcDbSpline
 70
8
 71
3
 72
8
 73
4
 74
0
 40
0
 40
0
 40
0
 40
0
 40
1
 40
1
 40
1
 40
1
 10
92.011829
 20
164.911580
 30
0.0
 10
92.016856
 20
164.907752
 30
0.0
 10
92.022026
 20
164.904116
 30
0.0
 10
92.027329
 20
164.900680
 30
0.0
  0
SPLINE
  5
1dd
100
AcDbEntity
  8
Ebene_1
 62
7
100
AcDbSpline
 70
8
 71
3
 72
8
 73
4
 74
0
 40
0
 40
0
 40
0
 40
0
 40
1
 40
1
 40
1
 40
1
 10
92.027329
 20
164.900680
 30
0.0
 10
92.048222
 20
164.887025
 30
0.0
 10
92.071042
 20
164.876576
 30
0.0
 10
92.095029
 20
164.869680
 30
0.0
  0
SPLINE
  5
1de
100
AcDbEntity
  8
Ebene_1
 62
7
100
AcDbSpline
 70
8
 71
3
 72
8
 73
4
 74
0
 40
0
 40
0
 40
0
 40
0
 40
1
 40
1
 40
1
 40
1
 10
92.095029
 20
164.869680
 30
0.0
 10
92.101162
 20
164.867775
 30
0.0
 10
92.107367
 20
164.866107
 30
0.0
 10
92.113629
 20
164.864680
 30
0.0
  0
SPLINE
  5
1df
100
AcDbEntity
  8
Ebene_1
 62
7
100
AcDbSpline
 70
8
 71
3
 72
8
 73
4
 74
0
 40
0
 40
0
 40
0
 40
0
 40
1
 40
1
 40
1
 40
1
 10
92.113629
 20
164.864680
 30
0.0
 10
92.119624
 20
164.863459
 30
0.0
 10
92.125661
 20
164.862458
 30
0.0
 10
92.131729
 20
164.861680
 30
0.0
  0
SPLINE
  5
1e0
100
AcDbEntity
  8
Ebene_1
 62
7
100
AcDbSpline
 70
8
 71
3
 72
8
 73
4
 74
0
 40
0
 40
0
 40
0
 40
0
 40
1
 40
1
 40
1
 40
1
 10
92.131729
 20
164.861680
 30
0.0
 10
92.137902
 20
164.860782
 30
0.0
 10
92.144106
 20
164.860114
 30
0.0
 10
92.150329
 20
164.859680
 30
0.0
  0
SPLINE
  5
1e1
100
AcDbEntity
  8
Ebene_1
 62
7
100
AcDbSpline
 70
8
 71
3
 72
8
 73
4
 74
0
 40
0
 40
0
 40
0
 40
0
 40
1
 40
1
 40
1
 40
1
 10
92.150329
 20
164.859680
 30
0.0
 10
92.169159
 20
164.858552
 30
0.0
 10
92.188056
 20
164.859558
 30
0.0
 10
92.206659
 20
164.862680
 30
0.0
  0
SPLINE
  5
1e2
100
AcDbEntity
  8
Ebene_1
 62
7
100
AcDbSpline
 70
8
 71
3
 72
8
 73
4
 74
0
 40
0
 40
0
 40
0
 40
0
 40
1
 40
1
 40
1
 40
1
 10
92.206659
 20
164.862680
 30
0.0
 10
92.218923
 20
164.864776
 30
0.0
 10
92.231013
 20
164.867784
 30
0.0
 10
92.242829
 20
164.871680
 30
0.0
  0
SPLINE
  5
1e3
100
AcDbEntity
  8
Ebene_1
 62
7
100
AcDbSpline
 70
8
 71
3
 72
8
 73
4
 74
0
 40
0
 40
0
 40
0
 40
0
 40
1
 40
1
 40
1
 40
1
 10
92.242829
 20
164.871680
 30
0.0
 10
92.254716
 20
164.875639
 30
0.0
 10
92.266289
 20
164.880486
 30
0.0
 10
92.277449
 20
164.886180
 30
0.0
  0
SPLINE
  5
1e4
100
AcDbEntity
  8
Ebene_1
 62
7
100
AcDbSpline
 70
8
 71
3
 72
8
 73
4
 74
0
 40
0
 40
0
 40
0
 40
0
 40
1
 40
1
 40
1
 40
1
 10
92.277449
 20
164.886180
 30
0.0
 10
92.283073
 20
164.888971
 30
0.0
 10
92.288591
 20
164.891973
 30
0.0
 10
92.293989
 20
164.895180
 30
0.0
  0
SPLINE
  5
1e5
100
AcDbEntity
  8
Ebene_1
 62
7
100
AcDbSpline
 70
8
 71
3
 72
8
 73
4
 74
0
 40
0
 40
0
 40
0
 40
0
 40
1
 40
1
 40
1
 40
1
 10
92.293989
 20
164.895180
 30
0.0
 10
92.310058
 20
164.905003
 30
0.0
 10
92.324966
 20
164.916610
 30
0.0
 10
92.338429
 20
164.929780
 30
0.0
  0
SPLINE
  5
1e6
100
AcDbEntity
  8
Ebene_1
 62
7
100
AcDbSpline
 70
8
 71
3
 72
8
 73
4
 74
0
 40
0
 40
0
 40
0
 40
0
 40
1
 40
1
 40
1
 40
1
 10
92.338429
 20
164.929780
 30
0.0
 10
92.347395
 20
164.938609
 30
0.0
 10
92.355682
 20
164.948103
 30
0.0
 10
92.363219
 20
164.958180
 30
0.0
  0
SPLINE
  5
1e7
100
AcDbEntity
  8
Ebene_1
 62
7
100
AcDbSpline
 70
8
 71
3
 72
8
 73
4
 74
0
 40
0
 40
0
 40
0
 40
0
 40
1
 40
1
 40
1
 40
1
 10
92.363219
 20
164.958180
 30
0.0
 10
92.368979
 20
164.965444
 30
0.0
 10
92.374331
 20
164.973022
 30
0.0
 10
92.379249
 20
164.980880
 30
0.0
  0
LINE
  5
1e8
100
AcDbEntity
  8
Ebene_1
 62
7
100
AcDbLine
 10
92.379249
 20
164.980880
 30
0.0
 11
93.417429
 21
166.779220
 31
0.0
  0
SPLINE
  5
1e9
100
AcDbEntity
  8
Ebene_1
 62
7
100
AcDbSpline
 70
8
 71
3
 72
8
 73
4
 74
0
 40
0
 40
0
 40
0
 40
0
 40
1
 40
1
 40
1
 40
1
 10
93.417429
 20
166.779220
 30
0.0
 10
93.420398
 20
166.784616
 30
0.0
 10
93.423166
 20
166.790120
 30
0.0
 10
93.425729
 20
166.795720
 30
0.0
  0
SPLINE
  5
1ea
100
AcDbEntity
  8
Ebene_1
 62
7
100
AcDbSpline
 70
8
 71
3
 72
8
 73
4
 74
0
 40
0
 40
0
 40
0
 40
0
 40
1
 40
1
 40
1
 40
1
 10
93.425729
 20
166.795720
 30
0.0
 10
93.428554
 20
166.801484
 30
0.0
 10
93.431156
 20
166.807355
 30
0.0
 10
93.433529
 20
166.813320
 30
0.0
  0
SPLINE
  5
1eb
100
AcDbEntity
  8
Ebene_1
 62
7
100
AcDbSpline
 70
8
 71
3
 72
8
 73
4
 74
0
 40
0
 40
0
 40
0
 40
0
 40
1
 40
1
 40
1
 40
1
 10
93.433529
 20
166.813320
 30
0.0
 10
93.435657
 20
166.819279
 30
0.0
 10
93.437559
 20
166.825317
 30
0.0
 10
93.439229
 20
166.831420
 30
0.0
  0
SPLINE
  5
1ec
100
AcDbEntity
  8
Ebene_1
 62
7
100
AcDbSpline
 70
8
 71
3
 72
8
 73
4
 74
0
 40
0
 40
0
 40
0
 40
0
 40
1
 40
1
 40
1
 40
1
 10
93.439229
 20
166.831420
 30
0.0
 10
93.441009
 20
166.837228
 30
0.0
 10
93.442577
 20
166.843098
 30
0.0
 10
93.443929
 20
166.849020
 30
0.0
  0
SPLINE
  5
1ed
100
AcDbEntity
  8
Ebene_1
 62
7
100
AcDbSpline
 70
8
 71
3
 72
8
 73
4
 74
0
 40
0
 40
0
 40
0
 40
0
 40
1
 40
1
 40
1
 40
1
 10
93.443929
 20
166.849020
 30
0.0
 10
93.445196
 20
166.855179
 30
0.0
 10
93.446230
 20
166.861383
 30
0.0
 10
93.447029
 20
166.867620
 30
0.0
  0
SPLINE
  5
1ee
100
AcDbEntity
  8
Ebene_1
 62
7
100
AcDbSpline
 70
8
 71
3
 72
8
 73
4
 74
0
 40
0
 40
0
 40
0
 40
0
 40
1
 40
1
 40
1
 40
1
 10
93.447029
 20
166.867620
 30
0.0
 10
93.447794
 20
166.873798
 30
0.0
 10
93.448327
 20
166.880002
 30
0.0
 10
93.448629
 20
166.886220
 30
0.0
  0
SPLINE
  5
1ef
100
AcDbEntity
  8
Ebene_1
 62
7
100
AcDbSpline
 70
8
 71
3
 72
8
 73
4
 74
0
 40
0
 40
0
 40
0
 40
0
 40
1
 40
1
 40
1
 40
1
 10
93.448629
 20
166.886220
 30
0.0
 10
93.449239
 20
166.892570
 30
0.0
 10
93.449606
 20
166.898942
 30
0.0
 10
93.449729
 20
166.905320
 30
0.0
  0
SPLINE
  5
1f0
100
AcDbEntity
  8
Ebene_1
 62
7
100
AcDbSpline
 70
8
 71
3
 72
8
 73
4
 74
0
 40
0
 40
0
 40
0
 40
0
 40
1
 40
1
 40
1
 40
1
 10
93.449729
 20
166.905320
 30
0.0
 10
93.449278
 20
166.930269
 30
0.0
 10
93.445095
 20
166.955010
 30
0.0
 10
93.437319
 20
166.978720
 30
0.0
  0
SPLINE
  5
1f1
100
AcDbEntity
  8
Ebene_1
 62
7
100
AcDbSpline
 70
8
 71
3
 72
8
 73
4
 74
0
 40
0
 40
0
 40
0
 40
0
 40
1
 40
1
 40
1
 40
1
 10
93.437319
 20
166.978720
 30
0.0
 10
93.435307
 20
166.984669
 30
0.0
 10
93.433073
 20
166.990540
 30
0.0
 10
93.430619
 20
166.996320
 30
0.0
  0
SPLINE
  5
1f2
100
AcDbEntity
  8
Ebene_1
 62
7
100
AcDbSpline
 70
8
 71
3
 72
8
 73
4
 74
0
 40
0
 40
0
 40
0
 40
0
 40
1
 40
1
 40
1
 40
1
 10
93.430619
 20
166.996320
 30
0.0
 10
93.425782
 20
167.007934
 30
0.0
 10
93.420076
 20
167.019165
 30
0.0
 10
93.413549
 20
167.029920
 30
0.0
  0
SPLINE
  5
1f3
100
AcDbEntity
  8
Ebene_1
 62
7
100
AcDbSpline
 70
8
 71
3
 72
8
 73
4
 74
0
 40
0
 40
0
 40
0
 40
0
 40
1
 40
1
 40
1
 40
1
 10
93.413549
 20
167.029920
 30
0.0
 10
93.410304
 20
167.035383
 30
0.0
 10
93.406851
 20
167.040720
 30
0.0
 10
93.403199
 20
167.045920
 30
0.0
  0
SPLINE
  5
1f4
100
AcDbEntity
  8
Ebene_1
 62
7
100
AcDbSpline
 70
8
 71
3
 72
8
 73
4
 74
0
 40
0
 40
0
 40
0
 40
0
 40
1
 40
1
 40
1
 40
1
 10
93.403199
 20
167.045920
 30
0.0
 10
93.399585
 20
167.050892
 30
0.0
 10
93.395789
 20
167.055728
 30
0.0
 10
93.391819
 20
167.060420
 30
0.0
  0
SPLINE
  5
1f5
100
AcDbEntity
  8
Ebene_1
 62
7
100
AcDbSpline
 70
8
 71
3
 72
8
 73
4
 74
0
 40
0
 40
0
 40
0
 40
0
 40
1
 40
1
 40
1
 40
1
 10
93.391819
 20
167.060420
 30
0.0
 10
93.383894
 20
167.070017
 30
0.0
 10
93.375263
 20
167.079008
 30
0.0
 10
93.365999
 20
167.087320
 30
0.0
  0
SPLINE
  5
1f6
100
AcDbEntity
  8
Ebene_1
 62
7
100
AcDbSpline
 70
8
 71
3
 72
8
 73
4
 74
0
 40
0
 40
0
 40
0
 40
0
 40
1
 40
1
 40
1
 40
1
 10
93.365999
 20
167.087320
 30
0.0
 10
93.361335
 20
167.091636
 30
0.0
 10
93.356508
 20
167.095772
 30
0.0
 10
93.351529
 20
167.099720
 30
0.0
  0
SPLINE
  5
1f7
100
AcDbEntity
  8
Ebene_1
 62
7
100
AcDbSpline
 70
8
 71
3
 72
8
 73
4
 74
0
 40
0
 40
0
 40
0
 40
0
 40
1
 40
1
 40
1
 40
1
 10
93.351529
 20
167.099720
 30
0.0
 10
93.311571
 20
167.130340
 30
0.0
 10
93.263301
 20
167.148185
 30
0.0
 10
93.213035
 20
167.150920
 30
0.0
  0
SPLINE
  5
1f8
100
AcDbEntity
  8
Ebene_1
 62
7
100
AcDbSpline
 70
8
 71
3
 72
8
 73
4
 74
0
 40
0
 40
0
 40
0
 40
0
 40
1
 40
1
 40
1
 40
1
 10
93.213035
 20
167.150920
 30
0.0
 10
93.206667
 20
167.151341
 30
0.0
 10
93.200286
 20
167.151518
 30
0.0
 10
93.193905
 20
167.151450
 30
0.0
  0
LINE
  5
1f9
100
AcDbEntity
  8
Ebene_1
 62
7
100
AcDbLine
 10
93.193905
 20
167.151450
 30
0.0
 11
93.193795
 21
167.151220
 31
0.0
  0
SPLINE
  5
1fa
100
AcDbEntity
  8
Ebene_1
 62
7
100
AcDbSpline
 70
8
 71
3
 72
8
 73
4
 74
0
 40
0
 40
0
 40
0
 40
0
 40
1
 40
1
 40
1
 40
1
 10
87.116128
 20
167.134220
 30
0.0
 10
87.091186
 20
167.133770
 30
0.0
 10
87.066452
 20
167.129591
 30
0.0
 10
87.042748
 20
167.121820
 30
0.0
  0
SPLINE
  5
1fb
100
AcDbEntity
  8
Ebene_1
 62
7
100
AcDbSpline
 70
8
 71
3
 72
8
 73
4
 74
0
 40
0
 40
0
 40
0
 40
0
 40
1
 40
1
 40
1
 40
1
 10
87.042748
 20
167.121820
 30
0.0
 10
87.036805
 20
167.119709
 30
0.0
 10
87.030944
 20
167.117374
 30
0.0
 10
87.025178
 20
167.114820
 30
0.0
  0
SPLINE
  5
1fc
100
AcDbEntity
  8
Ebene_1
 62
7
100
AcDbSpline
 70
8
 71
3
 72
8
 73
4
 74
0
 40
0
 40
0
 40
0
 40
0
 40
1
 40
1
 40
1
 40
1
 10
87.025178
 20
167.114820
 30
0.0
 10
87.013585
 20
167.110167
 30
0.0
 10
87.002357
 20
167.104651
 30
0.0
 10
86.991588
 20
167.098320
 30
0.0
  0
SPLINE
  5
1fd
100
AcDbEntity
  8
Ebene_1
 62
7
100
AcDbSpline
 70
8
 71
3
 72
8
 73
4
 74
0
 40
0
 40
0
 40
0
 40
0
 40
1
 40
1
 40
1
 40
1
 10
86.991588
 20
167.098320
 30
0.0
 10
86.986295
 20
167.095080
 30
0.0
 10
86.981125
 20
167.091644
 30
0.0
 10
86.976088
 20
167.088020
 30
0.0
  0
SPLINE
  5
1fe
100
AcDbEntity
  8
Ebene_1
 62
7
100
AcDbSpline
 70
8
 71
3
 72
8
 73
4
 74
0
 40
0
 40
0
 40
0
 40
0
 40
1
 40
1
 40
1
 40
1
 10
86.976088
 20
167.088020
 30
0.0
 10
86.965860
 20
167.080822
 30
0.0
 10
86.956186
 20
167.072866
 30
0.0
 10
86.947148
 20
167.064220
 30
0.0
  0
SPLINE
  5
1ff
100
AcDbEntity
  8
Ebene_1
 62
7
100
AcDbSpline
 70
8
 71
3
 72
8
 73
4
 74
0
 40
0
 40
0
 40
0
 40
0
 40
1
 40
1
 40
1
 40
1
 10
86.947148
 20
167.064220
 30
0.0
 10
86.942670
 20
167.059752
 30
0.0
 10
86.938364
 20
167.055115
 30
0.0
 10
86.934238
 20
167.050320
 30
0.0
  0
SPLINE
  5
200
100
AcDbEntity
  8
Ebene_1
 62
7
100
AcDbSpline
 70
8
 71
3
 72
8
 73
4
 74
0
 40
0
 40
0
 40
0
 40
0
 40
1
 40
1
 40
1
 40
1
 10
86.934238
 20
167.050320
 30
0.0
 10
86.917580
 20
167.031647
 30
0.0
 10
86.903820
 20
167.010579
 30
0.0
 10
86.893418
 20
166.987820
 30
0.0
  0
SPLINE
  5
201
100
AcDbEntity
  8
Ebene_1
 62
7
100
AcDbSpline
 70
8
 71
3
 72
8
 73
4
 74
0
 40
0
 40
0
 40
0
 40
0
 40
1
 40
1
 40
1
 40
1
 10
86.893418
 20
166.987820
 30
0.0
 10
86.885758
 20
166.970780
 30
0.0
 10
86.880033
 20
166.952935
 30
0.0
 10
86.876348
 20
166.934620
 30
0.0
  0
SPLINE
  5
202
100
AcDbEntity
  8
Ebene_1
 62
7
100
AcDbSpline
 70
8
 71
3
 72
8
 73
4
 74
0
 40
0
 40
0
 40
0
 40
0
 40
1
 40
1
 40
1
 40
1
 10
86.876348
 20
166.934620
 30
0.0
 10
86.875081
 20
166.928461
 30
0.0
 10
86.874047
 20
166.922257
 30
0.0
 10
86.873248
 20
166.916020
 30
0.0
  0
SPLINE
  5
203
100
AcDbEntity
  8
Ebene_1
 62
7
100
AcDbSpline
 70
8
 71
3
 72
8
 73
4
 74
0
 40
0
 40
0
 40
0
 40
0
 40
1
 40
1
 40
1
 40
1
 10
86.873248
 20
166.916020
 30
0.0
 10
86.872316
 20
166.909848
 30
0.0
 10
86.871616
 20
166.903644
 30
0.0
 10
86.871148
 20
166.897420
 30
0.0
  0
SPLINE
  5
204
100
AcDbEntity
  8
Ebene_1
 62
7
100
AcDbSpline
 70
8
 71
3
 72
8
 73
4
 74
0
 40
0
 40
0
 40
0
 40
0
 40
1
 40
1
 40
1
 40
1
 10
86.871148
 20
166.897420
 30
0.0
 10
86.870401
 20
166.885024
 30
0.0
 10
86.870578
 20
166.872590
 30
0.0
 10
86.871678
 20
166.860220
 30
0.0
  0
SPLINE
  5
205
100
AcDbEntity
  8
Ebene_1
 62
7
100
AcDbSpline
 70
8
 71
3
 72
8
 73
4
 74
0
 40
0
 40
0
 40
0
 40
0
 40
1
 40
1
 40
1
 40
1
 10
86.871678
 20
166.860220
 30
0.0
 10
86.872969
 20
166.847669
 30
0.0
 10
86.875209
 20
166.835233
 30
0.0
 10
86.878378
 20
166.823020
 30
0.0
  0
SPLINE
  5
206
100
AcDbEntity
  8
Ebene_1
 62
7
100
AcDbSpline
 70
8
 71
3
 72
8
 73
4
 74
0
 40
0
 40
0
 40
0
 40
0
 40
1
 40
1
 40
1
 40
1
 10
86.878378
 20
166.823020
 30
0.0
 10
86.879883
 20
166.816924
 30
0.0
 10
86.881618
 20
166.810886
 30
0.0
 10
86.883578
 20
166.804920
 30
0.0
  0
SPLINE
  5
207
100
AcDbEntity
  8
Ebene_1
 62
7
100
AcDbSpline
 70
8
 71
3
 72
8
 73
4
 74
0
 40
0
 40
0
 40
0
 40
0
 40
1
 40
1
 40
1
 40
1
 10
86.883578
 20
166.804920
 30
0.0
 10
86.885590
 20
166.798971
 30
0.0
 10
86.887824
 20
166.793100
 30
0.0
 10
86.890278
 20
166.787320
 30
0.0
  0
SPLINE
  5
208
100
AcDbEntity
  8
Ebene_1
 62
7
100
AcDbSpline
 70
8
 71
3
 72
8
 73
4
 74
0
 40
0
 40
0
 40
0
 40
0
 40
1
 40
1
 40
1
 40
1
 10
86.890278
 20
166.787320
 30
0.0
 10
86.893936
 20
166.778660
 30
0.0
 10
86.898079
 20
166.770213
 30
0.0
 10
86.902688
 20
166.762020
 30
0.0
  0
LINE
  5
209
100
AcDbEntity
  8
Ebene_1
 62
7
100
AcDbLine
 10
86.902688
 20
166.762020
 30
0.0
 11
87.787907
 21
165.228790
 31
0.0
  0
SPLINE
  5
20a
100
AcDbEntity
  8
Ebene_1
 62
7
100
AcDbSpline
 70
8
 71
3
 72
8
 73
4
 74
0
 40
0
 40
0
 40
0
 40
0
 40
1
 40
1
 40
1
 40
1
 10
87.787907
 20
165.228790
 30
0.0
 10
87.417228
 20
165.277890
 30
0.0
 10
87.034048
 20
165.268590
 30
0.0
 10
86.651024
 20
165.196190
 30
0.0
  0
SPLINE
  5
20b
100
AcDbEntity
  8
Ebene_1
 62
7
100
AcDbSpline
 70
8
 71
3
 72
8
 73
4
 74
0
 40
0
 40
0
 40
0
 40
0
 40
1
 40
1
 40
1
 40
1
 10
86.651024
 20
165.196190
 30
0.0
 10
86.184953
 20
165.108090
 30
0.0
 10
85.720294
 20
164.932630
 30
0.0
 10
85.287282
 20
164.678900
 30
0.0
  0
SPLINE
  5
20c
100
AcDbEntity
  8
Ebene_1
 62
7
100
AcDbSpline
 70
8
 71
3
 72
8
 73
4
 74
0
 40
0
 40
0
 40
0
 40
0
 40
1
 40
1
 40
1
 40
1
 10
85.287282
 20
164.678900
 30
0.0
 10
84.711139
 20
164.341260
 30
0.0
 10
83.999820
 20
163.523040
 30
0.0
 10
83.697716
 20
162.877460
 30
0.0
  0
SPLINE
  5
20d
100
AcDbEntity
  8
Ebene_1
 62
7
100
AcDbSpline
 70
8
 71
3
 72
8
 73
4
 74
0
 40
0
 40
0
 40
0
 40
0
 40
1
 40
1
 40
1
 40
1
 10
83.697716
 20
162.877460
 30
0.0
 10
83.536299
 20
162.532530
 30
0.0
 10
83.417988
 20
162.360610
 30
0.0
 10
83.287921
 20
162.267680
 30
0.0
  0
SPLINE
  5
20e
100
AcDbEntity
  8
Ebene_1
 62
7
100
AcDbSpline
 70
8
 71
3
 72
8
 73
4
 74
0
 40
0
 40
0
 40
0
 40
0
 40
1
 40
1
 40
1
 40
1
 10
83.287921
 20
162.267680
 30
0.0
 10
83.157857
 20
162.174780
 30
0.0
 10
82.974850
 20
162.128810
 30
0.0
 10
82.617679
 20
162.101800
 30
0.0
  0
SPLINE
  5
20f
100
AcDbEntity
  8
Ebene_1
 62
7
100
AcDbSpline
 70
8
 71
3
 72
8
 73
4
 74
0
 40
0
 40
0
 40
0
 40
0
 40
1
 40
1
 40
1
 40
1
 10
82.617679
 20
162.101800
 30
0.0
 10
81.572619
 20
162.022800
 30
0.0
 10
80.791040
 20
161.525710
 30
0.0
 10
80.368720
 20
160.653310
 30
0.0
  0
SPLINE
  5
210
100
AcDbEntity
  8
Ebene_1
 62
7
100
AcDbSpline
 70
8
 71
3
 72
8
 73
4
 74
0
 40
0
 40
0
 40
0
 40
0
 40
1
 40
1
 40
1
 40
1
 10
80.368720
 20
160.653310
 30
0.0
 10
79.759991
 20
159.395840
 30
0.0
 10
80.529603
 20
157.780000
 30
0.0
 10
81.912813
 20
157.341370
 30
0.0
  0
SPLINE
  5
211
100
AcDbEntity
  8
Ebene_1
 62
7
100
AcDbSpline
 70
8
 71
3
 72
8
 73
4
 74
0
 40
0
 40
0
 40
0
 40
0
 40
1
 40
1
 40
1
 40
1
 10
81.912813
 20
157.341370
 30
0.0
 10
82.154282
 20
157.264770
 30
0.0
 10
82.393764
 20
157.219770
 30
0.0
 10
83.108605
 20
157.198740
 30
0.0
  0
SPLINE
  5
212
100
AcDbEntity
  8
Ebene_1
 62
7
100
AcDbSpline
 70
8
 71
3
 72
8
 73
4
 74
0
 40
0
 40
0
 40
0
 40
0
 40
1
 40
1
 40
1
 40
1
 10
83.108605
 20
157.198740
 30
0.0
 10
83.823443
 20
157.177640
 30
0.0
 10
85.043850
 20
157.174340
 30
0.0
 10
87.325402
 20
157.172340
 30
0.0
  0
SPLINE
  5
213
100
AcDbEntity
  8
Ebene_1
 62
7
100
AcDbSpline
 70
8
 71
3
 72
8
 73
4
 74
0
 40
0
 40
0
 40
0
 40
0
 40
1
 40
1
 40
1
 40
1
 10
87.325402
 20
157.172340
 30
0.0
 10
88.951179
 20
157.170340
 30
0.0
 10
90.191488
 20
157.176340
 30
0.0
 10
91.054373
 20
157.189940
 30
0.0
  0
SPLINE
  5
214
100
AcDbEntity
  8
Ebene_1
 62
7
100
AcDbSpline
 70
8
 71
3
 72
8
 73
4
 74
0
 40
0
 40
0
 40
0
 40
0
 40
1
 40
1
 40
1
 40
1
 10
91.054373
 20
157.189940
 30
0.0
 10
91.485816
 20
157.196940
 30
0.0
 10
91.823083
 20
157.205440
 30
0.0
 10
92.068265
 20
157.216240
 30
0.0
  0
SPLINE
  5
215
100
AcDbEntity
  8
Ebene_1
 62
7
100
AcDbSpline
 70
8
 71
3
 72
8
 73
4
 74
0
 40
0
 40
0
 40
0
 40
0
 40
1
 40
1
 40
1
 40
1
 10
92.068265
 20
157.216240
 30
0.0
 10
92.313446
 20
157.227040
 30
0.0
 10
92.433506
 20
157.228140
 30
0.0
 10
92.563324
 20
157.263240
 30
0.0
  0
SPLINE
  5
216
100
AcDbEntity
  8
Ebene_1
 62
7
100
AcDbSpline
 70
8
 71
3
 72
8
 73
4
 74
0
 40
0
 40
0
 40
0
 40
0
 40
1
 40
1
 40
1
 40
1
 10
92.563324
 20
157.263240
 30
0.0
 10
93.413017
 20
157.493480
 30
0.0
 10
93.955191
 20
158.410750
 30
0.0
 10
93.746715
 20
159.258470
 30
0.0
  0
LINE
  5
217
100
AcDbEntity
  8
Ebene_1
 62
7
100
AcDbLine
 10
93.746715
 20
159.258470
 30
0.0
 11
95.307344
 21
158.357750
 31
0.0
  0
SPLINE
  5
218
100
AcDbEntity
  8
Ebene_1
 62
7
100
AcDbSpline
 70
8
 71
3
 72
8
 73
4
 74
0
 40
0
 40
0
 40
0
 40
0
 40
1
 40
1
 40
1
 40
1
 10
95.307344
 20
158.357750
 30
0.0
 10
95.318460
 20
158.351543
 30
0.0
 10
95.330033
 20
158.346194
 30
0.0
 10
95.341964
 20
158.341750
 30
0.0
  0
SPLINE
  5
219
100
AcDbEntity
  8
Ebene_1
 62
7
100
AcDbSpline
 70
8
 71
3
 72
8
 73
4
 74
0
 40
0
 40
0
 40
0
 40
0
 40
1
 40
1
 40
1
 40
1
 10
95.341964
 20
158.341750
 30
0.0
 10
95.347744
 20
158.339533
 30
0.0
 10
95.353605
 20
158.337532
 30
0.0
 10
95.359534
 20
158.335750
 30
0.0
  0
SPLINE
  5
21a
100
AcDbEntity
  8
Ebene_1
 62
7
100
AcDbSpline
 70
8
 71
3
 72
8
 73
4
 74
0
 40
0
 40
0
 40
0
 40
0
 40
1
 40
1
 40
1
 40
1
 10
95.359534
 20
158.335750
 30
0.0
 10
95.365503
 20
158.333857
 30
0.0
 10
95.371540
 20
158.332189
 30
0.0
 10
95.377634
 20
158.330750
 30
0.0
  0
SPLINE
  5
21b
100
AcDbEntity
  8
Ebene_1
 62
7
100
AcDbSpline
 70
8
 71
3
 72
8
 73
4
 74
0
 40
0
 40
0
 40
0
 40
0
 40
1
 40
1
 40
1
 40
1
 10
95.377634
 20
158.330750
 30
0.0
 10
95.383794
 20
158.329517
 30
0.0
 10
95.389999
 20
158.328516
 30
0.0
 10
95.396234
 20
158.327750
 30
0.0
  0
SPLINE
  5
21c
100
AcDbEntity
  8
Ebene_1
 62
7
100
AcDbSpline
 70
8
 71
3
 72
8
 73
4
 74
0
 40
0
 40
0
 40
0
 40
0
 40
1
 40
1
 40
1
 40
1
 10
95.396234
 20
158.327750
 30
0.0
 10
95.420998
 20
158.324700
 30
0.0
 10
95.446079
 20
158.325374
 30
0.0
 10
95.470644
 20
158.329750
 30
0.0
  0
SPLINE
  5
21d
100
AcDbEntity
  8
Ebene_1
 62
7
100
AcDbSpline
 70
8
 71
3
 72
8
 73
4
 74
0
 40
0
 40
0
 40
0
 40
0
 40
1
 40
1
 40
1
 40
1
 10
95.470644
 20
158.329750
 30
0.0
 10
95.489258
 20
158.332853
 30
0.0
 10
95.507460
 20
158.338052
 30
0.0
 10
95.524904
 20
158.345250
 30
0.0
  0
SPLINE
  5
21e
100
AcDbEntity
  8
Ebene_1
 62
7
100
AcDbSpline
 70
8
 71
3
 72
8
 73
4
 74
0
 40
0
 40
0
 40
0
 40
0
 40
1
 40
1
 40
1
 40
1
 10
95.524904
 20
158.345250
 30
0.0
 10
95.530693
 20
158.347701
 30
0.0
 10
95.536387
 20
158.350370
 30
0.0
 10
95.541974
 20
158.353250
 30
0.0
  0
SPLINE
  5
21f
100
AcDbEntity
  8
Ebene_1
 62
7
100
AcDbSpline
 70
8
 71
3
 72
8
 73
4
 74
0
 40
0
 40
0
 40
0
 40
0
 40
1
 40
1
 40
1
 40
1
 10
95.541974
 20
158.353250
 30
0.0
 10
95.553130
 20
158.358971
 30
0.0
 10
95.563841
 20
158.365523
 30
0.0
 10
95.574014
 20
158.372850
 30
0.0
  0
SPLINE
  5
220
100
AcDbEntity
  8
Ebene_1
 62
7
100
AcDbSpline
 70
8
 71
3
 72
8
 73
4
 74
0
 40
0
 40
0
 40
0
 40
0
 40
1
 40
1
 40
1
 40
1
 10
95.574014
 20
158.372850
 30
0.0
 10
95.584225
 20
158.379888
 30
0.0
 10
95.593899
 20
158.387676
 30
0.0
 10
95.602954
 20
158.396150
 30
0.0
  0
SPLINE
  5
221
100
AcDbEntity
  8
Ebene_1
 62
7
100
AcDbSpline
 70
8
 71
3
 72
8
 73
4
 74
0
 40
0
 40
0
 40
0
 40
0
 40
1
 40
1
 40
1
 40
1
 10
95.602954
 20
158.396150
 30
0.0
 10
95.616433
 20
158.409231
 30
0.0
 10
95.628395
 20
158.423790
 30
0.0
 10
95.638614
 20
158.439550
 30
0.0
  0
SPLINE
  5
222
100
AcDbEntity
  8
Ebene_1
 62
7
100
AcDbSpline
 70
8
 71
3
 72
8
 73
4
 74
0
 40
0
 40
0
 40
0
 40
0
 40
1
 40
1
 40
1
 40
1
 10
95.638614
 20
158.439550
 30
0.0
 10
95.652317
 20
158.460597
 30
0.0
 10
95.662771
 20
158.483588
 30
0.0
 10
95.669624
 20
158.507750
 30
0.0
  0
SPLINE
  5
223
100
AcDbEntity
  8
Ebene_1
 62
7
100
AcDbSpline
 70
8
 71
3
 72
8
 73
4
 74
0
 40
0
 40
0
 40
0
 40
0
 40
1
 40
1
 40
1
 40
1
 10
95.669624
 20
158.507750
 30
0.0
 10
95.671416
 20
158.513723
 30
0.0
 10
95.672984
 20
158.519760
 30
0.0
 10
95.674324
 20
158.525850
 30
0.0
  0
SPLINE
  5
224
100
AcDbEntity
  8
Ebene_1
 62
7
100
AcDbSpline
 70
8
 71
3
 72
8
 73
4
 74
0
 40
0
 40
0
 40
0
 40
0
 40
1
 40
1
 40
1
 40
1
 10
95.674324
 20
158.525850
 30
0.0
 10
95.679399
 20
158.550306
 30
0.0
 10
95.680781
 20
158.575384
 30
0.0
 10
95.678424
 20
158.600250
 30
0.0
  0
SPLINE
  5
225
100
AcDbEntity
  8
Ebene_1
 62
7
100
AcDbSpline
 70
8
 71
3
 72
8
 73
4
 74
0
 40
0
 40
0
 40
0
 40
0
 40
1
 40
1
 40
1
 40
1
 10
95.678424
 20
158.600250
 30
0.0
 10
95.677956
 20
158.606474
 30
0.0
 10
95.677256
 20
158.612678
 30
0.0
 10
95.676324
 20
158.618850
 30
0.0
  0
SPLINE
  5
226
100
AcDbEntity
  8
Ebene_1
 62
7
100
AcDbSpline
 70
8
 71
3
 72
8
 73
4
 74
0
 40
0
 40
0
 40
0
 40
0
 40
1
 40
1
 40
1
 40
1
 10
95.676324
 20
158.618850
 30
0.0
 10
95.675194
 20
158.625100
 30
0.0
 10
95.673826
 20
158.631304
 30
0.0
 10
95.672224
 20
158.637450
 30
0.0
  0
SPLINE
  5
227
100
AcDbEntity
  8
Ebene_1
 62
7
100
AcDbSpline
 70
8
 71
3
 72
8
 73
4
 74
0
 40
0
 40
0
 40
0
 40
0
 40
1
 40
1
 40
1
 40
1
 10
95.672224
 20
158.637450
 30
0.0
 10
95.669138
 20
158.649428
 30
0.0
 10
95.665167
 20
158.661160
 30
0.0
 10
95.660344
 20
158.672550
 30
0.0
  0
SPLINE
  5
228
100
AcDbEntity
  8
Ebene_1
 62
7
100
AcDbSpline
 70
8
 71
3
 72
8
 73
4
 74
0
 40
0
 40
0
 40
0
 40
0
 40
1
 40
1
 40
1
 40
1
 10
95.660344
 20
158.672550
 30
0.0
 10
95.655517
 20
158.684163
 30
0.0
 10
95.649821
 20
158.695394
 30
0.0
 10
95.643304
 20
158.706150
 30
0.0
  0
SPLINE
  5
229
100
AcDbEntity
  8
Ebene_1
 62
7
100
AcDbSpline
 70
8
 71
3
 72
8
 73
4
 74
0
 40
0
 40
0
 40
0
 40
0
 40
1
 40
1
 40
1
 40
1
 10
95.643304
 20
158.706150
 30
0.0
 10
95.633632
 20
158.722180
 30
0.0
 10
95.622190
 20
158.737074
 30
0.0
 10
95.609194
 20
158.750550
 30
0.0
  0
SPLINE
  5
22a
100
AcDbEntity
  8
Ebene_1
 62
7
100
AcDbSpline
 70
8
 71
3
 72
8
 73
4
 74
0
 40
0
 40
0
 40
0
 40
0
 40
1
 40
1
 40
1
 40
1
 10
95.609194
 20
158.750550
 30
0.0
 10
95.594002
 20
158.766333
 30
0.0
 10
95.576801
 20
158.780050
 30
0.0
 10
95.558034
 20
158.791350
 30
0.0
  0
LINE
  5
22b
100
AcDbEntity
  8
Ebene_1
 62
7
100
AcDbLine
 10
95.558034
 20
158.791350
 30
0.0
 11
93.759695
 21
159.829530
 31
0.0
  0
SPLINE
  5
22c
100
AcDbEntity
  8
Ebene_1
 62
7
100
AcDbSpline
 70
8
 71
3
 72
8
 73
4
 74
0
 40
0
 40
0
 40
0
 40
0
 40
1
 40
1
 40
1
 40
1
 10
93.759695
 20
159.829530
 30
0.0
 10
93.754297
 20
159.832737
 30
0.0
 10
93.748779
 20
159.835739
 30
0.0
 10
93.743155
 20
159.838530
 30
0.0
  0
SPLINE
  5
22d
100
AcDbEntity
  8
Ebene_1
 62
7
100
AcDbSpline
 70
8
 71
3
 72
8
 73
4
 74
0
 40
0
 40
0
 40
0
 40
0
 40
1
 40
1
 40
1
 40
1
 10
93.743155
 20
159.838530
 30
0.0
 10
93.731612
 20
159.843727
 30
0.0
 10
93.719691
 20
159.848039
 30
0.0
 10
93.707495
 20
159.851430
 30
0.0
  0
SPLINE
  5
22e
100
AcDbEntity
  8
Ebene_1
 62
7
100
AcDbSpline
 70
8
 71
3
 72
8
 73
4
 74
0
 40
0
 40
0
 40
0
 40
0
 40
1
 40
1
 40
1
 40
1
 10
93.707495
 20
159.851430
 30
0.0
 10
93.689499
 20
159.856830
 30
0.0
 10
93.670952
 20
159.860185
 30
0.0
 10
93.652205
 20
159.861430
 30
0.0
  0
SPLINE
  5
22f
100
AcDbEntity
  8
Ebene_1
 62
7
100
AcDbSpline
 70
8
 71
3
 72
8
 73
4
 74
0
 40
0
 40
0
 40
0
 40
0
 40
1
 40
1
 40
1
 40
1
 10
93.652205
 20
159.861430
 30
0.0
 10
93.646014
 20
159.861837
 30
0.0
 10
93.639809
 20
159.862014
 30
0.0
 10
93.633605
 20
159.861960
 30
0.0
  0
SPLINE
  5
230
100
AcDbEntity
  8
Ebene_1
 62
7
100
AcDbSpline
 70
8
 71
3
 72
8
 73
4
 74
0
 40
0
 40
0
 40
0
 40
0
 40
1
 40
1
 40
1
 40
1
 10
93.633605
 20
159.861960
 30
0.0
 10
93.614760
 20
159.861406
 30
0.0
 10
93.596037
 20
159.858722
 30
0.0
 10
93.577795
 20
159.853960
 30
0.0
  0
SPLINE
  5
231
100
AcDbEntity
  8
Ebene_1
 62
7
100
AcDbSpline
 70
8
 71
3
 72
8
 73
4
 74
0
 40
0
 40
0
 40
0
 40
0
 40
1
 40
1
 40
1
 40
1
 10
93.577795
 20
159.853960
 30
0.0
 10
93.571701
 20
159.852521
 30
0.0
 10
93.565664
 20
159.850853
 30
0.0
 10
93.559695
 20
159.848960
 30
0.0
  0
SPLINE
  5
232
100
AcDbEntity
  8
Ebene_1
 62
7
100
AcDbSpline
 70
8
 71
3
 72
8
 73
4
 74
0
 40
0
 40
0
 40
0
 40
0
 40
1
 40
1
 40
1
 40
1
 10
93.559695
 20
159.848960
 30
0.0
 10
93.553766
 20
159.847178
 30
0.0
 10
93.547905
 20
159.845177
 30
0.0
 10
93.542125
 20
159.842960
 30
0.0
  0
SPLINE
  5
233
100
AcDbEntity
  8
Ebene_1
 62
7
100
AcDbSpline
 70
8
 71
3
 72
8
 73
4
 74
0
 40
0
 40
0
 40
0
 40
0
 40
1
 40
1
 40
1
 40
1
 10
93.542125
 20
159.842960
 30
0.0
 10
93.521776
 20
159.834322
 30
0.0
 10
93.502663
 20
159.823024
 30
0.0
 10
93.485285
 20
159.809360
 30
0.0
  0
SPLINE
  5
234
100
AcDbEntity
  8
Ebene_1
 62
7
100
AcDbSpline
 70
8
 71
3
 72
8
 73
4
 74
0
 40
0
 40
0
 40
0
 40
0
 40
1
 40
1
 40
1
 40
1
 10
93.485285
 20
159.809360
 30
0.0
 10
93.418365
 20
159.900060
 30
0.0
 10
93.340743
 20
159.981940
 30
0.0
 10
93.256875
 20
160.058440
 30
0.0
  0
SPLINE
  5
235
100
AcDbEntity
  8
Ebene_1
 62
7
100
AcDbSpline
 70
8
 71
3
 72
8
 73
4
 74
0
 40
0
 40
0
 40
0
 40
0
 40
1
 40
1
 40
1
 40
1
 10
93.256875
 20
160.058440
 30
0.0
 10
94.068654
 20
161.678320
 30
0.0
 10
93.488566
 20
163.675940
 30
0.0
 10
91.899335
 20
164.593560
 30
0.0
  0
SPLINE
  5
236
100
AcDbEntity
  8
Ebene_1
 62
7
100
AcDbSpline
 70
8
 71
3
 72
8
 73
4
 74
0
 40
0
 40
0
 40
0
 40
0
 40
1
 40
1
 40
1
 40
1
 10
91.899335
 20
164.593560
 30
0.0
 10
91.375254
 20
164.896130
 30
0.0
 10
90.781076
 20
165.055530
 30
0.0
 10
90.175927
 20
165.056060
 30
0.0
  0
SPLINE
  5
237
100
AcDbEntity
  8
Ebene_1
 62
7
100
AcDbSpline
 70
8
 71
3
 72
8
 73
4
 74
0
 40
0
 40
0
 40
0
 40
0
 40
1
 40
1
 40
1
 40
1
 10
90.175927
 20
165.056060
 30
0.0
 10
90.160850
 20
165.056085
 30
0.0
 10
90.145802
 20
165.054746
 30
0.0
 10
90.130967
 20
165.052060
 30
0.0
  0
SPLINE
  5
238
100
AcDbEntity
  8
Ebene_1
 62
7
100
AcDbSpline
 70
8
 71
3
 72
8
 73
4
 74
0
 40
0
 40
0
 40
0
 40
0
 40
1
 40
1
 40
1
 40
1
 10
90.130967
 20
165.052060
 30
0.0
 10
89.759516
 20
165.047060
 30
0.0
 10
89.391877
 20
164.983060
 30
0.0
 10
89.041111
 20
164.861900
 30
0.0
  0
SPLINE
  5
239
100
AcDbEntity
  8
Ebene_1
 62
7
100
AcDbSpline
 70
8
 71
3
 72
8
 73
4
 74
0
 40
0
 40
0
 40
0
 40
0
 40
1
 40
1
 40
1
 40
1
 10
89.041111
 20
164.861900
 30
0.0
 10
88.840377
 20
164.953900
 30
0.0
 10
88.628274
 20
165.032400
 30
0.0
 10
88.405492
 20
165.097020
 30
0.0
  0
LINE
  5
23a
100
AcDbEntity
  8
Ebene_1
 62
7
100
AcDbLine
 10
88.405492
 20
165.097020
 30
0.0
 11
88.405492
 21
165.098020
 31
0.0
  0
SPLINE
  5
23b
100
AcDbEntity
  8
Ebene_1
 62
7
100
AcDbSpline
 70
8
 71
3
 72
8
 73
4
 74
0
 40
0
 40
0
 40
0
 40
0
 40
1
 40
1
 40
1
 40
1
 10
88.405492
 20
165.098020
 30
0.0
 10
88.405547
 20
165.104224
 30
0.0
 10
88.405370
 20
165.110429
 30
0.0
 10
88.404963
 20
165.116620
 30
0.0
  0
SPLINE
  5
23c
100
AcDbEntity
  8
Ebene_1
 62
7
100
AcDbSpline
 70
8
 71
3
 72
8
 73
4
 74
0
 40
0
 40
0
 40
0
 40
0
 40
1
 40
1
 40
1
 40
1
 10
88.404963
 20
165.116620
 30
0.0
 10
88.404164
 20
165.122857
 30
0.0
 10
88.403130
 20
165.129061
 30
0.0
 10
88.401863
 20
165.135220
 30
0.0
  0
SPLINE
  5
23d
100
AcDbEntity
  8
Ebene_1
 62
7
100
AcDbSpline
 70
8
 71
3
 72
8
 73
4
 74
0
 40
0
 40
0
 40
0
 40
0
 40
1
 40
1
 40
1
 40
1
 10
88.401863
 20
165.135220
 30
0.0
 10
88.400898
 20
165.141463
 30
0.0
 10
88.399698
 20
165.147668
 30
0.0
 10
88.398263
 20
165.153820
 30
0.0
  0
SPLINE
  5
23e
100
AcDbEntity
  8
Ebene_1
 62
7
100
AcDbSpline
 70
8
 71
3
 72
8
 73
4
 74
0
 40
0
 40
0
 40
0
 40
0
 40
1
 40
1
 40
1
 40
1
 10
88.398263
 20
165.153820
 30
0.0
 10
88.396758
 20
165.159916
 30
0.0
 10
88.395023
 20
165.165954
 30
0.0
 10
88.393063
 20
165.171920
 30
0.0
  0
SPLINE
  5
23f
100
AcDbEntity
  8
Ebene_1
 62
7
100
AcDbSpline
 70
8
 71
3
 72
8
 73
4
 74
0
 40
0
 40
0
 40
0
 40
0
 40
1
 40
1
 40
1
 40
1
 10
88.393063
 20
165.171920
 30
0.0
 10
88.391051
 20
165.177869
 30
0.0
 10
88.388817
 20
165.183740
 30
0.0
 10
88.386363
 20
165.189520
 30
0.0
  0
SPLINE
  5
240
100
AcDbEntity
  8
Ebene_1
 62
7
100
AcDbSpline
 70
8
 71
3
 72
8
 73
4
 74
0
 40
0
 40
0
 40
0
 40
0
 40
1
 40
1
 40
1
 40
1
 10
88.386363
 20
165.189520
 30
0.0
 10
88.382705
 20
165.198180
 30
0.0
 10
88.378562
 20
165.206627
 30
0.0
 10
88.373953
 20
165.214820
 30
0.0
  0
LINE
  5
241
100
AcDbEntity
  8
Ebene_1
 62
7
100
AcDbLine
 10
88.373953
 20
165.214820
 30
0.0
 11
87.335773
 21
167.013160
 31
0.0
  0
SPLINE
  5
242
100
AcDbEntity
  8
Ebene_1
 62
7
100
AcDbSpline
 70
8
 71
3
 72
8
 73
4
 74
0
 40
0
 40
0
 40
0
 40
0
 40
1
 40
1
 40
1
 40
1
 10
87.335773
 20
167.013160
 30
0.0
 10
87.332517
 20
167.018454
 30
0.0
 10
87.329064
 20
167.023624
 30
0.0
 10
87.325423
 20
167.028660
 30
0.0
  0
SPLINE
  5
243
100
AcDbEntity
  8
Ebene_1
 62
7
100
AcDbSpline
 70
8
 71
3
 72
8
 73
4
 74
0
 40
0
 40
0
 40
0
 40
0
 40
1
 40
1
 40
1
 40
1
 10
87.325423
 20
167.028660
 30
0.0
 10
87.321809
 20
167.033632
 30
0.0
 10
87.318013
 20
167.038468
 30
0.0
 10
87.314043
 20
167.043160
 30
0.0
  0
SPLINE
  5
244
100
AcDbEntity
  8
Ebene_1
 62
7
100
AcDbSpline
 70
8
 71
3
 72
8
 73
4
 74
0
 40
0
 40
0
 40
0
 40
0
 40
1
 40
1
 40
1
 40
1
 10
87.314043
 20
167.043160
 30
0.0
 10
87.310092
 20
167.048150
 30
0.0
 10
87.305953
 20
167.052986
 30
0.0
 10
87.301633
 20
167.057660
 30
0.0
  0
SPLINE
  5
245
100
AcDbEntity
  8
Ebene_1
 62
7
100
AcDbSpline
 70
8
 71
3
 72
8
 73
4
 74
0
 40
0
 40
0
 40
0
 40
0
 40
1
 40
1
 40
1
 40
1
 10
87.301633
 20
167.057660
 30
0.0
 10
87.292964
 20
167.066610
 30
0.0
 10
87.283638
 20
167.074900
 30
0.0
 10
87.273733
 20
167.082460
 30
0.0
  0
SPLINE
  5
246
100
AcDbEntity
  8
Ebene_1
 62
7
100
AcDbSpline
 70
8
 71
3
 72
8
 73
4
 74
0
 40
0
 40
0
 40
0
 40
0
 40
1
 40
1
 40
1
 40
1
 10
87.273733
 20
167.082460
 30
0.0
 10
87.263762
 20
167.090144
 30
0.0
 10
87.253226
 20
167.097063
 30
0.0
 10
87.242213
 20
167.103160
 30
0.0
  0
SPLINE
  5
247
100
AcDbEntity
  8
Ebene_1
 62
7
100
AcDbSpline
 70
8
 71
3
 72
8
 73
4
 74
0
 40
0
 40
0
 40
0
 40
0
 40
1
 40
1
 40
1
 40
1
 10
87.242213
 20
167.103160
 30
0.0
 10
87.209340
 20
167.121405
 30
0.0
 10
87.172776
 20
167.132001
 30
0.0
 10
87.135242
 20
167.134160
 30
0.0
  0
SPLINE
  5
248
100
AcDbEntity
  8
Ebene_1
 62
7
100
AcDbSpline
 70
8
 71
3
 72
8
 73
4
 74
0
 40
0
 40
0
 40
0
 40
0
 40
1
 40
1
 40
1
 40
1
 10
87.135242
 20
167.134160
 30
0.0
 10
87.129051
 20
167.134567
 30
0.0
 10
87.122846
 20
167.134744
 30
0.0
 10
87.116642
 20
167.134690
 30
0.0
  0
LINE
  5
249
100
AcDbEntity
  8
Ebene_1
 62
7
100
AcDbLine
 10
87.116642
 20
167.134690
 30
0.0
 11
87.116128
 21
167.134220
 31
0.0
  0
SPLINE
  5
24a
100
AcDbEntity
  8
Ebene_1
 62
7
100
AcDbSpline
 70
8
 71
3
 72
8
 73
4
 74
0
 40
0
 40
0
 40
0
 40
0
 40
1
 40
1
 40
1
 40
1
 10
95.424148
 20
164.920400
 30
0.0
 10
95.417944
 20
164.920458
 30
0.0
 10
95.411739
 20
164.920284
 30
0.0
 10
95.405548
 20
164.919880
 30
0.0
  0
SPLINE
  5
24b
100
AcDbEntity
  8
Ebene_1
 62
7
100
AcDbSpline
 70
8
 71
3
 72
8
 73
4
 74
0
 40
0
 40
0
 40
0
 40
0
 40
1
 40
1
 40
1
 40
1
 10
95.405548
 20
164.919880
 30
0.0
 10
95.392986
 20
164.918491
 30
0.0
 10
95.380547
 20
164.916150
 30
0.0
 10
95.368338
 20
164.912880
 30
0.0
  0
SPLINE
  5
24c
100
AcDbEntity
  8
Ebene_1
 62
7
100
AcDbSpline
 70
8
 71
3
 72
8
 73
4
 74
0
 40
0
 40
0
 40
0
 40
0
 40
1
 40
1
 40
1
 40
1
 10
95.368338
 20
164.912880
 30
0.0
 10
95.356170
 20
164.909814
 30
0.0
 10
95.344249
 20
164.905836
 30
0.0
 10
95.332678
 20
164.900980
 30
0.0
  0
SPLINE
  5
24d
100
AcDbEntity
  8
Ebene_1
 62
7
100
AcDbSpline
 70
8
 71
3
 72
8
 73
4
 74
0
 40
0
 40
0
 40
0
 40
0
 40
1
 40
1
 40
1
 40
1
 10
95.332678
 20
164.900980
 30
0.0
 10
95.324011
 20
164.897326
 30
0.0
 10
95.315558
 20
164.893186
 30
0.0
 10
95.307358
 20
164.888580
 30
0.0
  0
LINE
  5
24e
100
AcDbEntity
  8
Ebene_1
 62
7
100
AcDbLine
 10
95.307358
 20
164.888580
 30
0.0
 11
93.509017
 21
163.850400
 31
0.0
  0
SPLINE
  5
24f
100
AcDbEntity
  8
Ebene_1
 62
7
100
AcDbSpline
 70
8
 71
3
 72
8
 73
4
 74
0
 40
0
 40
0
 40
0
 40
0
 40
1
 40
1
 40
1
 40
1
 10
93.509017
 20
163.850400
 30
0.0
 10
93.498521
 20
163.844077
 30
0.0
 10
93.488504
 20
163.836992
 30
0.0
 10
93.479047
 20
163.829200
 30
0.0
  0
SPLINE
  5
250
100
AcDbEntity
  8
Ebene_1
 62
7
100
AcDbSpline
 70
8
 71
3
 72
8
 73
4
 74
0
 40
0
 40
0
 40
0
 40
0
 40
1
 40
1
 40
1
 40
1
 10
93.479047
 20
163.829200
 30
0.0
 10
93.459626
 20
163.813227
 30
0.0
 10
93.442726
 20
163.794415
 30
0.0
 10
93.428917
 20
163.773400
 30
0.0
  0
SPLINE
  5
251
100
AcDbEntity
  8
Ebene_1
 62
7
100
AcDbSpline
 70
8
 71
3
 72
8
 73
4
 74
0
 40
0
 40
0
 40
0
 40
0
 40
1
 40
1
 40
1
 40
1
 10
93.428917
 20
163.773400
 30
0.0
 10
93.425440
 20
163.768027
 30
0.0
 10
93.422171
 20
163.762523
 30
0.0
 10
93.419117
 20
163.756900
 30
0.0
  0
SPLINE
  5
252
100
AcDbEntity
  8
Ebene_1
 62
7
100
AcDbSpline
 70
8
 71
3
 72
8
 73
4
 74
0
 40
0
 40
0
 40
0
 40
0
 40
1
 40
1
 40
1
 40
1
 10
93.419117
 20
163.756900
 30
0.0
 10
93.415979
 20
163.751512
 30
0.0
 10
93.413044
 20
163.746008
 30
0.0
 10
93.410317
 20
163.740400
 30
0.0
  0
SPLINE
  5
253
100
AcDbEntity
  8
Ebene_1
 62
7
100
AcDbSpline
 70
8
 71
3
 72
8
 73
4
 74
0
 40
0
 40
0
 40
0
 40
0
 40
1
 40
1
 40
1
 40
1
 10
93.410317
 20
163.740400
 30
0.0
 10
93.407706
 20
163.734791
 30
0.0
 10
93.405305
 20
163.729087
 30
0.0
 10
93.403117
 20
163.723300
 30
0.0
  0
SPLINE
  5
254
100
AcDbEntity
  8
Ebene_1
 62
7
100
AcDbSpline
 70
8
 71
3
 72
8
 73
4
 74
0
 40
0
 40
0
 40
0
 40
0
 40
1
 40
1
 40
1
 40
1
 10
93.403117
 20
163.723300
 30
0.0
 10
93.398762
 20
163.711511
 30
0.0
 10
93.395302
 20
163.699410
 30
0.0
 10
93.392767
 20
163.687100
 30
0.0
  0
SPLINE
  5
255
100
AcDbEntity
  8
Ebene_1
 62
7
100
AcDbSpline
 70
8
 71
3
 72
8
 73
4
 74
0
 40
0
 40
0
 40
0
 40
0
 40
1
 40
1
 40
1
 40
1
 10
93.392767
 20
163.687100
 30
0.0
 10
93.391345
 20
163.681113
 30
0.0
 10
93.390144
 20
163.675076
 30
0.0
 10
93.389167
 20
163.669000
 30
0.0
  0
SPLINE
  5
256
100
AcDbEntity
  8
Ebene_1
 62
7
100
AcDbSpline
 70
8
 71
3
 72
8
 73
4
 74
0
 40
0
 40
0
 40
0
 40
0
 40
1
 40
1
 40
1
 40
1
 10
93.389167
 20
163.669000
 30
0.0
 10
93.384363
 20
163.631619
 30
0.0
 10
93.388072
 20
163.593636
 30
0.0
 10
93.400017
 20
163.557890
 30
0.0
  0
SPLINE
  5
257
100
AcDbEntity
  8
Ebene_1
 62
7
100
AcDbSpline
 70
8
 71
3
 72
8
 73
4
 74
0
 40
0
 40
0
 40
0
 40
0
 40
1
 40
1
 40
1
 40
1
 10
93.400017
 20
163.557890
 30
0.0
 10
93.402029
 20
163.551941
 30
0.0
 10
93.404263
 20
163.546070
 30
0.0
 10
93.406717
 20
163.540290
 30
0.0
  0
SPLINE
  5
258
100
AcDbEntity
  8
Ebene_1
 62
7
100
AcDbSpline
 70
8
 71
3
 72
8
 73
4
 74
0
 40
0
 40
0
 40
0
 40
0
 40
1
 40
1
 40
1
 40
1
 10
93.406717
 20
163.540290
 30
0.0
 10
93.416185
 20
163.517130
 30
0.0
 10
93.429075
 20
163.495523
 30
0.0
 10
93.444957
 20
163.476190
 30
0.0
  0
SPLINE
  5
259
100
AcDbEntity
  8
Ebene_1
 62
7
100
AcDbSpline
 70
8
 71
3
 72
8
 73
4
 74
0
 40
0
 40
0
 40
0
 40
0
 40
1
 40
1
 40
1
 40
1
 10
93.444957
 20
163.476190
 30
0.0
 10
93.448908
 20
163.471200
 30
0.0
 10
93.453047
 20
163.466364
 30
0.0
 10
93.457367
 20
163.461690
 30
0.0
  0
SPLINE
  5
25a
100
AcDbEntity
  8
Ebene_1
 62
7
100
AcDbSpline
 70
8
 71
3
 72
8
 73
4
 74
0
 40
0
 40
0
 40
0
 40
0
 40
1
 40
1
 40
1
 40
1
 10
93.457367
 20
163.461690
 30
0.0
 10
93.461694
 20
163.457394
 30
0.0
 10
93.466177
 20
163.453258
 30
0.0
 10
93.470807
 20
163.449290
 30
0.0
  0
SPLINE
  5
25b
100
AcDbEntity
  8
Ebene_1
 62
7
100
AcDbSpline
 70
8
 71
3
 72
8
 73
4
 74
0
 40
0
 40
0
 40
0
 40
0
 40
1
 40
1
 40
1
 40
1
 10
93.470807
 20
163.449290
 30
0.0
 10
93.475471
 20
163.444974
 30
0.0
 10
93.480298
 20
163.440838
 30
0.0
 10
93.485277
 20
163.436890
 30
0.0
  0
SPLINE
  5
25c
100
AcDbEntity
  8
Ebene_1
 62
7
100
AcDbSpline
 70
8
 71
3
 72
8
 73
4
 74
0
 40
0
 40
0
 40
0
 40
0
 40
1
 40
1
 40
1
 40
1
 10
93.485277
 20
163.436890
 30
0.0
 10
93.490304
 20
163.433062
 30
0.0
 10
93.495474
 20
163.429426
 30
0.0
 10
93.500777
 20
163.425990
 30
0.0
  0
SPLINE
  5
25d
100
AcDbEntity
  8
Ebene_1
 62
7
100
AcDbSpline
 70
8
 71
3
 72
8
 73
4
 74
0
 40
0
 40
0
 40
0
 40
0
 40
1
 40
1
 40
1
 40
1
 10
93.500777
 20
163.425990
 30
0.0
 10
93.511329
 20
163.419133
 30
0.0
 10
93.522384
 20
163.413082
 30
0.0
 10
93.533847
 20
163.407890
 30
0.0
  0
SPLINE
  5
25e
100
AcDbEntity
  8
Ebene_1
 62
7
100
AcDbSpline
 70
8
 71
3
 72
8
 73
4
 74
0
 40
0
 40
0
 40
0
 40
0
 40
1
 40
1
 40
1
 40
1
 10
93.533847
 20
163.407890
 30
0.0
 10
93.539446
 20
163.405348
 30
0.0
 10
93.545136
 20
163.403013
 30
0.0
 10
93.550907
 20
163.400890
 30
0.0
  0
SPLINE
  5
25f
100
AcDbEntity
  8
Ebene_1
 62
7
100
AcDbSpline
 70
8
 71
3
 72
8
 73
4
 74
0
 40
0
 40
0
 40
0
 40
0
 40
1
 40
1
 40
1
 40
1
 10
93.550907
 20
163.400890
 30
0.0
 10
93.556687
 20
163.398673
 30
0.0
 10
93.562548
 20
163.396672
 30
0.0
 10
93.568477
 20
163.394890
 30
0.0
  0
SPLINE
  5
260
100
AcDbEntity
  8
Ebene_1
 62
7
100
AcDbSpline
 70
8
 71
3
 72
8
 73
4
 74
0
 40
0
 40
0
 40
0
 40
0
 40
1
 40
1
 40
1
 40
1
 10
93.568477
 20
163.394890
 30
0.0
 10
93.574624
 20
163.393321
 30
0.0
 10
93.580828
 20
163.391987
 30
0.0
 10
93.587077
 20
163.390890
 30
0.0
  0
SPLINE
  5
261
100
AcDbEntity
  8
Ebene_1
 62
7
100
AcDbSpline
 70
8
 71
3
 72
8
 73
4
 74
0
 40
0
 40
0
 40
0
 40
0
 40
1
 40
1
 40
1
 40
1
 10
93.587077
 20
163.390890
 30
0.0
 10
93.605434
 20
163.387137
 30
0.0
 10
93.624155
 20
163.385460
 30
0.0
 10
93.642887
 20
163.385890
 30
0.0
  0
SPLINE
  5
262
100
AcDbEntity
  8
Ebene_1
 62
7
100
AcDbSpline
 70
8
 71
3
 72
8
 73
4
 74
0
 40
0
 40
0
 40
0
 40
0
 40
1
 40
1
 40
1
 40
1
 10
93.642887
 20
163.385890
 30
0.0
 10
93.649091
 20
163.385836
 30
0.0
 10
93.655296
 20
163.386013
 30
0.0
 10
93.661487
 20
163.386420
 30
0.0
  0
SPLINE
  5
263
100
AcDbEntity
  8
Ebene_1
 62
7
100
AcDbSpline
 70
8
 71
3
 72
8
 73
4
 74
0
 40
0
 40
0
 40
0
 40
0
 40
1
 40
1
 40
1
 40
1
 10
93.661487
 20
163.386420
 30
0.0
 10
93.667722
 20
163.387186
 30
0.0
 10
93.673927
 20
163.388187
 30
0.0
 10
93.680087
 20
163.389420
 30
0.0
  0
SPLINE
  5
264
100
AcDbEntity
  8
Ebene_1
 62
7
100
AcDbSpline
 70
8
 71
3
 72
8
 73
4
 74
0
 40
0
 40
0
 40
0
 40
0
 40
1
 40
1
 40
1
 40
1
 10
93.680087
 20
163.389420
 30
0.0
 10
93.686336
 20
163.390517
 30
0.0
 10
93.692540
 20
163.391851
 30
0.0
 10
93.698687
 20
163.393420
 30
0.0
  0
SPLINE
  5
265
100
AcDbEntity
  8
Ebene_1
 62
7
100
AcDbSpline
 70
8
 71
3
 72
8
 73
4
 74
0
 40
0
 40
0
 40
0
 40
0
 40
1
 40
1
 40
1
 40
1
 10
93.698687
 20
163.393420
 30
0.0
 10
93.704781
 20
163.394859
 30
0.0
 10
93.710818
 20
163.396527
 30
0.0
 10
93.716787
 20
163.398420
 30
0.0
  0
SPLINE
  5
266
100
AcDbEntity
  8
Ebene_1
 62
7
100
AcDbSpline
 70
8
 71
3
 72
8
 73
4
 74
0
 40
0
 40
0
 40
0
 40
0
 40
1
 40
1
 40
1
 40
1
 10
93.716787
 20
163.398420
 30
0.0
 10
93.731651
 20
163.403427
 30
0.0
 10
93.746011
 20
163.409822
 30
0.0
 10
93.759677
 20
163.417520
 30
0.0
  0
LINE
  5
267
100
AcDbEntity
  8
Ebene_1
 62
7
100
AcDbLine
 10
93.759677
 20
163.417520
 30
0.0
 11
95.558015
 21
164.455700
 31
0.0
  0
SPLINE
  5
268
100
AcDbEntity
  8
Ebene_1
 62
7
100
AcDbSpline
 70
8
 71
3
 72
8
 73
4
 74
0
 40
0
 40
0
 40
0
 40
0
 40
1
 40
1
 40
1
 40
1
 10
95.558015
 20
164.455700
 30
0.0
 10
95.574059
 20
164.465366
 30
0.0
 10
95.588966
 20
164.476805
 30
0.0
 10
95.602455
 20
164.489800
 30
0.0
  0
SPLINE
  5
269
100
AcDbEntity
  8
Ebene_1
 62
7
100
AcDbSpline
 70
8
 71
3
 72
8
 73
4
 74
0
 40
0
 40
0
 40
0
 40
0
 40
1
 40
1
 40
1
 40
1
 10
95.602455
 20
164.489800
 30
0.0
 10
95.606923
 20
164.494105
 30
0.0
 10
95.611229
 20
164.498575
 30
0.0
 10
95.615365
 20
164.503200
 30
0.0
  0
SPLINE
  5
26a
100
AcDbEntity
  8
Ebene_1
 62
7
100
AcDbSpline
 70
8
 71
3
 72
8
 73
4
 74
0
 40
0
 40
0
 40
0
 40
0
 40
1
 40
1
 40
1
 40
1
 10
95.615365
 20
164.503200
 30
0.0
 10
95.623664
 20
164.512455
 30
0.0
 10
95.631262
 20
164.522315
 30
0.0
 10
95.638095
 20
164.532700
 30
0.0
  0
SPLINE
  5
26b
100
AcDbEntity
  8
Ebene_1
 62
7
100
AcDbSpline
 70
8
 71
3
 72
8
 73
4
 74
0
 40
0
 40
0
 40
0
 40
0
 40
1
 40
1
 40
1
 40
1
 10
95.638095
 20
164.532700
 30
0.0
 10
95.641572
 20
164.538073
 30
0.0
 10
95.644841
 20
164.543577
 30
0.0
 10
95.647895
 20
164.549200
 30
0.0
  0
SPLINE
  5
26c
100
AcDbEntity
  8
Ebene_1
 62
7
100
AcDbSpline
 70
8
 71
3
 72
8
 73
4
 74
0
 40
0
 40
0
 40
0
 40
0
 40
1
 40
1
 40
1
 40
1
 10
95.647895
 20
164.549200
 30
0.0
 10
95.654059
 20
164.559987
 30
0.0
 10
95.659411
 20
164.571218
 30
0.0
 10
95.663905
 20
164.582800
 30
0.0
  0
SPLINE
  5
26d
100
AcDbEntity
  8
Ebene_1
 62
7
100
AcDbSpline
 70
8
 71
3
 72
8
 73
4
 74
0
 40
0
 40
0
 40
0
 40
0
 40
1
 40
1
 40
1
 40
1
 10
95.663905
 20
164.582800
 30
0.0
 10
95.666033
 20
164.588759
 30
0.0
 10
95.667935
 20
164.594797
 30
0.0
 10
95.669605
 20
164.600900
 30
0.0
  0
SPLINE
  5
26e
100
AcDbEntity
  8
Ebene_1
 62
7
100
AcDbSpline
 70
8
 71
3
 72
8
 73
4
 74
0
 40
0
 40
0
 40
0
 40
0
 40
1
 40
1
 40
1
 40
1
 10
95.669605
 20
164.600900
 30
0.0
 10
95.673121
 20
164.612921
 30
0.0
 10
95.675728
 20
164.625189
 30
0.0
 10
95.677405
 20
164.637600
 30
0.0
  0
SPLINE
  5
26f
100
AcDbEntity
  8
Ebene_1
 62
7
100
AcDbSpline
 70
8
 71
3
 72
8
 73
4
 74
0
 40
0
 40
0
 40
0
 40
0
 40
1
 40
1
 40
1
 40
1
 10
95.677405
 20
164.637600
 30
0.0
 10
95.678170
 20
164.643778
 30
0.0
 10
95.678703
 20
164.649982
 30
0.0
 10
95.679005
 20
164.656200
 30
0.0
  0
SPLINE
  5
270
100
AcDbEntity
  8
Ebene_1
 62
7
100
AcDbSpline
 70
8
 71
3
 72
8
 73
4
 74
0
 40
0
 40
0
 40
0
 40
0
 40
1
 40
1
 40
1
 40
1
 10
95.679005
 20
164.656200
 30
0.0
 10
95.679778
 20
164.668762
 30
0.0
 10
95.679601
 20
164.681365
 30
0.0
 10
95.678476
 20
164.693900
 30
0.0
  0
SPLINE
  5
271
100
AcDbEntity
  8
Ebene_1
 62
7
100
AcDbSpline
 70
8
 71
3
 72
8
 73
4
 74
0
 40
0
 40
0
 40
0
 40
0
 40
1
 40
1
 40
1
 40
1
 10
95.678476
 20
164.693900
 30
0.0
 10
95.677324
 20
164.706270
 30
0.0
 10
95.675252
 20
164.718538
 30
0.0
 10
95.672276
 20
164.730600
 30
0.0
  0
SPLINE
  5
272
100
AcDbEntity
  8
Ebene_1
 62
7
100
AcDbSpline
 70
8
 71
3
 72
8
 73
4
 74
0
 40
0
 40
0
 40
0
 40
0
 40
1
 40
1
 40
1
 40
1
 10
95.672276
 20
164.730600
 30
0.0
 10
95.667735
 20
164.748849
 30
0.0
 10
95.661150
 20
164.766527
 30
0.0
 10
95.652646
 20
164.783300
 30
0.0
  0
SPLINE
  5
273
100
AcDbEntity
  8
Ebene_1
 62
7
100
AcDbSpline
 70
8
 71
3
 72
8
 73
4
 74
0
 40
0
 40
0
 40
0
 40
0
 40
1
 40
1
 40
1
 40
1
 10
95.652646
 20
164.783300
 30
0.0
 10
95.649919
 20
164.788908
 30
0.0
 10
95.646984
 20
164.794412
 30
0.0
 10
95.643846
 20
164.799800
 30
0.0
  0
SPLINE
  5
274
100
AcDbEntity
  8
Ebene_1
 62
7
100
AcDbSpline
 70
8
 71
3
 72
8
 73
4
 74
0
 40
0
 40
0
 40
0
 40
0
 40
1
 40
1
 40
1
 40
1
 10
95.643846
 20
164.799800
 30
0.0
 10
95.634174
 20
164.815830
 30
0.0
 10
95.622732
 20
164.830724
 30
0.0
 10
95.609736
 20
164.844200
 30
0.0
  0
SPLINE
  5
275
100
AcDbEntity
  8
Ebene_1
 62
7
100
AcDbSpline
 70
8
 71
3
 72
8
 73
4
 74
0
 40
0
 40
0
 40
0
 40
0
 40
1
 40
1
 40
1
 40
1
 10
95.609736
 20
164.844200
 30
0.0
 10
95.600901
 20
164.853170
 30
0.0
 10
95.591400
 20
164.861461
 30
0.0
 10
95.581316
 20
164.869000
 30
0.0
  0
SPLINE
  5
276
100
AcDbEntity
  8
Ebene_1
 62
7
100
AcDbSpline
 70
8
 71
3
 72
8
 73
4
 74
0
 40
0
 40
0
 40
0
 40
0
 40
1
 40
1
 40
1
 40
1
 10
95.581316
 20
164.869000
 30
0.0
 10
95.576459
 20
164.872817
 30
0.0
 10
95.571462
 20
164.876453
 30
0.0
 10
95.566336
 20
164.879900
 30
0.0
  0
SPLINE
  5
277
100
AcDbEntity
  8
Ebene_1
 62
7
100
AcDbSpline
 70
8
 71
3
 72
8
 73
4
 74
0
 40
0
 40
0
 40
0
 40
0
 40
1
 40
1
 40
1
 40
1
 10
95.566336
 20
164.879900
 30
0.0
 10
95.561127
 20
164.883434
 30
0.0
 10
95.555787
 20
164.886769
 30
0.0
 10
95.550326
 20
164.889900
 30
0.0
  0
SPLINE
  5
278
100
AcDbEntity
  8
Ebene_1
 62
7
100
AcDbSpline
 70
8
 71
3
 72
8
 73
4
 74
0
 40
0
 40
0
 40
0
 40
0
 40
1
 40
1
 40
1
 40
1
 10
95.550326
 20
164.889900
 30
0.0
 10
95.544739
 20
164.892780
 30
0.0
 10
95.539045
 20
164.895449
 30
0.0
 10
95.533256
 20
164.897900
 30
0.0
  0
SPLINE
  5
279
100
AcDbEntity
  8
Ebene_1
 62
7
100
AcDbSpline
 70
8
 71
3
 72
8
 73
4
 74
0
 40
0
 40
0
 40
0
 40
0
 40
1
 40
1
 40
1
 40
1
 10
95.533256
 20
164.897900
 30
0.0
 10
95.527654
 20
164.900443
 30
0.0
 10
95.521960
 20
164.902777
 30
0.0
 10
95.516186
 20
164.904900
 30
0.0
  0
SPLINE
  5
27a
100
AcDbEntity
  8
Ebene_1
 62
7
100
AcDbSpline
 70
8
 71
3
 72
8
 73
4
 74
0
 40
0
 40
0
 40
0
 40
0
 40
1
 40
1
 40
1
 40
1
 10
95.516186
 20
164.904900
 30
0.0
 10
95.510406
 20
164.907117
 30
0.0
 10
95.504545
 20
164.909118
 30
0.0
 10
95.498616
 20
164.910900
 30
0.0
  0
SPLINE
  5
27b
100
AcDbEntity
  8
Ebene_1
 62
7
100
AcDbSpline
 70
8
 71
3
 72
8
 73
4
 74
0
 40
0
 40
0
 40
0
 40
0
 40
1
 40
1
 40
1
 40
1
 10
95.498616
 20
164.910900
 30
0.0
 10
95.486407
 20
164.914170
 30
0.0
 10
95.473968
 20
164.916511
 30
0.0
 10
95.461406
 20
164.917900
 30
0.0
  0
SPLINE
  5
27c
100
AcDbEntity
  8
Ebene_1
 62
7
100
AcDbSpline
 70
8
 71
3
 72
8
 73
4
 74
0
 40
0
 40
0
 40
0
 40
0
 40
1
 40
1
 40
1
 40
1
 10
95.461406
 20
164.917900
 30
0.0
 10
95.455233
 20
164.918798
 30
0.0
 10
95.449029
 20
164.919466
 30
0.0
 10
95.442806
 20
164.919900
 30
0.0
  0
SPLINE
  5
27d
100
AcDbEntity
  8
Ebene_1
 62
7
100
AcDbSpline
 70
8
 71
3
 72
8
 73
4
 74
0
 40
0
 40
0
 40
0
 40
0
 40
1
 40
1
 40
1
 40
1
 10
95.442806
 20
164.919900
 30
0.0
 10
95.436608
 20
164.920131
 30
0.0
 10
95.430404
 20
164.920131
 30
0.0
 10
95.424206
 20
164.919900
 30
0.0
  0
LINE
  5
27e
100
AcDbEntity
  8
Ebene_1
 62
7
100
AcDbLine
 10
95.424206
 20
164.919900
 30
0.0
 11
95.424148
 21
164.920400
 31
0.0
  0
SPLINE
  5
27f
100
AcDbEntity
  8
Ebene_1
 62
7
100
AcDbSpline
 70
8
 71
3
 72
8
 73
4
 74
0
 40
0
 40
0
 40
0
 40
0
 40
1
 40
1
 40
1
 40
1
 10
87.347122
 20
164.760730
 30
0.0
 10
87.545740
 20
164.760840
 30
0.0
 10
87.740238
 20
164.741230
 30
0.0
 10
87.926414
 20
164.702330
 30
0.0
  0
SPLINE
  5
280
100
AcDbEntity
  8
Ebene_1
 62
7
100
AcDbSpline
 70
8
 71
3
 72
8
 73
4
 74
0
 40
0
 40
0
 40
0
 40
0
 40
1
 40
1
 40
1
 40
1
 10
87.926414
 20
164.702330
 30
0.0
 10
88.275167
 20
164.629430
 30
0.0
 10
88.592963
 20
164.524570
 30
0.0
 10
88.882428
 20
164.391230
 30
0.0
  0
SPLINE
  5
281
100
AcDbEntity
  8
Ebene_1
 62
7
100
AcDbSpline
 70
8
 71
3
 72
8
 73
4
 74
0
 40
0
 40
0
 40
0
 40
0
 40
1
 40
1
 40
1
 40
1
 10
88.882428
 20
164.391230
 30
0.0
 10
88.894166
 20
164.382767
 30
0.0
 10
88.906616
 20
164.375339
 30
0.0
 10
88.919638
 20
164.369030
 30
0.0
  0
SPLINE
  5
282
100
AcDbEntity
  8
Ebene_1
 62
7
100
AcDbSpline
 70
8
 71
3
 72
8
 73
4
 74
0
 40
0
 40
0
 40
0
 40
0
 40
1
 40
1
 40
1
 40
1
 10
88.919638
 20
164.369030
 30
0.0
 10
89.735497
 20
163.975870
 30
0.0
 10
90.314075
 20
163.347870
 30
0.0
 10
90.632712
 20
162.489050
 30
0.0
  0
SPLINE
  5
283
100
AcDbEntity
  8
Ebene_1
 62
7
100
AcDbSpline
 70
8
 71
3
 72
8
 73
4
 74
0
 40
0
 40
0
 40
0
 40
0
 40
1
 40
1
 40
1
 40
1
 10
90.632712
 20
162.489050
 30
0.0
 10
90.633506
 20
162.487050
 30
0.0
 10
90.634612
 20
162.485050
 30
0.0
 10
90.635312
 20
162.483050
 30
0.0
  0
LINE
  5
284
100
AcDbEntity
  8
Ebene_1
 62
7
100
AcDbLine
 10
90.635312
 20
162.483050
 30
0.0
 11
90.635841
 21
162.482050
 31
0.0
  0
SPLINE
  5
285
100
AcDbEntity
  8
Ebene_1
 62
7
100
AcDbSpline
 70
8
 71
3
 72
8
 73
4
 74
0
 40
0
 40
0
 40
0
 40
0
 40
1
 40
1
 40
1
 40
1
 10
90.635841
 20
162.482050
 30
0.0
 10
90.651771
 20
162.438850
 30
0.0
 10
90.665671
 20
162.394150
 30
0.0
 10
90.680281
 20
162.349750
 30
0.0
  0
SPLINE
  5
286
100
AcDbEntity
  8
Ebene_1
 62
7
100
AcDbSpline
 70
8
 71
3
 72
8
 73
4
 74
0
 40
0
 40
0
 40
0
 40
0
 40
1
 40
1
 40
1
 40
1
 10
90.680281
 20
162.349750
 30
0.0
 10
90.694911
 20
162.304850
 30
0.0
 10
90.709351
 20
162.259950
 30
0.0
 10
90.722651
 20
162.213850
 30
0.0
  0
SPLINE
  5
287
100
AcDbEntity
  8
Ebene_1
 62
7
100
AcDbSpline
 70
8
 71
3
 72
8
 73
4
 74
0
 40
0
 40
0
 40
0
 40
0
 40
1
 40
1
 40
1
 40
1
 10
90.722651
 20
162.213850
 30
0.0
 10
90.733311
 20
162.177250
 30
0.0
 10
90.743311
 20
162.140150
 30
0.0
 10
90.753141
 20
162.102740
 30
0.0
  0
SPLINE
  5
288
100
AcDbEntity
  8
Ebene_1
 62
7
100
AcDbSpline
 70
8
 71
3
 72
8
 73
4
 74
0
 40
0
 40
0
 40
0
 40
0
 40
1
 40
1
 40
1
 40
1
 10
90.753141
 20
162.102740
 30
0.0
 10
90.763431
 20
162.063240
 30
0.0
 10
90.772721
 20
162.022740
 30
0.0
 10
90.782081
 20
161.982340
 30
0.0
  0
SPLINE
  5
289
100
AcDbEntity
  8
Ebene_1
 62
7
100
AcDbSpline
 70
8
 71
3
 72
8
 73
4
 74
0
 40
0
 40
0
 40
0
 40
0
 40
1
 40
1
 40
1
 40
1
 10
90.782081
 20
161.982340
 30
0.0
 10
90.813541
 20
161.847620
 30
0.0
 10
90.840491
 20
161.708870
 30
0.0
 10
90.861141
 20
161.564790
 30
0.0
  0
SPLINE
  5
28a
100
AcDbEntity
  8
Ebene_1
 62
7
100
AcDbSpline
 70
8
 71
3
 72
8
 73
4
 74
0
 40
0
 40
0
 40
0
 40
0
 40
1
 40
1
 40
1
 40
1
 10
90.861141
 20
161.564790
 30
0.0
 10
90.862241
 20
161.557790
 30
0.0
 10
90.863741
 20
161.551190
 30
0.0
 10
90.864741
 20
161.544090
 30
0.0
  0
SPLINE
  5
28b
100
AcDbEntity
  8
Ebene_1
 62
7
100
AcDbSpline
 70
8
 71
3
 72
8
 73
4
 74
0
 40
0
 40
0
 40
0
 40
0
 40
1
 40
1
 40
1
 40
1
 10
90.864741
 20
161.544090
 30
0.0
 10
90.889451
 20
161.366540
 30
0.0
 10
90.924731
 20
161.181820
 30
0.0
 10
90.962931
 20
161.022160
 30
0.0
  0
SPLINE
  5
28c
100
AcDbEntity
  8
Ebene_1
 62
7
100
AcDbSpline
 70
8
 71
3
 72
8
 73
4
 74
0
 40
0
 40
0
 40
0
 40
0
 40
1
 40
1
 40
1
 40
1
 10
90.962931
 20
161.022160
 30
0.0
 10
91.001121
 20
160.862500
 30
0.0
 10
91.032191
 20
160.740810
 30
0.0
 10
91.089536
 20
160.629930
 30
0.0
  0
SPLINE
  5
28d
100
AcDbEntity
  8
Ebene_1
 62
7
100
AcDbSpline
 70
8
 71
3
 72
8
 73
4
 74
0
 40
0
 40
0
 40
0
 40
0
 40
1
 40
1
 40
1
 40
1
 10
91.089536
 20
160.629930
 30
0.0
 10
91.183206
 20
160.448790
 30
0.0
 10
91.335001
 20
160.310610
 30
0.0
 10
91.506565
 20
160.206710
 30
0.0
  0
SPLINE
  5
28e
100
AcDbEntity
  8
Ebene_1
 62
7
100
AcDbSpline
 70
8
 71
3
 72
8
 73
4
 74
0
 40
0
 40
0
 40
0
 40
0
 40
1
 40
1
 40
1
 40
1
 10
91.506565
 20
160.206710
 30
0.0
 10
91.635240
 20
160.128810
 30
0.0
 10
91.776212
 20
160.069840
 30
0.0
 10
91.924628
 20
160.044960
 30
0.0
  0
SPLINE
  5
28f
100
AcDbEntity
  8
Ebene_1
 62
7
100
AcDbSpline
 70
8
 71
3
 72
8
 73
4
 74
0
 40
0
 40
0
 40
0
 40
0
 40
1
 40
1
 40
1
 40
1
 10
91.924628
 20
160.044960
 30
0.0
 10
91.974098
 20
160.036960
 30
0.0
 10
92.024488
 20
160.032160
 30
0.0
 10
92.075522
 20
160.032060
 30
0.0
  0
SPLINE
  5
290
100
AcDbEntity
  8
Ebene_1
 62
7
100
AcDbSpline
 70
8
 71
3
 72
8
 73
4
 74
0
 40
0
 40
0
 40
0
 40
0
 40
1
 40
1
 40
1
 40
1
 10
92.075522
 20
160.032060
 30
0.0
 10
92.577222
 20
160.030060
 30
0.0
 10
93.136186
 20
159.608910
 30
0.0
 10
93.256847
 20
159.160790
 30
0.0
  0
SPLINE
  5
291
100
AcDbEntity
  8
Ebene_1
 62
7
100
AcDbSpline
 70
8
 71
3
 72
8
 73
4
 74
0
 40
0
 40
0
 40
0
 40
0
 40
1
 40
1
 40
1
 40
1
 10
93.256847
 20
159.160790
 30
0.0
 10
93.408329
 20
158.598250
 30
0.0
 10
93.005117
 20
157.901020
 30
0.0
 10
92.432606
 20
157.745890
 30
0.0
  0
SPLINE
  5
292
100
AcDbEntity
  8
Ebene_1
 62
7
100
AcDbSpline
 70
8
 71
3
 72
8
 73
4
 74
0
 40
0
 40
0
 40
0
 40
0
 40
1
 40
1
 40
1
 40
1
 10
92.432606
 20
157.745890
 30
0.0
 10
92.455866
 20
157.751890
 30
0.0
 10
92.282897
 20
157.726990
 30
0.0
 10
92.046066
 20
157.716490
 30
0.0
  0
SPLINE
  5
293
100
AcDbEntity
  8
Ebene_1
 62
7
100
AcDbSpline
 70
8
 71
3
 72
8
 73
4
 74
0
 40
0
 40
0
 40
0
 40
0
 40
1
 40
1
 40
1
 40
1
 10
92.046066
 20
157.716490
 30
0.0
 10
91.809235
 20
157.706090
 30
0.0
 10
91.475963
 20
157.698490
 30
0.0
 10
91.047161
 20
157.691690
 30
0.0
  0
SPLINE
  5
294
100
AcDbEntity
  8
Ebene_1
 62
7
100
AcDbSpline
 70
8
 71
3
 72
8
 73
4
 74
0
 40
0
 40
0
 40
0
 40
0
 40
1
 40
1
 40
1
 40
1
 10
91.047161
 20
157.691690
 30
0.0
 10
90.189561
 20
157.677990
 30
0.0
 10
88.949711
 20
157.671090
 30
0.0
 10
87.325426
 20
157.672590
 30
0.0
  0
SPLINE
  5
295
100
AcDbEntity
  8
Ebene_1
 62
7
100
AcDbSpline
 70
8
 71
3
 72
8
 73
4
 74
0
 40
0
 40
0
 40
0
 40
0
 40
1
 40
1
 40
1
 40
1
 10
87.325426
 20
157.672590
 30
0.0
 10
85.044207
 20
157.674590
 30
0.0
 10
83.822578
 20
157.678590
 30
0.0
 10
83.123099
 20
157.698990
 30
0.0
  0
SPLINE
  5
296
100
AcDbEntity
  8
Ebene_1
 62
7
100
AcDbSpline
 70
8
 71
3
 72
8
 73
4
 74
0
 40
0
 40
0
 40
0
 40
0
 40
1
 40
1
 40
1
 40
1
 10
83.123099
 20
157.698990
 30
0.0
 10
82.423617
 20
157.719590
 30
0.0
 10
82.276379
 20
157.750590
 30
0.0
 10
82.064247
 20
157.817850
 30
0.0
  0
SPLINE
  5
297
100
AcDbEntity
  8
Ebene_1
 62
7
100
AcDbSpline
 70
8
 71
3
 72
8
 73
4
 74
0
 40
0
 40
0
 40
0
 40
0
 40
1
 40
1
 40
1
 40
1
 10
82.064247
 20
157.817850
 30
0.0
 10
80.972955
 20
158.163910
 30
0.0
 10
80.359357
 20
159.488180
 30
0.0
 10
80.818329
 20
160.436290
 30
0.0
  0
SPLINE
  5
298
100
AcDbEntity
  8
Ebene_1
 62
7
100
AcDbSpline
 70
8
 71
3
 72
8
 73
4
 74
0
 40
0
 40
0
 40
0
 40
0
 40
1
 40
1
 40
1
 40
1
 10
80.818329
 20
160.436290
 30
0.0
 10
81.172429
 20
161.167770
 30
0.0
 10
81.737383
 20
161.533300
 30
0.0
 10
82.654392
 20
161.602630
 30
0.0
  0
SPLINE
  5
299
100
AcDbEntity
  8
Ebene_1
 62
7
100
AcDbSpline
 70
8
 71
3
 72
8
 73
4
 74
0
 40
0
 40
0
 40
0
 40
0
 40
1
 40
1
 40
1
 40
1
 10
82.654392
 20
161.602630
 30
0.0
 10
83.041258
 20
161.631930
 30
0.0
 10
83.334771
 20
161.688630
 30
0.0
 10
83.578883
 20
161.863080
 30
0.0
  0
SPLINE
  5
29a
100
AcDbEntity
  8
Ebene_1
 62
7
100
AcDbSpline
 70
8
 71
3
 72
8
 73
4
 74
0
 40
0
 40
0
 40
0
 40
0
 40
1
 40
1
 40
1
 40
1
 10
83.578883
 20
161.863080
 30
0.0
 10
83.822996
 20
162.037490
 30
0.0
 10
83.977703
 20
162.297560
 30
0.0
 10
84.150426
 20
162.666650
 30
0.0
  0
SPLINE
  5
29b
100
AcDbEntity
  8
Ebene_1
 62
7
100
AcDbSpline
 70
8
 71
3
 72
8
 73
4
 74
0
 40
0
 40
0
 40
0
 40
0
 40
1
 40
1
 40
1
 40
1
 10
84.150426
 20
162.666650
 30
0.0
 10
84.382479
 20
163.162530
 30
0.0
 10
85.141227
 20
164.013730
 30
0.0
 10
85.540004
 20
164.247430
 30
0.0
  0
SPLINE
  5
29c
100
AcDbEntity
  8
Ebene_1
 62
7
100
AcDbSpline
 70
8
 71
3
 72
8
 73
4
 74
0
 40
0
 40
0
 40
0
 40
0
 40
1
 40
1
 40
1
 40
1
 10
85.540004
 20
164.247430
 30
0.0
 10
85.924716
 20
164.472850
 30
0.0
 10
86.334892
 20
164.625740
 30
0.0
 10
86.741998
 20
164.702700
 30
0.0
  0
SPLINE
  5
29d
100
AcDbEntity
  8
Ebene_1
 62
7
100
AcDbSpline
 70
8
 71
3
 72
8
 73
4
 74
0
 40
0
 40
0
 40
0
 40
0
 40
1
 40
1
 40
1
 40
1
 10
86.741998
 20
164.702700
 30
0.0
 10
86.945550
 20
164.741200
 30
0.0
 10
87.148509
 20
164.761000
 30
0.0
 10
87.347129
 20
164.761100
 30
0.0
  0
LINE
  5
29e
100
AcDbEntity
  8
Ebene_1
 62
7
100
AcDbLine
 10
87.347129
 20
164.761100
 30
0.0
 11
87.347122
 21
164.760730
 31
0.0
  0
SPLINE
  5
29f
100
AcDbEntity
  8
Ebene_1
 62
7
100
AcDbSpline
 70
8
 71
3
 72
8
 73
4
 74
0
 40
0
 40
0
 40
0
 40
0
 40
1
 40
1
 40
1
 40
1
 10
90.174857
 20
164.555570
 30
0.0
 10
90.692416
 20
164.555040
 30
0.0
 10
91.200964
 20
164.418500
 30
0.0
 10
91.649184
 20
164.159730
 30
0.0
  0
SPLINE
  5
2a0
100
AcDbEntity
  8
Ebene_1
 62
7
100
AcDbSpline
 70
8
 71
3
 72
8
 73
4
 74
0
 40
0
 40
0
 40
0
 40
0
 40
1
 40
1
 40
1
 40
1
 10
91.649184
 20
164.159730
 30
0.0
 10
92.992008
 20
163.384390
 30
0.0
 10
93.480810
 20
161.725530
 30
0.0
 10
92.830509
 20
160.348590
 30
0.0
  0
SPLINE
  5
2a1
100
AcDbEntity
  8
Ebene_1
 62
7
100
AcDbSpline
 70
8
 71
3
 72
8
 73
4
 74
0
 40
0
 40
0
 40
0
 40
0
 40
1
 40
1
 40
1
 40
1
 10
92.830509
 20
160.348590
 30
0.0
 10
92.659350
 20
160.432190
 30
0.0
 10
92.475782
 20
160.488170
 30
0.0
 10
92.285840
 20
160.512920
 30
0.0
  0
SPLINE
  5
2a2
100
AcDbEntity
  8
Ebene_1
 62
7
100
AcDbSpline
 70
8
 71
3
 72
8
 73
4
 74
0
 40
0
 40
0
 40
0
 40
0
 40
1
 40
1
 40
1
 40
1
 10
92.285840
 20
160.512920
 30
0.0
 10
92.217390
 20
160.524320
 30
0.0
 10
92.147876
 20
160.531320
 30
0.0
 10
92.077065
 20
160.531520
 30
0.0
  0
LINE
  5
2a3
100
AcDbEntity
  8
Ebene_1
 62
7
100
AcDbLine
 10
92.077065
 20
160.531520
 30
0.0
 11
92.076536
 21
160.531520
 31
0.0
  0
SPLINE
  5
2a4
100
AcDbEntity
  8
Ebene_1
 62
7
100
AcDbSpline
 70
8
 71
3
 72
8
 73
4
 74
0
 40
0
 40
0
 40
0
 40
0
 40
1
 40
1
 40
1
 40
1
 10
92.076536
 20
160.531520
 30
0.0
 10
92.038856
 20
160.531600
 30
0.0
 10
91.988716
 20
160.541520
 30
0.0
 10
91.934426
 20
160.558920
 30
0.0
  0
LINE
  5
2a5
100
AcDbEntity
  8
Ebene_1
 62
7
100
AcDbLine
 10
91.934426
 20
160.558920
 30
0.0
 11
91.933897
 21
160.558920
 31
0.0
  0
SPLINE
  5
2a6
100
AcDbEntity
  8
Ebene_1
 62
7
100
AcDbSpline
 70
8
 71
3
 72
8
 73
4
 74
0
 40
0
 40
0
 40
0
 40
0
 40
1
 40
1
 40
1
 40
1
 10
91.933897
 20
160.558920
 30
0.0
 10
91.879557
 20
160.576720
 30
0.0
 10
91.821221
 20
160.602520
 30
0.0
 10
91.766982
 20
160.635420
 30
0.0
  0
SPLINE
  5
2a7
100
AcDbEntity
  8
Ebene_1
 62
7
100
AcDbSpline
 70
8
 71
3
 72
8
 73
4
 74
0
 40
0
 40
0
 40
0
 40
0
 40
1
 40
1
 40
1
 40
1
 10
91.766982
 20
160.635420
 30
0.0
 10
91.712602
 20
160.668320
 30
0.0
 10
91.662559
 20
160.708020
 30
0.0
 10
91.622286
 20
160.747560
 30
0.0
  0
SPLINE
  5
2a8
100
AcDbEntity
  8
Ebene_1
 62
7
100
AcDbSpline
 70
8
 71
3
 72
8
 73
4
 74
0
 40
0
 40
0
 40
0
 40
0
 40
1
 40
1
 40
1
 40
1
 10
91.622286
 20
160.747560
 30
0.0
 10
91.582016
 20
160.787060
 30
0.0
 10
91.551116
 20
160.826960
 30
0.0
 10
91.534436
 20
160.859180
 30
0.0
  0
SPLINE
  5
2a9
100
AcDbEntity
  8
Ebene_1
 62
7
100
AcDbSpline
 70
8
 71
3
 72
8
 73
4
 74
0
 40
0
 40
0
 40
0
 40
0
 40
1
 40
1
 40
1
 40
1
 10
91.534436
 20
160.859180
 30
0.0
 10
91.529036
 20
160.869680
 30
0.0
 10
91.484296
 20
160.995640
 30
0.0
 10
91.450206
 20
161.138230
 30
0.0
  0
SPLINE
  5
2aa
100
AcDbEntity
  8
Ebene_1
 62
7
100
AcDbSpline
 70
8
 71
3
 72
8
 73
4
 74
0
 40
0
 40
0
 40
0
 40
0
 40
1
 40
1
 40
1
 40
1
 10
91.450206
 20
161.138230
 30
0.0
 10
91.416106
 20
161.280830
 30
0.0
 10
91.382996
 20
161.453100
 30
0.0
 10
91.360806
 20
161.612620
 30
0.0
  0
SPLINE
  5
2ab
100
AcDbEntity
  8
Ebene_1
 62
7
100
AcDbSpline
 70
8
 71
3
 72
8
 73
4
 74
0
 40
0
 40
0
 40
0
 40
0
 40
1
 40
1
 40
1
 40
1
 10
91.360806
 20
161.612620
 30
0.0
 10
91.357006
 20
161.639920
 30
0.0
 10
91.350006
 20
161.665220
 30
0.0
 10
91.345826
 20
161.692220
 30
0.0
  0
SPLINE
  5
2ac
100
AcDbEntity
  8
Ebene_1
 62
7
100
AcDbSpline
 70
8
 71
3
 72
8
 73
4
 74
0
 40
0
 40
0
 40
0
 40
0
 40
1
 40
1
 40
1
 40
1
 10
91.345826
 20
161.692220
 30
0.0
 10
91.328576
 20
161.803850
 30
0.0
 10
91.308666
 20
161.913610
 30
0.0
 10
91.284846
 20
162.020890
 30
0.0
  0
SPLINE
  5
2ad
100
AcDbEntity
  8
Ebene_1
 62
7
100
AcDbSpline
 70
8
 71
3
 72
8
 73
4
 74
0
 40
0
 40
0
 40
0
 40
0
 40
1
 40
1
 40
1
 40
1
 10
91.284846
 20
162.020890
 30
0.0
 10
91.276746
 20
162.056990
 30
0.0
 10
91.267406
 20
162.092290
 30
0.0
 10
91.258496
 20
162.127850
 30
0.0
  0
SPLINE
  5
2ae
100
AcDbEntity
  8
Ebene_1
 62
7
100
AcDbSpline
 70
8
 71
3
 72
8
 73
4
 74
0
 40
0
 40
0
 40
0
 40
0
 40
1
 40
1
 40
1
 40
1
 10
91.258496
 20
162.127850
 30
0.0
 10
91.227756
 20
162.252910
 30
0.0
 10
91.192746
 20
162.374990
 30
0.0
 10
91.153075
 20
162.493730
 30
0.0
  0
SPLINE
  5
2af
100
AcDbEntity
  8
Ebene_1
 62
7
100
AcDbSpline
 70
8
 71
3
 72
8
 73
4
 74
0
 40
0
 40
0
 40
0
 40
0
 40
1
 40
1
 40
1
 40
1
 10
91.153075
 20
162.493730
 30
0.0
 10
90.876511
 20
163.321420
 30
0.0
 10
90.385593
 20
163.992150
 30
0.0
 10
89.712855
 20
164.471900
 30
0.0
  0
SPLINE
  5
2b0
100
AcDbEntity
  8
Ebene_1
 62
7
100
AcDbSpline
 70
8
 71
3
 72
8
 73
4
 74
0
 40
0
 40
0
 40
0
 40
0
 40
1
 40
1
 40
1
 40
1
 10
89.712855
 20
164.471900
 30
0.0
 10
89.867200
 20
164.501900
 30
0.0
 10
90.016928
 20
164.555700
 30
0.0
 10
90.174842
 20
164.555600
 30
0.0
  0
LINE
  5
2b1
100
AcDbEntity
  8
Ebene_1
 62
7
100
AcDbLine
 10
90.174842
 20
164.555600
 30
0.0
 11
90.174857
 21
164.555570
 31
0.0
  0
SPLINE
  5
2b2
100
AcDbEntity
  8
Ebene_1
 62
7
100
AcDbSpline
 70
8
 71
3
 72
8
 73
4
 74
0
 40
0
 40
0
 40
0
 40
0
 40
1
 40
1
 40
1
 40
1
 10
94.173063
 20
161.873560
 30
0.0
 10
94.166853
 20
161.873458
 30
0.0
 10
94.160648
 20
161.873124
 30
0.0
 10
94.154463
 20
161.872560
 30
0.0
  0
SPLINE
  5
2b3
100
AcDbEntity
  8
Ebene_1
 62
7
100
AcDbSpline
 70
8
 71
3
 72
8
 73
4
 74
0
 40
0
 40
0
 40
0
 40
0
 40
1
 40
1
 40
1
 40
1
 10
94.154463
 20
161.872560
 30
0.0
 10
94.148240
 20
161.872126
 30
0.0
 10
94.142036
 20
161.871458
 30
0.0
 10
94.135863
 20
161.870560
 30
0.0
  0
SPLINE
  5
2b4
100
AcDbEntity
  8
Ebene_1
 62
7
100
AcDbSpline
 70
8
 71
3
 72
8
 73
4
 74
0
 40
0
 40
0
 40
0
 40
0
 40
1
 40
1
 40
1
 40
1
 10
94.135863
 20
161.870560
 30
0.0
 10
94.129782
 20
161.869451
 30
0.0
 10
94.123745
 20
161.868117
 30
0.0
 10
94.117763
 20
161.866560
 30
0.0
  0
SPLINE
  5
2b5
100
AcDbEntity
  8
Ebene_1
 62
7
100
AcDbSpline
 70
8
 71
3
 72
8
 73
4
 74
0
 40
0
 40
0
 40
0
 40
0
 40
1
 40
1
 40
1
 40
1
 10
94.117763
 20
161.866560
 30
0.0
 10
94.099354
 20
161.862227
 30
0.0
 10
94.081497
 20
161.855819
 30
0.0
 10
94.064533
 20
161.847460
 30
0.0
  0
SPLINE
  5
2b6
100
AcDbEntity
  8
Ebene_1
 62
7
100
AcDbSpline
 70
8
 71
3
 72
8
 73
4
 74
0
 40
0
 40
0
 40
0
 40
0
 40
1
 40
1
 40
1
 40
1
 10
94.064533
 20
161.847460
 30
0.0
 10
94.059088
 20
161.844657
 30
0.0
 10
94.053748
 20
161.841655
 30
0.0
 10
94.048523
 20
161.838460
 30
0.0
  0
SPLINE
  5
2b7
100
AcDbEntity
  8
Ebene_1
 62
7
100
AcDbSpline
 70
8
 71
3
 72
8
 73
4
 74
0
 40
0
 40
0
 40
0
 40
0
 40
1
 40
1
 40
1
 40
1
 10
94.048523
 20
161.838460
 30
0.0
 10
94.043058
 20
161.835231
 30
0.0
 10
94.037717
 20
161.831795
 30
0.0
 10
94.032513
 20
161.828160
 30
0.0
  0
SPLINE
  5
2b8
100
AcDbEntity
  8
Ebene_1
 62
7
100
AcDbSpline
 70
8
 71
3
 72
8
 73
4
 74
0
 40
0
 40
0
 40
0
 40
0
 40
1
 40
1
 40
1
 40
1
 10
94.032513
 20
161.828160
 30
0.0
 10
94.022267
 20
161.820802
 30
0.0
 10
94.012593
 20
161.812678
 30
0.0
 10
94.003573
 20
161.803860
 30
0.0
  0
SPLINE
  5
2b9
100
AcDbEntity
  8
Ebene_1
 62
7
100
AcDbSpline
 70
8
 71
3
 72
8
 73
4
 74
0
 40
0
 40
0
 40
0
 40
0
 40
1
 40
1
 40
1
 40
1
 10
94.003573
 20
161.803860
 30
0.0
 10
93.999114
 20
161.799719
 30
0.0
 10
93.994808
 20
161.795416
 30
0.0
 10
93.990663
 20
161.790960
 30
0.0
  0
SPLINE
  5
2ba
100
AcDbEntity
  8
Ebene_1
 62
7
100
AcDbSpline
 70
8
 71
3
 72
8
 73
4
 74
0
 40
0
 40
0
 40
0
 40
0
 40
1
 40
1
 40
1
 40
1
 10
93.990663
 20
161.790960
 30
0.0
 10
93.978114
 20
161.776902
 30
0.0
 10
93.967195
 20
161.761471
 30
0.0
 10
93.958113
 20
161.744960
 30
0.0
  0
SPLINE
  5
2bb
100
AcDbEntity
  8
Ebene_1
 62
7
100
AcDbSpline
 70
8
 71
3
 72
8
 73
4
 74
0
 40
0
 40
0
 40
0
 40
0
 40
1
 40
1
 40
1
 40
1
 10
93.958113
 20
161.744960
 30
0.0
 10
93.942840
 20
161.717600
 30
0.0
 10
93.932847
 20
161.687612
 30
0.0
 10
93.928653
 20
161.656560
 30
0.0
  0
SPLINE
  5
2bc
100
AcDbEntity
  8
Ebene_1
 62
7
100
AcDbSpline
 70
8
 71
3
 72
8
 73
4
 74
0
 40
0
 40
0
 40
0
 40
0
 40
1
 40
1
 40
1
 40
1
 10
93.928653
 20
161.656560
 30
0.0
 10
93.927876
 20
161.650216
 30
0.0
 10
93.927342
 20
161.643845
 30
0.0
 10
93.927053
 20
161.637460
 30
0.0
  0
SPLINE
  5
2bd
100
AcDbEntity
  8
Ebene_1
 62
7
100
AcDbSpline
 70
8
 71
3
 72
8
 73
4
 74
0
 40
0
 40
0
 40
0
 40
0
 40
1
 40
1
 40
1
 40
1
 10
93.927053
 20
161.637460
 30
0.0
 10
93.926646
 20
161.631269
 30
0.0
 10
93.926469
 20
161.625064
 30
0.0
 10
93.926524
 20
161.618860
 30
0.0
  0
SPLINE
  5
2be
100
AcDbEntity
  8
Ebene_1
 62
7
100
AcDbSpline
 70
8
 71
3
 72
8
 73
4
 74
0
 40
0
 40
0
 40
0
 40
0
 40
1
 40
1
 40
1
 40
1
 10
93.926524
 20
161.618860
 30
0.0
 10
93.926659
 20
161.612648
 30
0.0
 10
93.927026
 20
161.606444
 30
0.0
 10
93.927624
 20
161.600260
 30
0.0
  0
SPLINE
  5
2bf
100
AcDbEntity
  8
Ebene_1
 62
7
100
AcDbSpline
 70
8
 71
3
 72
8
 73
4
 74
0
 40
0
 40
0
 40
0
 40
0
 40
1
 40
1
 40
1
 40
1
 10
93.927624
 20
161.600260
 30
0.0
 10
93.928257
 20
161.594030
 30
0.0
 10
93.929125
 20
161.587825
 30
0.0
 10
93.930224
 20
161.581660
 30
0.0
  0
SPLINE
  5
2c0
100
AcDbEntity
  8
Ebene_1
 62
7
100
AcDbSpline
 70
8
 71
3
 72
8
 73
4
 74
0
 40
0
 40
0
 40
0
 40
0
 40
1
 40
1
 40
1
 40
1
 10
93.930224
 20
161.581660
 30
0.0
 10
93.931201
 20
161.575584
 30
0.0
 10
93.932402
 20
161.569547
 30
0.0
 10
93.933824
 20
161.563560
 30
0.0
  0
SPLINE
  5
2c1
100
AcDbEntity
  8
Ebene_1
 62
7
100
AcDbSpline
 70
8
 71
3
 72
8
 73
4
 74
0
 40
0
 40
0
 40
0
 40
0
 40
1
 40
1
 40
1
 40
1
 10
93.933824
 20
161.563560
 30
0.0
 10
93.936882
 20
161.551379
 30
0.0
 10
93.940853
 20
161.539445
 30
0.0
 10
93.945704
 20
161.527860
 30
0.0
  0
SPLINE
  5
2c2
100
AcDbEntity
  8
Ebene_1
 62
7
100
AcDbSpline
 70
8
 71
3
 72
8
 73
4
 74
0
 40
0
 40
0
 40
0
 40
0
 40
1
 40
1
 40
1
 40
1
 10
93.945704
 20
161.527860
 30
0.0
 10
93.950541
 20
161.516246
 30
0.0
 10
93.956247
 20
161.505015
 30
0.0
 10
93.962774
 20
161.494260
 30
0.0
  0
SPLINE
  5
2c3
100
AcDbEntity
  8
Ebene_1
 62
7
100
AcDbSpline
 70
8
 71
3
 72
8
 73
4
 74
0
 40
0
 40
0
 40
0
 40
0
 40
1
 40
1
 40
1
 40
1
 10
93.962774
 20
161.494260
 30
0.0
 10
93.969235
 20
161.483565
 30
0.0
 10
93.976489
 20
161.473370
 30
0.0
 10
93.984474
 20
161.463760
 30
0.0
  0
SPLINE
  5
2c4
100
AcDbEntity
  8
Ebene_1
 62
7
100
AcDbSpline
 70
8
 71
3
 72
8
 73
4
 74
0
 40
0
 40
0
 40
0
 40
0
 40
1
 40
1
 40
1
 40
1
 10
93.984474
 20
161.463760
 30
0.0
 10
94.016740
 20
161.425000
 30
0.0
 10
94.059973
 20
161.396903
 30
0.0
 10
94.108497
 20
161.383160
 30
0.0
  0
SPLINE
  5
2c5
100
AcDbEntity
  8
Ebene_1
 62
7
100
AcDbSpline
 70
8
 71
3
 72
8
 73
4
 74
0
 40
0
 40
0
 40
0
 40
0
 40
1
 40
1
 40
1
 40
1
 10
94.108497
 20
161.383160
 30
0.0
 10
94.129542
 20
161.377353
 30
0.0
 10
94.151256
 20
161.374327
 30
0.0
 10
94.173087
 20
161.374160
 30
0.0
  0
LINE
  5
2c6
100
AcDbEntity
  8
Ebene_1
 62
7
100
AcDbLine
 10
94.173087
 20
161.374160
 30
0.0
 11
96.249963
 21
161.374160
 31
0.0
  0
SPLINE
  5
2c7
100
AcDbEntity
  8
Ebene_1
 62
7
100
AcDbSpline
 70
8
 71
3
 72
8
 73
4
 74
0
 40
0
 40
0
 40
0
 40
0
 40
1
 40
1
 40
1
 40
1
 10
96.249963
 20
161.374160
 30
0.0
 10
96.268596
 20
161.374426
 30
0.0
 10
96.287141
 20
161.376773
 30
0.0
 10
96.305253
 20
161.381160
 30
0.0
  0
SPLINE
  5
2c8
100
AcDbEntity
  8
Ebene_1
 62
7
100
AcDbSpline
 70
8
 71
3
 72
8
 73
4
 74
0
 40
0
 40
0
 40
0
 40
0
 40
1
 40
1
 40
1
 40
1
 10
96.305253
 20
161.381160
 30
0.0
 10
96.311347
 20
161.382599
 30
0.0
 10
96.317384
 20
161.384267
 30
0.0
 10
96.323353
 20
161.386160
 30
0.0
  0
SPLINE
  5
2c9
100
AcDbEntity
  8
Ebene_1
 62
7
100
AcDbSpline
 70
8
 71
3
 72
8
 73
4
 74
0
 40
0
 40
0
 40
0
 40
0
 40
1
 40
1
 40
1
 40
1
 10
96.323353
 20
161.386160
 30
0.0
 10
96.329296
 20
161.388271
 30
0.0
 10
96.335157
 20
161.390606
 30
0.0
 10
96.340923
 20
161.393160
 30
0.0
  0
SPLINE
  5
2ca
100
AcDbEntity
  8
Ebene_1
 62
7
100
AcDbSpline
 70
8
 71
3
 72
8
 73
4
 74
0
 40
0
 40
0
 40
0
 40
0
 40
1
 40
1
 40
1
 40
1
 10
96.340923
 20
161.393160
 30
0.0
 10
96.346712
 20
161.395611
 30
0.0
 10
96.352406
 20
161.398280
 30
0.0
 10
96.357993
 20
161.401160
 30
0.0
  0
SPLINE
  5
2cb
100
AcDbEntity
  8
Ebene_1
 62
7
100
AcDbSpline
 70
8
 71
3
 72
8
 73
4
 74
0
 40
0
 40
0
 40
0
 40
0
 40
1
 40
1
 40
1
 40
1
 10
96.357993
 20
161.401160
 30
0.0
 10
96.363617
 20
161.403951
 30
0.0
 10
96.369135
 20
161.406953
 30
0.0
 10
96.374533
 20
161.410160
 30
0.0
  0
SPLINE
  5
2cc
100
AcDbEntity
  8
Ebene_1
 62
7
100
AcDbSpline
 70
8
 71
3
 72
8
 73
4
 74
0
 40
0
 40
0
 40
0
 40
0
 40
1
 40
1
 40
1
 40
1
 10
96.374533
 20
161.410160
 30
0.0
 10
96.379998
 20
161.413389
 30
0.0
 10
96.385339
 20
161.416825
 30
0.0
 10
96.390543
 20
161.420460
 30
0.0
  0
SPLINE
  5
2cd
100
AcDbEntity
  8
Ebene_1
 62
7
100
AcDbSpline
 70
8
 71
3
 72
8
 73
4
 74
0
 40
0
 40
0
 40
0
 40
0
 40
1
 40
1
 40
1
 40
1
 10
96.390543
 20
161.420460
 30
0.0
 10
96.395505
 20
161.424081
 30
0.0
 10
96.400331
 20
161.427884
 30
0.0
 10
96.405013
 20
161.431860
 30
0.0
  0
SPLINE
  5
2ce
100
AcDbEntity
  8
Ebene_1
 62
7
100
AcDbSpline
 70
8
 71
3
 72
8
 73
4
 74
0
 40
0
 40
0
 40
0
 40
0
 40
1
 40
1
 40
1
 40
1
 10
96.405013
 20
161.431860
 30
0.0
 10
96.414782
 20
161.439792
 30
0.0
 10
96.423938
 20
161.448450
 30
0.0
 10
96.432403
 20
161.457760
 30
0.0
  0
SPLINE
  5
2cf
100
AcDbEntity
  8
Ebene_1
 62
7
100
AcDbSpline
 70
8
 71
3
 72
8
 73
4
 74
0
 40
0
 40
0
 40
0
 40
0
 40
1
 40
1
 40
1
 40
1
 10
96.432403
 20
161.457760
 30
0.0
 10
96.449061
 20
161.476433
 30
0.0
 10
96.462821
 20
161.497501
 30
0.0
 10
96.473223
 20
161.520260
 30
0.0
  0
SPLINE
  5
2d0
100
AcDbEntity
  8
Ebene_1
 62
7
100
AcDbSpline
 70
8
 71
3
 72
8
 73
4
 74
0
 40
0
 40
0
 40
0
 40
0
 40
1
 40
1
 40
1
 40
1
 10
96.473223
 20
161.520260
 30
0.0
 10
96.475845
 20
161.526033
 30
0.0
 10
96.478247
 20
161.531904
 30
0.0
 10
96.480423
 20
161.537860
 30
0.0
  0
SPLINE
  5
2d1
100
AcDbEntity
  8
Ebene_1
 62
7
100
AcDbSpline
 70
8
 71
3
 72
8
 73
4
 74
0
 40
0
 40
0
 40
0
 40
0
 40
1
 40
1
 40
1
 40
1
 10
96.480423
 20
161.537860
 30
0.0
 10
96.482720
 20
161.543812
 30
0.0
 10
96.484788
 20
161.549850
 30
0.0
 10
96.486623
 20
161.555960
 30
0.0
  0
SPLINE
  5
2d2
100
AcDbEntity
  8
Ebene_1
 62
7
100
AcDbSpline
 70
8
 71
3
 72
8
 73
4
 74
0
 40
0
 40
0
 40
0
 40
0
 40
1
 40
1
 40
1
 40
1
 10
96.486623
 20
161.555960
 30
0.0
 10
96.488201
 20
161.561775
 30
0.0
 10
96.489569
 20
161.567646
 30
0.0
 10
96.490723
 20
161.573560
 30
0.0
  0
SPLINE
  5
2d3
100
AcDbEntity
  8
Ebene_1
 62
7
100
AcDbSpline
 70
8
 71
3
 72
8
 73
4
 74
0
 40
0
 40
0
 40
0
 40
0
 40
1
 40
1
 40
1
 40
1
 10
96.490723
 20
161.573560
 30
0.0
 10
96.493387
 20
161.585812
 30
0.0
 10
96.495125
 20
161.598247
 30
0.0
 10
96.495923
 20
161.610760
 30
0.0
  0
SPLINE
  5
2d4
100
AcDbEntity
  8
Ebene_1
 62
7
100
AcDbSpline
 70
8
 71
3
 72
8
 73
4
 74
0
 40
0
 40
0
 40
0
 40
0
 40
1
 40
1
 40
1
 40
1
 10
96.495923
 20
161.610760
 30
0.0
 10
96.496343
 20
161.617118
 30
0.0
 10
96.496519
 20
161.623489
 30
0.0
 10
96.496452
 20
161.629860
 30
0.0
  0
SPLINE
  5
2d5
100
AcDbEntity
  8
Ebene_1
 62
7
100
AcDbSpline
 70
8
 71
3
 72
8
 73
4
 74
0
 40
0
 40
0
 40
0
 40
0
 40
1
 40
1
 40
1
 40
1
 10
96.496452
 20
161.629860
 30
0.0
 10
96.496150
 20
161.636078
 30
0.0
 10
96.495617
 20
161.642282
 30
0.0
 10
96.494852
 20
161.648460
 30
0.0
  0
SPLINE
  5
2d6
100
AcDbEntity
  8
Ebene_1
 62
7
100
AcDbSpline
 70
8
 71
3
 72
8
 73
4
 74
0
 40
0
 40
0
 40
0
 40
0
 40
1
 40
1
 40
1
 40
1
 10
96.494852
 20
161.648460
 30
0.0
 10
96.494384
 20
161.654684
 30
0.0
 10
96.493684
 20
161.660888
 30
0.0
 10
96.492752
 20
161.667060
 30
0.0
  0
SPLINE
  5
2d7
100
AcDbEntity
  8
Ebene_1
 62
7
100
AcDbSpline
 70
8
 71
3
 72
8
 73
4
 74
0
 40
0
 40
0
 40
0
 40
0
 40
1
 40
1
 40
1
 40
1
 10
96.492752
 20
161.667060
 30
0.0
 10
96.491610
 20
161.673142
 30
0.0
 10
96.490242
 20
161.679179
 30
0.0
 10
96.488652
 20
161.685160
 30
0.0
  0
SPLINE
  5
2d8
100
AcDbEntity
  8
Ebene_1
 62
7
100
AcDbSpline
 70
8
 71
3
 72
8
 73
4
 74
0
 40
0
 40
0
 40
0
 40
0
 40
1
 40
1
 40
1
 40
1
 10
96.488652
 20
161.685160
 30
0.0
 10
96.485757
 20
161.697328
 30
0.0
 10
96.481953
 20
161.709261
 30
0.0
 10
96.477272
 20
161.720860
 30
0.0
  0
SPLINE
  5
2d9
100
AcDbEntity
  8
Ebene_1
 62
7
100
AcDbSpline
 70
8
 71
3
 72
8
 73
4
 74
0
 40
0
 40
0
 40
0
 40
0
 40
1
 40
1
 40
1
 40
1
 10
96.477272
 20
161.720860
 30
0.0
 10
96.472445
 20
161.732473
 30
0.0
 10
96.466749
 20
161.743704
 30
0.0
 10
96.460232
 20
161.754460
 30
0.0
  0
SPLINE
  5
2da
100
AcDbEntity
  8
Ebene_1
 62
7
100
AcDbSpline
 70
8
 71
3
 72
8
 73
4
 74
0
 40
0
 40
0
 40
0
 40
0
 40
1
 40
1
 40
1
 40
1
 10
96.460232
 20
161.754460
 30
0.0
 10
96.456976
 20
161.759754
 30
0.0
 10
96.453523
 20
161.764924
 30
0.0
 10
96.449882
 20
161.769960
 30
0.0
  0
SPLINE
  5
2db
100
AcDbEntity
  8
Ebene_1
 62
7
100
AcDbSpline
 70
8
 71
3
 72
8
 73
4
 74
0
 40
0
 40
0
 40
0
 40
0
 40
1
 40
1
 40
1
 40
1
 10
96.449882
 20
161.769960
 30
0.0
 10
96.442525
 20
161.780192
 30
0.0
 10
96.434405
 20
161.789853
 30
0.0
 10
96.425592
 20
161.798860
 30
0.0
  0
SPLINE
  5
2dc
100
AcDbEntity
  8
Ebene_1
 62
7
100
AcDbSpline
 70
8
 71
3
 72
8
 73
4
 74
0
 40
0
 40
0
 40
0
 40
0
 40
1
 40
1
 40
1
 40
1
 10
96.425592
 20
161.798860
 30
0.0
 10
96.412672
 20
161.812323
 30
0.0
 10
96.398286
 20
161.824298
 30
0.0
 10
96.382702
 20
161.834560
 30
0.0
  0
SPLINE
  5
2dd
100
AcDbEntity
  8
Ebene_1
 62
7
100
AcDbSpline
 70
8
 71
3
 72
8
 73
4
 74
0
 40
0
 40
0
 40
0
 40
0
 40
1
 40
1
 40
1
 40
1
 10
96.382702
 20
161.834560
 30
0.0
 10
96.372150
 20
161.841417
 30
0.0
 10
96.361095
 20
161.847468
 30
0.0
 10
96.349632
 20
161.852660
 30
0.0
  0
SPLINE
  5
2de
100
AcDbEntity
  8
Ebene_1
 62
7
100
AcDbSpline
 70
8
 71
3
 72
8
 73
4
 74
0
 40
0
 40
0
 40
0
 40
0
 40
1
 40
1
 40
1
 40
1
 10
96.349632
 20
161.852660
 30
0.0
 10
96.343866
 20
161.855214
 30
0.0
 10
96.338005
 20
161.857549
 30
0.0
 10
96.332062
 20
161.859660
 30
0.0
  0
SPLINE
  5
2df
100
AcDbEntity
  8
Ebene_1
 62
7
100
AcDbSpline
 70
8
 71
3
 72
8
 73
4
 74
0
 40
0
 40
0
 40
0
 40
0
 40
1
 40
1
 40
1
 40
1
 10
96.332062
 20
161.859660
 30
0.0
 10
96.320442
 20
161.863870
 30
0.0
 10
96.308526
 20
161.867212
 30
0.0
 10
96.296412
 20
161.869660
 30
0.0
  0
SPLINE
  5
2e0
100
AcDbEntity
  8
Ebene_1
 62
7
100
AcDbSpline
 70
8
 71
3
 72
8
 73
4
 74
0
 40
0
 40
0
 40
0
 40
0
 40
1
 40
1
 40
1
 40
1
 10
96.296412
 20
161.869660
 30
0.0
 10
96.281099
 20
161.872776
 30
0.0
 10
96.265528
 20
161.874450
 30
0.0
 10
96.249902
 20
161.874660
 30
0.0
  0
LINE
  5
2e1
100
AcDbEntity
  8
Ebene_1
 62
7
100
AcDbLine
 10
96.249902
 20
161.874660
 30
0.0
 11
94.173063
 21
161.873560
 31
0.0
  0
SPLINE
  5
2e2
100
AcDbEntity
  8
Ebene_1
 62
7
100
AcDbSpline
 70
8
 71
3
 72
8
 73
4
 74
0
 40
0
 40
0
 40
0
 40
0
 40
1
 40
1
 40
1
 40
1
 10
121.313540
 20
167.203890
 30
0.0
 10
120.817970
 20
167.110190
 30
0.0
 10
120.324890
 20
166.924830
 30
0.0
 10
119.864270
 20
166.654930
 30
0.0
  0
SPLINE
  5
2e3
100
AcDbEntity
  8
Ebene_1
 62
7
100
AcDbSpline
 70
8
 71
3
 72
8
 73
4
 74
0
 40
0
 40
0
 40
0
 40
0
 40
1
 40
1
 40
1
 40
1
 10
119.864270
 20
166.654930
 30
0.0
 10
119.255200
 20
166.297980
 30
0.0
 10
118.493590
 20
165.423930
 30
0.0
 10
118.173450
 20
164.739810
 30
0.0
  0
SPLINE
  5
2e4
100
AcDbEntity
  8
Ebene_1
 62
7
100
AcDbSpline
 70
8
 71
3
 72
8
 73
4
 74
0
 40
0
 40
0
 40
0
 40
0
 40
1
 40
1
 40
1
 40
1
 10
118.173450
 20
164.739810
 30
0.0
 10
118.000740
 20
164.370760
 30
0.0
 10
117.873840
 20
164.184580
 30
0.0
 10
117.731140
 20
164.082620
 30
0.0
  0
SPLINE
  5
2e5
100
AcDbEntity
  8
Ebene_1
 62
7
100
AcDbSpline
 70
8
 71
3
 72
8
 73
4
 74
0
 40
0
 40
0
 40
0
 40
0
 40
1
 40
1
 40
1
 40
1
 10
117.731140
 20
164.082620
 30
0.0
 10
117.588430
 20
163.980660
 30
0.0
 10
117.388800
 20
163.929590
 30
0.0
 10
117.006500
 20
163.900680
 30
0.0
  0
SPLINE
  5
2e6
100
AcDbEntity
  8
Ebene_1
 62
7
100
AcDbSpline
 70
8
 71
3
 72
8
 73
4
 74
0
 40
0
 40
0
 40
0
 40
0
 40
1
 40
1
 40
1
 40
1
 10
117.006500
 20
163.900680
 30
0.0
 10
115.895180
 20
163.816680
 30
0.0
 10
115.069380
 20
163.291700
 30
0.0
 10
114.620850
 20
162.365140
 30
0.0
  0
SPLINE
  5
2e7
100
AcDbEntity
  8
Ebene_1
 62
7
100
AcDbSpline
 70
8
 71
3
 72
8
 73
4
 74
0
 40
0
 40
0
 40
0
 40
0
 40
1
 40
1
 40
1
 40
1
 10
114.620850
 20
162.365140
 30
0.0
 10
113.976060
 20
161.033180
 30
0.0
 10
114.791560
 20
159.316890
 30
0.0
 10
116.258330
 20
158.851750
 30
0.0
  0
SPLINE
  5
2e8
100
AcDbEntity
  8
Ebene_1
 62
7
100
AcDbSpline
 70
8
 71
3
 72
8
 73
4
 74
0
 40
0
 40
0
 40
0
 40
0
 40
1
 40
1
 40
1
 40
1
 10
116.258330
 20
158.851750
 30
0.0
 10
116.515120
 20
158.770350
 30
0.0
 10
116.767770
 20
158.722050
 30
0.0
 10
117.530370
 20
158.699610
 30
0.0
  0
SPLINE
  5
2e9
100
AcDbEntity
  8
Ebene_1
 62
7
100
AcDbSpline
 70
8
 71
3
 72
8
 73
4
 74
0
 40
0
 40
0
 40
0
 40
0
 40
1
 40
1
 40
1
 40
1
 10
117.530370
 20
158.699610
 30
0.0
 10
118.292980
 20
158.677110
 30
0.0
 10
119.596250
 20
158.674910
 30
0.0
 10
122.031900
 20
158.672910
 30
0.0
  0
SPLINE
  5
2ea
100
AcDbEntity
  8
Ebene_1
 62
7
100
AcDbSpline
 70
8
 71
3
 72
8
 73
4
 74
0
 40
0
 40
0
 40
0
 40
0
 40
1
 40
1
 40
1
 40
1
 10
122.031900
 20
158.672910
 30
0.0
 10
123.767440
 20
158.670910
 30
0.0
 10
125.091710
 20
158.676910
 30
0.0
 10
126.012700
 20
158.691710
 30
0.0
  0
SPLINE
  5
2eb
100
AcDbEntity
  8
Ebene_1
 62
7
100
AcDbSpline
 70
8
 71
3
 72
8
 73
4
 74
0
 40
0
 40
0
 40
0
 40
0
 40
1
 40
1
 40
1
 40
1
 10
126.012700
 20
158.691710
 30
0.0
 10
126.473190
 20
158.698710
 30
0.0
 10
126.831920
 20
158.708410
 30
0.0
 10
127.093380
 20
158.720010
 30
0.0
  0
SPLINE
  5
2ec
100
AcDbEntity
  8
Ebene_1
 62
7
100
AcDbSpline
 70
8
 71
3
 72
8
 73
4
 74
0
 40
0
 40
0
 40
0
 40
0
 40
1
 40
1
 40
1
 40
1
 10
127.093380
 20
158.720010
 30
0.0
 10
127.354840
 20
158.731610
 30
0.0
 10
127.485400
 20
158.732510
 30
0.0
 10
127.618820
 20
158.768610
 30
0.0
  0
SPLINE
  5
2ed
100
AcDbEntity
  8
Ebene_1
 62
7
100
AcDbSpline
 70
8
 71
3
 72
8
 73
4
 74
0
 40
0
 40
0
 40
0
 40
0
 40
1
 40
1
 40
1
 40
1
 10
127.618820
 20
158.768610
 30
0.0
 10
128.527750
 20
159.014900
 30
0.0
 10
129.106200
 20
160.008180
 30
0.0
 10
128.862620
 20
160.912730
 30
0.0
  0
SPLINE
  5
2ee
100
AcDbEntity
  8
Ebene_1
 62
7
100
AcDbSpline
 70
8
 71
3
 72
8
 73
4
 74
0
 40
0
 40
0
 40
0
 40
0
 40
1
 40
1
 40
1
 40
1
 10
128.862620
 20
160.912730
 30
0.0
 10
128.660230
 20
161.664380
 30
0.0
 10
127.899650
 20
162.223600
 30
0.0
 10
127.104350
 20
162.225540
 30
0.0
  0
SPLINE
  5
2ef
100
AcDbEntity
  8
Ebene_1
 62
7
100
AcDbSpline
 70
8
 71
3
 72
8
 73
4
 74
0
 40
0
 40
0
 40
0
 40
0
 40
1
 40
1
 40
1
 40
1
 10
127.104350
 20
162.225540
 30
0.0
 10
127.019350
 20
162.225710
 30
0.0
 10
126.882220
 20
162.265240
 30
0.0
 10
126.763990
 20
162.336900
 30
0.0
  0
SPLINE
  5
2f0
100
AcDbEntity
  8
Ebene_1
 62
7
100
AcDbSpline
 70
8
 71
3
 72
8
 73
4
 74
0
 40
0
 40
0
 40
0
 40
0
 40
1
 40
1
 40
1
 40
1
 10
126.763990
 20
162.336900
 30
0.0
 10
126.645770
 20
162.408500
 30
0.0
 10
126.547540
 20
162.510360
 30
0.0
 10
126.509900
 20
162.583150
 30
0.0
  0
SPLINE
  5
2f1
100
AcDbEntity
  8
Ebene_1
 62
7
100
AcDbSpline
 70
8
 71
3
 72
8
 73
4
 74
0
 40
0
 40
0
 40
0
 40
0
 40
1
 40
1
 40
1
 40
1
 10
126.509900
 20
162.583150
 30
0.0
 10
126.502900
 20
162.597750
 30
0.0
 10
126.455500
 20
162.733130
 30
0.0
 10
126.418900
 20
162.885870
 30
0.0
  0
SPLINE
  5
2f2
100
AcDbEntity
  8
Ebene_1
 62
7
100
AcDbSpline
 70
8
 71
3
 72
8
 73
4
 74
0
 40
0
 40
0
 40
0
 40
0
 40
1
 40
1
 40
1
 40
1
 10
126.418900
 20
162.885870
 30
0.0
 10
126.382400
 20
163.038610
 30
0.0
 10
126.347000
 20
163.221580
 30
0.0
 10
126.323200
 20
163.392490
 30
0.0
  0
SPLINE
  5
2f3
100
AcDbEntity
  8
Ebene_1
 62
7
100
AcDbSpline
 70
8
 71
3
 72
8
 73
4
 74
0
 40
0
 40
0
 40
0
 40
0
 40
1
 40
1
 40
1
 40
1
 10
126.323200
 20
163.392490
 30
0.0
 10
126.042540
 20
165.410300
 30
0.0
 10
124.762700
 20
166.785940
 30
0.0
 10
122.778430
 20
167.200750
 30
0.0
  0
SPLINE
  5
2f4
100
AcDbEntity
  8
Ebene_1
 62
7
100
AcDbSpline
 70
8
 71
3
 72
8
 73
4
 74
0
 40
0
 40
0
 40
0
 40
0
 40
1
 40
1
 40
1
 40
1
 10
122.778430
 20
167.200750
 30
0.0
 10
122.307600
 20
167.299150
 30
0.0
 10
121.809040
 20
167.297550
 30
0.0
 10
121.313480
 20
167.203750
 30
0.0
  0
LINE
  5
2f5
100
AcDbEntity
  8
Ebene_1
 62
7
100
AcDbLine
 10
121.313480
 20
167.203750
 30
0.0
 11
121.313540
 21
167.203890
 31
0.0
  0
SPLINE
  5
2f6
100
AcDbEntity
  8
Ebene_1
 62
7
100
AcDbSpline
 70
8
 71
3
 72
8
 73
4
 74
0
 40
0
 40
0
 40
0
 40
0
 40
1
 40
1
 40
1
 40
1
 10
121.406040
 20
166.711390
 30
0.0
 10
121.842630
 20
166.793890
 30
0.0
 10
122.276600
 20
166.794990
 30
0.0
 10
122.676500
 20
166.711390
 30
0.0
  0
SPLINE
  5
2f7
100
AcDbEntity
  8
Ebene_1
 62
7
100
AcDbSpline
 70
8
 71
3
 72
8
 73
4
 74
0
 40
0
 40
0
 40
0
 40
0
 40
1
 40
1
 40
1
 40
1
 10
122.676500
 20
166.711390
 30
0.0
 10
124.493010
 20
166.331650
 30
0.0
 10
125.570270
 20
165.173460
 30
0.0
 10
125.827580
 20
163.323480
 30
0.0
  0
SPLINE
  5
2f8
100
AcDbEntity
  8
Ebene_1
 62
7
100
AcDbSpline
 70
8
 71
3
 72
8
 73
4
 74
0
 40
0
 40
0
 40
0
 40
0
 40
1
 40
1
 40
1
 40
1
 10
125.827580
 20
163.323480
 30
0.0
 10
125.853880
 20
163.134540
 30
0.0
 10
125.890480
 20
162.939670
 30
0.0
 10
125.931100
 20
162.769810
 30
0.0
  0
SPLINE
  5
2f9
100
AcDbEntity
  8
Ebene_1
 62
7
100
AcDbSpline
 70
8
 71
3
 72
8
 73
4
 74
0
 40
0
 40
0
 40
0
 40
0
 40
1
 40
1
 40
1
 40
1
 10
125.931100
 20
162.769810
 30
0.0
 10
125.971700
 20
162.599950
 30
0.0
 10
126.006500
 20
162.469150
 30
0.0
 10
126.065980
 20
162.354160
 30
0.0
  0
SPLINE
  5
2fa
100
AcDbEntity
  8
Ebene_1
 62
7
100
AcDbSpline
 70
8
 71
3
 72
8
 73
4
 74
0
 40
0
 40
0
 40
0
 40
0
 40
1
 40
1
 40
1
 40
1
 10
126.065980
 20
162.354160
 30
0.0
 10
126.163980
 20
162.164710
 30
0.0
 10
126.324120
 20
162.019920
 30
0.0
 10
126.505160
 20
161.910280
 30
0.0
  0
SPLINE
  5
2fb
100
AcDbEntity
  8
Ebene_1
 62
7
100
AcDbSpline
 70
8
 71
3
 72
8
 73
4
 74
0
 40
0
 40
0
 40
0
 40
0
 40
1
 40
1
 40
1
 40
1
 10
126.505160
 20
161.910280
 30
0.0
 10
126.686190
 20
161.800640
 30
0.0
 10
126.889150
 20
161.725610
 30
0.0
 10
127.102750
 20
161.725200
 30
0.0
  0
SPLINE
  5
2fc
100
AcDbEntity
  8
Ebene_1
 62
7
100
AcDbSpline
 70
8
 71
3
 72
8
 73
4
 74
0
 40
0
 40
0
 40
0
 40
0
 40
1
 40
1
 40
1
 40
1
 10
127.102750
 20
161.725200
 30
0.0
 10
127.646810
 20
161.723200
 30
0.0
 10
128.249840
 20
161.269860
 30
0.0
 10
128.381060
 20
160.782550
 30
0.0
  0
SPLINE
  5
2fd
100
AcDbEntity
  8
Ebene_1
 62
7
100
AcDbSpline
 70
8
 71
3
 72
8
 73
4
 74
0
 40
0
 40
0
 40
0
 40
0
 40
1
 40
1
 40
1
 40
1
 10
128.381060
 20
160.782550
 30
0.0
 10
128.545450
 20
160.172070
 30
0.0
 10
128.109500
 20
159.419960
 30
0.0
 10
127.488590
 20
159.251710
 30
0.0
  0
SPLINE
  5
2fe
100
AcDbEntity
  8
Ebene_1
 62
7
100
AcDbSpline
 70
8
 71
3
 72
8
 73
4
 74
0
 40
0
 40
0
 40
0
 40
0
 40
1
 40
1
 40
1
 40
1
 10
127.488590
 20
159.251710
 30
0.0
 10
127.508290
 20
159.257710
 30
0.0
 10
127.324490
 20
159.231510
 30
0.0
 10
127.071380
 20
159.220310
 30
0.0
  0
SPLINE
  5
2ff
100
AcDbEntity
  8
Ebene_1
 62
7
100
AcDbSpline
 70
8
 71
3
 72
8
 73
4
 74
0
 40
0
 40
0
 40
0
 40
0
 40
1
 40
1
 40
1
 40
1
 10
127.071380
 20
159.220310
 30
0.0
 10
126.818270
 20
159.209110
 30
0.0
 10
126.462670
 20
159.199310
 30
0.0
 10
126.004810
 20
159.192110
 30
0.0
  0
SPLINE
  5
300
100
AcDbEntity
  8
Ebene_1
 62
7
100
AcDbSpline
 70
8
 71
3
 72
8
 73
4
 74
0
 40
0
 40
0
 40
0
 40
0
 40
1
 40
1
 40
1
 40
1
 10
126.004810
 20
159.192110
 30
0.0
 10
125.089110
 20
159.177510
 30
0.0
 10
123.765900
 20
159.170110
 30
0.0
 10
122.031860
 20
159.171710
 30
0.0
  0
SPLINE
  5
301
100
AcDbEntity
  8
Ebene_1
 62
7
100
AcDbSpline
 70
8
 71
3
 72
8
 73
4
 74
0
 40
0
 40
0
 40
0
 40
0
 40
1
 40
1
 40
1
 40
1
 10
122.031860
 20
159.171710
 30
0.0
 10
119.596540
 20
159.173710
 30
0.0
 10
118.293260
 20
159.177710
 30
0.0
 10
117.546020
 20
159.200010
 30
0.0
  0
SPLINE
  5
302
100
AcDbEntity
  8
Ebene_1
 62
7
100
AcDbSpline
 70
8
 71
3
 72
8
 73
4
 74
0
 40
0
 40
0
 40
0
 40
0
 40
1
 40
1
 40
1
 40
1
 10
117.546020
 20
159.200010
 30
0.0
 10
116.798770
 20
159.222010
 30
0.0
 10
116.637880
 20
159.256510
 30
0.0
 10
116.410440
 20
159.328630
 30
0.0
  0
SPLINE
  5
303
100
AcDbEntity
  8
Ebene_1
 62
7
100
AcDbSpline
 70
8
 71
3
 72
8
 73
4
 74
0
 40
0
 40
0
 40
0
 40
0
 40
1
 40
1
 40
1
 40
1
 10
116.410440
 20
159.328630
 30
0.0
 10
115.235580
 20
159.701190
 30
0.0
 10
114.574360
 20
161.124580
 30
0.0
 10
115.069390
 20
162.147180
 30
0.0
  0
SPLINE
  5
304
100
AcDbEntity
  8
Ebene_1
 62
7
100
AcDbSpline
 70
8
 71
3
 72
8
 73
4
 74
0
 40
0
 40
0
 40
0
 40
0
 40
1
 40
1
 40
1
 40
1
 10
115.069390
 20
162.147180
 30
0.0
 10
115.449710
 20
162.932820
 30
0.0
 10
116.060840
 20
163.327620
 30
0.0
 10
117.044100
 20
163.401960
 30
0.0
  0
SPLINE
  5
305
100
AcDbEntity
  8
Ebene_1
 62
7
100
AcDbSpline
 70
8
 71
3
 72
8
 73
4
 74
0
 40
0
 40
0
 40
0
 40
0
 40
1
 40
1
 40
1
 40
1
 10
117.044100
 20
163.401960
 30
0.0
 10
117.456100
 20
163.433160
 30
0.0
 10
117.766080
 20
163.491460
 30
0.0
 10
118.022830
 20
163.674880
 30
0.0
  0
SPLINE
  5
306
100
AcDbEntity
  8
Ebene_1
 62
7
100
AcDbSpline
 70
8
 71
3
 72
8
 73
4
 74
0
 40
0
 40
0
 40
0
 40
0
 40
1
 40
1
 40
1
 40
1
 10
118.022830
 20
163.674880
 30
0.0
 10
118.279580
 20
163.858310
 30
0.0
 10
118.442690
 20
164.133340
 30
0.0
 10
118.626700
 20
164.526560
 30
0.0
  0
SPLINE
  5
307
100
AcDbEntity
  8
Ebene_1
 62
7
100
AcDbSpline
 70
8
 71
3
 72
8
 73
4
 74
0
 40
0
 40
0
 40
0
 40
0
 40
1
 40
1
 40
1
 40
1
 10
118.626700
 20
164.526560
 30
0.0
 10
118.876790
 20
165.060980
 30
0.0
 10
119.686610
 20
165.970660
 30
0.0
 10
120.118320
 20
166.223650
 30
0.0
  0
SPLINE
  5
308
100
AcDbEntity
  8
Ebene_1
 62
7
100
AcDbSpline
 70
8
 71
3
 72
8
 73
4
 74
0
 40
0
 40
0
 40
0
 40
0
 40
1
 40
1
 40
1
 40
1
 10
120.118320
 20
166.223650
 30
0.0
 10
120.530650
 20
166.465250
 30
0.0
 10
120.969440
 20
166.628920
 30
0.0
 10
121.406040
 20
166.711450
 30
0.0
  0
LINE
  5
309
100
AcDbEntity
  8
Ebene_1
 62
7
100
AcDbLine
 10
121.406040
 20
166.711450
 30
0.0
 11
121.406040
 21
166.711390
 31
0.0
  0
SPLINE
  5
30a
100
AcDbEntity
  8
Ebene_1
 62
7
100
AcDbSpline
 70
8
 71
3
 72
8
 73
4
 74
0
 40
0
 40
0
 40
0
 40
0
 40
1
 40
1
 40
1
 40
1
 10
120.067120
 20
158.136520
 30
0.0
 10
119.985404
 20
158.129867
 30
0.0
 10
119.912144
 20
158.083570
 30
0.0
 10
119.871060
 20
158.012620
 30
0.0
  0
LINE
  5
30b
100
AcDbEntity
  8
Ebene_1
 62
7
100
AcDbLine
 10
119.871060
 20
158.012620
 30
0.0
 11
118.762140
 21
156.092800
 31
0.0
  0
SPLINE
  5
30c
100
AcDbEntity
  8
Ebene_1
 62
7
100
AcDbSpline
 70
8
 71
3
 72
8
 73
4
 74
0
 40
0
 40
0
 40
0
 40
0
 40
1
 40
1
 40
1
 40
1
 10
118.762140
 20
156.092800
 30
0.0
 10
118.728935
 20
156.035220
 30
0.0
 10
118.720027
 20
155.966788
 30
0.0
 10
118.737385
 20
155.902626
 30
0.0
  0
SPLINE
  5
30d
100
AcDbEntity
  8
Ebene_1
 62
7
100
AcDbSpline
 70
8
 71
3
 72
8
 73
4
 74
0
 40
0
 40
0
 40
0
 40
0
 40
1
 40
1
 40
1
 40
1
 10
118.737385
 20
155.902626
 30
0.0
 10
118.754742
 20
155.838465
 30
0.0
 10
118.796935
 20
155.783857
 30
0.0
 10
118.854640
 20
155.750870
 30
0.0
  0
SPLINE
  5
30e
100
AcDbEntity
  8
Ebene_1
 62
7
100
AcDbSpline
 70
8
 71
3
 72
8
 73
4
 74
0
 40
0
 40
0
 40
0
 40
0
 40
1
 40
1
 40
1
 40
1
 10
118.854640
 20
155.750870
 30
0.0
 10
118.974216
 20
155.682779
 30
0.0
 10
119.126337
 20
155.724121
 30
0.0
 10
119.195000
 20
155.843370
 30
0.0
  0
LINE
  5
30f
100
AcDbEntity
  8
Ebene_1
 62
7
100
AcDbLine
 10
119.195000
 20
155.843370
 30
0.0
 11
120.303910
 21
157.763190
 31
0.0
  0
SPLINE
  5
310
100
AcDbEntity
  8
Ebene_1
 62
7
100
AcDbSpline
 70
8
 71
3
 72
8
 73
4
 74
0
 40
0
 40
0
 40
0
 40
0
 40
1
 40
1
 40
1
 40
1
 10
120.303910
 20
157.763190
 30
0.0
 10
120.372253
 20
157.882374
 30
0.0
 10
120.331614
 20
158.034375
 30
0.0
 10
120.212910
 20
158.103550
 30
0.0
  0
SPLINE
  5
311
100
AcDbEntity
  8
Ebene_1
 62
7
100
AcDbSpline
 70
8
 71
3
 72
8
 73
4
 74
0
 40
0
 40
0
 40
0
 40
0
 40
1
 40
1
 40
1
 40
1
 10
120.212910
 20
158.103550
 30
0.0
 10
120.168785
 20
158.129140
 30
0.0
 10
120.117888
 20
158.140620
 30
0.0
 10
120.067050
 20
158.136450
 30
0.0
  0
LINE
  5
312
100
AcDbEntity
  8
Ebene_1
 62
7
100
AcDbLine
 10
120.067050
 20
158.136450
 30
0.0
 11
120.067120
 21
158.136520
 31
0.0
  0
SPLINE
  5
313
100
AcDbEntity
  8
Ebene_1
 62
7
100
AcDbSpline
 70
8
 71
3
 72
8
 73
4
 74
0
 40
0
 40
0
 40
0
 40
0
 40
1
 40
1
 40
1
 40
1
 10
121.767340
 20
158.136520
 30
0.0
 10
121.685624
 20
158.129867
 30
0.0
 10
121.612364
 20
158.083570
 30
0.0
 10
121.571280
 20
158.012620
 30
0.0
  0
LINE
  5
314
100
AcDbEntity
  8
Ebene_1
 62
7
100
AcDbLine
 10
121.571280
 20
158.012620
 30
0.0
 11
120.462370
 21
156.092800
 31
0.0
  0
SPLINE
  5
315
100
AcDbEntity
  8
Ebene_1
 62
7
100
AcDbSpline
 70
8
 71
3
 72
8
 73
4
 74
0
 40
0
 40
0
 40
0
 40
0
 40
1
 40
1
 40
1
 40
1
 10
120.462370
 20
156.092800
 30
0.0
 10
120.429041
 20
156.035402
 30
0.0
 10
120.419905
 20
155.967107
 30
0.0
 10
120.436975
 20
155.902967
 30
0.0
  0
SPLINE
  5
316
100
AcDbEntity
  8
Ebene_1
 62
7
100
AcDbSpline
 70
8
 71
3
 72
8
 73
4
 74
0
 40
0
 40
0
 40
0
 40
0
 40
1
 40
1
 40
1
 40
1
 10
120.436975
 20
155.902967
 30
0.0
 10
120.454045
 20
155.838827
 30
0.0
 10
120.495920
 20
155.784108
 30
0.0
 10
120.553370
 20
155.750870
 30
0.0
  0
SPLINE
  5
317
100
AcDbEntity
  8
Ebene_1
 62
7
100
AcDbSpline
 70
8
 71
3
 72
8
 73
4
 74
0
 40
0
 40
0
 40
0
 40
0
 40
1
 40
1
 40
1
 40
1
 10
120.553370
 20
155.750870
 30
0.0
 10
120.610950
 20
155.717665
 30
0.0
 10
120.679382
 20
155.708757
 30
0.0
 10
120.743544
 20
155.726115
 30
0.0
  0
SPLINE
  5
318
100
AcDbEntity
  8
Ebene_1
 62
7
100
AcDbSpline
 70
8
 71
3
 72
8
 73
4
 74
0
 40
0
 40
0
 40
0
 40
0
 40
1
 40
1
 40
1
 40
1
 10
120.743544
 20
155.726115
 30
0.0
 10
120.807705
 20
155.743472
 30
0.0
 10
120.862313
 20
155.785665
 30
0.0
 10
120.895300
 20
155.843370
 30
0.0
  0
LINE
  5
319
100
AcDbEntity
  8
Ebene_1
 62
7
100
AcDbLine
 10
120.895300
 20
155.843370
 30
0.0
 11
122.004220
 21
157.763190
 31
0.0
  0
SPLINE
  5
31a
100
AcDbEntity
  8
Ebene_1
 62
7
100
AcDbSpline
 70
8
 71
3
 72
8
 73
4
 74
0
 40
0
 40
0
 40
0
 40
0
 40
1
 40
1
 40
1
 40
1
 10
122.004220
 20
157.763190
 30
0.0
 10
122.072563
 20
157.882374
 30
0.0
 10
122.031924
 20
158.034375
 30
0.0
 10
121.913220
 20
158.103550
 30
0.0
  0
SPLINE
  5
31b
100
AcDbEntity
  8
Ebene_1
 62
7
100
AcDbSpline
 70
8
 71
3
 72
8
 73
4
 74
0
 40
0
 40
0
 40
0
 40
0
 40
1
 40
1
 40
1
 40
1
 10
121.913220
 20
158.103550
 30
0.0
 10
121.869092
 20
158.129142
 30
0.0
 10
121.818191
 20
158.140622
 30
0.0
 10
121.767350
 20
158.136450
 30
0.0
  0
LINE
  5
31c
100
AcDbEntity
  8
Ebene_1
 62
7
100
AcDbLine
 10
121.767350
 20
158.136450
 30
0.0
 11
121.767340
 21
158.136520
 31
0.0
  0
SPLINE
  5
31d
100
AcDbEntity
  8
Ebene_1
 62
7
100
AcDbSpline
 70
8
 71
3
 72
8
 73
4
 74
0
 40
0
 40
0
 40
0
 40
0
 40
1
 40
1
 40
1
 40
1
 10
123.467570
 20
158.136520
 30
0.0
 10
123.385854
 20
158.129867
 30
0.0
 10
123.312594
 20
158.083570
 30
0.0
 10
123.271510
 20
158.012620
 30
0.0
  0
LINE
  5
31e
100
AcDbEntity
  8
Ebene_1
 62
7
100
AcDbLine
 10
123.271510
 20
158.012620
 30
0.0
 11
122.162600
 21
156.092800
 31
0.0
  0
SPLINE
  5
31f
100
AcDbEntity
  8
Ebene_1
 62
7
100
AcDbSpline
 70
8
 71
3
 72
8
 73
4
 74
0
 40
0
 40
0
 40
0
 40
0
 40
1
 40
1
 40
1
 40
1
 10
122.162600
 20
156.092800
 30
0.0
 10
122.129271
 20
156.035402
 30
0.0
 10
122.120135
 20
155.967107
 30
0.0
 10
122.137205
 20
155.902967
 30
0.0
  0
SPLINE
  5
320
100
AcDbEntity
  8
Ebene_1
 62
7
100
AcDbSpline
 70
8
 71
3
 72
8
 73
4
 74
0
 40
0
 40
0
 40
0
 40
0
 40
1
 40
1
 40
1
 40
1
 10
122.137205
 20
155.902967
 30
0.0
 10
122.154275
 20
155.838827
 30
0.0
 10
122.196150
 20
155.784108
 30
0.0
 10
122.253600
 20
155.750870
 30
0.0
  0
SPLINE
  5
321
100
AcDbEntity
  8
Ebene_1
 62
7
100
AcDbSpline
 70
8
 71
3
 72
8
 73
4
 74
0
 40
0
 40
0
 40
0
 40
0
 40
1
 40
1
 40
1
 40
1
 10
122.253600
 20
155.750870
 30
0.0
 10
122.311180
 20
155.717665
 30
0.0
 10
122.379612
 20
155.708757
 30
0.0
 10
122.443774
 20
155.726115
 30
0.0
  0
SPLINE
  5
322
100
AcDbEntity
  8
Ebene_1
 62
7
100
AcDbSpline
 70
8
 71
3
 72
8
 73
4
 74
0
 40
0
 40
0
 40
0
 40
0
 40
1
 40
1
 40
1
 40
1
 10
122.443774
 20
155.726115
 30
0.0
 10
122.507935
 20
155.743472
 30
0.0
 10
122.562543
 20
155.785665
 30
0.0
 10
122.595530
 20
155.843370
 30
0.0
  0
LINE
  5
323
100
AcDbEntity
  8
Ebene_1
 62
7
100
AcDbLine
 10
122.595530
 20
155.843370
 30
0.0
 11
123.704440
 21
157.763190
 31
0.0
  0
SPLINE
  5
324
100
AcDbEntity
  8
Ebene_1
 62
7
100
AcDbSpline
 70
8
 71
3
 72
8
 73
4
 74
0
 40
0
 40
0
 40
0
 40
0
 40
1
 40
1
 40
1
 40
1
 10
123.704440
 20
157.763190
 30
0.0
 10
123.772531
 20
157.882766
 30
0.0
 10
123.731189
 20
158.034887
 30
0.0
 10
123.611940
 20
158.103550
 30
0.0
  0
SPLINE
  5
325
100
AcDbEntity
  8
Ebene_1
 62
7
100
AcDbSpline
 70
8
 71
3
 72
8
 73
4
 74
0
 40
0
 40
0
 40
0
 40
0
 40
1
 40
1
 40
1
 40
1
 10
123.611940
 20
158.103550
 30
0.0
 10
123.568263
 20
158.128830
 30
0.0
 10
123.517958
 20
158.140299
 30
0.0
 10
123.467640
 20
158.136450
 30
0.0
  0
LINE
  5
326
100
AcDbEntity
  8
Ebene_1
 62
7
100
AcDbLine
 10
123.467640
 20
158.136450
 30
0.0
 11
123.467570
 21
158.136520
 31
0.0
  0
SPLINE
  5
327
100
AcDbEntity
  8
Ebene_1
 62
7
100
AcDbSpline
 70
8
 71
3
 72
8
 73
4
 74
0
 40
0
 40
0
 40
0
 40
0
 40
1
 40
1
 40
1
 40
1
 10
154.977620
 20
168.034370
 30
0.0
 10
154.911099
 20
168.034538
 30
0.0
 10
154.847254
 20
168.008187
 30
0.0
 10
154.800216
 20
167.961151
 30
0.0
  0
SPLINE
  5
328
100
AcDbEntity
  8
Ebene_1
 62
7
100
AcDbSpline
 70
8
 71
3
 72
8
 73
4
 74
0
 40
0
 40
0
 40
0
 40
0
 40
1
 40
1
 40
1
 40
1
 10
154.800216
 20
167.961151
 30
0.0
 10
154.753178
 20
167.914114
 30
0.0
 10
154.726825
 20
167.850271
 30
0.0
 10
154.726990
 20
167.783750
 30
0.0
  0
LINE
  5
329
100
AcDbEntity
  8
Ebene_1
 62
7
100
AcDbLine
 10
154.726990
 20
167.783750
 30
0.0
 11
154.728990
 21
166.851500
 31
0.0
  0
LINE
  5
32a
100
AcDbEntity
  8
Ebene_1
 62
7
100
AcDbLine
 10
154.728990
 20
166.851500
 30
0.0
 11
153.656180
 21
167.925340
 31
0.0
  0
SPLINE
  5
32b
100
AcDbEntity
  8
Ebene_1
 62
7
100
AcDbSpline
 70
8
 71
3
 72
8
 73
4
 74
0
 40
0
 40
0
 40
0
 40
0
 40
1
 40
1
 40
1
 40
1
 10
153.656180
 20
167.925340
 30
0.0
 10
153.558618
 20
168.022569
 30
0.0
 10
153.400792
 20
168.022569
 30
0.0
 10
153.303230
 20
167.925340
 30
0.0
  0
SPLINE
  5
32c
100
AcDbEntity
  8
Ebene_1
 62
7
100
AcDbSpline
 70
8
 71
3
 72
8
 73
4
 74
0
 40
0
 40
0
 40
0
 40
0
 40
1
 40
1
 40
1
 40
1
 10
153.303230
 20
167.925340
 30
0.0
 10
153.256056
 20
167.878418
 30
0.0
 10
153.229532
 20
167.814626
 30
0.0
 10
153.229532
 20
167.748090
 30
0.0
  0
SPLINE
  5
32d
100
AcDbEntity
  8
Ebene_1
 62
7
100
AcDbSpline
 70
8
 71
3
 72
8
 73
4
 74
0
 40
0
 40
0
 40
0
 40
0
 40
1
 40
1
 40
1
 40
1
 10
153.229532
 20
167.748090
 30
0.0
 10
153.229532
 20
167.681554
 30
0.0
 10
153.256056
 20
167.617762
 30
0.0
 10
153.303230
 20
167.570840
 30
0.0
  0
LINE
  5
32e
100
AcDbEntity
  8
Ebene_1
 62
7
100
AcDbLine
 10
153.303230
 20
167.570840
 30
0.0
 11
154.730020
 21
166.144050
 31
0.0
  0
LINE
  5
32f
100
AcDbEntity
  8
Ebene_1
 62
7
100
AcDbLine
 10
154.730020
 20
166.144050
 30
0.0
 11
154.736020
 21
162.120010
 31
0.0
  0
LINE
  5
330
100
AcDbEntity
  8
Ebene_1
 62
7
100
AcDbLine
 10
154.736020
 20
162.120010
 30
0.0
 11
151.894850
 21
164.967900
 31
0.0
  0
LINE
  5
331
100
AcDbEntity
  8
Ebene_1
 62
7
100
AcDbLine
 10
151.894850
 20
164.967900
 30
0.0
 11
151.895850
 21
166.987930
 31
0.0
  0
SPLINE
  5
332
100
AcDbEntity
  8
Ebene_1
 62
7
100
AcDbSpline
 70
8
 71
3
 72
8
 73
4
 74
0
 40
0
 40
0
 40
0
 40
0
 40
1
 40
1
 40
1
 40
1
 10
151.895850
 20
166.987930
 30
0.0
 10
151.895965
 20
167.045968
 30
0.0
 10
151.875884
 20
167.102238
 30
0.0
 10
151.839050
 20
167.147090
 30
0.0
  0
SPLINE
  5
333
100
AcDbEntity
  8
Ebene_1
 62
7
100
AcDbSpline
 70
8
 71
3
 72
8
 73
4
 74
0
 40
0
 40
0
 40
0
 40
0
 40
1
 40
1
 40
1
 40
1
 10
151.839050
 20
167.147090
 30
0.0
 10
151.791564
 20
167.205318
 30
0.0
 10
151.720406
 20
167.239101
 30
0.0
 10
151.645270
 20
167.239090
 30
0.0
  0
SPLINE
  5
334
100
AcDbEntity
  8
Ebene_1
 62
7
100
AcDbSpline
 70
8
 71
3
 72
8
 73
4
 74
0
 40
0
 40
0
 40
0
 40
0
 40
1
 40
1
 40
1
 40
1
 10
151.645270
 20
167.239090
 30
0.0
 10
151.578659
 20
167.239259
 30
0.0
 10
151.514735
 20
167.212837
 30
0.0
 10
151.467681
 20
167.165688
 30
0.0
  0
SPLINE
  5
335
100
AcDbEntity
  8
Ebene_1
 62
7
100
AcDbSpline
 70
8
 71
3
 72
8
 73
4
 74
0
 40
0
 40
0
 40
0
 40
0
 40
1
 40
1
 40
1
 40
1
 10
151.467681
 20
167.165688
 30
0.0
 10
151.420628
 20
167.118538
 30
0.0
 10
151.394336
 20
167.054561
 30
0.0
 10
151.394640
 20
166.987950
 30
0.0
  0
LINE
  5
336
100
AcDbEntity
  8
Ebene_1
 62
7
100
AcDbLine
 10
151.394640
 20
166.987950
 30
0.0
 11
151.395170
 21
165.468660
 31
0.0
  0
LINE
  5
337
100
AcDbEntity
  8
Ebene_1
 62
7
100
AcDbLine
 10
151.395170
 20
165.468660
 30
0.0
 11
150.736810
 21
166.129080
 31
0.0
  0
SPLINE
  5
338
100
AcDbEntity
  8
Ebene_1
 62
7
100
AcDbSpline
 70
8
 71
3
 72
8
 73
4
 74
0
 40
0
 40
0
 40
0
 40
0
 40
1
 40
1
 40
1
 40
1
 10
150.736810
 20
166.129080
 30
0.0
 10
150.693123
 20
166.173283
 30
0.0
 10
150.634538
 20
166.199629
 30
0.0
 10
150.572480
 20
166.202980
 30
0.0
  0
SPLINE
  5
339
100
AcDbEntity
  8
Ebene_1
 62
7
100
AcDbSpline
 70
8
 71
3
 72
8
 73
4
 74
0
 40
0
 40
0
 40
0
 40
0
 40
1
 40
1
 40
1
 40
1
 10
150.572480
 20
166.202980
 30
0.0
 10
150.502221
 20
166.206458
 30
0.0
 10
150.433747
 20
166.180176
 30
0.0
 10
150.383860
 20
166.130580
 30
0.0
  0
SPLINE
  5
33a
100
AcDbEntity
  8
Ebene_1
 62
7
100
AcDbSpline
 70
8
 71
3
 72
8
 73
4
 74
0
 40
0
 40
0
 40
0
 40
0
 40
1
 40
1
 40
1
 40
1
 10
150.383860
 20
166.130580
 30
0.0
 10
150.336686
 20
166.083658
 30
0.0
 10
150.310162
 20
166.019866
 30
0.0
 10
150.310162
 20
165.953330
 30
0.0
  0
SPLINE
  5
33b
100
AcDbEntity
  8
Ebene_1
 62
7
100
AcDbSpline
 70
8
 71
3
 72
8
 73
4
 74
0
 40
0
 40
0
 40
0
 40
0
 40
1
 40
1
 40
1
 40
1
 10
150.310162
 20
165.953330
 30
0.0
 10
150.310162
 20
165.886794
 30
0.0
 10
150.336686
 20
165.823002
 30
0.0
 10
150.383860
 20
165.776080
 30
0.0
  0
LINE
  5
33c
100
AcDbEntity
  8
Ebene_1
 62
7
100
AcDbLine
 10
150.383860
 20
165.776080
 30
0.0
 11
151.052550
 21
165.105840
 31
0.0
  0
LINE
  5
33d
100
AcDbEntity
  8
Ebene_1
 62
7
100
AcDbLine
 10
151.052550
 20
165.105840
 30
0.0
 11
149.513110
 21
165.106840
 31
0.0
  0
SPLINE
  5
33e
100
AcDbEntity
  8
Ebene_1
 62
7
100
AcDbSpline
 70
8
 71
3
 72
8
 73
4
 74
0
 40
0
 40
0
 40
0
 40
0
 40
1
 40
1
 40
1
 40
1
 10
149.513110
 20
165.106840
 30
0.0
 10
149.375351
 20
165.106620
 30
0.0
 10
149.263730
 20
164.994999
 30
0.0
 10
149.263510
 20
164.857240
 30
0.0
  0
SPLINE
  5
33f
100
AcDbEntity
  8
Ebene_1
 62
7
100
AcDbSpline
 70
8
 71
3
 72
8
 73
4
 74
0
 40
0
 40
0
 40
0
 40
0
 40
1
 40
1
 40
1
 40
1
 10
149.263510
 20
164.857240
 30
0.0
 10
149.263342
 20
164.790717
 30
0.0
 10
149.289694
 20
164.726871
 30
0.0
 10
149.336733
 20
164.679833
 30
0.0
  0
SPLINE
  5
340
100
AcDbEntity
  8
Ebene_1
 62
7
100
AcDbSpline
 70
8
 71
3
 72
8
 73
4
 74
0
 40
0
 40
0
 40
0
 40
0
 40
1
 40
1
 40
1
 40
1
 10
149.336733
 20
164.679833
 30
0.0
 10
149.383771
 20
164.632794
 30
0.0
 10
149.447617
 20
164.606442
 30
0.0
 10
149.514140
 20
164.606610
 30
0.0
  0
LINE
  5
341
100
AcDbEntity
  8
Ebene_1
 62
7
100
AcDbLine
 10
149.514140
 20
164.606610
 30
0.0
 11
151.550200
 21
164.606610
 31
0.0
  0
LINE
  5
342
100
AcDbEntity
  8
Ebene_1
 62
7
100
AcDbLine
 10
151.550200
 20
164.606610
 30
0.0
 11
154.385160
 21
161.763890
 31
0.0
  0
LINE
  5
343
100
AcDbEntity
  8
Ebene_1
 62
7
100
AcDbLine
 10
154.385160
 20
161.763890
 30
0.0
 11
150.370940
 21
161.757890
 31
0.0
  0
LINE
  5
344
100
AcDbEntity
  8
Ebene_1
 62
7
100
AcDbLine
 10
150.370940
 20
161.757890
 30
0.0
 11
148.929680
 21
163.198110
 31
0.0
  0
SPLINE
  5
345
100
AcDbEntity
  8
Ebene_1
 62
7
100
AcDbSpline
 70
8
 71
3
 72
8
 73
4
 74
0
 40
0
 40
0
 40
0
 40
0
 40
1
 40
1
 40
1
 40
1
 10
148.929680
 20
163.198110
 30
0.0
 10
148.885993
 20
163.242313
 30
0.0
 10
148.827408
 20
163.268659
 30
0.0
 10
148.765350
 20
163.272010
 30
0.0
  0
SPLINE
  5
346
100
AcDbEntity
  8
Ebene_1
 62
7
100
AcDbSpline
 70
8
 71
3
 72
8
 73
4
 74
0
 40
0
 40
0
 40
0
 40
0
 40
1
 40
1
 40
1
 40
1
 10
148.765350
 20
163.272010
 30
0.0
 10
148.694866
 20
163.275095
 30
0.0
 10
148.626359
 20
163.248255
 30
0.0
 10
148.576730
 20
163.198110
 30
0.0
  0
SPLINE
  5
347
100
AcDbEntity
  8
Ebene_1
 62
7
100
AcDbSpline
 70
8
 71
3
 72
8
 73
4
 74
0
 40
0
 40
0
 40
0
 40
0
 40
1
 40
1
 40
1
 40
1
 10
148.576730
 20
163.198110
 30
0.0
 10
148.479501
 20
163.100548
 30
0.0
 10
148.479501
 20
162.942722
 30
0.0
 10
148.576730
 20
162.845160
 30
0.0
  0
LINE
  5
348
100
AcDbEntity
  8
Ebene_1
 62
7
100
AcDbLine
 10
148.576730
 20
162.845160
 30
0.0
 11
149.663490
 21
161.757370
 31
0.0
  0
LINE
  5
349
100
AcDbEntity
  8
Ebene_1
 62
7
100
AcDbLine
 10
149.663490
 20
161.757370
 30
0.0
 11
148.717290
 21
161.755370
 31
0.0
  0
SPLINE
  5
34a
100
AcDbEntity
  8
Ebene_1
 62
7
100
AcDbSpline
 70
8
 71
3
 72
8
 73
4
 74
0
 40
0
 40
0
 40
0
 40
0
 40
1
 40
1
 40
1
 40
1
 10
148.717290
 20
161.755370
 30
0.0
 10
148.579535
 20
161.754863
 30
0.0
 10
148.468149
 20
161.643016
 30
0.0
 10
148.468210
 20
161.505260
 30
0.0
  0
SPLINE
  5
34b
100
AcDbEntity
  8
Ebene_1
 62
7
100
AcDbSpline
 70
8
 71
3
 72
8
 73
4
 74
0
 40
0
 40
0
 40
0
 40
0
 40
1
 40
1
 40
1
 40
1
 10
148.468210
 20
161.505260
 30
0.0
 10
148.468043
 20
161.438826
 30
0.0
 10
148.494324
 20
161.375057
 30
0.0
 10
148.541253
 20
161.328033
 30
0.0
  0
SPLINE
  5
34c
100
AcDbEntity
  8
Ebene_1
 62
7
100
AcDbSpline
 70
8
 71
3
 72
8
 73
4
 74
0
 40
0
 40
0
 40
0
 40
0
 40
1
 40
1
 40
1
 40
1
 10
148.541253
 20
161.328033
 30
0.0
 10
148.588181
 20
161.281010
 30
0.0
 10
148.651896
 20
161.254598
 30
0.0
 10
148.718330
 20
161.254630
 30
0.0
  0
LINE
  5
34d
100
AcDbEntity
  8
Ebene_1
 62
7
100
AcDbLine
 10
148.718330
 20
161.254630
 30
0.0
 11
149.649020
 21
161.255630
 31
0.0
  0
LINE
  5
34e
100
AcDbEntity
  8
Ebene_1
 62
7
100
AcDbLine
 10
149.649020
 20
161.255630
 30
0.0
 11
148.576730
 21
160.182310
 31
0.0
  0
SPLINE
  5
34f
100
AcDbEntity
  8
Ebene_1
 62
7
100
AcDbSpline
 70
8
 71
3
 72
8
 73
4
 74
0
 40
0
 40
0
 40
0
 40
0
 40
1
 40
1
 40
1
 40
1
 10
148.576730
 20
160.182310
 30
0.0
 10
148.479501
 20
160.084748
 30
0.0
 10
148.479501
 20
159.926922
 30
0.0
 10
148.576730
 20
159.829360
 30
0.0
  0
SPLINE
  5
350
100
AcDbEntity
  8
Ebene_1
 62
7
100
AcDbSpline
 70
8
 71
3
 72
8
 73
4
 74
0
 40
0
 40
0
 40
0
 40
0
 40
1
 40
1
 40
1
 40
1
 10
148.576730
 20
159.829360
 30
0.0
 10
148.674292
 20
159.732131
 30
0.0
 10
148.832118
 20
159.732131
 30
0.0
 10
148.929680
 20
159.829360
 30
0.0
  0
LINE
  5
351
100
AcDbEntity
  8
Ebene_1
 62
7
100
AcDbLine
 10
148.929680
 20
159.829360
 30
0.0
 11
150.358540
 21
161.256660
 31
0.0
  0
LINE
  5
352
100
AcDbEntity
  8
Ebene_1
 62
7
100
AcDbLine
 10
150.358540
 20
161.256660
 30
0.0
 11
154.383100
 21
161.261660
 31
0.0
  0
LINE
  5
353
100
AcDbEntity
  8
Ebene_1
 62
7
100
AcDbLine
 10
154.383100
 20
161.261660
 30
0.0
 11
151.550200
 21
158.421010
 31
0.0
  0
LINE
  5
354
100
AcDbEntity
  8
Ebene_1
 62
7
100
AcDbLine
 10
151.550200
 20
158.421010
 30
0.0
 11
149.513630
 21
158.422010
 31
0.0
  0
SPLINE
  5
355
100
AcDbEntity
  8
Ebene_1
 62
7
100
AcDbSpline
 70
8
 71
3
 72
8
 73
4
 74
0
 40
0
 40
0
 40
0
 40
0
 40
1
 40
1
 40
1
 40
1
 10
149.513630
 20
158.422010
 30
0.0
 10
149.455650
 20
158.422269
 30
0.0
 10
149.399383
 20
158.402366
 30
0.0
 10
149.354460
 20
158.365710
 30
0.0
  0
LINE
  5
356
100
AcDbEntity
  8
Ebene_1
 62
7
100
AcDbLine
 10
149.354460
 20
158.365710
 30
0.0
 11
149.354460
 21
158.365180
 31
0.0
  0
SPLINE
  5
357
100
AcDbEntity
  8
Ebene_1
 62
7
100
AcDbSpline
 70
8
 71
3
 72
8
 73
4
 74
0
 40
0
 40
0
 40
0
 40
0
 40
1
 40
1
 40
1
 40
1
 10
149.354460
 20
158.365180
 30
0.0
 10
149.296229
 20
158.317692
 30
0.0
 10
149.262446
 20
158.246530
 30
0.0
 10
149.262460
 20
158.171390
 30
0.0
  0
SPLINE
  5
358
100
AcDbEntity
  8
Ebene_1
 62
7
100
AcDbSpline
 70
8
 71
3
 72
8
 73
4
 74
0
 40
0
 40
0
 40
0
 40
0
 40
1
 40
1
 40
1
 40
1
 10
149.262460
 20
158.171390
 30
0.0
 10
149.262291
 20
158.104777
 30
0.0
 10
149.288714
 20
158.040851
 30
0.0
 10
149.335866
 20
157.993798
 30
0.0
  0
SPLINE
  5
359
100
AcDbEntity
  8
Ebene_1
 62
7
100
AcDbSpline
 70
8
 71
3
 72
8
 73
4
 74
0
 40
0
 40
0
 40
0
 40
0
 40
1
 40
1
 40
1
 40
1
 10
149.335866
 20
157.993798
 30
0.0
 10
149.383017
 20
157.946744
 30
0.0
 10
149.446998
 20
157.920453
 30
0.0
 10
149.513610
 20
157.920760
 30
0.0
  0
LINE
  5
35a
100
AcDbEntity
  8
Ebene_1
 62
7
100
AcDbLine
 10
149.513610
 20
157.920760
 30
0.0
 11
151.052010
 21
157.921290
 31
0.0
  0
LINE
  5
35b
100
AcDbEntity
  8
Ebene_1
 62
7
100
AcDbLine
 10
151.052010
 20
157.921290
 30
0.0
 11
150.383840
 21
157.251560
 31
0.0
  0
SPLINE
  5
35c
100
AcDbEntity
  8
Ebene_1
 62
7
100
AcDbSpline
 70
8
 71
3
 72
8
 73
4
 74
0
 40
0
 40
0
 40
0
 40
0
 40
1
 40
1
 40
1
 40
1
 10
150.383840
 20
157.251560
 30
0.0
 10
150.336666
 20
157.204638
 30
0.0
 10
150.310142
 20
157.140846
 30
0.0
 10
150.310142
 20
157.074310
 30
0.0
  0
SPLINE
  5
35d
100
AcDbEntity
  8
Ebene_1
 62
7
100
AcDbSpline
 70
8
 71
3
 72
8
 73
4
 74
0
 40
0
 40
0
 40
0
 40
0
 40
1
 40
1
 40
1
 40
1
 10
150.310142
 20
157.074310
 30
0.0
 10
150.310142
 20
157.007774
 30
0.0
 10
150.336666
 20
156.943982
 30
0.0
 10
150.383840
 20
156.897060
 30
0.0
  0
SPLINE
  5
35e
100
AcDbEntity
  8
Ebene_1
 62
7
100
AcDbSpline
 70
8
 71
3
 72
8
 73
4
 74
0
 40
0
 40
0
 40
0
 40
0
 40
1
 40
1
 40
1
 40
1
 10
150.383840
 20
156.897060
 30
0.0
 10
150.481952
 20
156.800381
 30
0.0
 10
150.639780
 20
156.801276
 30
0.0
 10
150.736790
 20
156.899060
 30
0.0
  0
LINE
  5
35f
100
AcDbEntity
  8
Ebene_1
 62
7
100
AcDbLine
 10
150.736790
 20
156.899060
 30
0.0
 11
151.395150
 21
157.559490
 31
0.0
  0
LINE
  5
360
100
AcDbEntity
  8
Ebene_1
 62
7
100
AcDbLine
 10
151.395150
 20
157.559490
 30
0.0
 11
151.394620
 21
156.039680
 31
0.0
  0
SPLINE
  5
361
100
AcDbEntity
  8
Ebene_1
 62
7
100
AcDbSpline
 70
8
 71
3
 72
8
 73
4
 74
0
 40
0
 40
0
 40
0
 40
0
 40
1
 40
1
 40
1
 40
1
 10
151.394620
 20
156.039680
 30
0.0
 10
151.394846
 20
155.901929
 30
0.0
 10
151.506459
 20
155.790316
 30
0.0
 10
151.644210
 20
155.790090
 30
0.0
  0
SPLINE
  5
362
100
AcDbEntity
  8
Ebene_1
 62
7
100
AcDbSpline
 70
8
 71
3
 72
8
 73
4
 74
0
 40
0
 40
0
 40
0
 40
0
 40
1
 40
1
 40
1
 40
1
 10
151.644210
 20
155.790090
 30
0.0
 10
151.710733
 20
155.789922
 30
0.0
 10
151.774579
 20
155.816274
 30
0.0
 10
151.821617
 20
155.863313
 30
0.0
  0
SPLINE
  5
363
100
AcDbEntity
  8
Ebene_1
 62
7
100
AcDbSpline
 70
8
 71
3
 72
8
 73
4
 74
0
 40
0
 40
0
 40
0
 40
0
 40
1
 40
1
 40
1
 40
1
 10
151.821617
 20
155.863313
 30
0.0
 10
151.868656
 20
155.910351
 30
0.0
 10
151.895008
 20
155.974197
 30
0.0
 10
151.894840
 20
156.040720
 30
0.0
  0
LINE
  5
364
100
AcDbEntity
  8
Ebene_1
 62
7
100
AcDbLine
 10
151.894840
 20
156.040720
 30
0.0
 11
151.894840
 21
158.059720
 31
0.0
  0
LINE
  5
365
100
AcDbEntity
  8
Ebene_1
 62
7
100
AcDbLine
 10
151.894840
 20
158.059720
 30
0.0
 11
154.737560
 21
160.909670
 31
0.0
  0
LINE
  5
366
100
AcDbEntity
  8
Ebene_1
 62
7
100
AcDbLine
 10
154.737560
 20
160.909670
 30
0.0
 11
154.743560
 21
156.897000
 31
0.0
  0
LINE
  5
367
100
AcDbEntity
  8
Ebene_1
 62
7
100
AcDbLine
 10
154.743560
 20
156.897000
 30
0.0
 11
153.303860
 21
155.457290
 31
0.0
  0
SPLINE
  5
368
100
AcDbEntity
  8
Ebene_1
 62
7
100
AcDbSpline
 70
8
 71
3
 72
8
 73
4
 74
0
 40
0
 40
0
 40
0
 40
0
 40
1
 40
1
 40
1
 40
1
 10
153.303860
 20
155.457290
 30
0.0
 10
153.256686
 20
155.410368
 30
0.0
 10
153.230162
 20
155.346576
 30
0.0
 10
153.230162
 20
155.280040
 30
0.0
  0
SPLINE
  5
369
100
AcDbEntity
  8
Ebene_1
 62
7
100
AcDbSpline
 70
8
 71
3
 72
8
 73
4
 74
0
 40
0
 40
0
 40
0
 40
0
 40
1
 40
1
 40
1
 40
1
 10
153.230162
 20
155.280040
 30
0.0
 10
153.230162
 20
155.213504
 30
0.0
 10
153.256686
 20
155.149712
 30
0.0
 10
153.303860
 20
155.102790
 30
0.0
  0
SPLINE
  5
36a
100
AcDbEntity
  8
Ebene_1
 62
7
100
AcDbSpline
 70
8
 71
3
 72
8
 73
4
 74
0
 40
0
 40
0
 40
0
 40
0
 40
1
 40
1
 40
1
 40
1
 10
153.303860
 20
155.102790
 30
0.0
 10
153.401422
 20
155.005561
 30
0.0
 10
153.559248
 20
155.005561
 30
0.0
 10
153.656810
 20
155.102790
 30
0.0
  0
LINE
  5
36b
100
AcDbEntity
  8
Ebene_1
 62
7
100
AcDbLine
 10
153.656810
 20
155.102790
 30
0.0
 11
154.744590
 21
156.192130
 31
0.0
  0
LINE
  5
36c
100
AcDbEntity
  8
Ebene_1
 62
7
100
AcDbLine
 10
154.744590
 20
156.192130
 30
0.0
 11
154.746590
 21
155.243870
 31
0.0
  0
SPLINE
  5
36d
100
AcDbEntity
  8
Ebene_1
 62
7
100
AcDbSpline
 70
8
 71
3
 72
8
 73
4
 74
0
 40
0
 40
0
 40
0
 40
0
 40
1
 40
1
 40
1
 40
1
 10
154.746590
 20
155.243870
 30
0.0
 10
154.747383
 20
155.106115
 30
0.0
 10
154.859464
 20
154.994961
 30
0.0
 10
154.997220
 20
154.995310
 30
0.0
  0
SPLINE
  5
36e
100
AcDbEntity
  8
Ebene_1
 62
7
100
AcDbSpline
 70
8
 71
3
 72
8
 73
4
 74
0
 40
0
 40
0
 40
0
 40
0
 40
1
 40
1
 40
1
 40
1
 10
154.997220
 20
154.995310
 30
0.0
 10
155.134975
 20
154.995817
 30
0.0
 10
155.246361
 20
155.107664
 30
0.0
 10
155.246300
 20
155.245420
 30
0.0
  0
LINE
  5
36f
100
AcDbEntity
  8
Ebene_1
 62
7
100
AcDbLine
 10
155.246300
 20
155.245420
 30
0.0
 11
155.245300
 21
156.177140
 31
0.0
  0
LINE
  5
370
100
AcDbEntity
  8
Ebene_1
 62
7
100
AcDbLine
 10
155.245300
 20
156.177140
 30
0.0
 11
156.318110
 21
155.102790
 31
0.0
  0
SPLINE
  5
371
100
AcDbEntity
  8
Ebene_1
 62
7
100
AcDbSpline
 70
8
 71
3
 72
8
 73
4
 74
0
 40
0
 40
0
 40
0
 40
0
 40
1
 40
1
 40
1
 40
1
 10
156.318110
 20
155.102790
 30
0.0
 10
156.365011
 20
155.055775
 30
0.0
 10
156.428691
 20
155.029353
 30
0.0
 10
156.495100
 20
155.029353
 30
0.0
  0
SPLINE
  5
372
100
AcDbEntity
  8
Ebene_1
 62
7
100
AcDbSpline
 70
8
 71
3
 72
8
 73
4
 74
0
 40
0
 40
0
 40
0
 40
0
 40
1
 40
1
 40
1
 40
1
 10
156.495100
 20
155.029353
 30
0.0
 10
156.561509
 20
155.029353
 30
0.0
 10
156.625189
 20
155.055775
 30
0.0
 10
156.672090
 20
155.102790
 30
0.0
  0
SPLINE
  5
373
100
AcDbEntity
  8
Ebene_1
 62
7
100
AcDbSpline
 70
8
 71
3
 72
8
 73
4
 74
0
 40
0
 40
0
 40
0
 40
0
 40
1
 40
1
 40
1
 40
1
 10
156.672090
 20
155.102790
 30
0.0
 10
156.725708
 20
155.155856
 30
0.0
 10
156.752498
 20
155.230296
 30
0.0
 10
156.744990
 20
155.305360
 30
0.0
  0
SPLINE
  5
374
100
AcDbEntity
  8
Ebene_1
 62
7
100
AcDbSpline
 70
8
 71
3
 72
8
 73
4
 74
0
 40
0
 40
0
 40
0
 40
0
 40
1
 40
1
 40
1
 40
1
 10
156.744990
 20
155.305360
 30
0.0
 10
156.739005
 20
155.362914
 30
0.0
 10
156.713240
 20
155.416609
 30
0.0
 10
156.672090
 20
155.457290
 30
0.0
  0
LINE
  5
375
100
AcDbEntity
  8
Ebene_1
 62
7
100
AcDbLine
 10
156.672090
 20
155.457290
 30
0.0
 11
155.244270
 21
156.884080
 31
0.0
  0
LINE
  5
376
100
AcDbEntity
  8
Ebene_1
 62
7
100
AcDbLine
 10
155.244270
 20
156.884080
 30
0.0
 11
155.238270
 21
160.908640
 31
0.0
  0
LINE
  5
377
100
AcDbEntity
  8
Ebene_1
 62
7
100
AcDbLine
 10
155.238270
 20
160.908640
 30
0.0
 11
158.079440
 21
158.059720
 31
0.0
  0
LINE
  5
378
100
AcDbEntity
  8
Ebene_1
 62
7
100
AcDbLine
 10
158.079440
 20
158.059720
 30
0.0
 11
158.079440
 21
156.040720
 31
0.0
  0
SPLINE
  5
379
100
AcDbEntity
  8
Ebene_1
 62
7
100
AcDbSpline
 70
8
 71
3
 72
8
 73
4
 74
0
 40
0
 40
0
 40
0
 40
0
 40
1
 40
1
 40
1
 40
1
 10
158.079440
 20
156.040720
 30
0.0
 10
158.079272
 20
155.974197
 30
0.0
 10
158.105624
 20
155.910351
 30
0.0
 10
158.152663
 20
155.863313
 30
0.0
  0
SPLINE
  5
37a
100
AcDbEntity
  8
Ebene_1
 62
7
100
AcDbSpline
 70
8
 71
3
 72
8
 73
4
 74
0
 40
0
 40
0
 40
0
 40
0
 40
1
 40
1
 40
1
 40
1
 10
158.152663
 20
155.863313
 30
0.0
 10
158.199701
 20
155.816274
 30
0.0
 10
158.263547
 20
155.789922
 30
0.0
 10
158.330070
 20
155.790090
 30
0.0
  0
SPLINE
  5
37b
100
AcDbEntity
  8
Ebene_1
 62
7
100
AcDbSpline
 70
8
 71
3
 72
8
 73
4
 74
0
 40
0
 40
0
 40
0
 40
0
 40
1
 40
1
 40
1
 40
1
 10
158.330070
 20
155.790090
 30
0.0
 10
158.467825
 20
155.790310
 30
0.0
 10
158.579444
 20
155.901925
 30
0.0
 10
158.579670
 20
156.039680
 30
0.0
  0
LINE
  5
37c
100
AcDbEntity
  8
Ebene_1
 62
7
100
AcDbLine
 10
158.579670
 20
156.039680
 30
0.0
 11
158.579140
 21
157.558970
 31
0.0
  0
LINE
  5
37d
100
AcDbEntity
  8
Ebene_1
 62
7
100
AcDbLine
 10
158.579140
 20
157.558970
 30
0.0
 11
159.236980
 21
156.899060
 31
0.0
  0
SPLINE
  5
37e
100
AcDbEntity
  8
Ebene_1
 62
7
100
AcDbSpline
 70
8
 71
3
 72
8
 73
4
 74
0
 40
0
 40
0
 40
0
 40
0
 40
1
 40
1
 40
1
 40
1
 10
159.236980
 20
156.899060
 30
0.0
 10
159.283635
 20
156.851620
 30
0.0
 10
159.347277
 20
156.824736
 30
0.0
 10
159.413814
 20
156.824361
 30
0.0
  0
SPLINE
  5
37f
100
AcDbEntity
  8
Ebene_1
 62
7
100
AcDbSpline
 70
8
 71
3
 72
8
 73
4
 74
0
 40
0
 40
0
 40
0
 40
0
 40
1
 40
1
 40
1
 40
1
 10
159.413814
 20
156.824361
 30
0.0
 10
159.480351
 20
156.823985
 30
0.0
 10
159.544292
 20
156.850149
 30
0.0
 10
159.591480
 20
156.897060
 30
0.0
  0
SPLINE
  5
380
100
AcDbEntity
  8
Ebene_1
 62
7
100
AcDbSpline
 70
8
 71
3
 72
8
 73
4
 74
0
 40
0
 40
0
 40
0
 40
0
 40
1
 40
1
 40
1
 40
1
 10
159.591480
 20
156.897060
 30
0.0
 10
159.638654
 20
156.943982
 30
0.0
 10
159.665178
 20
157.007774
 30
0.0
 10
159.665178
 20
157.074310
 30
0.0
  0
SPLINE
  5
381
100
AcDbEntity
  8
Ebene_1
 62
7
100
AcDbSpline
 70
8
 71
3
 72
8
 73
4
 74
0
 40
0
 40
0
 40
0
 40
0
 40
1
 40
1
 40
1
 40
1
 10
159.665178
 20
157.074310
 30
0.0
 10
159.665178
 20
157.140846
 30
0.0
 10
159.638654
 20
157.204638
 30
0.0
 10
159.591480
 20
157.251560
 30
0.0
  0
LINE
  5
382
100
AcDbEntity
  8
Ebene_1
 62
7
100
AcDbLine
 10
159.591480
 20
157.251560
 30
0.0
 11
158.923300
 21
157.921290
 31
0.0
  0
LINE
  5
383
100
AcDbEntity
  8
Ebene_1
 62
7
100
AcDbLine
 10
158.923300
 20
157.921290
 30
0.0
 11
160.461190
 21
157.920760
 31
0.0
  0
SPLINE
  5
384
100
AcDbEntity
  8
Ebene_1
 62
7
100
AcDbSpline
 70
8
 71
3
 72
8
 73
4
 74
0
 40
0
 40
0
 40
0
 40
0
 40
1
 40
1
 40
1
 40
1
 10
160.461190
 20
157.920760
 30
0.0
 10
160.527714
 20
157.920590
 30
0.0
 10
160.591563
 20
157.946940
 30
0.0
 10
160.638604
 20
157.993979
 30
0.0
  0
SPLINE
  5
385
100
AcDbEntity
  8
Ebene_1
 62
7
100
AcDbSpline
 70
8
 71
3
 72
8
 73
4
 74
0
 40
0
 40
0
 40
0
 40
0
 40
1
 40
1
 40
1
 40
1
 10
160.638604
 20
157.993979
 30
0.0
 10
160.685645
 20
158.041018
 30
0.0
 10
160.711998
 20
158.104866
 30
0.0
 10
160.711830
 20
158.171390
 30
0.0
  0
SPLINE
  5
386
100
AcDbEntity
  8
Ebene_1
 62
7
100
AcDbSpline
 70
8
 71
3
 72
8
 73
4
 74
0
 40
0
 40
0
 40
0
 40
0
 40
1
 40
1
 40
1
 40
1
 10
160.711830
 20
158.171390
 30
0.0
 10
160.711844
 20
158.246530
 30
0.0
 10
160.678061
 20
158.317692
 30
0.0
 10
160.619830
 20
158.365180
 30
0.0
  0
LINE
  5
387
100
AcDbEntity
  8
Ebene_1
 62
7
100
AcDbLine
 10
160.619830
 20
158.365180
 30
0.0
 11
160.619830
 21
158.365710
 31
0.0
  0
SPLINE
  5
388
100
AcDbEntity
  8
Ebene_1
 62
7
100
AcDbSpline
 70
8
 71
3
 72
8
 73
4
 74
0
 40
0
 40
0
 40
0
 40
0
 40
1
 40
1
 40
1
 40
1
 10
160.619830
 20
158.365710
 30
0.0
 10
160.575045
 20
158.402253
 30
0.0
 10
160.518982
 20
158.422148
 30
0.0
 10
160.461180
 20
158.422010
 30
0.0
  0
LINE
  5
389
100
AcDbEntity
  8
Ebene_1
 62
7
100
AcDbLine
 10
160.461180
 20
158.422010
 30
0.0
 11
158.425130
 21
158.421010
 31
0.0
  0
LINE
  5
38a
100
AcDbEntity
  8
Ebene_1
 62
7
100
AcDbLine
 10
158.425130
 20
158.421010
 30
0.0
 11
155.589650
 21
161.263730
 31
0.0
  0
LINE
  5
38b
100
AcDbEntity
  8
Ebene_1
 62
7
100
AcDbLine
 10
155.589650
 20
161.263730
 30
0.0
 11
159.604390
 21
161.268730
 31
0.0
  0
LINE
  5
38c
100
AcDbEntity
  8
Ebene_1
 62
7
100
AcDbLine
 10
159.604390
 20
161.268730
 30
0.0
 11
161.044100
 21
159.829020
 31
0.0
  0
SPLINE
  5
38d
100
AcDbEntity
  8
Ebene_1
 62
7
100
AcDbSpline
 70
8
 71
3
 72
8
 73
4
 74
0
 40
0
 40
0
 40
0
 40
0
 40
1
 40
1
 40
1
 40
1
 10
161.044100
 20
159.829020
 30
0.0
 10
161.091022
 20
159.781849
 30
0.0
 10
161.154811
 20
159.755327
 30
0.0
 10
161.221345
 20
159.755327
 30
0.0
  0
SPLINE
  5
38e
100
AcDbEntity
  8
Ebene_1
 62
7
100
AcDbSpline
 70
8
 71
3
 72
8
 73
4
 74
0
 40
0
 40
0
 40
0
 40
0
 40
1
 40
1
 40
1
 40
1
 10
161.221345
 20
159.755327
 30
0.0
 10
161.287879
 20
159.755327
 30
0.0
 10
161.351668
 20
159.781849
 30
0.0
 10
161.398590
 20
159.829020
 30
0.0
  0
SPLINE
  5
38f
100
AcDbEntity
  8
Ebene_1
 62
7
100
AcDbSpline
 70
8
 71
3
 72
8
 73
4
 74
0
 40
0
 40
0
 40
0
 40
0
 40
1
 40
1
 40
1
 40
1
 10
161.398590
 20
159.829020
 30
0.0
 10
161.495819
 20
159.926582
 30
0.0
 10
161.495819
 20
160.084408
 30
0.0
 10
161.398590
 20
160.181970
 30
0.0
  0
LINE
  5
390
100
AcDbEntity
  8
Ebene_1
 62
7
100
AcDbLine
 10
161.398590
 20
160.181970
 30
0.0
 11
160.311320
 21
161.269240
 31
0.0
  0
LINE
  5
391
100
AcDbEntity
  8
Ebene_1
 62
7
100
AcDbLine
 10
160.311320
 20
161.269240
 30
0.0
 11
161.256480
 21
161.271240
 31
0.0
  0
SPLINE
  5
392
100
AcDbEntity
  8
Ebene_1
 62
7
100
AcDbSpline
 70
8
 71
3
 72
8
 73
4
 74
0
 40
0
 40
0
 40
0
 40
0
 40
1
 40
1
 40
1
 40
1
 10
161.256480
 20
161.271240
 30
0.0
 10
161.323004
 20
161.271070
 30
0.0
 10
161.386853
 20
161.297420
 30
0.0
 10
161.433894
 20
161.344459
 30
0.0
  0
SPLINE
  5
393
100
AcDbEntity
  8
Ebene_1
 62
7
100
AcDbSpline
 70
8
 71
3
 72
8
 73
4
 74
0
 40
0
 40
0
 40
0
 40
0
 40
1
 40
1
 40
1
 40
1
 10
161.433894
 20
161.344459
 30
0.0
 10
161.480935
 20
161.391498
 30
0.0
 10
161.507288
 20
161.455346
 30
0.0
 10
161.507120
 20
161.521870
 30
0.0
  0
SPLINE
  5
394
100
AcDbEntity
  8
Ebene_1
 62
7
100
AcDbSpline
 70
8
 71
3
 72
8
 73
4
 74
0
 40
0
 40
0
 40
0
 40
0
 40
1
 40
1
 40
1
 40
1
 10
161.507120
 20
161.521870
 30
0.0
 10
161.507290
 20
161.588396
 30
0.0
 10
161.480939
 20
161.652246
 30
0.0
 10
161.433897
 20
161.699287
 30
0.0
  0
SPLINE
  5
395
100
AcDbEntity
  8
Ebene_1
 62
7
100
AcDbSpline
 70
8
 71
3
 72
8
 73
4
 74
0
 40
0
 40
0
 40
0
 40
0
 40
1
 40
1
 40
1
 40
1
 10
161.433897
 20
161.699287
 30
0.0
 10
161.386856
 20
161.746329
 30
0.0
 10
161.323006
 20
161.772680
 30
0.0
 10
161.256480
 20
161.772510
 30
0.0
  0
LINE
  5
396
100
AcDbEntity
  8
Ebene_1
 62
7
100
AcDbLine
 10
161.256480
 20
161.772510
 30
0.0
 11
160.325280
 21
161.771510
 31
0.0
  0
LINE
  5
397
100
AcDbEntity
  8
Ebene_1
 62
7
100
AcDbLine
 10
160.325280
 20
161.771510
 30
0.0
 11
161.398590
 21
162.844820
 31
0.0
  0
SPLINE
  5
398
100
AcDbEntity
  8
Ebene_1
 62
7
100
AcDbSpline
 70
8
 71
3
 72
8
 73
4
 74
0
 40
0
 40
0
 40
0
 40
0
 40
1
 40
1
 40
1
 40
1
 10
161.398590
 20
162.844820
 30
0.0
 10
161.495826
 20
162.942383
 30
0.0
 10
161.495826
 20
163.100217
 30
0.0
 10
161.398590
 20
163.197780
 30
0.0
  0
SPLINE
  5
399
100
AcDbEntity
  8
Ebene_1
 62
7
100
AcDbSpline
 70
8
 71
3
 72
8
 73
4
 74
0
 40
0
 40
0
 40
0
 40
0
 40
1
 40
1
 40
1
 40
1
 10
161.398590
 20
163.197780
 30
0.0
 10
161.354514
 20
163.242335
 30
0.0
 10
161.295312
 20
163.268710
 30
0.0
 10
161.232710
 20
163.271680
 30
0.0
  0
SPLINE
  5
39a
100
AcDbEntity
  8
Ebene_1
 62
7
100
AcDbSpline
 70
8
 71
3
 72
8
 73
4
 74
0
 40
0
 40
0
 40
0
 40
0
 40
1
 40
1
 40
1
 40
1
 10
161.232710
 20
163.271680
 30
0.0
 10
161.162229
 20
163.274762
 30
0.0
 10
161.093727
 20
163.247922
 30
0.0
 10
161.044100
 20
163.197780
 30
0.0
  0
LINE
  5
39b
100
AcDbEntity
  8
Ebene_1
 62
7
100
AcDbLine
 10
161.044100
 20
163.197780
 30
0.0
 11
159.616790
 21
161.770470
 31
0.0
  0
LINE
  5
39c
100
AcDbEntity
  8
Ebene_1
 62
7
100
AcDbLine
 10
159.616790
 20
161.770470
 30
0.0
 11
155.590680
 21
161.764470
 31
0.0
  0
LINE
  5
39d
100
AcDbEntity
  8
Ebene_1
 62
7
100
AcDbLine
 10
155.590680
 20
161.764470
 30
0.0
 11
158.424610
 21
164.605650
 31
0.0
  0
LINE
  5
39e
100
AcDbEntity
  8
Ebene_1
 62
7
100
AcDbLine
 10
158.424610
 20
164.605650
 30
0.0
 11
160.460670
 21
164.605650
 31
0.0
  0
SPLINE
  5
39f
100
AcDbEntity
  8
Ebene_1
 62
7
100
AcDbSpline
 70
8
 71
3
 72
8
 73
4
 74
0
 40
0
 40
0
 40
0
 40
0
 40
1
 40
1
 40
1
 40
1
 10
160.460670
 20
164.605650
 30
0.0
 10
160.527191
 20
164.605482
 30
0.0
 10
160.591036
 20
164.631833
 30
0.0
 10
160.638074
 20
164.678869
 30
0.0
  0
SPLINE
  5
3a0
100
AcDbEntity
  8
Ebene_1
 62
7
100
AcDbSpline
 70
8
 71
3
 72
8
 73
4
 74
0
 40
0
 40
0
 40
0
 40
0
 40
1
 40
1
 40
1
 40
1
 10
160.638074
 20
164.678869
 30
0.0
 10
160.685112
 20
164.725906
 30
0.0
 10
160.711465
 20
164.789749
 30
0.0
 10
160.711300
 20
164.856270
 30
0.0
  0
SPLINE
  5
3a1
100
AcDbEntity
  8
Ebene_1
 62
7
100
AcDbSpline
 70
8
 71
3
 72
8
 73
4
 74
0
 40
0
 40
0
 40
0
 40
0
 40
1
 40
1
 40
1
 40
1
 10
160.711300
 20
164.856270
 30
0.0
 10
160.711080
 20
164.994029
 30
0.0
 10
160.599459
 20
165.105650
 30
0.0
 10
160.461700
 20
165.105870
 30
0.0
  0
LINE
  5
3a2
100
AcDbEntity
  8
Ebene_1
 62
7
100
AcDbLine
 10
160.461700
 20
165.105870
 30
0.0
 11
158.922780
 21
165.104870
 31
0.0
  0
LINE
  5
3a3
100
AcDbEntity
  8
Ebene_1
 62
7
100
AcDbLine
 10
158.922780
 20
165.104870
 30
0.0
 11
159.591470
 21
165.775120
 31
0.0
  0
SPLINE
  5
3a4
100
AcDbEntity
  8
Ebene_1
 62
7
100
AcDbSpline
 70
8
 71
3
 72
8
 73
4
 74
0
 40
0
 40
0
 40
0
 40
0
 40
1
 40
1
 40
1
 40
1
 10
159.591470
 20
165.775120
 30
0.0
 10
159.638644
 20
165.822042
 30
0.0
 10
159.665168
 20
165.885834
 30
0.0
 10
159.665168
 20
165.952370
 30
0.0
  0
SPLINE
  5
3a5
100
AcDbEntity
  8
Ebene_1
 62
7
100
AcDbSpline
 70
8
 71
3
 72
8
 73
4
 74
0
 40
0
 40
0
 40
0
 40
0
 40
1
 40
1
 40
1
 40
1
 10
159.665168
 20
165.952370
 30
0.0
 10
159.665168
 20
166.018906
 30
0.0
 10
159.638644
 20
166.082698
 30
0.0
 10
159.591470
 20
166.129620
 30
0.0
  0
SPLINE
  5
3a6
100
AcDbEntity
  8
Ebene_1
 62
7
100
AcDbSpline
 70
8
 71
3
 72
8
 73
4
 74
0
 40
0
 40
0
 40
0
 40
0
 40
1
 40
1
 40
1
 40
1
 10
159.591470
 20
166.129620
 30
0.0
 10
159.547160
 20
166.173624
 30
0.0
 10
159.487985
 20
166.199451
 30
0.0
 10
159.425590
 20
166.202020
 30
0.0
  0
SPLINE
  5
3a7
100
AcDbEntity
  8
Ebene_1
 62
7
100
AcDbSpline
 70
8
 71
3
 72
8
 73
4
 74
0
 40
0
 40
0
 40
0
 40
0
 40
1
 40
1
 40
1
 40
1
 10
159.425590
 20
166.202020
 30
0.0
 10
159.355106
 20
166.205105
 30
0.0
 10
159.286599
 20
166.178265
 30
0.0
 10
159.236970
 20
166.128120
 30
0.0
  0
LINE
  5
3a8
100
AcDbEntity
  8
Ebene_1
 62
7
100
AcDbLine
 10
159.236970
 20
166.128120
 30
0.0
 11
158.579640
 21
165.468730
 31
0.0
  0
LINE
  5
3a9
100
AcDbEntity
  8
Ebene_1
 62
7
100
AcDbLine
 10
158.579640
 20
165.468730
 30
0.0
 11
158.580170
 21
166.987500
 31
0.0
  0
SPLINE
  5
3aa
100
AcDbEntity
  8
Ebene_1
 62
7
100
AcDbSpline
 70
8
 71
3
 72
8
 73
4
 74
0
 40
0
 40
0
 40
0
 40
0
 40
1
 40
1
 40
1
 40
1
 10
158.580170
 20
166.987500
 30
0.0
 10
158.580338
 20
167.054023
 30
0.0
 10
158.553986
 20
167.117869
 30
0.0
 10
158.506947
 20
167.164907
 30
0.0
  0
SPLINE
  5
3ab
100
AcDbEntity
  8
Ebene_1
 62
7
100
AcDbSpline
 70
8
 71
3
 72
8
 73
4
 74
0
 40
0
 40
0
 40
0
 40
0
 40
1
 40
1
 40
1
 40
1
 10
158.506947
 20
167.164907
 30
0.0
 10
158.459909
 20
167.211946
 30
0.0
 10
158.396063
 20
167.238298
 30
0.0
 10
158.329540
 20
167.238130
 30
0.0
  0
SPLINE
  5
3ac
100
AcDbEntity
  8
Ebene_1
 62
7
100
AcDbSpline
 70
8
 71
3
 72
8
 73
4
 74
0
 40
0
 40
0
 40
0
 40
0
 40
1
 40
1
 40
1
 40
1
 10
158.329540
 20
167.238130
 30
0.0
 10
158.254221
 20
167.238298
 30
0.0
 10
158.182841
 20
167.204500
 30
0.0
 10
158.135240
 20
167.146130
 30
0.0
  0
SPLINE
  5
3ad
100
AcDbEntity
  8
Ebene_1
 62
7
100
AcDbSpline
 70
8
 71
3
 72
8
 73
4
 74
0
 40
0
 40
0
 40
0
 40
0
 40
1
 40
1
 40
1
 40
1
 10
158.135240
 20
167.146130
 30
0.0
 10
158.098584
 20
167.101207
 30
0.0
 10
158.078681
 20
167.044940
 30
0.0
 10
158.078940
 20
166.986960
 30
0.0
  0
LINE
  5
3ae
100
AcDbEntity
  8
Ebene_1
 62
7
100
AcDbLine
 10
158.078940
 20
166.986960
 30
0.0
 11
158.079940
 21
164.967970
 31
0.0
  0
LINE
  5
3af
100
AcDbEntity
  8
Ebene_1
 62
7
100
AcDbLine
 10
158.079940
 20
164.967970
 30
0.0
 11
155.236700
 21
162.116970
 31
0.0
  0
LINE
  5
3b0
100
AcDbEntity
  8
Ebene_1
 62
7
100
AcDbLine
 10
155.236700
 20
162.116970
 30
0.0
 11
155.230700
 21
166.130170
 31
0.0
  0
LINE
  5
3b1
100
AcDbEntity
  8
Ebene_1
 62
7
100
AcDbLine
 10
155.230700
 20
166.130170
 30
0.0
 11
156.671440
 21
167.569870
 31
0.0
  0
SPLINE
  5
3b2
100
AcDbEntity
  8
Ebene_1
 62
7
100
AcDbSpline
 70
8
 71
3
 72
8
 73
4
 74
0
 40
0
 40
0
 40
0
 40
0
 40
1
 40
1
 40
1
 40
1
 10
156.671440
 20
167.569870
 30
0.0
 10
156.712698
 20
167.610685
 30
0.0
 10
156.738472
 20
167.664582
 30
0.0
 10
156.744340
 20
167.722320
 30
0.0
  0
SPLINE
  5
3b3
100
AcDbEntity
  8
Ebene_1
 62
7
100
AcDbSpline
 70
8
 71
3
 72
8
 73
4
 74
0
 40
0
 40
0
 40
0
 40
0
 40
1
 40
1
 40
1
 40
1
 10
156.744340
 20
167.722320
 30
0.0
 10
156.751686
 20
167.797209
 30
0.0
 10
156.724910
 20
167.871423
 30
0.0
 10
156.671440
 20
167.924370
 30
0.0
  0
SPLINE
  5
3b4
100
AcDbEntity
  8
Ebene_1
 62
7
100
AcDbSpline
 70
8
 71
3
 72
8
 73
4
 74
0
 40
0
 40
0
 40
0
 40
0
 40
1
 40
1
 40
1
 40
1
 10
156.671440
 20
167.924370
 30
0.0
 10
156.624539
 20
167.971385
 30
0.0
 10
156.560859
 20
167.997807
 30
0.0
 10
156.494450
 20
167.997807
 30
0.0
  0
SPLINE
  5
3b5
100
AcDbEntity
  8
Ebene_1
 62
7
100
AcDbSpline
 70
8
 71
3
 72
8
 73
4
 74
0
 40
0
 40
0
 40
0
 40
0
 40
1
 40
1
 40
1
 40
1
 10
156.494450
 20
167.997807
 30
0.0
 10
156.428041
 20
167.997807
 30
0.0
 10
156.364361
 20
167.971385
 30
0.0
 10
156.317460
 20
167.924370
 30
0.0
  0
LINE
  5
3b6
100
AcDbEntity
  8
Ebene_1
 62
7
100
AcDbLine
 10
156.317460
 20
167.924370
 30
0.0
 11
155.230190
 21
166.835550
 31
0.0
  0
LINE
  5
3b7
100
AcDbEntity
  8
Ebene_1
 62
7
100
AcDbLine
 10
155.230190
 20
166.835550
 30
0.0
 11
155.228190
 21
167.782780
 31
0.0
  0
SPLINE
  5
3b8
100
AcDbEntity
  8
Ebene_1
 62
7
100
AcDbSpline
 70
8
 71
3
 72
8
 73
4
 74
0
 40
0
 40
0
 40
0
 40
0
 40
1
 40
1
 40
1
 40
1
 10
155.228190
 20
167.782780
 30
0.0
 10
155.228357
 20
167.849212
 30
0.0
 10
155.202077
 20
167.912979
 30
0.0
 10
155.155151
 20
167.960003
 30
0.0
  0
SPLINE
  5
3b9
100
AcDbEntity
  8
Ebene_1
 62
7
100
AcDbSpline
 70
8
 71
3
 72
8
 73
4
 74
0
 40
0
 40
0
 40
0
 40
0
 40
1
 40
1
 40
1
 40
1
 10
155.155151
 20
167.960003
 30
0.0
 10
155.108225
 20
168.007027
 30
0.0
 10
155.044512
 20
168.033439
 30
0.0
 10
154.978080
 20
168.033410
 30
0.0
  0
LINE
  5
3ba
100
AcDbEntity
  8
Ebene_1
 62
7
100
AcDbLine
 10
154.978080
 20
168.033410
 30
0.0
 11
154.977620
 21
168.034370
 31
0.0
  0
ENDSEC
  0
SECTION
  2
OBJECTS
  0
DICTIONARY
  5
C
330
0
100
AcDbDictionary
  3
ACAD_GROUP
350
D
  3
ACAD_MLINESTYLE
350
17
  0
DICTIONARY
  5
D
330
C
100
AcDbDictionary
  0
DICTIONARY
  5
1A
330
C
100
AcDbDictionary
  0
DICTIONARY
  5
17
330
C
100
AcDbDictionary
  3
STANDARD
350
18
  0
DICTIONARY
  5
19
330
C
100
AcDbDictionary
  0
ENDSEC
  0
EOF
