999
"DXF R12 Output" (www.mydxf.blogspot.com)
 0 
SECTION
 2 
HEADER
 9 
$ACADVER
 1 
AC1009
 9 
$EXTMIN
 10 
 0 
 20 
 0 
 9 
$EXTMAX
 10 
 8.5 
 20 
 11 
 0 
ENDSEC
 0 
SECTION
 2 
ENTITIES
0
LINE
8
Layer 1
10
0.846666
20
317.647000
11
-0.846666
21
315.953000
0
LINE
8
Layer 1
10
0.000000
20
318.211000
11
0.000000
21
315.389000
0
LINE
8
Layer 1
10
2.257780
20
315.671000
11
1.128890
21
314.542110
0
LINE
8
Layer 1
10
1.693330
20
316.236000
11
0.564440
21
315.107110
0
LINE
8
Layer 1
10
1.128890
20
316.800000
11
0.000000
21
315.671110
0
LINE
8
Layer 1
10
32.668300
20
193.822000
11
32.268815
21
193.657041
0
LINE
8
Layer 1
10
32.268815
20
193.657041
11
32.103856
21
193.257556
0
LINE
8
Layer 1
10
32.103856
20
193.257556
11
32.103900
21
130.595000
0
LINE
8
Layer 1
10
32.103900
20
130.595000
11
32.268859
21
130.195515
0
LINE
8
Layer 1
10
32.268859
20
130.195515
11
32.668344
21
130.030556
0
LINE
8
Layer 1
10
32.668344
20
130.030556
11
49.905900
21
130.031000
0
LINE
8
Layer 1
10
49.905900
20
130.031000
11
51.412106
21
127.575460
0
LINE
8
Layer 1
10
51.412106
20
127.575460
11
52.918290
21
125.571390
0
LINE
8
Layer 1
10
52.918290
20
125.571390
11
54.424474
21
124.019045
0
LINE
8
Layer 1
10
54.424474
20
124.019045
11
55.930680
21
122.918680
0
LINE
8
Layer 1
10
55.930680
20
122.918680
11
56.188100
21
122.918000
0
LINE
8
Layer 1
10
56.188100
20
122.918000
11
56.188100
21
123.716000
0
LINE
8
Layer 1
10
56.188100
20
123.716000
11
56.513866
21
127.436700
0
LINE
8
Layer 1
10
56.513866
20
127.436700
11
57.679974
21
126.639356
0
LINE
8
Layer 1
10
57.679974
20
126.639356
11
58.846056
21
126.373575
0
LINE
8
Layer 1
10
58.846056
20
126.373575
11
60.012138
21
126.639356
0
LINE
8
Layer 1
10
60.012138
20
126.639356
11
61.178246
21
127.436700
0
LINE
8
Layer 1
10
61.178246
20
127.436700
11
61.504012
21
123.716000
0
LINE
8
Layer 1
10
61.504012
20
123.716000
11
61.504000
21
122.918000
0
LINE
8
Layer 1
10
61.504000
20
122.918000
11
61.761400
21
122.918000
0
LINE
8
Layer 1
10
61.761400
20
122.918000
11
63.267606
21
124.018371
0
LINE
8
Layer 1
10
63.267606
20
124.018371
11
64.773790
21
125.570718
0
LINE
8
Layer 1
10
64.773790
20
125.570718
11
66.279974
21
127.574786
0
LINE
8
Layer 1
10
66.279974
20
127.574786
11
67.786180
21
130.030320
0
LINE
8
Layer 1
10
67.786180
20
130.030320
11
85.339600
21
130.031000
0
LINE
8
Layer 1
10
85.339600
20
130.031000
11
86.845806
21
127.575460
0
LINE
8
Layer 1
10
86.845806
20
127.575460
11
88.351990
21
125.571390
0
LINE
8
Layer 1
10
88.351990
20
125.571390
11
89.858174
21
124.019045
0
LINE
8
Layer 1
10
89.858174
20
124.019045
11
91.364380
21
122.918680
0
LINE
8
Layer 1
10
91.364380
20
122.918680
11
91.622400
21
122.918000
0
LINE
8
Layer 1
10
91.622400
20
122.918000
11
91.622400
21
123.716000
0
LINE
8
Layer 1
10
91.622400
20
123.716000
11
91.947619
21
127.436700
0
LINE
8
Layer 1
10
91.947619
20
127.436700
11
93.113727
21
126.639356
0
LINE
8
Layer 1
10
93.113727
20
126.639356
11
94.279809
21
126.373575
0
LINE
8
Layer 1
10
94.279809
20
126.373575
11
95.445891
21
126.639356
0
LINE
8
Layer 1
10
95.445891
20
126.639356
11
96.611999
21
127.436700
0
LINE
8
Layer 1
10
96.611999
20
127.436700
11
96.937768
21
123.716000
0
LINE
8
Layer 1
10
96.937768
20
123.716000
11
96.937700
21
122.918000
0
LINE
8
Layer 1
10
96.937700
20
122.918000
11
97.195200
21
122.918000
0
LINE
8
Layer 1
10
97.195200
20
122.918000
11
98.701406
21
124.018371
0
LINE
8
Layer 1
10
98.701406
20
124.018371
11
100.207590
21
125.570718
0
LINE
8
Layer 1
10
100.207590
20
125.570718
11
101.713774
21
127.574786
0
LINE
8
Layer 1
10
101.713774
20
127.574786
11
103.219980
21
130.030320
0
LINE
8
Layer 1
10
103.219980
20
130.030320
11
120.773000
21
130.031000
0
LINE
8
Layer 1
10
120.773000
20
130.031000
11
122.279295
21
127.575457
0
LINE
8
Layer 1
10
122.279295
20
127.575457
11
123.785665
21
125.571390
0
LINE
8
Layer 1
10
123.785665
20
125.571390
11
125.292035
21
124.019048
0
LINE
8
Layer 1
10
125.292035
20
124.019048
11
126.798330
21
122.918680
0
LINE
8
Layer 1
10
126.798330
20
122.918680
11
127.056000
21
122.918000
0
LINE
8
Layer 1
10
127.056000
20
122.918000
11
127.056000
21
123.716000
0
LINE
8
Layer 1
10
127.056000
20
123.716000
11
127.381216
21
127.436700
0
LINE
8
Layer 1
10
127.381216
20
127.436700
11
128.547410
21
126.639356
0
LINE
8
Layer 1
10
128.547410
20
126.639356
11
129.713681
21
126.373575
0
LINE
8
Layer 1
10
129.713681
20
126.373575
11
130.879952
21
126.639356
0
LINE
8
Layer 1
10
130.879952
20
126.639356
11
132.046146
21
127.436700
0
LINE
8
Layer 1
10
132.046146
20
127.436700
11
132.371362
21
123.716000
0
LINE
8
Layer 1
10
132.371362
20
123.716000
11
132.371000
21
122.918000
0
LINE
8
Layer 1
10
132.371000
20
122.918000
11
132.629000
21
122.918000
0
LINE
8
Layer 1
10
132.629000
20
122.918000
11
134.135291
21
124.018368
0
LINE
8
Layer 1
10
134.135291
20
124.018368
11
135.641661
21
125.570710
0
LINE
8
Layer 1
10
135.641661
20
125.570710
11
137.148034
21
127.574777
0
LINE
8
Layer 1
10
137.148034
20
127.574777
11
138.654330
21
130.030320
0
LINE
8
Layer 1
10
138.654330
20
130.030320
11
156.207000
21
130.031000
0
LINE
8
Layer 1
10
156.207000
20
130.031000
11
157.713295
21
127.575457
0
LINE
8
Layer 1
10
157.713295
20
127.575457
11
159.219665
21
125.571390
0
LINE
8
Layer 1
10
159.219665
20
125.571390
11
160.726035
21
124.019048
0
LINE
8
Layer 1
10
160.726035
20
124.019048
11
162.232330
21
122.918680
0
LINE
8
Layer 1
10
162.232330
20
122.918680
11
162.490000
21
122.918000
0
LINE
8
Layer 1
10
162.490000
20
122.918000
11
162.490000
21
123.716000
0
LINE
8
Layer 1
10
162.490000
20
123.716000
11
162.815219
21
127.436700
0
LINE
8
Layer 1
10
162.815219
20
127.436700
11
163.981413
21
126.639356
0
LINE
8
Layer 1
10
163.981413
20
126.639356
11
165.147684
21
126.373575
0
LINE
8
Layer 1
10
165.147684
20
126.373575
11
166.313955
21
126.639356
0
LINE
8
Layer 1
10
166.313955
20
126.639356
11
167.480149
21
127.436700
0
LINE
8
Layer 1
10
167.480149
20
127.436700
11
167.805368
21
123.716000
0
LINE
8
Layer 1
10
167.805368
20
123.716000
11
167.805000
21
122.918000
0
LINE
8
Layer 1
10
167.805000
20
122.918000
11
168.063000
21
122.918000
0
LINE
8
Layer 1
10
168.063000
20
122.918000
11
169.569292
21
124.018371
0
LINE
8
Layer 1
10
169.569292
20
124.018371
11
171.075665
21
125.570718
0
LINE
8
Layer 1
10
171.075665
20
125.570718
11
172.582038
21
127.574786
0
LINE
8
Layer 1
10
172.582038
20
127.574786
11
174.088330
21
130.030320
0
LINE
8
Layer 1
10
174.088330
20
130.030320
11
191.331000
21
130.031000
0
LINE
8
Layer 1
10
191.331000
20
130.031000
11
191.730485
21
130.195959
0
LINE
8
Layer 1
10
191.730485
20
130.195959
11
191.895444
21
130.595444
0
LINE
8
Layer 1
10
191.895444
20
130.595444
11
191.896000
21
193.258000
0
LINE
8
Layer 1
10
191.896000
20
193.258000
11
191.731041
21
193.657485
0
LINE
8
Layer 1
10
191.731041
20
193.657485
11
191.331556
21
193.822444
0
LINE
8
Layer 1
10
191.331556
20
193.822444
11
32.668300
21
193.822000
0
LINE
8
Layer 1
10
58.588800
20
171.711000
11
58.588800
21
169.437000
0
LINE
8
Layer 1
10
58.588800
20
169.437000
11
58.666807
21
169.249447
0
LINE
8
Layer 1
10
58.666807
20
169.249447
11
58.854511
21
169.171804
0
LINE
8
Layer 1
10
58.854511
20
169.171804
11
59.042214
21
169.249447
0
LINE
8
Layer 1
10
59.042214
20
169.249447
11
59.120221
21
169.437000
0
LINE
8
Layer 1
10
59.120221
20
169.437000
11
59.120200
21
171.711000
0
LINE
8
Layer 1
10
59.120200
20
171.711000
11
59.042193
21
171.898553
0
LINE
8
Layer 1
10
59.042193
20
171.898553
11
58.854489
21
171.976196
0
LINE
8
Layer 1
10
58.854489
20
171.976196
11
58.666786
21
171.898553
0
LINE
8
Layer 1
10
58.666786
20
171.898553
11
58.588779
21
171.711000
0
LINE
8
Layer 1
10
58.588779
20
171.711000
11
58.588800
21
171.711000
0
LINE
8
Layer 1
10
61.226300
20
172.392000
11
62.562860
21
170.552380
0
LINE
8
Layer 1
10
62.562860
20
170.552380
11
62.736258
21
170.446121
0
LINE
8
Layer 1
10
62.736258
20
170.446121
11
62.934004
21
170.493596
0
LINE
8
Layer 1
10
62.934004
20
170.493596
11
63.040263
21
170.666993
0
LINE
8
Layer 1
10
63.040263
20
170.666993
11
62.992789
21
170.864740
0
LINE
8
Layer 1
10
62.992789
20
170.864740
11
61.656219
21
172.704360
0
LINE
8
Layer 1
10
61.656219
20
172.704360
11
61.482890
21
172.810091
0
LINE
8
Layer 1
10
61.482890
20
172.810091
11
61.285499
21
172.762560
0
LINE
8
Layer 1
10
61.285499
20
172.762560
11
61.179298
21
172.589519
0
LINE
8
Layer 1
10
61.179298
20
172.589519
11
61.226293
21
172.392000
0
LINE
8
Layer 1
10
61.226293
20
172.392000
11
61.226300
21
172.392000
0
LINE
8
Layer 1
10
62.960100
20
174.493000
11
65.122710
21
173.790326
0
LINE
8
Layer 1
10
65.122710
20
173.790326
11
65.325115
21
173.806635
0
LINE
8
Layer 1
10
65.325115
20
173.806635
11
65.456897
21
173.961125
0
LINE
8
Layer 1
10
65.456897
20
173.961125
11
65.441091
21
174.163570
0
LINE
8
Layer 1
10
65.441091
20
174.163570
11
65.286927
21
174.295735
0
LINE
8
Layer 1
10
65.286927
20
174.295735
11
63.124317
21
174.998409
0
LINE
8
Layer 1
10
63.124317
20
174.998409
11
62.921912
21
174.982100
0
LINE
8
Layer 1
10
62.921912
20
174.982100
11
62.790130
21
174.827610
0
LINE
8
Layer 1
10
62.790130
20
174.827610
11
62.805936
21
174.625165
0
LINE
8
Layer 1
10
62.805936
20
174.625165
11
62.960100
21
174.493000
0
LINE
8
Layer 1
10
62.960100
20
174.493000
11
62.960100
21
174.493000
0
LINE
8
Layer 1
10
63.127800
20
177.212000
11
65.290410
21
177.914674
0
LINE
8
Layer 1
10
65.290410
20
177.914674
11
65.444901
21
178.046778
0
LINE
8
Layer 1
10
65.444901
20
178.046778
11
65.460809
21
178.249425
0
LINE
8
Layer 1
10
65.460809
20
178.249425
11
65.328826
21
178.404019
0
LINE
8
Layer 1
10
65.328826
20
178.404019
11
65.126191
21
178.420086
0
LINE
8
Layer 1
10
65.126191
20
178.420086
11
62.963581
21
177.717410
0
LINE
8
Layer 1
10
62.963581
20
177.717410
11
62.809317
21
177.585264
0
LINE
8
Layer 1
10
62.809317
20
177.585264
11
62.793480
21
177.382756
0
LINE
8
Layer 1
10
62.793480
20
177.382756
11
62.925324
21
177.228234
0
LINE
8
Layer 1
10
62.925324
20
177.228234
11
63.127800
21
177.212001
0
LINE
8
Layer 1
10
63.127800
20
177.212001
11
63.127800
21
177.212000
0
LINE
8
Layer 1
10
61.665400
20
179.510000
11
63.001970
21
181.349620
0
LINE
8
Layer 1
10
63.001970
20
181.349620
11
63.029743
21
181.613875
0
LINE
8
Layer 1
10
63.029743
20
181.613875
11
62.814779
21
181.770054
0
LINE
8
Layer 1
10
62.814779
20
181.770054
11
62.572041
21
181.661980
0
LINE
8
Layer 1
10
62.572041
20
181.661980
11
61.235481
21
179.822360
0
LINE
8
Layer 1
10
61.235481
20
179.822360
11
61.188486
21
179.624841
0
LINE
8
Layer 1
10
61.188486
20
179.624841
11
61.294687
21
179.451800
0
LINE
8
Layer 1
10
61.294687
20
179.451800
11
61.492078
21
179.404269
0
LINE
8
Layer 1
10
61.492078
20
179.404269
11
61.665407
21
179.510000
0
LINE
8
Layer 1
10
61.665407
20
179.510000
11
61.665400
21
179.510000
0
LINE
8
Layer 1
10
59.131500
20
180.509000
11
59.131500
21
182.783000
0
LINE
8
Layer 1
10
59.131500
20
182.783000
11
59.053418
21
182.970414
0
LINE
8
Layer 1
10
59.053418
20
182.970414
11
58.865791
21
183.047981
0
LINE
8
Layer 1
10
58.865791
20
183.047981
11
58.678164
21
182.970414
0
LINE
8
Layer 1
10
58.678164
20
182.970414
11
58.600082
21
182.783000
0
LINE
8
Layer 1
10
58.600082
20
182.783000
11
58.600100
21
180.509000
0
LINE
8
Layer 1
10
58.600100
20
180.509000
11
58.678182
21
180.321586
0
LINE
8
Layer 1
10
58.678182
20
180.321586
11
58.865809
21
180.244019
0
LINE
8
Layer 1
10
58.865809
20
180.244019
11
59.053436
21
180.321586
0
LINE
8
Layer 1
10
59.053436
20
180.321586
11
59.131518
21
180.509000
0
LINE
8
Layer 1
10
59.131518
20
180.509000
11
59.131500
21
180.509000
0
LINE
8
Layer 1
10
56.494000
20
179.829000
11
55.157430
21
181.668620
0
LINE
8
Layer 1
10
55.157430
20
181.668620
11
54.984101
21
181.774351
0
LINE
8
Layer 1
10
54.984101
20
181.774351
11
54.786710
21
181.726820
0
LINE
8
Layer 1
10
54.786710
20
181.726820
11
54.680509
21
181.553779
0
LINE
8
Layer 1
10
54.680509
20
181.553779
11
54.727504
21
181.356260
0
LINE
8
Layer 1
10
54.727504
20
181.356260
11
56.064064
21
179.516640
0
LINE
8
Layer 1
10
56.064064
20
179.516640
11
56.306802
21
179.408566
0
LINE
8
Layer 1
10
56.306802
20
179.408566
11
56.521766
21
179.564745
0
LINE
8
Layer 1
10
56.521766
20
179.564745
11
56.493993
21
179.829000
0
LINE
8
Layer 1
10
56.493993
20
179.829000
11
56.494000
21
179.829000
0
LINE
8
Layer 1
10
54.760200
20
177.728000
11
52.597590
21
178.430674
0
LINE
8
Layer 1
10
52.597590
20
178.430674
11
52.394851
21
178.414717
0
LINE
8
Layer 1
10
52.394851
20
178.414717
11
52.262776
21
178.260076
0
LINE
8
Layer 1
10
52.262776
20
178.260076
11
52.278732
21
178.057338
0
LINE
8
Layer 1
10
52.278732
20
178.057338
11
52.433373
21
177.925263
0
LINE
8
Layer 1
10
52.433373
20
177.925263
11
54.595983
21
177.222588
0
LINE
8
Layer 1
10
54.595983
20
177.222588
11
54.855887
21
177.277833
0
LINE
8
Layer 1
10
54.855887
20
177.277833
11
54.937995
21
177.530539
0
LINE
8
Layer 1
10
54.937995
20
177.530539
11
54.760200
21
177.727999
0
LINE
8
Layer 1
10
54.760200
20
177.727999
11
54.760200
21
177.728000
0
LINE
8
Layer 1
10
54.592500
20
175.009000
11
52.429890
21
174.306324
0
LINE
8
Layer 1
10
52.429890
20
174.306324
11
52.275726
21
174.174159
0
LINE
8
Layer 1
10
52.275726
20
174.174159
11
52.259920
21
173.971714
0
LINE
8
Layer 1
10
52.259920
20
173.971714
11
52.391702
21
173.817224
0
LINE
8
Layer 1
10
52.391702
20
173.817224
11
52.594107
21
173.800915
0
LINE
8
Layer 1
10
52.594107
20
173.800915
11
54.756717
21
174.503589
0
LINE
8
Layer 1
10
54.756717
20
174.503589
11
54.911358
21
174.635665
0
LINE
8
Layer 1
10
54.911358
20
174.635665
11
54.927314
21
174.838403
0
LINE
8
Layer 1
10
54.927314
20
174.838403
11
54.795239
21
174.993044
0
LINE
8
Layer 1
10
54.795239
20
174.993044
11
54.592500
21
175.009000
0
LINE
8
Layer 1
10
54.592500
20
175.009000
11
54.592500
21
175.009000
0
LINE
8
Layer 1
10
56.054900
20
172.711000
11
54.718340
21
170.871380
0
LINE
8
Layer 1
10
54.718340
20
170.871380
11
54.671345
21
170.673861
0
LINE
8
Layer 1
10
54.671345
20
170.673861
11
54.777546
21
170.500820
0
LINE
8
Layer 1
10
54.777546
20
170.500820
11
54.974937
21
170.453289
0
LINE
8
Layer 1
10
54.974937
20
170.453289
11
55.148266
21
170.559020
0
LINE
8
Layer 1
10
55.148266
20
170.559020
11
56.484836
21
172.398640
0
LINE
8
Layer 1
10
56.484836
20
172.398640
11
56.512609
21
172.662895
0
LINE
8
Layer 1
10
56.512609
20
172.662895
11
56.297645
21
172.819074
0
LINE
8
Layer 1
10
56.297645
20
172.819074
11
56.054907
21
172.711000
0
LINE
8
Layer 1
10
56.054907
20
172.711000
11
56.054900
21
172.711000
0
LINE
8
Layer 1
10
58.567800
20
158.628000
11
58.706920
21
158.868963
0
LINE
8
Layer 1
10
58.706920
20
158.868963
11
58.985160
21
158.868963
0
LINE
8
Layer 1
10
58.985160
20
158.868963
11
59.124280
21
158.628000
0
LINE
8
Layer 1
10
59.124280
20
158.628000
11
59.124300
21
146.624000
0
LINE
8
Layer 1
10
59.124300
20
146.624000
11
58.985180
21
146.383037
0
LINE
8
Layer 1
10
58.985180
20
146.383037
11
58.706940
21
146.383037
0
LINE
8
Layer 1
10
58.706940
20
146.383037
11
58.567820
21
146.624000
0
LINE
8
Layer 1
10
58.567820
20
146.624000
11
58.567800
21
158.628000
0
LINE
8
Layer 1
10
164.869000
20
158.628000
11
164.950680
21
158.824404
0
LINE
8
Layer 1
10
164.950680
20
158.824404
11
165.147238
21
158.905712
0
LINE
8
Layer 1
10
165.147238
20
158.905712
11
165.343797
21
158.824404
0
LINE
8
Layer 1
10
165.343797
20
158.824404
11
165.425477
21
158.628000
0
LINE
8
Layer 1
10
165.425477
20
158.628000
11
165.426000
21
146.624000
0
LINE
8
Layer 1
10
165.426000
20
146.624000
11
165.344320
21
146.427596
0
LINE
8
Layer 1
10
165.344320
20
146.427596
11
165.147761
21
146.346288
0
LINE
8
Layer 1
10
165.147761
20
146.346288
11
164.951203
21
146.427596
0
LINE
8
Layer 1
10
164.951203
20
146.427596
11
164.869523
21
146.624000
0
LINE
8
Layer 1
10
164.869523
20
146.624000
11
164.869000
21
158.628000
0
LINE
8
Layer 1
10
129.436000
20
158.628000
11
129.517680
21
158.824404
0
LINE
8
Layer 1
10
129.517680
20
158.824404
11
129.714239
21
158.905712
0
LINE
8
Layer 1
10
129.714239
20
158.905712
11
129.910797
21
158.824404
0
LINE
8
Layer 1
10
129.910797
20
158.824404
11
129.992477
21
158.628000
0
LINE
8
Layer 1
10
129.992477
20
158.628000
11
129.992000
21
146.624000
0
LINE
8
Layer 1
10
129.992000
20
146.624000
11
129.910320
21
146.427596
0
LINE
8
Layer 1
10
129.910320
20
146.427596
11
129.713761
21
146.346288
0
LINE
8
Layer 1
10
129.713761
20
146.346288
11
129.517203
21
146.427596
0
LINE
8
Layer 1
10
129.517203
20
146.427596
11
129.435523
21
146.624000
0
LINE
8
Layer 1
10
129.435523
20
146.624000
11
129.436000
21
158.628000
0
LINE
8
Layer 1
10
94.001700
20
158.628000
11
94.083195
21
158.824745
0
LINE
8
Layer 1
10
94.083195
20
158.824745
11
94.279940
21
158.906240
0
LINE
8
Layer 1
10
94.279940
20
158.906240
11
94.476685
21
158.824745
0
LINE
8
Layer 1
10
94.476685
20
158.824745
11
94.558180
21
158.628000
0
LINE
8
Layer 1
10
94.558180
20
158.628000
11
94.558200
21
146.624000
0
LINE
8
Layer 1
10
94.558200
20
146.624000
11
94.419080
21
146.383037
0
LINE
8
Layer 1
10
94.419080
20
146.383037
11
94.140840
21
146.383037
0
LINE
8
Layer 1
10
94.140840
20
146.383037
11
94.001720
21
146.624000
0
LINE
8
Layer 1
10
94.001720
20
146.624000
11
94.001700
21
158.628000
0
LINE
8
Layer 1
10
124.880000
20
178.659000
11
123.725698
21
178.459500
0
LINE
8
Layer 1
10
123.725698
20
178.459500
11
122.754798
21
177.804088
0
LINE
8
Layer 1
10
122.754798
20
177.804088
11
122.138166
21
176.808108
0
LINE
8
Layer 1
10
122.138166
20
176.808108
11
121.984320
21
175.646840
0
LINE
8
Layer 1
10
124.880000
20
178.659000
11
125.505265
21
178.831960
0
LINE
8
Layer 1
10
125.505265
20
178.831960
11
125.913600
21
179.336076
0
LINE
8
Layer 1
10
134.685000
20
177.892000
11
134.349157
21
179.416962
0
LINE
8
Layer 1
10
134.349157
20
179.416962
11
133.544194
21
180.705982
0
LINE
8
Layer 1
10
133.544194
20
180.705982
11
132.359719
21
181.658115
0
LINE
8
Layer 1
10
132.359719
20
181.658115
11
130.885340
21
182.172416
0
LINE
8
Layer 1
10
130.885340
20
182.172416
11
129.323901
21
182.158023
0
LINE
8
Layer 1
10
129.323901
20
182.158023
11
127.896670
21
181.635959
0
LINE
8
Layer 1
10
127.896670
20
181.635959
11
126.720892
21
180.673107
0
LINE
8
Layer 1
10
126.720892
20
180.673107
11
125.913810
21
179.336350
0
LINE
8
Layer 1
10
134.685000
20
177.892000
11
134.988472
21
177.194309
0
LINE
8
Layer 1
10
134.988472
20
177.194309
11
135.680479
21
176.878090
0
LINE
8
Layer 1
10
135.488000
20
173.154000
11
136.214093
21
173.269074
0
LINE
8
Layer 1
10
136.214093
20
173.269074
11
136.820026
21
173.639209
0
LINE
8
Layer 1
10
136.820026
20
173.639209
11
137.244429
21
174.208452
0
LINE
8
Layer 1
10
137.244429
20
174.208452
11
137.425930
21
174.920849
0
LINE
8
Layer 1
10
137.425930
20
174.920849
11
137.318913
21
175.648173
0
LINE
8
Layer 1
10
137.318913
20
175.648173
11
136.955519
21
176.258173
0
LINE
8
Layer 1
10
136.955519
20
176.258173
11
136.391017
21
176.688861
0
LINE
8
Layer 1
10
136.391017
20
176.688861
11
135.680676
21
176.878250
0
LINE
8
Layer 1
10
125.321000
20
173.132000
11
127.829902
21
173.438205
0
LINE
8
Layer 1
10
127.829902
20
173.438205
11
130.367048
21
173.446839
0
LINE
8
Layer 1
10
130.367048
20
173.446839
11
135.487600
21
173.153675
0
LINE
8
Layer 1
10
121.985000
20
175.647000
11
122.121084
21
174.917090
0
LINE
8
Layer 1
10
122.121084
20
174.917090
11
122.385940
21
174.318137
0
LINE
8
Layer 1
10
122.385940
20
174.318137
11
123.204992
21
173.488639
0
LINE
8
Layer 1
10
123.204992
20
173.488639
11
124.248202
21
173.109581
0
LINE
8
Layer 1
10
124.248202
20
173.109581
11
125.321620
21
173.132040
0
LINE
8
Layer 1
10
98.580800
20
179.778000
11
98.419296
21
179.654337
0
LINE
8
Layer 1
10
98.419296
20
179.654337
11
98.217629
21
179.680921
0
LINE
8
Layer 1
10
98.217629
20
179.680921
11
98.093687
21
179.842211
0
LINE
8
Layer 1
10
98.093687
20
179.842211
11
98.119923
21
180.043924
0
LINE
8
Layer 1
10
98.119923
20
180.043924
11
99.223393
21
181.956364
0
LINE
8
Layer 1
10
99.223393
20
181.956364
11
99.384894
21
182.079917
0
LINE
8
Layer 1
10
99.384894
20
182.079917
11
99.586488
21
182.053313
0
LINE
8
Layer 1
10
99.586488
20
182.053313
11
99.710410
21
181.892094
0
LINE
8
Layer 1
10
99.710410
20
181.892094
11
99.684267
21
181.690440
0
LINE
8
Layer 1
10
99.684267
20
181.690440
11
98.580800
21
179.778000
0
LINE
8
Layer 1
10
96.490000
20
180.472000
11
96.357039
21
180.241561
0
LINE
8
Layer 1
10
96.357039
20
180.241561
11
96.090993
21
180.241489
0
LINE
8
Layer 1
10
96.090993
20
180.241489
11
95.957908
21
180.471856
0
LINE
8
Layer 1
10
95.957908
20
180.471856
11
95.957343
21
182.679806
0
LINE
8
Layer 1
10
95.957343
20
182.679806
11
96.035215
21
182.867950
0
LINE
8
Layer 1
10
96.035215
20
182.867950
11
96.223317
21
182.945924
0
LINE
8
Layer 1
10
96.223317
20
182.945924
11
96.411461
21
182.868052
0
LINE
8
Layer 1
10
96.411461
20
182.868052
11
96.489435
21
182.679950
0
LINE
8
Layer 1
10
96.489435
20
182.679950
11
96.490000
21
180.472000
0
LINE
8
Layer 1
10
94.362900
20
179.947000
11
94.332674
21
180.026496
0
LINE
8
Layer 1
10
95.054800
20
179.691000
11
94.362910
21
179.947402
0
LINE
8
Layer 1
10
99.525100
20
174.596000
11
99.858576
21
175.632410
0
LINE
8
Layer 1
10
99.858576
20
175.632410
11
99.875514
21
176.698721
0
LINE
8
Layer 1
10
99.875514
20
176.698721
11
99.585072
21
177.724854
0
LINE
8
Layer 1
10
99.585072
20
177.724854
11
98.996411
21
178.640731
0
LINE
8
Layer 1
10
98.996411
20
178.640731
11
98.164876
21
179.343513
0
LINE
8
Layer 1
10
98.164876
20
179.343513
11
97.185236
21
179.764950
0
LINE
8
Layer 1
10
97.185236
20
179.764950
11
96.125780
21
179.886845
0
LINE
8
Layer 1
10
96.125780
20
179.886845
11
95.054800
21
179.691000
0
LINE
8
Layer 1
10
99.763900
20
174.323000
11
99.525123
21
174.595911
0
LINE
8
Layer 1
10
100.062000
20
174.345000
11
99.763725
21
174.323015
0
LINE
8
Layer 1
10
100.062000
20
174.345000
11
101.974440
21
173.241530
0
LINE
8
Layer 1
10
101.709000
20
172.781000
11
101.975312
21
172.780765
0
LINE
8
Layer 1
10
101.975312
20
172.780765
11
102.108406
21
173.011433
0
LINE
8
Layer 1
10
102.108406
20
173.011433
11
101.974924
21
173.241877
0
LINE
8
Layer 1
10
101.709000
20
172.781000
11
100.031000
21
173.749000
0
LINE
8
Layer 1
10
98.359500
20
171.547000
11
99.124230
21
171.737716
0
LINE
8
Layer 1
10
99.124230
20
171.737716
11
99.729088
21
172.243018
0
LINE
8
Layer 1
10
99.729088
20
172.243018
11
100.052823
21
172.961613
0
LINE
8
Layer 1
10
100.052823
20
172.961613
11
100.030540
21
173.749450
0
LINE
8
Layer 1
10
97.174000
20
171.527000
11
98.359510
21
171.546360
0
LINE
8
Layer 1
10
88.726700
20
171.537000
11
97.174020
21
171.527658
0
LINE
8
Layer 1
10
88.726700
20
171.537000
11
87.455430
21
171.688632
0
LINE
8
Layer 1
10
88.262800
20
176.748000
11
87.330871
21
176.607567
0
LINE
8
Layer 1
10
87.330871
20
176.607567
11
86.533744
21
176.159643
0
LINE
8
Layer 1
10
86.533744
20
176.159643
11
85.942100
21
175.462503
0
LINE
8
Layer 1
10
85.942100
20
175.462503
11
85.626617
21
174.574424
0
LINE
8
Layer 1
10
85.626617
20
174.574424
11
85.650055
21
173.632265
0
LINE
8
Layer 1
10
85.650055
20
173.632265
11
85.995362
21
172.785619
0
LINE
8
Layer 1
10
85.995362
20
172.785619
11
86.613506
21
172.111864
0
LINE
8
Layer 1
10
86.613506
20
172.111864
11
87.455453
21
171.688380
0
LINE
8
Layer 1
10
88.262800
20
176.748000
11
88.880604
21
176.920965
0
LINE
8
Layer 1
10
88.880604
20
176.920965
11
89.286400
21
177.417885
0
LINE
8
Layer 1
10
93.690400
20
180.075000
11
92.300669
21
179.995180
0
LINE
8
Layer 1
10
92.300669
20
179.995180
11
91.040980
21
179.488079
0
LINE
8
Layer 1
10
91.040980
20
179.488079
11
90.004984
21
178.610196
0
LINE
8
Layer 1
10
90.004984
20
178.610196
11
89.286330
21
177.418030
0
LINE
8
Layer 1
10
93.690400
20
180.075000
11
92.767435
21
181.672650
0
LINE
8
Layer 1
10
93.228200
20
181.939000
11
92.997676
21
182.072408
0
LINE
8
Layer 1
10
92.997676
20
182.072408
11
92.767052
21
181.939174
0
LINE
8
Layer 1
10
92.767052
20
181.939174
11
92.767467
21
181.672831
0
LINE
8
Layer 1
10
93.228200
20
181.939000
11
94.332680
21
180.027150
0
LINE
8
Layer 1
10
99.778600
20
178.593000
11
99.654925
21
178.431427
0
LINE
8
Layer 1
10
99.654925
20
178.431427
11
99.681599
21
178.229711
0
LINE
8
Layer 1
10
99.681599
20
178.229711
11
99.843020
21
178.105838
0
LINE
8
Layer 1
10
99.843020
20
178.105838
11
100.044769
21
178.132264
0
LINE
8
Layer 1
10
99.778600
20
178.593000
11
101.690450
21
179.697480
0
LINE
8
Layer 1
10
101.957000
20
179.237000
11
102.089547
21
179.467864
0
LINE
8
Layer 1
10
102.089547
20
179.467864
11
101.956208
21
179.698085
0
LINE
8
Layer 1
10
101.956208
20
179.698085
11
101.690161
21
179.697721
0
LINE
8
Layer 1
10
101.957000
20
179.237000
11
100.045150
21
178.132520
0
LINE
8
Layer 1
10
100.490000
20
176.507000
11
100.259633
21
176.373914
0
LINE
8
Layer 1
10
100.259633
20
176.373914
11
100.259705
21
176.107868
0
LINE
8
Layer 1
10
100.259705
20
176.107868
11
100.490144
21
175.974908
0
LINE
8
Layer 1
10
100.490000
20
176.507000
11
102.697950
21
176.507564
0
LINE
8
Layer 1
10
102.698000
20
175.976000
11
102.886102
21
176.053973
0
LINE
8
Layer 1
10
102.886102
20
176.053973
11
102.963975
21
176.242117
0
LINE
8
Layer 1
10
102.963975
20
176.242117
11
102.886002
21
176.430219
0
LINE
8
Layer 1
10
102.886002
20
176.430219
11
102.697859
21
176.508092
0
LINE
8
Layer 1
10
102.698000
20
175.976000
11
100.490050
21
175.975436
0
LINE
8
Layer 1
10
165.416000
20
171.202000
11
166.933950
21
169.685150
0
LINE
8
Layer 1
10
167.011000
20
169.524000
11
166.933499
21
169.685521
0
LINE
8
Layer 1
10
166.934000
20
169.308000
11
167.011501
21
169.523355
0
LINE
8
Layer 1
10
166.557000
20
169.308000
11
166.745161
21
169.229927
0
LINE
8
Layer 1
10
166.745161
20
169.229927
11
166.933323
21
169.308000
0
LINE
8
Layer 1
10
166.557000
20
169.308000
11
165.416470
21
170.450160
0
LINE
8
Layer 1
10
165.417000
20
170.451000
11
165.418129
21
169.460469
0
LINE
8
Layer 1
10
165.153000
20
169.194000
11
165.340345
21
169.272242
0
LINE
8
Layer 1
10
165.340345
20
169.272242
11
165.417803
21
169.459898
0
LINE
8
Layer 1
10
164.887000
20
169.458000
11
164.965623
21
169.270817
0
LINE
8
Layer 1
10
164.965623
20
169.270817
11
165.153449
21
169.193750
0
LINE
8
Layer 1
10
164.887000
20
169.458000
11
164.884742
21
170.466110
0
LINE
8
Layer 1
10
164.884000
20
170.467000
11
163.727560
21
169.308900
0
LINE
8
Layer 1
10
163.353000
20
169.308000
11
163.540614
21
169.230475
0
LINE
8
Layer 1
10
163.540614
20
169.230475
11
163.728228
21
169.308000
0
LINE
8
Layer 1
10
163.353000
20
169.685000
11
163.274652
21
169.496562
0
LINE
8
Layer 1
10
163.274652
20
169.496562
11
163.353000
21
169.308124
0
LINE
8
Layer 1
10
163.353000
20
169.685000
11
164.883580
21
171.215590
0
LINE
8
Layer 1
10
164.883000
20
171.216000
11
164.876622
21
175.481960
0
LINE
8
Layer 1
10
164.877000
20
175.482000
11
161.855000
21
172.452000
0
LINE
8
Layer 1
10
161.855000
20
172.452000
11
161.855000
21
170.306000
0
LINE
8
Layer 1
10
161.588000
20
170.039000
11
161.776605
21
170.116842
0
LINE
8
Layer 1
10
161.776605
20
170.116842
11
161.854449
21
170.305446
0
LINE
8
Layer 1
10
161.323000
20
170.304000
11
161.400846
21
170.116502
0
LINE
8
Layer 1
10
161.400846
20
170.116502
11
161.588345
21
170.038655
0
LINE
8
Layer 1
10
161.323000
20
170.304000
11
161.323564
21
171.919740
0
LINE
8
Layer 1
10
161.324000
20
171.920000
11
160.624084
21
171.217882
0
LINE
8
Layer 1
10
160.248000
20
171.216000
11
160.436054
21
171.139552
0
LINE
8
Layer 1
10
160.436054
20
171.139552
11
160.623228
21
171.218258
0
LINE
8
Layer 1
10
160.248000
20
171.593000
11
160.169653
21
171.404561
0
LINE
8
Layer 1
10
160.169653
20
171.404561
11
160.248003
21
171.216124
0
LINE
8
Layer 1
10
160.248000
20
171.593000
11
160.958350
21
172.305004
0
LINE
8
Layer 1
10
160.959000
20
172.305000
11
159.323490
21
172.304436
0
LINE
8
Layer 1
10
159.134000
20
172.382000
11
159.322965
21
172.304349
0
LINE
8
Layer 1
10
159.056000
20
172.571000
11
159.134037
21
172.382196
0
LINE
8
Layer 1
10
159.154000
20
172.777000
11
159.056193
21
172.570978
0
LINE
8
Layer 1
10
159.154000
20
172.777000
11
159.154000
21
172.777000
0
LINE
8
Layer 1
10
159.323000
20
172.837000
11
159.153783
21
172.777146
0
LINE
8
Layer 1
10
159.323000
20
172.837000
11
161.488120
21
172.835871
0
LINE
8
Layer 1
10
161.488000
20
172.836000
11
164.499720
21
175.855960
0
LINE
8
Layer 1
10
164.500000
20
175.856000
11
160.221400
21
175.850694
0
LINE
8
Layer 1
10
160.222000
20
175.851000
11
158.702950
21
174.333610
0
LINE
8
Layer 1
10
158.327000
20
174.333000
11
158.514614
21
174.255475
0
LINE
8
Layer 1
10
158.514614
20
174.255475
11
158.702228
21
174.333000
0
LINE
8
Layer 1
10
158.327000
20
174.709000
11
158.249475
21
174.521387
0
LINE
8
Layer 1
10
158.249475
20
174.521387
11
158.327000
21
174.333772
0
LINE
8
Layer 1
10
158.327000
20
174.709000
11
159.466970
21
175.850070
0
LINE
8
Layer 1
10
159.467000
20
175.850000
11
158.477564
21
175.848871
0
LINE
8
Layer 1
10
158.212000
20
176.115000
11
158.289654
21
175.926586
0
LINE
8
Layer 1
10
158.289654
20
175.926586
11
158.477910
21
175.848549
0
LINE
8
Layer 1
10
158.477000
20
176.381000
11
158.289658
21
176.302760
0
LINE
8
Layer 1
10
158.289658
20
176.302760
11
158.212200
21
176.115105
0
LINE
8
Layer 1
10
158.477000
20
176.381000
11
159.482930
21
176.383258
0
LINE
8
Layer 1
10
159.483000
20
176.383000
11
158.327640
21
177.539450
0
LINE
8
Layer 1
10
158.327000
20
177.915000
11
158.249475
21
177.727386
0
LINE
8
Layer 1
10
158.249475
20
177.727386
11
158.327000
21
177.539772
0
LINE
8
Layer 1
10
158.528000
20
177.993000
11
158.327473
21
177.914435
0
LINE
8
Layer 1
10
158.703000
20
177.915000
11
158.528299
21
177.993565
0
LINE
8
Layer 1
10
158.703000
20
177.915000
11
160.235230
21
176.383870
0
LINE
8
Layer 1
10
160.235000
20
176.384000
11
164.502610
21
176.390378
0
LINE
8
Layer 1
10
164.502000
20
176.390000
11
161.488000
21
179.412000
0
LINE
8
Layer 1
10
161.488000
20
179.412000
11
159.324000
21
179.412000
0
LINE
8
Layer 1
10
159.057000
20
179.679000
11
159.134842
21
179.490395
0
LINE
8
Layer 1
10
159.134842
20
179.490395
11
159.323446
21
179.412551
0
LINE
8
Layer 1
10
159.323000
20
179.944000
11
159.135489
21
179.866156
0
LINE
8
Layer 1
10
159.135489
20
179.866156
11
159.057644
21
179.678644
0
LINE
8
Layer 1
10
159.323000
20
179.944000
11
160.959610
21
179.942871
0
LINE
8
Layer 1
10
160.959000
20
179.943000
11
160.248103
21
180.655548
0
LINE
8
Layer 1
10
160.248000
20
181.032000
11
160.169653
21
180.843561
0
LINE
8
Layer 1
10
160.169653
20
180.843561
11
160.248003
21
180.655124
0
LINE
8
Layer 1
10
160.449000
20
181.109000
11
160.248476
21
181.032030
0
LINE
8
Layer 1
10
160.624000
20
181.031000
11
160.449296
21
181.109565
0
LINE
8
Layer 1
10
160.624000
20
181.031000
11
161.323916
21
180.328891
0
LINE
8
Layer 1
10
161.324000
20
180.329000
11
161.323436
21
181.944190
0
LINE
8
Layer 1
10
161.590000
20
182.211000
11
161.401201
21
182.132962
0
LINE
8
Layer 1
10
161.401201
20
182.132962
11
161.323549
21
181.944004
0
LINE
8
Layer 1
10
161.796000
20
182.113000
11
161.589989
21
182.210807
0
LINE
8
Layer 1
10
161.856000
20
181.944000
11
161.795613
21
182.113206
0
LINE
8
Layer 1
10
161.856000
20
181.944000
11
161.854871
21
179.796460
0
LINE
8
Layer 1
10
161.855000
20
179.796000
11
164.875510
21
176.768340
0
LINE
8
Layer 1
10
164.875000
20
176.769000
11
164.868622
21
181.047050
0
LINE
8
Layer 1
10
164.869000
20
181.047000
11
163.352150
21
182.563850
0
LINE
8
Layer 1
10
163.352000
20
182.940000
11
163.273651
21
182.751560
0
LINE
8
Layer 1
10
163.273651
20
182.751560
11
163.352003
21
182.563121
0
LINE
8
Layer 1
10
163.727000
20
182.940000
11
163.539385
21
183.017523
0
LINE
8
Layer 1
10
163.539385
20
183.017523
11
163.351772
21
182.940000
0
LINE
8
Layer 1
10
163.727000
20
182.940000
11
164.867530
21
181.798380
0
LINE
8
Layer 1
10
164.868000
20
181.799000
11
164.865742
21
182.790096
0
LINE
8
Layer 1
10
165.132000
20
183.056000
11
164.943398
21
182.978159
0
LINE
8
Layer 1
10
164.943398
20
182.978159
11
164.865549
21
182.789560
0
LINE
8
Layer 1
10
165.132000
20
183.056000
11
165.132564
21
183.054871
0
LINE
8
Layer 1
10
165.399000
20
182.789000
11
165.321350
21
182.977410
0
LINE
8
Layer 1
10
165.321350
20
182.977410
11
165.133102
21
183.055451
0
LINE
8
Layer 1
10
165.399000
20
182.789000
11
165.401258
21
181.781980
0
LINE
8
Layer 1
10
165.401000
20
181.782000
11
166.556900
21
182.939550
0
LINE
8
Layer 1
10
166.933000
20
182.939000
11
166.744838
21
183.017073
0
LINE
8
Layer 1
10
166.744838
20
183.017073
11
166.556677
21
182.939000
0
LINE
8
Layer 1
10
167.010000
20
182.725000
11
166.932499
21
182.939802
0
LINE
8
Layer 1
10
166.933000
20
182.562000
11
167.010501
21
182.724074
0
LINE
8
Layer 1
10
166.933000
20
182.562000
11
165.401320
21
181.031420
0
LINE
8
Layer 1
10
165.401000
20
181.032000
11
165.407378
21
176.765480
0
LINE
8
Layer 1
10
165.408000
20
176.765000
11
168.430710
21
179.795960
0
LINE
8
Layer 1
10
168.430000
20
179.796000
11
168.428871
21
181.942430
0
LINE
8
Layer 1
10
168.489000
20
182.112000
11
168.429146
21
181.942785
0
LINE
8
Layer 1
10
168.696000
20
182.210000
11
168.489436
21
182.112193
0
LINE
8
Layer 1
10
168.962000
20
181.943000
11
168.884157
21
182.131606
0
LINE
8
Layer 1
10
168.884157
20
182.131606
11
168.695551
21
182.209449
0
LINE
8
Layer 1
10
168.962000
20
181.943000
11
168.961436
21
180.328360
0
LINE
8
Layer 1
10
168.962000
20
180.329000
11
169.660821
21
181.030011
0
LINE
8
Layer 1
10
169.861000
20
181.108000
11
169.660473
21
181.029435
0
LINE
8
Layer 1
10
170.037000
20
181.031000
11
169.860651
21
181.107970
0
LINE
8
Layer 1
10
170.037000
20
180.654000
11
170.115347
21
180.842439
0
LINE
8
Layer 1
10
170.115347
20
180.842439
11
170.036997
21
181.030876
0
LINE
8
Layer 1
10
170.037000
20
180.654000
11
169.326100
21
179.941443
0
LINE
8
Layer 1
10
169.326000
20
179.942000
11
170.962060
21
179.943129
0
LINE
8
Layer 1
10
171.228000
20
179.678000
11
171.150156
21
179.865510
0
LINE
8
Layer 1
10
171.150156
20
179.865510
11
170.962646
21
179.943356
0
LINE
8
Layer 1
10
170.961000
20
179.411000
11
171.149602
21
179.488841
0
LINE
8
Layer 1
10
171.149602
20
179.488841
11
171.227451
21
179.677440
0
LINE
8
Layer 1
10
170.961000
20
179.411000
11
168.797000
21
179.411000
0
LINE
8
Layer 1
10
168.797000
20
179.411000
11
165.784190
21
176.390480
0
LINE
8
Layer 1
10
165.784000
20
176.391000
11
170.064240
21
176.397378
0
LINE
8
Layer 1
10
170.064000
20
176.397000
11
171.581410
21
177.914400
0
LINE
8
Layer 1
10
171.782000
20
177.993000
11
171.581484
21
177.914435
0
LINE
8
Layer 1
10
171.958000
20
177.914000
11
171.781651
21
177.992565
0
LINE
8
Layer 1
10
171.958000
20
177.539000
11
172.035531
21
177.726620
0
LINE
8
Layer 1
10
172.035531
20
177.726620
11
171.958000
21
177.914240
0
LINE
8
Layer 1
10
171.958000
20
177.539000
11
170.816940
21
176.397940
0
LINE
8
Layer 1
10
170.817000
20
176.398000
11
171.806978
21
176.399129
0
LINE
8
Layer 1
10
172.074000
20
176.133000
11
171.996157
21
176.321615
0
LINE
8
Layer 1
10
171.996157
20
176.321615
11
171.807543
21
176.399460
0
LINE
8
Layer 1
10
171.807000
20
175.866000
11
171.995613
21
175.943841
0
LINE
8
Layer 1
10
171.995613
20
175.943841
11
172.073460
21
176.132451
0
LINE
8
Layer 1
10
171.807000
20
175.866000
11
170.802180
21
175.863742
0
LINE
8
Layer 1
10
170.803000
20
175.864000
11
171.958900
21
174.708100
0
LINE
8
Layer 1
10
171.958000
20
174.333000
11
172.035525
21
174.520614
0
LINE
8
Layer 1
10
172.035525
20
174.520614
11
171.958000
21
174.708228
0
LINE
8
Layer 1
10
171.582000
20
174.333000
11
171.770434
21
174.254655
0
LINE
8
Layer 1
10
171.770434
20
174.254655
11
171.958868
21
174.333000
0
LINE
8
Layer 1
10
171.582000
20
174.333000
11
170.051410
21
175.863590
0
LINE
8
Layer 1
10
170.051000
20
175.864000
11
165.782840
21
175.858694
0
LINE
8
Layer 1
10
165.783000
20
175.858000
11
168.797460
21
172.835840
0
LINE
8
Layer 1
10
168.797000
20
172.836000
11
170.961570
21
172.837129
0
LINE
8
Layer 1
10
171.131000
20
172.777000
11
170.962000
21
172.837000
0
LINE
8
Layer 1
10
171.131000
20
172.777000
11
171.131000
21
172.777000
0
LINE
8
Layer 1
10
171.228000
20
172.571000
11
171.130193
21
172.777022
0
LINE
8
Layer 1
10
170.962000
20
172.304000
11
171.150614
21
172.381839
0
LINE
8
Layer 1
10
171.150614
20
172.381839
11
171.228463
21
172.570449
0
LINE
8
Layer 1
10
170.962000
20
172.304000
11
169.327040
21
172.304564
0
LINE
8
Layer 1
10
169.327000
20
172.305000
11
170.037356
21
171.592996
0
LINE
8
Layer 1
10
170.037000
20
171.216000
11
170.115349
21
171.404440
0
LINE
8
Layer 1
10
170.115349
20
171.404440
11
170.036997
21
171.592879
0
LINE
8
Layer 1
10
169.660000
20
171.218000
11
169.847968
21
171.138519
0
LINE
8
Layer 1
10
169.847968
20
171.138519
11
170.036874
21
171.215742
0
LINE
8
Layer 1
10
169.660000
20
171.218000
11
168.960634
21
171.919562
0
LINE
8
Layer 1
10
168.961000
20
171.920000
11
168.961564
21
170.304810
0
LINE
8
Layer 1
10
168.696000
20
170.039000
11
168.883506
21
170.116841
0
LINE
8
Layer 1
10
168.883506
20
170.116841
11
168.961354
21
170.304345
0
LINE
8
Layer 1
10
168.430000
20
170.306000
11
168.507841
21
170.117394
0
LINE
8
Layer 1
10
168.507841
20
170.117394
11
168.696446
21
170.039549
0
LINE
8
Layer 1
10
168.430000
20
170.306000
11
168.429994
21
172.452440
0
LINE
8
Layer 1
10
168.430000
20
172.452000
11
165.409490
21
175.480750
0
LINE
8
Layer 1
10
165.409000
20
175.481000
11
165.415378
21
171.202400
0
LINE
8
Layer 1
10
129.936000
20
172.402000
11
130.097271
21
172.525572
0
LINE
8
Layer 1
10
130.097271
20
172.525572
11
130.298693
21
172.498980
0
LINE
8
Layer 1
10
130.298693
20
172.498980
11
130.422370
21
172.337790
0
LINE
8
Layer 1
10
130.422370
20
172.337790
11
130.395909
21
172.136350
0
LINE
8
Layer 1
10
130.395909
20
172.136350
11
129.216859
21
170.095110
0
LINE
8
Layer 1
10
129.216859
20
170.095110
11
129.055606
21
169.972189
0
LINE
8
Layer 1
10
129.055606
20
169.972189
11
128.854610
21
169.998894
0
LINE
8
Layer 1
10
128.854610
20
169.998894
11
128.731048
21
170.159657
0
LINE
8
Layer 1
10
128.731048
20
170.159657
11
128.756953
21
170.360757
0
LINE
8
Layer 1
10
128.756953
20
170.360757
11
129.936000
21
172.402000
0
LINE
8
Layer 1
10
132.062000
20
172.402000
11
132.223271
21
172.525572
0
LINE
8
Layer 1
10
132.223271
20
172.525572
11
132.424693
21
172.498980
0
LINE
8
Layer 1
10
132.424693
20
172.498980
11
132.548370
21
172.337790
0
LINE
8
Layer 1
10
132.548370
20
172.337790
11
132.521909
21
172.136350
0
LINE
8
Layer 1
10
132.521909
20
172.136350
11
131.342859
21
170.095110
0
LINE
8
Layer 1
10
131.342859
20
170.095110
11
131.181606
21
169.972189
0
LINE
8
Layer 1
10
131.181606
20
169.972189
11
130.980610
21
169.998894
0
LINE
8
Layer 1
10
130.980610
20
169.998894
11
130.857048
21
170.159657
0
LINE
8
Layer 1
10
130.857048
20
170.159657
11
130.882953
21
170.360757
0
LINE
8
Layer 1
10
130.882953
20
170.360757
11
132.062000
21
172.402000
0
LINE
8
Layer 1
10
127.810000
20
172.402000
11
127.971271
21
172.525572
0
LINE
8
Layer 1
10
127.971271
20
172.525572
11
128.172693
21
172.498980
0
LINE
8
Layer 1
10
128.172693
20
172.498980
11
128.296370
21
172.337790
0
LINE
8
Layer 1
10
128.296370
20
172.337790
11
128.269909
21
172.136350
0
LINE
8
Layer 1
10
128.269909
20
172.136350
11
127.090859
21
170.095110
0
LINE
8
Layer 1
10
127.090859
20
170.095110
11
126.929606
21
169.972189
0
LINE
8
Layer 1
10
126.929606
20
169.972189
11
126.728610
21
169.998894
0
LINE
8
Layer 1
10
126.728610
20
169.998894
11
126.605048
21
170.159657
0
LINE
8
Layer 1
10
126.605048
20
170.159657
11
126.630953
21
170.360757
0
LINE
8
Layer 1
10
126.630953
20
170.360757
11
127.810000
21
172.402000
0
LINE
8
Layer 1
10
55.086000
20
176.110000
11
55.215313
21
175.124031
0
LINE
8
Layer 1
10
55.215313
20
175.124031
11
55.589591
21
174.220325
0
LINE
8
Layer 1
10
55.589591
20
174.220325
11
56.183399
21
173.443047
0
LINE
8
Layer 1
10
56.183399
20
173.443047
11
56.971302
21
172.836363
0
LINE
8
Layer 1
10
56.971302
20
172.836363
11
57.890246
21
172.456363
0
LINE
8
Layer 1
10
57.890246
20
172.456363
11
58.860155
21
172.329697
0
LINE
8
Layer 1
10
58.860155
20
172.329697
11
59.830064
21
172.456363
0
LINE
8
Layer 1
10
59.830064
20
172.456363
11
60.749008
21
172.836363
0
LINE
8
Layer 1
10
60.749008
20
172.836363
11
61.536911
21
173.443047
0
LINE
8
Layer 1
10
61.536911
20
173.443047
11
62.130719
21
174.220325
0
LINE
8
Layer 1
10
62.130719
20
174.220325
11
62.504997
21
175.124031
0
LINE
8
Layer 1
10
62.504997
20
175.124031
11
62.634310
21
176.110000
0
LINE
8
Layer 1
10
62.634310
20
176.110000
11
62.504997
21
177.095969
0
LINE
8
Layer 1
10
62.504997
20
177.095969
11
62.130719
21
177.999675
0
LINE
8
Layer 1
10
62.130719
20
177.999675
11
61.536911
21
178.776953
0
LINE
8
Layer 1
10
61.536911
20
178.776953
11
60.749008
21
179.383637
0
LINE
8
Layer 1
10
60.749008
20
179.383637
11
59.830064
21
179.763637
0
LINE
8
Layer 1
10
59.830064
20
179.763637
11
58.860155
21
179.890303
0
LINE
8
Layer 1
10
58.860155
20
179.890303
11
57.890246
21
179.763637
0
LINE
8
Layer 1
10
57.890246
20
179.763637
11
56.971302
21
179.383637
0
LINE
8
Layer 1
10
56.971302
20
179.383637
11
56.183399
21
178.776953
0
LINE
8
Layer 1
10
56.183399
20
178.776953
11
55.589591
21
177.999675
0
LINE
8
Layer 1
10
55.589591
20
177.999675
11
55.215313
21
177.095969
0
LINE
8
Layer 1
10
55.215313
20
177.095969
11
55.086000
21
176.110000
0
LINE
8
Layer 1
10
55.086000
20
176.110000
11
55.086000
21
176.110000
0
LINE
8
Layer 1
10
55.086000
20
176.110000
11
55.215313
21
175.124031
0
LINE
8
Layer 1
10
55.215313
20
175.124031
11
55.589591
21
174.220325
0
LINE
8
Layer 1
10
55.589591
20
174.220325
11
56.183399
21
173.443047
0
LINE
8
Layer 1
10
56.183399
20
173.443047
11
56.971302
21
172.836363
0
LINE
8
Layer 1
10
56.971302
20
172.836363
11
57.890246
21
172.456363
0
LINE
8
Layer 1
10
57.890246
20
172.456363
11
58.860155
21
172.329697
0
LINE
8
Layer 1
10
58.860155
20
172.329697
11
59.830064
21
172.456363
0
LINE
8
Layer 1
10
59.830064
20
172.456363
11
60.749008
21
172.836363
0
LINE
8
Layer 1
10
60.749008
20
172.836363
11
61.536911
21
173.443047
0
LINE
8
Layer 1
10
61.536911
20
173.443047
11
62.130719
21
174.220325
0
LINE
8
Layer 1
10
62.130719
20
174.220325
11
62.504997
21
175.124031
0
LINE
8
Layer 1
10
62.504997
20
175.124031
11
62.634310
21
176.110000
0
LINE
8
Layer 1
10
62.634310
20
176.110000
11
62.504997
21
177.095969
0
LINE
8
Layer 1
10
62.504997
20
177.095969
11
62.130719
21
177.999675
0
LINE
8
Layer 1
10
62.130719
20
177.999675
11
61.536911
21
178.776953
0
LINE
8
Layer 1
10
61.536911
20
178.776953
11
60.749008
21
179.383637
0
LINE
8
Layer 1
10
60.749008
20
179.383637
11
59.830064
21
179.763637
0
LINE
8
Layer 1
10
59.830064
20
179.763637
11
58.860155
21
179.890303
0
LINE
8
Layer 1
10
58.860155
20
179.890303
11
57.890246
21
179.763637
0
LINE
8
Layer 1
10
57.890246
20
179.763637
11
56.971302
21
179.383637
0
LINE
8
Layer 1
10
56.971302
20
179.383637
11
56.183399
21
178.776953
0
LINE
8
Layer 1
10
56.183399
20
178.776953
11
55.589591
21
177.999675
0
LINE
8
Layer 1
10
55.589591
20
177.999675
11
55.215313
21
177.095969
0
LINE
8
Layer 1
10
55.215313
20
177.095969
11
55.086000
21
176.110000
0
LINE
8
Layer 1
10
55.086000
20
176.110000
11
55.086000
21
176.110000
0
LINE
8
Layer 1
10
58.588800
20
171.711000
11
58.588800
21
169.437000
0
LINE
8
Layer 1
10
58.588800
20
169.437000
11
58.666807
21
169.249447
0
LINE
8
Layer 1
10
58.666807
20
169.249447
11
58.854511
21
169.171804
0
LINE
8
Layer 1
10
58.854511
20
169.171804
11
59.042214
21
169.249447
0
LINE
8
Layer 1
10
59.042214
20
169.249447
11
59.120221
21
169.437000
0
LINE
8
Layer 1
10
59.120221
20
169.437000
11
59.120200
21
171.711000
0
LINE
8
Layer 1
10
59.120200
20
171.711000
11
59.042193
21
171.898553
0
LINE
8
Layer 1
10
59.042193
20
171.898553
11
58.854489
21
171.976196
0
LINE
8
Layer 1
10
58.854489
20
171.976196
11
58.666786
21
171.898553
0
LINE
8
Layer 1
10
58.666786
20
171.898553
11
58.588779
21
171.711000
0
LINE
8
Layer 1
10
58.588779
20
171.711000
11
58.588800
21
171.711000
0
LINE
8
Layer 1
10
61.226300
20
172.392000
11
62.562860
21
170.552380
0
LINE
8
Layer 1
10
62.562860
20
170.552380
11
62.736258
21
170.446121
0
LINE
8
Layer 1
10
62.736258
20
170.446121
11
62.934004
21
170.493596
0
LINE
8
Layer 1
10
62.934004
20
170.493596
11
63.040263
21
170.666993
0
LINE
8
Layer 1
10
63.040263
20
170.666993
11
62.992789
21
170.864740
0
LINE
8
Layer 1
10
62.992789
20
170.864740
11
61.656219
21
172.704360
0
LINE
8
Layer 1
10
61.656219
20
172.704360
11
61.482890
21
172.810091
0
LINE
8
Layer 1
10
61.482890
20
172.810091
11
61.285499
21
172.762560
0
LINE
8
Layer 1
10
61.285499
20
172.762560
11
61.179298
21
172.589519
0
LINE
8
Layer 1
10
61.179298
20
172.589519
11
61.226293
21
172.392000
0
LINE
8
Layer 1
10
61.226293
20
172.392000
11
61.226300
21
172.392000
0
LINE
8
Layer 1
10
62.960100
20
174.493000
11
65.122710
21
173.790326
0
LINE
8
Layer 1
10
65.122710
20
173.790326
11
65.325115
21
173.806635
0
LINE
8
Layer 1
10
65.325115
20
173.806635
11
65.456897
21
173.961125
0
LINE
8
Layer 1
10
65.456897
20
173.961125
11
65.441091
21
174.163570
0
LINE
8
Layer 1
10
65.441091
20
174.163570
11
65.286927
21
174.295735
0
LINE
8
Layer 1
10
65.286927
20
174.295735
11
63.124317
21
174.998409
0
LINE
8
Layer 1
10
63.124317
20
174.998409
11
62.921912
21
174.982100
0
LINE
8
Layer 1
10
62.921912
20
174.982100
11
62.790130
21
174.827610
0
LINE
8
Layer 1
10
62.790130
20
174.827610
11
62.805936
21
174.625165
0
LINE
8
Layer 1
10
62.805936
20
174.625165
11
62.960100
21
174.493000
0
LINE
8
Layer 1
10
62.960100
20
174.493000
11
62.960100
21
174.493000
0
LINE
8
Layer 1
10
63.127800
20
177.212000
11
65.290410
21
177.914674
0
LINE
8
Layer 1
10
65.290410
20
177.914674
11
65.444901
21
178.046778
0
LINE
8
Layer 1
10
65.444901
20
178.046778
11
65.460809
21
178.249425
0
LINE
8
Layer 1
10
65.460809
20
178.249425
11
65.328826
21
178.404019
0
LINE
8
Layer 1
10
65.328826
20
178.404019
11
65.126191
21
178.420086
0
LINE
8
Layer 1
10
65.126191
20
178.420086
11
62.963581
21
177.717410
0
LINE
8
Layer 1
10
62.963581
20
177.717410
11
62.809317
21
177.585264
0
LINE
8
Layer 1
10
62.809317
20
177.585264
11
62.793480
21
177.382756
0
LINE
8
Layer 1
10
62.793480
20
177.382756
11
62.925324
21
177.228234
0
LINE
8
Layer 1
10
62.925324
20
177.228234
11
63.127800
21
177.212001
0
LINE
8
Layer 1
10
63.127800
20
177.212001
11
63.127800
21
177.212000
0
LINE
8
Layer 1
10
61.665400
20
179.510000
11
63.001970
21
181.349620
0
LINE
8
Layer 1
10
63.001970
20
181.349620
11
63.029743
21
181.613875
0
LINE
8
Layer 1
10
63.029743
20
181.613875
11
62.814779
21
181.770054
0
LINE
8
Layer 1
10
62.814779
20
181.770054
11
62.572041
21
181.661980
0
LINE
8
Layer 1
10
62.572041
20
181.661980
11
61.235481
21
179.822360
0
LINE
8
Layer 1
10
61.235481
20
179.822360
11
61.188486
21
179.624841
0
LINE
8
Layer 1
10
61.188486
20
179.624841
11
61.294687
21
179.451800
0
LINE
8
Layer 1
10
61.294687
20
179.451800
11
61.492078
21
179.404269
0
LINE
8
Layer 1
10
61.492078
20
179.404269
11
61.665407
21
179.510000
0
LINE
8
Layer 1
10
61.665407
20
179.510000
11
61.665400
21
179.510000
0
LINE
8
Layer 1
10
59.131500
20
180.509000
11
59.131500
21
182.783000
0
LINE
8
Layer 1
10
59.131500
20
182.783000
11
59.053418
21
182.970414
0
LINE
8
Layer 1
10
59.053418
20
182.970414
11
58.865791
21
183.047981
0
LINE
8
Layer 1
10
58.865791
20
183.047981
11
58.678164
21
182.970414
0
LINE
8
Layer 1
10
58.678164
20
182.970414
11
58.600082
21
182.783000
0
LINE
8
Layer 1
10
58.600082
20
182.783000
11
58.600100
21
180.509000
0
LINE
8
Layer 1
10
58.600100
20
180.509000
11
58.678182
21
180.321586
0
LINE
8
Layer 1
10
58.678182
20
180.321586
11
58.865809
21
180.244019
0
LINE
8
Layer 1
10
58.865809
20
180.244019
11
59.053436
21
180.321586
0
LINE
8
Layer 1
10
59.053436
20
180.321586
11
59.131518
21
180.509000
0
LINE
8
Layer 1
10
59.131518
20
180.509000
11
59.131500
21
180.509000
0
LINE
8
Layer 1
10
56.494000
20
179.829000
11
55.157430
21
181.668620
0
LINE
8
Layer 1
10
55.157430
20
181.668620
11
54.984101
21
181.774351
0
LINE
8
Layer 1
10
54.984101
20
181.774351
11
54.786710
21
181.726820
0
LINE
8
Layer 1
10
54.786710
20
181.726820
11
54.680509
21
181.553779
0
LINE
8
Layer 1
10
54.680509
20
181.553779
11
54.727504
21
181.356260
0
LINE
8
Layer 1
10
54.727504
20
181.356260
11
56.064064
21
179.516640
0
LINE
8
Layer 1
10
56.064064
20
179.516640
11
56.306802
21
179.408566
0
LINE
8
Layer 1
10
56.306802
20
179.408566
11
56.521766
21
179.564745
0
LINE
8
Layer 1
10
56.521766
20
179.564745
11
56.493993
21
179.829000
0
LINE
8
Layer 1
10
56.493993
20
179.829000
11
56.494000
21
179.829000
0
LINE
8
Layer 1
10
54.760200
20
177.728000
11
52.597590
21
178.430674
0
LINE
8
Layer 1
10
52.597590
20
178.430674
11
52.394851
21
178.414717
0
LINE
8
Layer 1
10
52.394851
20
178.414717
11
52.262776
21
178.260076
0
LINE
8
Layer 1
10
52.262776
20
178.260076
11
52.278732
21
178.057338
0
LINE
8
Layer 1
10
52.278732
20
178.057338
11
52.433373
21
177.925263
0
LINE
8
Layer 1
10
52.433373
20
177.925263
11
54.595983
21
177.222588
0
LINE
8
Layer 1
10
54.595983
20
177.222588
11
54.855887
21
177.277833
0
LINE
8
Layer 1
10
54.855887
20
177.277833
11
54.937995
21
177.530539
0
LINE
8
Layer 1
10
54.937995
20
177.530539
11
54.760200
21
177.727999
0
LINE
8
Layer 1
10
54.760200
20
177.727999
11
54.760200
21
177.728000
0
LINE
8
Layer 1
10
54.592500
20
175.009000
11
52.429890
21
174.306324
0
LINE
8
Layer 1
10
52.429890
20
174.306324
11
52.275726
21
174.174159
0
LINE
8
Layer 1
10
52.275726
20
174.174159
11
52.259920
21
173.971714
0
LINE
8
Layer 1
10
52.259920
20
173.971714
11
52.391702
21
173.817224
0
LINE
8
Layer 1
10
52.391702
20
173.817224
11
52.594107
21
173.800915
0
LINE
8
Layer 1
10
52.594107
20
173.800915
11
54.756717
21
174.503589
0
LINE
8
Layer 1
10
54.756717
20
174.503589
11
54.911358
21
174.635665
0
LINE
8
Layer 1
10
54.911358
20
174.635665
11
54.927314
21
174.838403
0
LINE
8
Layer 1
10
54.927314
20
174.838403
11
54.795239
21
174.993044
0
LINE
8
Layer 1
10
54.795239
20
174.993044
11
54.592500
21
175.009000
0
LINE
8
Layer 1
10
54.592500
20
175.009000
11
54.592500
21
175.009000
0
LINE
8
Layer 1
10
56.054900
20
172.711000
11
54.718340
21
170.871380
0
LINE
8
Layer 1
10
54.718340
20
170.871380
11
54.671345
21
170.673861
0
LINE
8
Layer 1
10
54.671345
20
170.673861
11
54.777546
21
170.500820
0
LINE
8
Layer 1
10
54.777546
20
170.500820
11
54.974937
21
170.453289
0
LINE
8
Layer 1
10
54.974937
20
170.453289
11
55.148266
21
170.559020
0
LINE
8
Layer 1
10
55.148266
20
170.559020
11
56.484836
21
172.398640
0
LINE
8
Layer 1
10
56.484836
20
172.398640
11
56.512609
21
172.662895
0
LINE
8
Layer 1
10
56.512609
20
172.662895
11
56.297645
21
172.819074
0
LINE
8
Layer 1
10
56.297645
20
172.819074
11
56.054907
21
172.711000
0
LINE
8
Layer 1
10
56.054907
20
172.711000
11
56.054900
21
172.711000
0
LINE
8
Layer 1
10
58.567800
20
158.628000
11
58.706920
21
158.868963
0
LINE
8
Layer 1
10
58.706920
20
158.868963
11
58.985160
21
158.868963
0
LINE
8
Layer 1
10
58.985160
20
158.868963
11
59.124280
21
158.628000
0
LINE
8
Layer 1
10
59.124280
20
158.628000
11
59.124300
21
146.624000
0
LINE
8
Layer 1
10
59.124300
20
146.624000
11
58.985180
21
146.383037
0
LINE
8
Layer 1
10
58.985180
20
146.383037
11
58.706940
21
146.383037
0
LINE
8
Layer 1
10
58.706940
20
146.383037
11
58.567820
21
146.624000
0
LINE
8
Layer 1
10
58.567820
20
146.624000
11
58.567800
21
158.628000
0
LINE
8
Layer 1
10
164.869000
20
158.628000
11
164.950680
21
158.824404
0
LINE
8
Layer 1
10
164.950680
20
158.824404
11
165.147238
21
158.905712
0
LINE
8
Layer 1
10
165.147238
20
158.905712
11
165.343797
21
158.824404
0
LINE
8
Layer 1
10
165.343797
20
158.824404
11
165.425477
21
158.628000
0
LINE
8
Layer 1
10
165.425477
20
158.628000
11
165.426000
21
146.624000
0
LINE
8
Layer 1
10
165.426000
20
146.624000
11
165.344320
21
146.427596
0
LINE
8
Layer 1
10
165.344320
20
146.427596
11
165.147761
21
146.346288
0
LINE
8
Layer 1
10
165.147761
20
146.346288
11
164.951203
21
146.427596
0
LINE
8
Layer 1
10
164.951203
20
146.427596
11
164.869523
21
146.624000
0
LINE
8
Layer 1
10
164.869523
20
146.624000
11
164.869000
21
158.628000
0
LINE
8
Layer 1
10
129.436000
20
158.628000
11
129.517680
21
158.824404
0
LINE
8
Layer 1
10
129.517680
20
158.824404
11
129.714239
21
158.905712
0
LINE
8
Layer 1
10
129.714239
20
158.905712
11
129.910797
21
158.824404
0
LINE
8
Layer 1
10
129.910797
20
158.824404
11
129.992477
21
158.628000
0
LINE
8
Layer 1
10
129.992477
20
158.628000
11
129.992000
21
146.624000
0
LINE
8
Layer 1
10
129.992000
20
146.624000
11
129.910320
21
146.427596
0
LINE
8
Layer 1
10
129.910320
20
146.427596
11
129.713761
21
146.346288
0
LINE
8
Layer 1
10
129.713761
20
146.346288
11
129.517203
21
146.427596
0
LINE
8
Layer 1
10
129.517203
20
146.427596
11
129.435523
21
146.624000
0
LINE
8
Layer 1
10
129.435523
20
146.624000
11
129.436000
21
158.628000
0
LINE
8
Layer 1
10
94.001700
20
158.628000
11
94.083195
21
158.824745
0
LINE
8
Layer 1
10
94.083195
20
158.824745
11
94.279940
21
158.906240
0
LINE
8
Layer 1
10
94.279940
20
158.906240
11
94.476685
21
158.824745
0
LINE
8
Layer 1
10
94.476685
20
158.824745
11
94.558180
21
158.628000
0
LINE
8
Layer 1
10
94.558180
20
158.628000
11
94.558200
21
146.624000
0
LINE
8
Layer 1
10
94.558200
20
146.624000
11
94.419080
21
146.383037
0
LINE
8
Layer 1
10
94.419080
20
146.383037
11
94.140840
21
146.383037
0
LINE
8
Layer 1
10
94.140840
20
146.383037
11
94.001720
21
146.624000
0
LINE
8
Layer 1
10
94.001720
20
146.624000
11
94.001700
21
158.628000
0
LINE
8
Layer 1
10
124.880000
20
178.659000
11
123.725698
21
178.459500
0
LINE
8
Layer 1
10
123.725698
20
178.459500
11
122.754798
21
177.804088
0
LINE
8
Layer 1
10
122.754798
20
177.804088
11
122.138166
21
176.808108
0
LINE
8
Layer 1
10
122.138166
20
176.808108
11
121.984320
21
175.646840
0
LINE
8
Layer 1
10
124.880000
20
178.659000
11
125.505265
21
178.831960
0
LINE
8
Layer 1
10
125.505265
20
178.831960
11
125.913600
21
179.336076
0
LINE
8
Layer 1
10
134.685000
20
177.892000
11
134.349157
21
179.416962
0
LINE
8
Layer 1
10
134.349157
20
179.416962
11
133.544194
21
180.705982
0
LINE
8
Layer 1
10
133.544194
20
180.705982
11
132.359719
21
181.658115
0
LINE
8
Layer 1
10
132.359719
20
181.658115
11
130.885340
21
182.172416
0
LINE
8
Layer 1
10
130.885340
20
182.172416
11
129.323901
21
182.158023
0
LINE
8
Layer 1
10
129.323901
20
182.158023
11
127.896670
21
181.635959
0
LINE
8
Layer 1
10
127.896670
20
181.635959
11
126.720892
21
180.673107
0
LINE
8
Layer 1
10
126.720892
20
180.673107
11
125.913810
21
179.336350
0
LINE
8
Layer 1
10
134.685000
20
177.892000
11
134.988472
21
177.194309
0
LINE
8
Layer 1
10
134.988472
20
177.194309
11
135.680479
21
176.878090
0
LINE
8
Layer 1
10
135.488000
20
173.154000
11
136.214093
21
173.269074
0
LINE
8
Layer 1
10
136.214093
20
173.269074
11
136.820026
21
173.639209
0
LINE
8
Layer 1
10
136.820026
20
173.639209
11
137.244429
21
174.208452
0
LINE
8
Layer 1
10
137.244429
20
174.208452
11
137.425930
21
174.920849
0
LINE
8
Layer 1
10
137.425930
20
174.920849
11
137.318913
21
175.648173
0
LINE
8
Layer 1
10
137.318913
20
175.648173
11
136.955519
21
176.258173
0
LINE
8
Layer 1
10
136.955519
20
176.258173
11
136.391017
21
176.688861
0
LINE
8
Layer 1
10
136.391017
20
176.688861
11
135.680676
21
176.878250
0
LINE
8
Layer 1
10
125.321000
20
173.132000
11
127.829902
21
173.438205
0
LINE
8
Layer 1
10
127.829902
20
173.438205
11
130.367048
21
173.446839
0
LINE
8
Layer 1
10
130.367048
20
173.446839
11
135.487600
21
173.153675
0
LINE
8
Layer 1
10
121.985000
20
175.647000
11
122.121084
21
174.917090
0
LINE
8
Layer 1
10
122.121084
20
174.917090
11
122.385940
21
174.318137
0
LINE
8
Layer 1
10
122.385940
20
174.318137
11
123.204992
21
173.488639
0
LINE
8
Layer 1
10
123.204992
20
173.488639
11
124.248202
21
173.109581
0
LINE
8
Layer 1
10
124.248202
20
173.109581
11
125.321620
21
173.132040
0
LINE
8
Layer 1
10
98.580800
20
179.778000
11
98.419296
21
179.654337
0
LINE
8
Layer 1
10
98.419296
20
179.654337
11
98.217629
21
179.680921
0
LINE
8
Layer 1
10
98.217629
20
179.680921
11
98.093687
21
179.842211
0
LINE
8
Layer 1
10
98.093687
20
179.842211
11
98.119923
21
180.043924
0
LINE
8
Layer 1
10
98.119923
20
180.043924
11
99.223393
21
181.956364
0
LINE
8
Layer 1
10
99.223393
20
181.956364
11
99.384894
21
182.079917
0
LINE
8
Layer 1
10
99.384894
20
182.079917
11
99.586488
21
182.053313
0
LINE
8
Layer 1
10
99.586488
20
182.053313
11
99.710410
21
181.892094
0
LINE
8
Layer 1
10
99.710410
20
181.892094
11
99.684267
21
181.690440
0
LINE
8
Layer 1
10
99.684267
20
181.690440
11
98.580800
21
179.778000
0
LINE
8
Layer 1
10
96.490000
20
180.472000
11
96.357039
21
180.241561
0
LINE
8
Layer 1
10
96.357039
20
180.241561
11
96.090993
21
180.241489
0
LINE
8
Layer 1
10
96.090993
20
180.241489
11
95.957908
21
180.471856
0
LINE
8
Layer 1
10
95.957908
20
180.471856
11
95.957343
21
182.679806
0
LINE
8
Layer 1
10
95.957343
20
182.679806
11
96.035215
21
182.867950
0
LINE
8
Layer 1
10
96.035215
20
182.867950
11
96.223317
21
182.945924
0
LINE
8
Layer 1
10
96.223317
20
182.945924
11
96.411461
21
182.868052
0
LINE
8
Layer 1
10
96.411461
20
182.868052
11
96.489435
21
182.679950
0
LINE
8
Layer 1
10
96.489435
20
182.679950
11
96.490000
21
180.472000
0
LINE
8
Layer 1
10
94.362900
20
179.947000
11
94.332674
21
180.026496
0
LINE
8
Layer 1
10
95.054800
20
179.691000
11
94.362910
21
179.947402
0
LINE
8
Layer 1
10
99.525100
20
174.596000
11
99.858576
21
175.632410
0
LINE
8
Layer 1
10
99.858576
20
175.632410
11
99.875514
21
176.698721
0
LINE
8
Layer 1
10
99.875514
20
176.698721
11
99.585072
21
177.724854
0
LINE
8
Layer 1
10
99.585072
20
177.724854
11
98.996411
21
178.640731
0
LINE
8
Layer 1
10
98.996411
20
178.640731
11
98.164876
21
179.343513
0
LINE
8
Layer 1
10
98.164876
20
179.343513
11
97.185236
21
179.764950
0
LINE
8
Layer 1
10
97.185236
20
179.764950
11
96.125780
21
179.886845
0
LINE
8
Layer 1
10
96.125780
20
179.886845
11
95.054800
21
179.691000
0
LINE
8
Layer 1
10
99.763900
20
174.323000
11
99.525123
21
174.595911
0
LINE
8
Layer 1
10
100.062000
20
174.345000
11
99.763725
21
174.323015
0
LINE
8
Layer 1
10
100.062000
20
174.345000
11
101.974440
21
173.241530
0
LINE
8
Layer 1
10
101.709000
20
172.781000
11
101.910713
21
172.754764
0
LINE
8
Layer 1
10
101.910713
20
172.754764
11
102.072003
21
172.878706
0
LINE
8
Layer 1
10
102.072003
20
172.878706
11
102.098587
21
173.080373
0
LINE
8
Layer 1
10
102.098587
20
173.080373
11
101.974924
21
173.241877
0
LINE
8
Layer 1
10
101.709000
20
172.781000
11
100.031000
21
173.749000
0
LINE
8
Layer 1
10
98.359500
20
171.547000
11
99.124230
21
171.737716
0
LINE
8
Layer 1
10
99.124230
20
171.737716
11
99.729088
21
172.243018
0
LINE
8
Layer 1
10
99.729088
20
172.243018
11
100.052823
21
172.961613
0
LINE
8
Layer 1
10
100.052823
20
172.961613
11
100.030540
21
173.749450
0
LINE
8
Layer 1
10
97.174000
20
171.527000
11
98.359510
21
171.546360
0
LINE
8
Layer 1
10
88.726700
20
171.537000
11
97.174020
21
171.527658
0
LINE
8
Layer 1
10
88.726700
20
171.537000
11
87.455430
21
171.688632
0
LINE
8
Layer 1
10
88.262800
20
176.748000
11
87.330871
21
176.607567
0
LINE
8
Layer 1
10
87.330871
20
176.607567
11
86.533744
21
176.159643
0
LINE
8
Layer 1
10
86.533744
20
176.159643
11
85.942100
21
175.462503
0
LINE
8
Layer 1
10
85.942100
20
175.462503
11
85.626617
21
174.574424
0
LINE
8
Layer 1
10
85.626617
20
174.574424
11
85.650055
21
173.632265
0
LINE
8
Layer 1
10
85.650055
20
173.632265
11
85.995362
21
172.785619
0
LINE
8
Layer 1
10
85.995362
20
172.785619
11
86.613506
21
172.111864
0
LINE
8
Layer 1
10
86.613506
20
172.111864
11
87.455453
21
171.688380
0
LINE
8
Layer 1
10
88.262800
20
176.748000
11
88.880604
21
176.920965
0
LINE
8
Layer 1
10
88.880604
20
176.920965
11
89.286400
21
177.417885
0
LINE
8
Layer 1
10
93.690400
20
180.075000
11
92.300669
21
179.995180
0
LINE
8
Layer 1
10
92.300669
20
179.995180
11
91.040980
21
179.488079
0
LINE
8
Layer 1
10
91.040980
20
179.488079
11
90.004984
21
178.610196
0
LINE
8
Layer 1
10
90.004984
20
178.610196
11
89.286330
21
177.418030
0
LINE
8
Layer 1
10
93.690400
20
180.075000
11
92.767435
21
181.672650
0
LINE
8
Layer 1
10
93.228200
20
181.939000
11
92.997676
21
182.072408
0
LINE
8
Layer 1
10
92.997676
20
182.072408
11
92.767052
21
181.939174
0
LINE
8
Layer 1
10
92.767052
20
181.939174
11
92.767467
21
181.672831
0
LINE
8
Layer 1
10
93.228200
20
181.939000
11
94.332680
21
180.027150
0
LINE
8
Layer 1
10
99.778600
20
178.593000
11
99.654925
21
178.431427
0
LINE
8
Layer 1
10
99.654925
20
178.431427
11
99.681599
21
178.229711
0
LINE
8
Layer 1
10
99.681599
20
178.229711
11
99.843020
21
178.105838
0
LINE
8
Layer 1
10
99.843020
20
178.105838
11
100.044769
21
178.132264
0
LINE
8
Layer 1
10
99.778600
20
178.593000
11
101.690450
21
179.697480
0
LINE
8
Layer 1
10
101.957000
20
179.237000
11
102.089547
21
179.467864
0
LINE
8
Layer 1
10
102.089547
20
179.467864
11
101.956208
21
179.698085
0
LINE
8
Layer 1
10
101.956208
20
179.698085
11
101.690161
21
179.697721
0
LINE
8
Layer 1
10
101.957000
20
179.237000
11
100.045150
21
178.132520
0
LINE
8
Layer 1
10
100.490000
20
176.507000
11
100.259633
21
176.373914
0
LINE
8
Layer 1
10
100.259633
20
176.373914
11
100.259705
21
176.107868
0
LINE
8
Layer 1
10
100.259705
20
176.107868
11
100.490144
21
175.974908
0
LINE
8
Layer 1
10
100.490000
20
176.507000
11
102.697950
21
176.507564
0
LINE
8
Layer 1
10
102.698000
20
175.976000
11
102.886102
21
176.053973
0
LINE
8
Layer 1
10
102.886102
20
176.053973
11
102.963975
21
176.242117
0
LINE
8
Layer 1
10
102.963975
20
176.242117
11
102.886002
21
176.430219
0
LINE
8
Layer 1
10
102.886002
20
176.430219
11
102.697859
21
176.508092
0
LINE
8
Layer 1
10
102.698000
20
175.976000
11
100.490050
21
175.975436
0
LINE
8
Layer 1
10
165.416000
20
171.202000
11
166.933950
21
169.685150
0
LINE
8
Layer 1
10
167.011000
20
169.524000
11
166.933499
21
169.685521
0
LINE
8
Layer 1
10
166.934000
20
169.308000
11
167.011501
21
169.523355
0
LINE
8
Layer 1
10
166.557000
20
169.308000
11
166.745161
21
169.229927
0
LINE
8
Layer 1
10
166.745161
20
169.229927
11
166.933323
21
169.308000
0
LINE
8
Layer 1
10
166.557000
20
169.308000
11
165.416470
21
170.450160
0
LINE
8
Layer 1
10
165.417000
20
170.451000
11
165.418129
21
169.460469
0
LINE
8
Layer 1
10
165.153000
20
169.194000
11
165.340345
21
169.272242
0
LINE
8
Layer 1
10
165.340345
20
169.272242
11
165.417803
21
169.459898
0
LINE
8
Layer 1
10
164.887000
20
169.458000
11
164.965623
21
169.270817
0
LINE
8
Layer 1
10
164.965623
20
169.270817
11
165.153449
21
169.193750
0
LINE
8
Layer 1
10
164.887000
20
169.458000
11
164.884742
21
170.466110
0
LINE
8
Layer 1
10
164.884000
20
170.467000
11
163.727560
21
169.308900
0
LINE
8
Layer 1
10
163.353000
20
169.308000
11
163.540614
21
169.230475
0
LINE
8
Layer 1
10
163.540614
20
169.230475
11
163.728228
21
169.308000
0
LINE
8
Layer 1
10
163.353000
20
169.685000
11
163.274652
21
169.496562
0
LINE
8
Layer 1
10
163.274652
20
169.496562
11
163.353000
21
169.308124
0
LINE
8
Layer 1
10
163.353000
20
169.685000
11
164.883580
21
171.215590
0
LINE
8
Layer 1
10
164.883000
20
171.216000
11
164.876622
21
175.481960
0
LINE
8
Layer 1
10
164.877000
20
175.482000
11
161.855000
21
172.452000
0
LINE
8
Layer 1
10
161.855000
20
172.452000
11
161.855000
21
170.306000
0
LINE
8
Layer 1
10
161.588000
20
170.039000
11
161.776605
21
170.116842
0
LINE
8
Layer 1
10
161.776605
20
170.116842
11
161.854449
21
170.305446
0
LINE
8
Layer 1
10
161.323000
20
170.304000
11
161.400846
21
170.116502
0
LINE
8
Layer 1
10
161.400846
20
170.116502
11
161.588345
21
170.038655
0
LINE
8
Layer 1
10
161.323000
20
170.304000
11
161.323564
21
171.919740
0
LINE
8
Layer 1
10
161.324000
20
171.920000
11
160.624084
21
171.217882
0
LINE
8
Layer 1
10
160.248000
20
171.216000
11
160.436054
21
171.139552
0
LINE
8
Layer 1
10
160.436054
20
171.139552
11
160.623228
21
171.218258
0
LINE
8
Layer 1
10
160.248000
20
171.593000
11
160.169653
21
171.404561
0
LINE
8
Layer 1
10
160.169653
20
171.404561
11
160.248003
21
171.216124
0
LINE
8
Layer 1
10
160.248000
20
171.593000
11
160.958350
21
172.305004
0
LINE
8
Layer 1
10
160.959000
20
172.305000
11
159.323490
21
172.304436
0
LINE
8
Layer 1
10
159.134000
20
172.382000
11
159.322965
21
172.304349
0
LINE
8
Layer 1
10
159.056000
20
172.571000
11
159.134037
21
172.382199
0
LINE
8
Layer 1
10
159.154000
20
172.777000
11
159.056193
21
172.570978
0
LINE
8
Layer 1
10
159.154000
20
172.777000
11
159.154000
21
172.777000
0
LINE
8
Layer 1
10
159.323000
20
172.837000
11
159.153783
21
172.777146
0
LINE
8
Layer 1
10
159.323000
20
172.837000
11
161.488120
21
172.835871
0
LINE
8
Layer 1
10
161.488000
20
172.836000
11
164.499720
21
175.855960
0
LINE
8
Layer 1
10
164.500000
20
175.856000
11
160.221400
21
175.850694
0
LINE
8
Layer 1
10
160.222000
20
175.851000
11
158.702950
21
174.333610
0
LINE
8
Layer 1
10
158.327000
20
174.333000
11
158.514614
21
174.255475
0
LINE
8
Layer 1
10
158.514614
20
174.255475
11
158.702228
21
174.333000
0
LINE
8
Layer 1
10
158.327000
20
174.709000
11
158.249475
21
174.521387
0
LINE
8
Layer 1
10
158.249475
20
174.521387
11
158.327000
21
174.333772
0
LINE
8
Layer 1
10
158.327000
20
174.709000
11
159.466970
21
175.850070
0
LINE
8
Layer 1
10
159.467000
20
175.850000
11
158.477564
21
175.848871
0
LINE
8
Layer 1
10
158.212000
20
176.115000
11
158.289654
21
175.926586
0
LINE
8
Layer 1
10
158.289654
20
175.926586
11
158.477910
21
175.848549
0
LINE
8
Layer 1
10
158.477000
20
176.381000
11
158.289658
21
176.302760
0
LINE
8
Layer 1
10
158.289658
20
176.302760
11
158.212200
21
176.115105
0
LINE
8
Layer 1
10
158.477000
20
176.381000
11
159.482930
21
176.383258
0
LINE
8
Layer 1
10
159.483000
20
176.383000
11
158.327640
21
177.539450
0
LINE
8
Layer 1
10
158.327000
20
177.915000
11
158.249475
21
177.727386
0
LINE
8
Layer 1
10
158.249475
20
177.727386
11
158.327000
21
177.539772
0
LINE
8
Layer 1
10
158.528000
20
177.993000
11
158.327473
21
177.914435
0
LINE
8
Layer 1
10
158.703000
20
177.915000
11
158.528299
21
177.993565
0
LINE
8
Layer 1
10
158.703000
20
177.915000
11
160.235230
21
176.383870
0
LINE
8
Layer 1
10
160.235000
20
176.384000
11
164.502610
21
176.390378
0
LINE
8
Layer 1
10
164.502000
20
176.390000
11
161.488000
21
179.412000
0
LINE
8
Layer 1
10
161.488000
20
179.412000
11
159.324000
21
179.412000
0
LINE
8
Layer 1
10
159.057000
20
179.679000
11
159.134842
21
179.490395
0
LINE
8
Layer 1
10
159.134842
20
179.490395
11
159.323446
21
179.412551
0
LINE
8
Layer 1
10
159.323000
20
179.944000
11
159.135489
21
179.866156
0
LINE
8
Layer 1
10
159.135489
20
179.866156
11
159.057644
21
179.678644
0
LINE
8
Layer 1
10
159.323000
20
179.944000
11
160.959610
21
179.942871
0
LINE
8
Layer 1
10
160.959000
20
179.943000
11
160.248103
21
180.655548
0
LINE
8
Layer 1
10
160.248000
20
181.032000
11
160.169653
21
180.843561
0
LINE
8
Layer 1
10
160.169653
20
180.843561
11
160.248003
21
180.655124
0
LINE
8
Layer 1
10
160.449000
20
181.109000
11
160.248476
21
181.032030
0
LINE
8
Layer 1
10
160.624000
20
181.031000
11
160.449296
21
181.109565
0
LINE
8
Layer 1
10
160.624000
20
181.031000
11
161.323916
21
180.328891
0
LINE
8
Layer 1
10
161.324000
20
180.329000
11
161.323436
21
181.944190
0
LINE
8
Layer 1
10
161.590000
20
182.211000
11
161.401201
21
182.132962
0
LINE
8
Layer 1
10
161.401201
20
182.132962
11
161.323549
21
181.944004
0
LINE
8
Layer 1
10
161.796000
20
182.113000
11
161.589989
21
182.210807
0
LINE
8
Layer 1
10
161.856000
20
181.944000
11
161.795613
21
182.113206
0
LINE
8
Layer 1
10
161.856000
20
181.944000
11
161.854871
21
179.796460
0
LINE
8
Layer 1
10
161.855000
20
179.796000
11
164.875510
21
176.768340
0
LINE
8
Layer 1
10
164.875000
20
176.769000
11
164.868622
21
181.047050
0
LINE
8
Layer 1
10
164.869000
20
181.047000
11
163.352150
21
182.563850
0
LINE
8
Layer 1
10
163.352000
20
182.940000
11
163.273651
21
182.751560
0
LINE
8
Layer 1
10
163.273651
20
182.751560
11
163.352003
21
182.563121
0
LINE
8
Layer 1
10
163.727000
20
182.940000
11
163.539385
21
183.017523
0
LINE
8
Layer 1
10
163.539385
20
183.017523
11
163.351772
21
182.940000
0
LINE
8
Layer 1
10
163.727000
20
182.940000
11
164.867530
21
181.798380
0
LINE
8
Layer 1
10
164.868000
20
181.799000
11
164.865742
21
182.790096
0
LINE
8
Layer 1
10
165.132000
20
183.056000
11
164.943398
21
182.978159
0
LINE
8
Layer 1
10
164.943398
20
182.978159
11
164.865549
21
182.789560
0
LINE
8
Layer 1
10
165.132000
20
183.056000
11
165.132564
21
183.054871
0
LINE
8
Layer 1
10
165.399000
20
182.789000
11
165.321350
21
182.977410
0
LINE
8
Layer 1
10
165.321350
20
182.977410
11
165.133102
21
183.055451
0
LINE
8
Layer 1
10
165.399000
20
182.789000
11
165.401258
21
181.781980
0
LINE
8
Layer 1
10
165.401000
20
181.782000
11
166.556900
21
182.939550
0
LINE
8
Layer 1
10
166.933000
20
182.939000
11
166.744838
21
183.017073
0
LINE
8
Layer 1
10
166.744838
20
183.017073
11
166.556677
21
182.939000
0
LINE
8
Layer 1
10
167.010000
20
182.725000
11
166.932499
21
182.939802
0
LINE
8
Layer 1
10
166.933000
20
182.562000
11
167.010501
21
182.724074
0
LINE
8
Layer 1
10
166.933000
20
182.562000
11
165.401320
21
181.031420
0
LINE
8
Layer 1
10
165.401000
20
181.032000
11
165.407378
21
176.765480
0
LINE
8
Layer 1
10
165.408000
20
176.765000
11
168.430710
21
179.795960
0
LINE
8
Layer 1
10
168.430000
20
179.796000
11
168.428871
21
181.942430
0
LINE
8
Layer 1
10
168.489000
20
182.112000
11
168.429146
21
181.942785
0
LINE
8
Layer 1
10
168.696000
20
182.210000
11
168.489436
21
182.112193
0
LINE
8
Layer 1
10
168.962000
20
181.943000
11
168.884157
21
182.131606
0
LINE
8
Layer 1
10
168.884157
20
182.131606
11
168.695551
21
182.209449
0
LINE
8
Layer 1
10
168.962000
20
181.943000
11
168.961436
21
180.328360
0
LINE
8
Layer 1
10
168.962000
20
180.329000
11
169.660821
21
181.030011
0
LINE
8
Layer 1
10
169.861000
20
181.108000
11
169.660473
21
181.029435
0
LINE
8
Layer 1
10
170.037000
20
181.031000
11
169.860651
21
181.107970
0
LINE
8
Layer 1
10
170.037000
20
180.654000
11
170.115347
21
180.842439
0
LINE
8
Layer 1
10
170.115347
20
180.842439
11
170.036997
21
181.030876
0
LINE
8
Layer 1
10
170.037000
20
180.654000
11
169.326100
21
179.941443
0
LINE
8
Layer 1
10
169.326000
20
179.942000
11
170.962060
21
179.943129
0
LINE
8
Layer 1
10
171.228000
20
179.678000
11
171.150156
21
179.865510
0
LINE
8
Layer 1
10
171.150156
20
179.865510
11
170.962646
21
179.943356
0
LINE
8
Layer 1
10
170.961000
20
179.411000
11
171.149602
21
179.488841
0
LINE
8
Layer 1
10
171.149602
20
179.488841
11
171.227451
21
179.677440
0
LINE
8
Layer 1
10
170.961000
20
179.411000
11
168.797000
21
179.411000
0
LINE
8
Layer 1
10
168.797000
20
179.411000
11
165.784190
21
176.390480
0
LINE
8
Layer 1
10
165.784000
20
176.391000
11
170.064240
21
176.397378
0
LINE
8
Layer 1
10
170.064000
20
176.397000
11
171.581410
21
177.914400
0
LINE
8
Layer 1
10
171.782000
20
177.993000
11
171.581484
21
177.914435
0
LINE
8
Layer 1
10
171.958000
20
177.914000
11
171.781651
21
177.992565
0
LINE
8
Layer 1
10
171.958000
20
177.539000
11
172.035531
21
177.726620
0
LINE
8
Layer 1
10
172.035531
20
177.726620
11
171.958000
21
177.914240
0
LINE
8
Layer 1
10
171.958000
20
177.539000
11
170.816940
21
176.397940
0
LINE
8
Layer 1
10
170.817000
20
176.398000
11
171.806978
21
176.399129
0
LINE
8
Layer 1
10
172.074000
20
176.133000
11
171.996157
21
176.321615
0
LINE
8
Layer 1
10
171.996157
20
176.321615
11
171.807543
21
176.399460
0
LINE
8
Layer 1
10
171.807000
20
175.866000
11
171.995613
21
175.943841
0
LINE
8
Layer 1
10
171.995613
20
175.943841
11
172.073460
21
176.132451
0
LINE
8
Layer 1
10
171.807000
20
175.866000
11
170.802180
21
175.863742
0
LINE
8
Layer 1
10
170.803000
20
175.864000
11
171.958900
21
174.708100
0
LINE
8
Layer 1
10
171.958000
20
174.333000
11
172.035525
21
174.520614
0
LINE
8
Layer 1
10
172.035525
20
174.520614
11
171.958000
21
174.708228
0
LINE
8
Layer 1
10
171.582000
20
174.333000
11
171.770434
21
174.254655
0
LINE
8
Layer 1
10
171.770434
20
174.254655
11
171.958868
21
174.333000
0
LINE
8
Layer 1
10
171.582000
20
174.333000
11
170.051410
21
175.863590
0
LINE
8
Layer 1
10
170.051000
20
175.864000
11
165.782840
21
175.858694
0
LINE
8
Layer 1
10
165.783000
20
175.858000
11
168.797460
21
172.835840
0
LINE
8
Layer 1
10
168.797000
20
172.836000
11
170.961570
21
172.837129
0
LINE
8
Layer 1
10
171.131000
20
172.777000
11
170.962000
21
172.837000
0
LINE
8
Layer 1
10
171.131000
20
172.777000
11
171.131000
21
172.777000
0
LINE
8
Layer 1
10
171.228000
20
172.571000
11
171.130193
21
172.777022
0
LINE
8
Layer 1
10
170.962000
20
172.304000
11
171.150614
21
172.381839
0
LINE
8
Layer 1
10
171.150614
20
172.381839
11
171.228463
21
172.570449
0
LINE
8
Layer 1
10
170.962000
20
172.304000
11
169.327040
21
172.304564
0
LINE
8
Layer 1
10
169.327000
20
172.305000
11
170.037356
21
171.592996
0
LINE
8
Layer 1
10
170.037000
20
171.216000
11
170.115349
21
171.404440
0
LINE
8
Layer 1
10
170.115349
20
171.404440
11
170.036997
21
171.592879
0
LINE
8
Layer 1
10
169.660000
20
171.218000
11
169.847968
21
171.138519
0
LINE
8
Layer 1
10
169.847968
20
171.138519
11
170.036874
21
171.215742
0
LINE
8
Layer 1
10
169.660000
20
171.218000
11
168.960634
21
171.919562
0
LINE
8
Layer 1
10
168.961000
20
171.920000
11
168.961564
21
170.304810
0
LINE
8
Layer 1
10
168.696000
20
170.039000
11
168.883506
21
170.116841
0
LINE
8
Layer 1
10
168.883506
20
170.116841
11
168.961354
21
170.304345
0
LINE
8
Layer 1
10
168.430000
20
170.306000
11
168.507841
21
170.117394
0
LINE
8
Layer 1
10
168.507841
20
170.117394
11
168.696446
21
170.039549
0
LINE
8
Layer 1
10
168.430000
20
170.306000
11
168.429994
21
172.452440
0
LINE
8
Layer 1
10
168.430000
20
172.452000
11
165.409490
21
175.480750
0
LINE
8
Layer 1
10
165.409000
20
175.481000
11
165.415378
21
171.202400
0
LINE
8
Layer 1
10
129.936000
20
172.402000
11
130.097271
21
172.525572
0
LINE
8
Layer 1
10
130.097271
20
172.525572
11
130.298693
21
172.498980
0
LINE
8
Layer 1
10
130.298693
20
172.498980
11
130.422370
21
172.337790
0
LINE
8
Layer 1
10
130.422370
20
172.337790
11
130.395909
21
172.136350
0
LINE
8
Layer 1
10
130.395909
20
172.136350
11
129.216859
21
170.095110
0
LINE
8
Layer 1
10
129.216859
20
170.095110
11
129.055606
21
169.972189
0
LINE
8
Layer 1
10
129.055606
20
169.972189
11
128.854610
21
169.998894
0
LINE
8
Layer 1
10
128.854610
20
169.998894
11
128.731048
21
170.159657
0
LINE
8
Layer 1
10
128.731048
20
170.159657
11
128.756953
21
170.360757
0
LINE
8
Layer 1
10
128.756953
20
170.360757
11
129.936000
21
172.402000
0
LINE
8
Layer 1
10
132.522000
20
172.137000
11
132.522168
21
172.402659
0
LINE
8
Layer 1
10
132.522168
20
172.402659
11
132.292127
21
172.535533
0
LINE
8
Layer 1
10
132.292127
20
172.535533
11
132.062091
21
172.402650
0
LINE
8
Layer 1
10
132.522000
20
172.137000
11
131.342950
21
170.095760
0
LINE
8
Layer 1
10
130.883000
20
170.361000
11
130.857095
21
170.159900
0
LINE
8
Layer 1
10
130.857095
20
170.159900
11
130.980657
21
169.999137
0
LINE
8
Layer 1
10
130.980657
20
169.999137
11
131.181653
21
169.972432
0
LINE
8
Layer 1
10
131.181653
20
169.972432
11
131.342906
21
170.095353
0
LINE
8
Layer 1
10
130.883000
20
170.361000
11
132.062050
21
172.402240
0
LINE
8
Layer 1
10
127.810000
20
172.402000
11
127.971271
21
172.525572
0
LINE
8
Layer 1
10
127.971271
20
172.525572
11
128.172693
21
172.498980
0
LINE
8
Layer 1
10
128.172693
20
172.498980
11
128.296370
21
172.337790
0
LINE
8
Layer 1
10
128.296370
20
172.337790
11
128.269909
21
172.136350
0
LINE
8
Layer 1
10
128.269909
20
172.136350
11
127.090859
21
170.095110
0
LINE
8
Layer 1
10
127.090859
20
170.095110
11
126.929606
21
169.972189
0
LINE
8
Layer 1
10
126.929606
20
169.972189
11
126.728610
21
169.998894
0
LINE
8
Layer 1
10
126.728610
20
169.998894
11
126.605048
21
170.159657
0
LINE
8
Layer 1
10
126.605048
20
170.159657
11
126.630953
21
170.360757
0
LINE
8
Layer 1
10
126.630953
20
170.360757
11
127.810000
21
172.402000
0
LINE
8
Layer 1
10
55.617400
20
176.110000
11
55.729652
21
175.263914
0
LINE
8
Layer 1
10
55.729652
20
175.263914
11
56.051848
21
174.488635
0
LINE
8
Layer 1
10
56.051848
20
174.488635
11
56.562163
21
173.821966
0
LINE
8
Layer 1
10
56.562163
20
173.821966
11
57.238770
21
173.301713
0
LINE
8
Layer 1
10
57.238770
20
173.301713
11
58.027626
21
172.975881
0
LINE
8
Layer 1
10
58.027626
20
172.975881
11
58.860135
21
172.867270
0
LINE
8
Layer 1
10
58.860135
20
172.867270
11
59.692644
21
172.975881
0
LINE
8
Layer 1
10
59.692644
20
172.975881
11
60.481500
21
173.301713
0
LINE
8
Layer 1
10
60.481500
20
173.301713
11
61.158107
21
173.821966
0
LINE
8
Layer 1
10
61.158107
20
173.821966
11
61.668422
21
174.488635
0
LINE
8
Layer 1
10
61.668422
20
174.488635
11
61.990616
21
175.263914
0
LINE
8
Layer 1
10
61.990616
20
175.263914
11
62.102865
21
176.110000
0
LINE
8
Layer 1
10
62.102865
20
176.110000
11
61.990615
21
176.956086
0
LINE
8
Layer 1
10
61.990615
20
176.956086
11
61.668419
21
177.731365
0
LINE
8
Layer 1
10
61.668419
20
177.731365
11
61.158105
21
178.398034
0
LINE
8
Layer 1
10
61.158105
20
178.398034
11
60.481498
21
178.918287
0
LINE
8
Layer 1
10
60.481498
20
178.918287
11
59.692642
21
179.244119
0
LINE
8
Layer 1
10
59.692642
20
179.244119
11
58.860133
21
179.352730
0
LINE
8
Layer 1
10
58.860133
20
179.352730
11
58.027623
21
179.244119
0
LINE
8
Layer 1
10
58.027623
20
179.244119
11
57.238768
21
178.918287
0
LINE
8
Layer 1
10
57.238768
20
178.918287
11
56.562160
21
178.398034
0
LINE
8
Layer 1
10
56.562160
20
178.398034
11
56.051846
21
177.731365
0
LINE
8
Layer 1
10
56.051846
20
177.731365
11
55.729651
21
176.956086
0
LINE
8
Layer 1
10
55.729651
20
176.956086
11
55.617403
21
176.110000
0
LINE
8
Layer 1
10
55.617403
20
176.110000
11
55.617400
21
176.110000
0
LINE
8
Layer 1
10
88.733100
20
172.068000
11
97.168750
21
172.058658
0
LINE
8
Layer 1
10
97.168800
20
172.059000
11
98.349660
21
172.078276
0
LINE
8
Layer 1
10
98.349600
20
172.078000
11
98.811877
21
172.177273
0
LINE
8
Layer 1
10
98.811877
20
172.177273
11
99.191029
21
172.433009
0
LINE
8
Layer 1
10
99.191029
20
172.433009
11
99.450842
21
172.809379
0
LINE
8
Layer 1
10
99.450842
20
172.809379
11
99.555099
21
173.270558
0
LINE
8
Layer 1
10
99.555099
20
173.270558
11
99.478027
21
173.737050
0
LINE
8
Layer 1
10
99.478027
20
173.737050
11
99.240699
21
174.127988
0
LINE
8
Layer 1
10
99.240699
20
174.127988
11
98.877172
21
174.405487
0
LINE
8
Layer 1
10
98.877172
20
174.405487
11
98.421502
21
174.531660
0
LINE
8
Layer 1
10
96.952000
20
176.040000
11
97.086675
21
175.475417
0
LINE
8
Layer 1
10
97.086675
20
175.475417
11
97.402598
21
175.009157
0
LINE
8
Layer 1
10
97.402598
20
175.009157
11
97.860612
21
174.681393
0
LINE
8
Layer 1
10
97.860612
20
174.681393
11
98.421560
21
174.532300
0
LINE
8
Layer 1
10
96.952000
20
176.040000
11
96.670671
21
177.280258
0
LINE
8
Layer 1
10
96.670671
20
177.280258
11
96.010252
21
178.327472
0
LINE
8
Layer 1
10
96.010252
20
178.327472
11
95.043229
21
179.100568
0
LINE
8
Layer 1
10
95.043229
20
179.100568
11
93.842086
21
179.518469
0
LINE
8
Layer 1
10
93.842086
20
179.518469
11
92.570364
21
179.508136
0
LINE
8
Layer 1
10
92.570364
20
179.508136
11
91.406390
21
179.086263
0
LINE
8
Layer 1
10
91.406390
20
179.086263
11
90.444836
21
178.306376
0
LINE
8
Layer 1
10
90.444836
20
178.306376
11
89.780370
21
177.222000
0
LINE
8
Layer 1
10
88.244900
20
176.217000
11
88.733583
21
176.276548
0
LINE
8
Layer 1
10
88.733583
20
176.276548
11
89.171599
21
176.476448
0
LINE
8
Layer 1
10
89.171599
20
176.476448
11
89.530113
21
176.797829
0
LINE
8
Layer 1
10
89.530113
20
176.797829
11
89.780290
21
177.221820
0
LINE
8
Layer 1
10
88.244900
20
176.217000
11
87.504765
21
176.105542
0
LINE
8
Layer 1
10
87.504765
20
176.105542
11
86.871677
21
175.749850
0
LINE
8
Layer 1
10
86.871677
20
175.749850
11
86.401783
21
175.196212
0
LINE
8
Layer 1
10
86.401783
20
175.196212
11
86.151227
21
174.490914
0
LINE
8
Layer 1
10
86.151227
20
174.490914
11
86.169860
21
173.742665
0
LINE
8
Layer 1
10
86.169860
20
173.742665
11
86.444135
21
173.070290
0
LINE
8
Layer 1
10
86.444135
20
173.070290
11
86.935099
21
172.535248
0
LINE
8
Layer 1
10
86.935099
20
172.535248
11
87.603800
21
172.199000
0
LINE
8
Layer 1
10
87.603800
20
172.199000
11
88.733100
21
172.068461
0
LINE
8
Layer 1
10
98.462500
20
175.062000
11
99.070214
21
174.902525
0
LINE
8
Layer 1
10
99.070214
20
174.902525
11
99.322553
21
175.718794
0
LINE
8
Layer 1
10
99.322553
20
175.718794
11
99.345647
21
176.557849
0
LINE
8
Layer 1
10
99.345647
20
176.557849
11
99.144547
21
177.372775
0
LINE
8
Layer 1
10
99.144547
20
177.372775
11
98.724301
21
178.116658
0
LINE
8
Layer 1
10
98.724301
20
178.116658
11
98.118260
21
178.718891
0
LINE
8
Layer 1
10
98.118260
20
178.718891
11
97.385681
21
179.128615
0
LINE
8
Layer 1
10
97.385681
20
179.128615
11
96.570464
21
179.328537
0
LINE
8
Layer 1
10
96.570464
20
179.328537
11
95.716514
21
179.301365
0
LINE
8
Layer 1
10
95.716514
20
179.301365
11
96.425963
21
178.659555
0
LINE
8
Layer 1
10
96.425963
20
178.659555
11
96.968299
21
177.885569
0
LINE
8
Layer 1
10
96.968299
20
177.885569
11
97.326313
21
177.010921
0
LINE
8
Layer 1
10
97.326313
20
177.010921
11
97.482794
21
176.067125
0
LINE
8
Layer 1
10
97.482794
20
176.067125
11
97.783192
21
175.379899
0
LINE
8
Layer 1
10
97.783192
20
175.379899
11
98.462497
21
175.061995
0
LINE
8
Layer 1
10
98.462497
20
175.061995
11
98.462500
21
175.062000
0
LINE
8
Layer 1
10
122.514000
20
175.690000
11
122.628179
21
175.074412
0
LINE
8
Layer 1
10
122.628179
20
175.074412
11
122.840926
21
174.592258
0
LINE
8
Layer 1
10
122.840926
20
174.592258
11
123.130390
21
174.220549
0
LINE
8
Layer 1
10
123.130390
20
174.220549
11
123.483802
21
173.941395
0
LINE
8
Layer 1
10
123.483802
20
173.941395
11
124.329260
21
173.635514
0
LINE
8
Layer 1
10
124.329260
20
173.635514
11
125.215451
21
173.653802
0
LINE
8
Layer 1
10
125.216000
20
173.653000
11
127.802200
21
173.969001
0
LINE
8
Layer 1
10
127.802200
20
173.969001
11
130.386450
21
173.978032
0
LINE
8
Layer 1
10
130.386450
20
173.978032
11
132.958500
21
173.833836
0
LINE
8
Layer 1
10
132.958500
20
173.833836
11
135.509560
21
173.684783
0
LINE
8
Layer 1
10
135.509000
20
173.685000
11
136.028041
21
173.767342
0
LINE
8
Layer 1
10
136.028041
20
173.767342
11
136.461171
21
174.031985
0
LINE
8
Layer 1
10
136.461171
20
174.031985
11
136.764533
21
174.438936
0
LINE
8
Layer 1
10
136.764533
20
174.438936
11
136.894269
21
174.948201
0
LINE
8
Layer 1
10
136.894269
20
174.948201
11
136.817778
21
175.468136
0
LINE
8
Layer 1
10
136.817778
20
175.468136
11
136.558031
21
175.904220
0
LINE
8
Layer 1
10
136.558031
20
175.904220
11
136.154522
21
176.212146
0
LINE
8
Layer 1
10
136.154522
20
176.212146
11
135.646750
21
176.347610
0
LINE
8
Layer 1
10
134.154000
20
177.869000
11
134.288198
21
177.295147
0
LINE
8
Layer 1
10
134.288198
20
177.295147
11
134.609207
21
176.822470
0
LINE
8
Layer 1
10
134.609207
20
176.822470
11
135.075915
21
176.492843
0
LINE
8
Layer 1
10
135.075915
20
176.492843
11
135.647210
21
176.348140
0
LINE
8
Layer 1
10
134.154000
20
177.869000
11
133.857544
21
179.215674
0
LINE
8
Layer 1
10
133.857544
20
179.215674
11
133.146765
21
180.353998
0
LINE
8
Layer 1
10
133.146765
20
180.353998
11
132.100807
21
181.194806
0
LINE
8
Layer 1
10
132.100807
20
181.194806
11
130.798815
21
181.648935
0
LINE
8
Layer 1
10
130.798815
20
181.648935
11
129.419956
21
181.636134
0
LINE
8
Layer 1
10
129.419956
20
181.636134
11
128.159666
21
181.174985
0
LINE
8
Layer 1
10
128.159666
20
181.174985
11
127.121498
21
180.324578
0
LINE
8
Layer 1
10
127.121498
20
180.324578
11
126.409000
21
179.144000
0
LINE
8
Layer 1
10
124.859000
20
178.128000
11
125.353699
21
178.185856
0
LINE
8
Layer 1
10
125.353699
20
178.185856
11
125.796890
21
178.387441
0
LINE
8
Layer 1
10
125.796890
20
178.387441
11
126.158734
21
178.713208
0
LINE
8
Layer 1
10
126.158734
20
178.713208
11
126.409390
21
179.143610
0
LINE
8
Layer 1
10
124.859000
20
178.128000
11
123.924436
21
177.966478
0
LINE
8
Layer 1
10
123.924436
20
177.966478
11
123.138360
21
177.435834
0
LINE
8
Layer 1
10
123.138360
20
177.435834
11
122.639111
21
176.629454
0
LINE
8
Layer 1
10
122.639111
20
176.629454
11
122.514550
21
175.689250
 0 
ENDSEC
 0 
EOF